<?xml version="1.0" encoding="UTF-8"?>
<svg width="12in" height="9in" viewBox="0 0 10000 10000" version="1.1" id="svg6" sodipodi:docname="test_inkscape.svg" inkscape:version="1.3.2 (091e20e, 2023-11-25, custom)" xmlns:inkscape="http://www.inkscape.org/namespaces/inkscape" xmlns:sodipodi="http://sodipodi.sourceforge.net/DTD/sodipodi-0.dtd" xmlns="http://www.w3.org/2000/svg" xmlns:svg="http://www.w3.org/2000/svg"><g inkscape:groupmode="layer" inkscape:label="0 - frame" id="g5" transform="translate(0.0 0.0)"><path d="M 1000.0 1000.0 L 1000.0 9000.0 L 9000.0 9000.0 L 9000.0 1000.0 L 1000.0 1000.0" stroke="black" fill="none" stroke-width="3" stroke-opacity="0.5"/></g>
    <g inkscape:groupmode="layer" inkscape:label="1 - black" id="g5" transform="translate(0.0 0.0)"><circle r="30.0" cx="4622.0" cy="2289.4" fill="none" stroke-width="20.0" stroke="black"/>
        <circle r="15.0" cx="4754.8" cy="2258.8" fill="none" stroke-width="20.0" stroke="black"/>
        <circle r="30.0" cx="4880.8" cy="2258.8" fill="none" stroke-width="20.0" stroke="black"/>
        <circle r="15.0" cx="5098.8" cy="2258.8" fill="none" stroke-width="20.0" stroke="black"/>
        <circle r="30.0" cx="5296.3" cy="2388.2" fill="none" stroke-width="20.0" stroke="black"/>
        <circle r="15.0" cx="5486.9" cy="2514.2" fill="none" stroke-width="20.0" stroke="black"/>
        <circle r="30.0" cx="5486.9" cy="2643.6" fill="none" stroke-width="20.0" stroke="black"/>
        <circle r="15.0" cx="5486.9" cy="2742.3" fill="none" stroke-width="20.0" stroke="black"/>
        <circle r="30.0" cx="5418.8" cy="2844.5" fill="none" stroke-width="20.0" stroke="black"/>
        <circle r="15.0" cx="5408.6" cy="2858.1" fill="none" stroke-width="20.0" stroke="black"/>
        <circle r="30.0" cx="5289.4" cy="3042.0" fill="none" stroke-width="20.0" stroke="black"/>
        <circle r="15.0" cx="4853.6" cy="2936.4" fill="none" stroke-width="20.0" stroke="black"/>
        <circle r="30.0" cx="4853.6" cy="2769.6" fill="none" stroke-width="20.0" stroke="black"/>
        <circle r="15.0" cx="4853.6" cy="2534.6" fill="none" stroke-width="20.0" stroke="black"/>
        <circle r="30.0" cx="4530.1" cy="2510.8" fill="none" stroke-width="20.0" stroke="black"/>
        <circle r="15.0" cx="5006.8" cy="3481.3" fill="none" stroke-width="20.0" stroke="black"/>
        <circle r="30.0" cx="4955.7" cy="3556.2" fill="none" stroke-width="20.0" stroke="black"/>
        <circle r="30.0" cx="4475.6" cy="3641.3" fill="none" stroke-width="20.0" stroke="black"/>
        <circle r="15.0" cx="4193.0" cy="3682.2" fill="none" stroke-width="20.0" stroke="black"/>
        <circle r="30.0" cx="3968.2" cy="3682.2" fill="none" stroke-width="20.0" stroke="black"/>
        <circle r="30.0" cx="4043.1" cy="4039.7" fill="none" stroke-width="20.0" stroke="black"/>
        <circle r="15.0" cx="4118.0" cy="4039.7" fill="none" stroke-width="20.0" stroke="black"/>
        <circle r="30.0" cx="4250.9" cy="4032.9" fill="none" stroke-width="20.0" stroke="black"/>
        <circle r="30.0" cx="4611.8" cy="4073.8" fill="none" stroke-width="20.0" stroke="black"/>
        <circle r="30.0" cx="4669.7" cy="3988.6" fill="none" stroke-width="20.0" stroke="black"/>
        <circle r="15.0" cx="4465.4" cy="4693.5" fill="none" stroke-width="20.0" stroke="black"/>
        <circle r="15.0" cx="4148.7" cy="4754.8" fill="none" stroke-width="20.0" stroke="black"/>
        <circle r="15.0" cx="4019.3" cy="4424.5" fill="none" stroke-width="20.0" stroke="black"/>
        <circle r="30.0" cx="3780.9" cy="4734.4" fill="none" stroke-width="20.0" stroke="black"/>
        <circle r="15.0" cx="3726.5" cy="4802.5" fill="none" stroke-width="20.0" stroke="black"/>
        <circle r="30.0" cx="3692.4" cy="4846.8" fill="none" stroke-width="20.0" stroke="black"/>
        <circle r="30.0" cx="3883.1" cy="5112.4" fill="none" stroke-width="20.0" stroke="black"/>
        <circle r="15.0" cx="4036.3" cy="5384.8" fill="none" stroke-width="20.0" stroke="black"/>
        <circle r="30.0" cx="4264.5" cy="5245.2" fill="none" stroke-width="20.0" stroke="black"/>
        <circle r="15.0" cx="4652.7" cy="5006.8" fill="none" stroke-width="20.0" stroke="black"/>
        <circle r="30.0" cx="4887.6" cy="5006.8" fill="none" stroke-width="20.0" stroke="black"/>
        <circle r="15.0" cx="5180.5" cy="5006.8" fill="none" stroke-width="20.0" stroke="black"/>
        <circle r="30.0" cx="5330.3" cy="5231.5" fill="none" stroke-width="20.0" stroke="black"/>
        <circle r="15.0" cx="5418.8" cy="5367.8" fill="none" stroke-width="20.0" stroke="black"/>
        <circle r="30.0" cx="5486.9" cy="5623.2" fill="none" stroke-width="20.0" stroke="black"/>
        <circle r="30.0" cx="5521.0" cy="6018.2" fill="none" stroke-width="20.0" stroke="black"/>
        <circle r="15.0" cx="5527.8" cy="6185.0" fill="none" stroke-width="20.0" stroke="black"/>
        <circle r="30.0" cx="5527.8" cy="6304.2" fill="none" stroke-width="20.0" stroke="black"/>
        <circle r="15.0" cx="5527.8" cy="6682.2" fill="none" stroke-width="20.0" stroke="black"/>
        <circle r="30.0" cx="5531.2" cy="6716.2" fill="none" stroke-width="20.0" stroke="black"/>
        <circle r="15.0" cx="5538.0" cy="6821.8" fill="none" stroke-width="20.0" stroke="black"/>
        <circle r="30.0" cx="5572.1" cy="6896.7" fill="none" stroke-width="20.0" stroke="black"/>
        <circle r="15.0" cx="5630.0" cy="7015.9" fill="none" stroke-width="20.0" stroke="black"/>
        <circle r="30.0" cx="5773.0" cy="7015.9" fill="none" stroke-width="20.0" stroke="black"/>
        <circle r="15.0" cx="5895.6" cy="7015.9" fill="none" stroke-width="20.0" stroke="black"/>
        <circle r="30.0" cx="6001.1" cy="6872.9" fill="none" stroke-width="20.0" stroke="black"/>
        <circle r="15.0" cx="6106.7" cy="6729.8" fill="none" stroke-width="20.0" stroke="black"/>
        <circle r="30.0" cx="6106.7" cy="6501.7" fill="none" stroke-width="20.0" stroke="black"/>
        <circle r="15.0" cx="6106.7" cy="6181.6" fill="none" stroke-width="20.0" stroke="black"/>
        <circle r="30.0" cx="6031.8" cy="5810.4" fill="none" stroke-width="20.0" stroke="black"/>
        <circle r="30.0" cx="5926.2" cy="5425.7" fill="none" stroke-width="20.0" stroke="black"/>
        <circle r="15.0" cx="6467.7" cy="5194.1" fill="none" stroke-width="20.0" stroke="black"/>
        <circle r="30.0" cx="6791.2" cy="5078.3" fill="none" stroke-width="20.0" stroke="black"/>
        <circle r="15.0" cx="7196.4" cy="4931.9" fill="none" stroke-width="20.0" stroke="black"/>
        <circle r="30.0" cx="7196.4" cy="4765.0" fill="none" stroke-width="20.0" stroke="black"/>
        <circle r="15.0" cx="7196.4" cy="4669.7" fill="none" stroke-width="20.0" stroke="black"/>
        <circle r="30.0" cx="7043.1" cy="4567.5" fill="none" stroke-width="20.0" stroke="black"/>
        <circle r="30.0" cx="7250.9" cy="4427.9" fill="none" stroke-width="20.0" stroke="black"/>
        <circle r="15.0" cx="7863.8" cy="4717.4" fill="none" stroke-width="20.0" stroke="black"/>
        <circle r="30.0" cx="7863.8" cy="5020.4" fill="none" stroke-width="20.0" stroke="black"/>
        <circle r="15.0" cx="7863.8" cy="5156.6" fill="none" stroke-width="20.0" stroke="black"/>
        <circle r="30.0" cx="7642.5" cy="5258.8" fill="none" stroke-width="20.0" stroke="black"/>
        <circle r="15.0" cx="7438.1" cy="5350.7" fill="none" stroke-width="20.0" stroke="black"/>
        <circle r="30.0" cx="7032.9" cy="5463.1" fill="none" stroke-width="20.0" stroke="black"/>
        <circle r="15.0" cx="6702.6" cy="5551.6" fill="none" stroke-width="20.0" stroke="black"/>
        <circle r="15.0" cx="5612.9" cy="4693.5" fill="none" stroke-width="20.0" stroke="black"/>
        <circle r="30.0" cx="4986.4" cy="4693.5" fill="none" stroke-width="20.0" stroke="black"/>
        <circle r="15.0" cx="5664.0" cy="3835.4" fill="none" stroke-width="20.0" stroke="black"/>
        <circle r="15.0" cx="5521.0" cy="3430.2" fill="none" stroke-width="20.0" stroke="black"/>
        <circle r="30.0" cx="5752.6" cy="3222.5" fill="none" stroke-width="20.0" stroke="black"/>
        <circle r="15.0" cx="5899.0" cy="3089.7" fill="none" stroke-width="20.0" stroke="black"/>
        <circle r="30.0" cx="6113.5" cy="3089.7" fill="none" stroke-width="20.0" stroke="black"/>
        <circle r="15.0" cx="6266.8" cy="3089.7" fill="none" stroke-width="20.0" stroke="black"/>
        <circle r="30.0" cx="6399.5" cy="3157.8" fill="none" stroke-width="20.0" stroke="black"/>
        <circle r="15.0" cx="6532.4" cy="3229.3" fill="none" stroke-width="20.0" stroke="black"/>
        <circle r="30.0" cx="6532.4" cy="3311.0" fill="none" stroke-width="20.0" stroke="black"/>
        <circle r="15.0" cx="6532.4" cy="3464.2" fill="none" stroke-width="20.0" stroke="black"/>
        <circle r="30.0" cx="6317.8" cy="3559.6" fill="none" stroke-width="20.0" stroke="black"/>
        <circle r="15.0" cx="3580.0" cy="3682.2" fill="none" stroke-width="20.0" stroke="black"/>
        <circle r="30.0" cx="3358.7" cy="3804.8" fill="none" stroke-width="20.0" stroke="black"/>
        <circle r="15.0" cx="3266.7" cy="3716.2" fill="none" stroke-width="20.0" stroke="black"/>
        <circle r="30.0" cx="3171.4" cy="3556.2" fill="none" stroke-width="20.0" stroke="black"/>
        <circle r="30.0" cx="3345.1" cy="3355.3" fill="none" stroke-width="20.0" stroke="black"/>
        <circle r="15.0" cx="3603.9" cy="4039.7" fill="none" stroke-width="20.0" stroke="black"/>
        <circle r="15.0" cx="3464.2" cy="5160.0" fill="none" stroke-width="20.0" stroke="black"/>
        <circle r="30.0" cx="3379.1" cy="5258.8" fill="none" stroke-width="20.0" stroke="black"/>
        <circle r="15.0" cx="3225.9" cy="5435.9" fill="none" stroke-width="20.0" stroke="black"/>
        <circle r="30.0" cx="3225.9" cy="5572.1" fill="none" stroke-width="20.0" stroke="black"/>
        <circle r="15.0" cx="3225.9" cy="5749.1" fill="none" stroke-width="20.0" stroke="black"/>
        <circle r="30.0" cx="3314.4" cy="5875.1" fill="none" stroke-width="20.0" stroke="black"/>
        <circle r="15.0" cx="3403.0" cy="6011.4" fill="none" stroke-width="20.0" stroke="black"/>
        <circle r="30.0" cx="3518.7" cy="6011.4" fill="none" stroke-width="20.0" stroke="black"/>
        <circle r="15.0" cx="3651.5" cy="6011.4" fill="none" stroke-width="20.0" stroke="black"/>
        <circle r="30.0" cx="3706.0" cy="5885.3" fill="none" stroke-width="20.0" stroke="black"/>
        <circle r="15.0" cx="3750.3" cy="5793.4" fill="none" stroke-width="20.0" stroke="black"/>
        <circle r="30.0" cx="3811.6" cy="5704.9" fill="none" stroke-width="20.0" stroke="black"/>
        <circle r="30.0" cx="4298.5" cy="6317.8" fill="none" stroke-width="20.0" stroke="black"/>
        <circle r="30.0" cx="4509.7" cy="6590.2" fill="none" stroke-width="20.0" stroke="black"/>
        <circle r="15.0" cx="4182.8" cy="6876.3" fill="none" stroke-width="20.0" stroke="black"/>
        <circle r="30.0" cx="4182.8" cy="7213.4" fill="none" stroke-width="20.0" stroke="black"/>
        <circle r="15.0" cx="4182.8" cy="7462.0" fill="none" stroke-width="20.0" stroke="black"/>
        <circle r="30.0" cx="4509.7" cy="7615.2" fill="none" stroke-width="20.0" stroke="black"/>
        <circle r="30.0" cx="4363.2" cy="8030.7" fill="none" stroke-width="20.0" stroke="black"/>
        <circle r="15.0" cx="4846.8" cy="8258.8" fill="none" stroke-width="20.0" stroke="black"/>
        <circle r="15.0" cx="4938.7" cy="7819.5" fill="none" stroke-width="20.0" stroke="black"/>
        <circle r="30.0" cx="5725.3" cy="7819.5" fill="none" stroke-width="20.0" stroke="black"/>
        <circle r="30.0" cx="5721.9" cy="8258.8" fill="none" stroke-width="20.0" stroke="black"/>
        <circle r="15.0" cx="6685.6" cy="8258.8" fill="none" stroke-width="20.0" stroke="black"/>
        <circle r="15.0" cx="6627.7" cy="7819.5" fill="none" stroke-width="20.0" stroke="black"/>
        <circle r="30.0" cx="6930.8" cy="7659.5" fill="none" stroke-width="20.0" stroke="black"/>
        <circle r="15.0" cx="7060.2" cy="7588.0" fill="none" stroke-width="20.0" stroke="black"/>
        <circle r="30.0" cx="7206.6" cy="7588.0" fill="none" stroke-width="20.0" stroke="black"/>
        <circle r="15.0" cx="7393.9" cy="7588.0" fill="none" stroke-width="20.0" stroke="black"/>
        <circle r="30.0" cx="7533.5" cy="7683.3" fill="none" stroke-width="20.0" stroke="black"/>
        <circle r="15.0" cx="7676.5" cy="7778.7" fill="none" stroke-width="20.0" stroke="black"/>
        <circle r="30.0" cx="7676.5" cy="7904.7" fill="none" stroke-width="20.0" stroke="black"/>
        <circle r="15.0" cx="7676.5" cy="8092.0" fill="none" stroke-width="20.0" stroke="black"/>
        <circle r="30.0" cx="7281.5" cy="8160.1" fill="none" stroke-width="20.0" stroke="black"/>
        <circle r="15.0" cx="4829.7" cy="6314.4" fill="none" stroke-width="20.0" stroke="black"/>
        <circle r="15.0" cx="4679.9" cy="6001.1" fill="none" stroke-width="20.0" stroke="black"/>
        <circle r="15.0" cx="3798.0" cy="6729.8" fill="none" stroke-width="20.0" stroke="black"/>
        <circle r="30.0" cx="3798.0" cy="7244.0" fill="none" stroke-width="20.0" stroke="black"/>
        <circle r="15.0" cx="3798.0" cy="7761.6" fill="none" stroke-width="20.0" stroke="black"/>
    </g>
    <g inkscape:groupmode="layer" inkscape:label="2 - red" id="g5" transform="translate(0.0 0.0)"><path d="M 4622.0 2289.4 Q 4754.8 2258.8, 4880.8 2258.8 Q 5098.8 2258.8, 5296.3 2388.2 Q 5486.9 2514.2, 5486.9 2643.6 Q 5486.9 2742.3, 5418.8 2844.5 Q 5408.6 2858.1, 5289.4 3042.0 Q 5006.8 3481.3, 4955.7 3556.2 Q 5521.0 3430.2, 5752.6 3222.5 Q 5899.0 3089.7, 6113.5 3089.7 Q 6266.8 3089.7, 6399.5 3157.8 Q 6532.4 3229.3, 6532.4 3311.0 Q 6532.4 3464.2, 6317.8 3559.6 Q 5664.0 3835.4, 4669.7 3988.6 L 4611.8 4073.8 Q 4148.7 4754.8, 3883.1 5112.4 Q 4465.4 4693.5, 4986.4 4693.5 Q 5612.9 4693.5, 5926.2 5425.7 Q 6467.7 5194.1, 6791.2 5078.3 Q 7196.4 4931.9, 7196.4 4765.0 Q 7196.4 4669.7, 7043.1 4567.5 L 7250.9 4427.9 Q 7863.8 4717.4, 7863.8 5020.4 Q 7863.8 5156.6, 7642.5 5258.8 Q 7438.1 5350.7, 7032.9 5463.1 Q 6702.6 5551.6, 6031.8 5810.4 Q 6106.7 6181.6, 6106.7 6501.7 Q 6106.7 6729.8, 6001.1 6872.9 Q 5895.6 7015.9, 5773.0 7015.9 Q 5630.0 7015.9, 5572.1 6896.7 Q 5538.0 6821.8, 5531.2 6716.2 Q 5527.8 6682.2, 5527.8 6304.2 Q 5527.8 6185.0, 5521.0 6018.2 Q 4829.7 6314.4, 4509.7 6590.2 Q 4182.8 6876.3, 4182.8 7213.4 Q 4182.8 7462.0, 4509.7 7615.2 Q 4938.7 7819.5, 5725.3 7819.5 Q 6627.7 7819.5, 6930.8 7659.5 Q 7060.2 7588.0, 7206.6 7588.0 Q 7393.9 7588.0, 7533.5 7683.3 Q 7676.5 7778.7, 7676.5 7904.7 Q 7676.5 8092.0, 7281.5 8160.1 Q 6685.6 8258.8, 5721.9 8258.8 Q 4846.8 8258.8, 4363.2 8030.7 Q 3798.0 7761.6, 3798.0 7244.0 Q 3798.0 6729.8, 4298.5 6317.8 Q 4679.9 6001.1, 5486.9 5623.2 Q 5418.8 5367.8, 5330.3 5231.5 Q 5180.5 5006.8, 4887.6 5006.8 Q 4652.7 5006.8, 4264.5 5245.2 Q 4036.3 5384.8, 3811.6 5704.9 Q 3750.3 5793.4, 3706.0 5885.3 Q 3651.5 6011.4, 3518.7 6011.4 Q 3403.0 6011.4, 3314.4 5875.1 Q 3225.9 5749.1, 3225.9 5572.1 Q 3225.9 5435.9, 3379.1 5258.8 Q 3464.2 5160.0, 3692.4 4846.8 Q 3726.5 4802.5, 3780.9 4734.4 Q 4019.3 4424.5, 4250.9 4032.9 Q 4118.0 4039.7, 4043.1 4039.7 Q 3603.9 4039.7, 3358.7 3804.8 Q 3266.7 3716.2, 3171.4 3556.2 L 3345.1 3355.3 Q 3580.0 3682.2, 3968.2 3682.2 Q 4193.0 3682.2, 4475.6 3641.3 Q 4853.6 2936.4, 4853.6 2769.6 Q 4853.6 2534.6, 4530.1 2510.8 L 4622.0 2289.4" stroke="red" fill="none" stroke-width="20.0" stroke-opacity="0.5"/></g>
    <g inkscape:groupmode="layer" inkscape:label="3 - GUIDELINES-pen" id="g5" transform="translate(0.0 0.0)"><line x1="1300.0" x2="1300.0" y1="225.0" y2="300.0" stroke="black" fill="none" stroke-width="3"/>
        <line x1="1325.0" x2="1325.0" y1="225.0" y2="300.0" stroke="black" fill="none" stroke-width="3"/>
        <line x1="1350.0" x2="1350.0" y1="225.0" y2="300.0" stroke="black" fill="none" stroke-width="3"/>
        <line x1="1375.0" x2="1375.0" y1="225.0" y2="300.0" stroke="black" fill="none" stroke-width="3"/>
        <line x1="1400.0" x2="1400.0" y1="225.0" y2="300.0" stroke="black" fill="none" stroke-width="3"/>
        <line x1="1425.0" x2="1425.0" y1="225.0" y2="300.0" stroke="black" fill="none" stroke-width="3"/>
        <line x1="1450.0" x2="1450.0" y1="225.0" y2="300.0" stroke="black" fill="none" stroke-width="3"/>
        <line x1="1475.0" x2="1475.0" y1="225.0" y2="300.0" stroke="black" fill="none" stroke-width="3"/>
        <line x1="1500.0" x2="1500.0" y1="200.0" y2="300.0" stroke="black" fill="none" stroke-width="3"/>
        <line x1="1525.0" x2="1525.0" y1="225.0" y2="300.0" stroke="black" fill="none" stroke-width="3"/>
        <line x1="1550.0" x2="1550.0" y1="225.0" y2="300.0" stroke="black" fill="none" stroke-width="3"/>
        <line x1="1575.0" x2="1575.0" y1="225.0" y2="300.0" stroke="black" fill="none" stroke-width="3"/>
        <line x1="1600.0" x2="1600.0" y1="225.0" y2="300.0" stroke="black" fill="none" stroke-width="3"/>
        <line x1="1625.0" x2="1625.0" y1="225.0" y2="300.0" stroke="black" fill="none" stroke-width="3"/>
        <line x1="1650.0" x2="1650.0" y1="225.0" y2="300.0" stroke="black" fill="none" stroke-width="3"/>
        <line x1="1675.0" x2="1675.0" y1="225.0" y2="300.0" stroke="black" fill="none" stroke-width="3"/>
        <line x1="1700.0" x2="1700.0" y1="225.0" y2="300.0" stroke="black" fill="none" stroke-width="3"/>
        <line x1="1300.0" x2="1300.0" y1="700.0" y2="775.0" stroke="black" fill="none" stroke-width="3"/>
        <line x1="1325.0" x2="1325.0" y1="700.0" y2="775.0" stroke="black" fill="none" stroke-width="3"/>
        <line x1="1350.0" x2="1350.0" y1="700.0" y2="775.0" stroke="black" fill="none" stroke-width="3"/>
        <line x1="1375.0" x2="1375.0" y1="700.0" y2="775.0" stroke="black" fill="none" stroke-width="3"/>
        <line x1="1400.0" x2="1400.0" y1="700.0" y2="775.0" stroke="black" fill="none" stroke-width="3"/>
        <line x1="1425.0" x2="1425.0" y1="700.0" y2="775.0" stroke="black" fill="none" stroke-width="3"/>
        <line x1="1450.0" x2="1450.0" y1="700.0" y2="775.0" stroke="black" fill="none" stroke-width="3"/>
        <line x1="1475.0" x2="1475.0" y1="700.0" y2="775.0" stroke="black" fill="none" stroke-width="3"/>
        <line x1="1500.0" x2="1500.0" y1="700.0" y2="800.0" stroke="black" fill="none" stroke-width="3"/>
        <line x1="1525.0" x2="1525.0" y1="700.0" y2="775.0" stroke="black" fill="none" stroke-width="3"/>
        <line x1="1550.0" x2="1550.0" y1="700.0" y2="775.0" stroke="black" fill="none" stroke-width="3"/>
        <line x1="1575.0" x2="1575.0" y1="700.0" y2="775.0" stroke="black" fill="none" stroke-width="3"/>
        <line x1="1600.0" x2="1600.0" y1="700.0" y2="775.0" stroke="black" fill="none" stroke-width="3"/>
        <line x1="1625.0" x2="1625.0" y1="700.0" y2="775.0" stroke="black" fill="none" stroke-width="3"/>
        <line x1="1650.0" x2="1650.0" y1="700.0" y2="775.0" stroke="black" fill="none" stroke-width="3"/>
        <line x1="1675.0" x2="1675.0" y1="700.0" y2="775.0" stroke="black" fill="none" stroke-width="3"/>
        <line x1="1700.0" x2="1700.0" y1="700.0" y2="775.0" stroke="black" fill="none" stroke-width="3"/>
        <line x1="1225.0" x2="1300.0" y1="300.0" y2="300.0" stroke="black" fill="none" stroke-width="3"/>
        <line x1="1225.0" x2="1300.0" y1="325.0" y2="325.0" stroke="black" fill="none" stroke-width="3"/>
        <line x1="1225.0" x2="1300.0" y1="350.0" y2="350.0" stroke="black" fill="none" stroke-width="3"/>
        <line x1="1225.0" x2="1300.0" y1="375.0" y2="375.0" stroke="black" fill="none" stroke-width="3"/>
        <line x1="1225.0" x2="1300.0" y1="400.0" y2="400.0" stroke="black" fill="none" stroke-width="3"/>
        <line x1="1225.0" x2="1300.0" y1="425.0" y2="425.0" stroke="black" fill="none" stroke-width="3"/>
        <line x1="1225.0" x2="1300.0" y1="450.0" y2="450.0" stroke="black" fill="none" stroke-width="3"/>
        <line x1="1225.0" x2="1300.0" y1="475.0" y2="475.0" stroke="black" fill="none" stroke-width="3"/>
        <line x1="1200.0" x2="1300.0" y1="500.0" y2="500.0" stroke="black" fill="none" stroke-width="3"/>
        <line x1="1225.0" x2="1300.0" y1="525.0" y2="525.0" stroke="black" fill="none" stroke-width="3"/>
        <line x1="1225.0" x2="1300.0" y1="550.0" y2="550.0" stroke="black" fill="none" stroke-width="3"/>
        <line x1="1225.0" x2="1300.0" y1="575.0" y2="575.0" stroke="black" fill="none" stroke-width="3"/>
        <line x1="1225.0" x2="1300.0" y1="600.0" y2="600.0" stroke="black" fill="none" stroke-width="3"/>
        <line x1="1225.0" x2="1300.0" y1="625.0" y2="625.0" stroke="black" fill="none" stroke-width="3"/>
        <line x1="1225.0" x2="1300.0" y1="650.0" y2="650.0" stroke="black" fill="none" stroke-width="3"/>
        <line x1="1225.0" x2="1300.0" y1="675.0" y2="675.0" stroke="black" fill="none" stroke-width="3"/>
        <line x1="1225.0" x2="1300.0" y1="700.0" y2="700.0" stroke="black" fill="none" stroke-width="3"/>
        <line x1="1700.0" x2="1775.0" y1="300.0" y2="300.0" stroke="black" fill="none" stroke-width="3"/>
        <line x1="1700.0" x2="1775.0" y1="325.0" y2="325.0" stroke="black" fill="none" stroke-width="3"/>
        <line x1="1700.0" x2="1775.0" y1="350.0" y2="350.0" stroke="black" fill="none" stroke-width="3"/>
        <line x1="1700.0" x2="1775.0" y1="375.0" y2="375.0" stroke="black" fill="none" stroke-width="3"/>
        <line x1="1700.0" x2="1775.0" y1="400.0" y2="400.0" stroke="black" fill="none" stroke-width="3"/>
        <line x1="1700.0" x2="1775.0" y1="425.0" y2="425.0" stroke="black" fill="none" stroke-width="3"/>
        <line x1="1700.0" x2="1775.0" y1="450.0" y2="450.0" stroke="black" fill="none" stroke-width="3"/>
        <line x1="1700.0" x2="1775.0" y1="475.0" y2="475.0" stroke="black" fill="none" stroke-width="3"/>
        <line x1="1700.0" x2="1800.0" y1="500.0" y2="500.0" stroke="black" fill="none" stroke-width="3"/>
        <line x1="1700.0" x2="1775.0" y1="525.0" y2="525.0" stroke="black" fill="none" stroke-width="3"/>
        <line x1="1700.0" x2="1775.0" y1="550.0" y2="550.0" stroke="black" fill="none" stroke-width="3"/>
        <line x1="1700.0" x2="1775.0" y1="575.0" y2="575.0" stroke="black" fill="none" stroke-width="3"/>
        <line x1="1700.0" x2="1775.0" y1="600.0" y2="600.0" stroke="black" fill="none" stroke-width="3"/>
        <line x1="1700.0" x2="1775.0" y1="625.0" y2="625.0" stroke="black" fill="none" stroke-width="3"/>
        <line x1="1700.0" x2="1775.0" y1="650.0" y2="650.0" stroke="black" fill="none" stroke-width="3"/>
        <line x1="1700.0" x2="1775.0" y1="675.0" y2="675.0" stroke="black" fill="none" stroke-width="3"/>
        <line x1="1700.0" x2="1775.0" y1="700.0" y2="700.0" stroke="black" fill="none" stroke-width="3"/>
        <line x1="2300.0" x2="2300.0" y1="225.0" y2="300.0" stroke="black" fill="none" stroke-width="3"/>
        <line x1="2325.0" x2="2325.0" y1="225.0" y2="300.0" stroke="black" fill="none" stroke-width="3"/>
        <line x1="2350.0" x2="2350.0" y1="225.0" y2="300.0" stroke="black" fill="none" stroke-width="3"/>
        <line x1="2375.0" x2="2375.0" y1="225.0" y2="300.0" stroke="black" fill="none" stroke-width="3"/>
        <line x1="2400.0" x2="2400.0" y1="225.0" y2="300.0" stroke="black" fill="none" stroke-width="3"/>
        <line x1="2425.0" x2="2425.0" y1="225.0" y2="300.0" stroke="black" fill="none" stroke-width="3"/>
        <line x1="2450.0" x2="2450.0" y1="225.0" y2="300.0" stroke="black" fill="none" stroke-width="3"/>
        <line x1="2475.0" x2="2475.0" y1="225.0" y2="300.0" stroke="black" fill="none" stroke-width="3"/>
        <line x1="2500.0" x2="2500.0" y1="200.0" y2="300.0" stroke="black" fill="none" stroke-width="3"/>
        <line x1="2525.0" x2="2525.0" y1="225.0" y2="300.0" stroke="black" fill="none" stroke-width="3"/>
        <line x1="2550.0" x2="2550.0" y1="225.0" y2="300.0" stroke="black" fill="none" stroke-width="3"/>
        <line x1="2575.0" x2="2575.0" y1="225.0" y2="300.0" stroke="black" fill="none" stroke-width="3"/>
        <line x1="2600.0" x2="2600.0" y1="225.0" y2="300.0" stroke="black" fill="none" stroke-width="3"/>
        <line x1="2625.0" x2="2625.0" y1="225.0" y2="300.0" stroke="black" fill="none" stroke-width="3"/>
        <line x1="2650.0" x2="2650.0" y1="225.0" y2="300.0" stroke="black" fill="none" stroke-width="3"/>
        <line x1="2675.0" x2="2675.0" y1="225.0" y2="300.0" stroke="black" fill="none" stroke-width="3"/>
        <line x1="2700.0" x2="2700.0" y1="225.0" y2="300.0" stroke="black" fill="none" stroke-width="3"/>
        <line x1="2300.0" x2="2300.0" y1="700.0" y2="775.0" stroke="black" fill="none" stroke-width="3"/>
        <line x1="2325.0" x2="2325.0" y1="700.0" y2="775.0" stroke="black" fill="none" stroke-width="3"/>
        <line x1="2350.0" x2="2350.0" y1="700.0" y2="775.0" stroke="black" fill="none" stroke-width="3"/>
        <line x1="2375.0" x2="2375.0" y1="700.0" y2="775.0" stroke="black" fill="none" stroke-width="3"/>
        <line x1="2400.0" x2="2400.0" y1="700.0" y2="775.0" stroke="black" fill="none" stroke-width="3"/>
        <line x1="2425.0" x2="2425.0" y1="700.0" y2="775.0" stroke="black" fill="none" stroke-width="3"/>
        <line x1="2450.0" x2="2450.0" y1="700.0" y2="775.0" stroke="black" fill="none" stroke-width="3"/>
        <line x1="2475.0" x2="2475.0" y1="700.0" y2="775.0" stroke="black" fill="none" stroke-width="3"/>
        <line x1="2500.0" x2="2500.0" y1="700.0" y2="800.0" stroke="black" fill="none" stroke-width="3"/>
        <line x1="2525.0" x2="2525.0" y1="700.0" y2="775.0" stroke="black" fill="none" stroke-width="3"/>
        <line x1="2550.0" x2="2550.0" y1="700.0" y2="775.0" stroke="black" fill="none" stroke-width="3"/>
        <line x1="2575.0" x2="2575.0" y1="700.0" y2="775.0" stroke="black" fill="none" stroke-width="3"/>
        <line x1="2600.0" x2="2600.0" y1="700.0" y2="775.0" stroke="black" fill="none" stroke-width="3"/>
        <line x1="2625.0" x2="2625.0" y1="700.0" y2="775.0" stroke="black" fill="none" stroke-width="3"/>
        <line x1="2650.0" x2="2650.0" y1="700.0" y2="775.0" stroke="black" fill="none" stroke-width="3"/>
        <line x1="2675.0" x2="2675.0" y1="700.0" y2="775.0" stroke="black" fill="none" stroke-width="3"/>
        <line x1="2700.0" x2="2700.0" y1="700.0" y2="775.0" stroke="black" fill="none" stroke-width="3"/>
        <line x1="2225.0" x2="2300.0" y1="300.0" y2="300.0" stroke="black" fill="none" stroke-width="3"/>
        <line x1="2225.0" x2="2300.0" y1="325.0" y2="325.0" stroke="black" fill="none" stroke-width="3"/>
        <line x1="2225.0" x2="2300.0" y1="350.0" y2="350.0" stroke="black" fill="none" stroke-width="3"/>
        <line x1="2225.0" x2="2300.0" y1="375.0" y2="375.0" stroke="black" fill="none" stroke-width="3"/>
        <line x1="2225.0" x2="2300.0" y1="400.0" y2="400.0" stroke="black" fill="none" stroke-width="3"/>
        <line x1="2225.0" x2="2300.0" y1="425.0" y2="425.0" stroke="black" fill="none" stroke-width="3"/>
        <line x1="2225.0" x2="2300.0" y1="450.0" y2="450.0" stroke="black" fill="none" stroke-width="3"/>
        <line x1="2225.0" x2="2300.0" y1="475.0" y2="475.0" stroke="black" fill="none" stroke-width="3"/>
        <line x1="2200.0" x2="2300.0" y1="500.0" y2="500.0" stroke="black" fill="none" stroke-width="3"/>
        <line x1="2225.0" x2="2300.0" y1="525.0" y2="525.0" stroke="black" fill="none" stroke-width="3"/>
        <line x1="2225.0" x2="2300.0" y1="550.0" y2="550.0" stroke="black" fill="none" stroke-width="3"/>
        <line x1="2225.0" x2="2300.0" y1="575.0" y2="575.0" stroke="black" fill="none" stroke-width="3"/>
        <line x1="2225.0" x2="2300.0" y1="600.0" y2="600.0" stroke="black" fill="none" stroke-width="3"/>
        <line x1="2225.0" x2="2300.0" y1="625.0" y2="625.0" stroke="black" fill="none" stroke-width="3"/>
        <line x1="2225.0" x2="2300.0" y1="650.0" y2="650.0" stroke="black" fill="none" stroke-width="3"/>
        <line x1="2225.0" x2="2300.0" y1="675.0" y2="675.0" stroke="black" fill="none" stroke-width="3"/>
        <line x1="2225.0" x2="2300.0" y1="700.0" y2="700.0" stroke="black" fill="none" stroke-width="3"/>
        <line x1="2700.0" x2="2775.0" y1="300.0" y2="300.0" stroke="black" fill="none" stroke-width="3"/>
        <line x1="2700.0" x2="2775.0" y1="325.0" y2="325.0" stroke="black" fill="none" stroke-width="3"/>
        <line x1="2700.0" x2="2775.0" y1="350.0" y2="350.0" stroke="black" fill="none" stroke-width="3"/>
        <line x1="2700.0" x2="2775.0" y1="375.0" y2="375.0" stroke="black" fill="none" stroke-width="3"/>
        <line x1="2700.0" x2="2775.0" y1="400.0" y2="400.0" stroke="black" fill="none" stroke-width="3"/>
        <line x1="2700.0" x2="2775.0" y1="425.0" y2="425.0" stroke="black" fill="none" stroke-width="3"/>
        <line x1="2700.0" x2="2775.0" y1="450.0" y2="450.0" stroke="black" fill="none" stroke-width="3"/>
        <line x1="2700.0" x2="2775.0" y1="475.0" y2="475.0" stroke="black" fill="none" stroke-width="3"/>
        <line x1="2700.0" x2="2800.0" y1="500.0" y2="500.0" stroke="black" fill="none" stroke-width="3"/>
        <line x1="2700.0" x2="2775.0" y1="525.0" y2="525.0" stroke="black" fill="none" stroke-width="3"/>
        <line x1="2700.0" x2="2775.0" y1="550.0" y2="550.0" stroke="black" fill="none" stroke-width="3"/>
        <line x1="2700.0" x2="2775.0" y1="575.0" y2="575.0" stroke="black" fill="none" stroke-width="3"/>
        <line x1="2700.0" x2="2775.0" y1="600.0" y2="600.0" stroke="black" fill="none" stroke-width="3"/>
        <line x1="2700.0" x2="2775.0" y1="625.0" y2="625.0" stroke="black" fill="none" stroke-width="3"/>
        <line x1="2700.0" x2="2775.0" y1="650.0" y2="650.0" stroke="black" fill="none" stroke-width="3"/>
        <line x1="2700.0" x2="2775.0" y1="675.0" y2="675.0" stroke="black" fill="none" stroke-width="3"/>
        <line x1="2700.0" x2="2775.0" y1="700.0" y2="700.0" stroke="black" fill="none" stroke-width="3"/>
    </g>
    <g inkscape:groupmode="layer" inkscape:label="4 - GUIDELINES-Layer 1" id="g5" transform="translate(0.0 0.0)"><line x1="1500.0" x2="1500.0" y1="300.0" y2="700.0" stroke="black" fill="none" stroke-width="20.0"/>
        <line x1="1300.0" x2="1700.0" y1="500.0" y2="500.0" stroke="black" fill="none" stroke-width="20.0"/>
    </g>
    <g inkscape:groupmode="layer" inkscape:label="5 - GUIDELINES-Layer 2" id="g5" transform="translate(0.0 0.0)"><line x1="2500.0" x2="2500.0" y1="300.0" y2="700.0" stroke="red" fill="none" stroke-width="20.0"/>
        <line x1="2300.0" x2="2700.0" y1="500.0" y2="500.0" stroke="red" fill="none" stroke-width="20.0"/>
    </g>
</svg>
