<?xml version="1.0"?>
<!-- Generated by SVGo -->
<svg width="12in" height="9in"
     viewBox="0 0 10000 10000"
     xmlns="http://www.w3.org/2000/svg"
     xmlns:xlink="http://www.w3.org/1999/xlink">
<defs>
<linearGradient id="brush0" x1="0%" y1="0%" x2="100%" y2="0%">
<stop offset="0%" stop-color="black" stop-opacity="1.00"/>
<stop offset="100%" stop-color="grey" stop-opacity="1.00"/>
</linearGradient>
</defs>
<g inkscape:groupmode="layer" inkscape:label="0 - Pencil" >
<line x1="1000" y1="1000" x2="1000" y2="9000" style="fill:none;stroke:black;stroke-width:2;stroke-opacity:1" />
<line x1="1000" y1="9000" x2="9000" y2="9000" style="fill:none;stroke:black;stroke-width:2;stroke-opacity:1" />
<line x1="9000" y1="9000" x2="9000" y2="1000" style="fill:none;stroke:black;stroke-width:2;stroke-opacity:1" />
<line x1="9000" y1="1000" x2="1000" y2="1000" style="fill:none;stroke:black;stroke-width:2;stroke-opacity:1" />
</g>
<g inkscape:groupmode="layer" inkscape:label="1 - Brush" >
<path d="M 1020.000 1048.284
	L 1042.426 1025.858
	A 20.000 20.000 0 0 1 1070.711 1054.142
	L 1025.858 1098.995
	A 20.000 20.000 0 0 0 1054.142 1127.279
	L 1155.563 1025.858
	A 20.000 20.000 0 0 1 1183.848 1054.142
	L 1025.858 1212.132
	A 20.000 20.000 0 0 0 1054.142 1240.416
	L 1268.701 1025.858
	A 20.000 20.000 0 0 1 1296.985 1054.142
	L 1025.858 1325.269
	A 20.000 20.000 0 0 0 1054.142 1353.553
	L 1381.838 1025.858
	A 20.000 20.000 0 0 1 1410.122 1054.142
	L 1025.858 1438.406
	A 20.000 20.000 0 0 0 1054.142 1466.690
	L 1494.975 1025.858
	A 20.000 20.000 0 0 1 1523.259 1054.142
	L 1025.858 1551.543
	A 20.000 20.000 0 0 0 1054.142 1579.828
	L 1608.112 1025.858
	A 20.000 20.000 0 0 1 1636.396 1054.142
	L 1025.858 1664.680
	A 20.000 20.000 0 0 0 1054.142 1692.965
	L 1721.249 1025.858
	A 20.000 20.000 0 0 1 1749.533 1054.142
	L 1025.858 1777.817
	A 20.000 20.000 0 0 0 1054.142 1806.102
	L 1834.386 1025.858
	A 20.000 20.000 0 0 1 1862.670 1054.142
	L 1025.858 1890.955
	A 20.000 20.000 0 0 0 1054.142 1919.239
	L 1947.523 1025.858
	A 20.000 20.000 0 0 1 1975.807 1054.142
	L 1025.858 2004.092
	A 20.000 20.000 0 0 0 1054.142 2032.376
	L 2060.660 1025.858
	A 20.000 20.000 0 0 1 2088.944 1054.142
	L 1025.858 2117.229
	A 20.000 20.000 0 0 0 1054.142 2145.513
	L 2173.797 1025.858
	A 20.000 20.000 0 0 1 2202.082 1054.142
	L 1025.858 2230.366
	A 20.000 20.000 0 0 0 1054.142 2258.650
	L 2286.934 1025.858
	A 20.000 20.000 0 0 1 2315.219 1054.142
	L 1025.858 2343.503
	A 20.000 20.000 0 0 0 1054.142 2371.787
	L 2400.071 1025.858
	A 20.000 20.000 0 0 1 2428.356 1054.142
	L 1025.858 2456.640
	A 20.000 20.000 0 0 0 1054.142 2484.924
	L 2513.209 1025.858
	A 20.000 20.000 0 0 1 2541.493 1054.142
	L 1025.858 2569.777
	A 20.000 20.000 0 0 0 1054.142 2598.061
	L 2626.346 1025.858
	A 20.000 20.000 0 0 1 2654.630 1054.142
	L 1025.858 2682.914
	A 20.000 20.000 0 0 0 1054.142 2711.198
	L 2739.483 1025.858
	A 20.000 20.000 0 0 1 2767.767 1054.142
	L 1025.858 2796.051
	A 20.000 20.000 0 0 0 1054.142 2824.335
	L 2852.620 1025.858
	A 20.000 20.000 0 0 1 2880.904 1054.142
	L 1025.858 2909.188
	A 20.000 20.000 0 0 0 1054.142 2937.473
	L 2965.757 1025.858
	A 20.000 20.000 0 0 1 2994.041 1054.142
	L 1025.858 3022.325
	A 20.000 20.000 0 0 0 1054.142 3050.610
	L 3078.894 1025.858
	A 20.000 20.000 0 0 1 3107.178 1054.142
	L 1025.858 3135.462
	A 20.000 20.000 0 0 0 1054.142 3163.747
	L 3192.031 1025.858
	A 20.000 20.000 0 0 1 3220.315 1054.142
	L 1025.858 3248.600
	A 20.000 20.000 0 0 0 1054.142 3276.884
	L 3305.168 1025.858
	A 20.000 20.000 0 0 1 3333.452 1054.142
	L 1025.858 3361.737
	A 20.000 20.000 0 0 0 1054.142 3390.021
	L 3418.305 1025.858
	A 20.000 20.000 0 0 1 3446.589 1054.142
	L 1025.858 3474.874
	A 20.000 20.000 0 0 0 1054.142 3503.158
	L 3531.442 1025.858
	A 20.000 20.000 0 0 1 3559.727 1054.142
	L 1025.858 3588.011
	A 20.000 20.000 0 0 0 1054.142 3616.295
	L 3644.579 1025.858
	A 20.000 20.000 0 0 1 3672.864 1054.142
	L 1025.858 3701.148
	A 20.000 20.000 0 0 0 1054.142 3729.432
	L 3757.716 1025.858
	A 20.000 20.000 0 0 1 3786.001 1054.142
	L 1025.858 3814.285
	A 20.000 20.000 0 0 0 1054.142 3842.569
	L 3870.854 1025.858
	A 20.000 20.000 0 0 1 3899.138 1054.142
	L 1025.858 3927.422
	A 20.000 20.000 0 0 0 1054.142 3955.706
	L 3983.991 1025.858
	A 20.000 20.000 0 0 1 4012.275 1054.142
	L 1025.858 4040.559
	A 20.000 20.000 0 0 0 1054.142 4068.843
	L 4097.128 1025.858
	A 20.000 20.000 0 0 1 4125.412 1054.142
	L 1025.858 4153.696
	A 20.000 20.000 0 0 0 1054.142 4181.981
	L 4210.265 1025.858
	A 20.000 20.000 0 0 1 4238.549 1054.142
	L 1025.858 4266.833
	A 20.000 20.000 0 0 0 1054.142 4295.118
	L 4323.402 1025.858
	A 20.000 20.000 0 0 1 4351.686 1054.142
	L 1025.858 4379.970
	A 20.000 20.000 0 0 0 1054.142 4408.255
	L 4436.539 1025.858
	A 20.000 20.000 0 0 1 4464.823 1054.142
	L 1025.858 4493.107
	A 20.000 20.000 0 0 0 1054.142 4521.392
	L 4549.676 1025.858
	A 20.000 20.000 0 0 1 4577.960 1054.142
	L 1025.858 4606.245
	A 20.000 20.000 0 0 0 1054.142 4634.529
	L 4662.813 1025.858
	A 20.000 20.000 0 0 1 4691.097 1054.142
	L 1025.858 4719.382
	A 20.000 20.000 0 0 0 1054.142 4747.666
	L 4775.950 1025.858
	A 20.000 20.000 0 0 1 4804.234 1054.142
	L 1025.858 4832.519
	A 20.000 20.000 0 0 0 1054.142 4860.803
	L 4889.087 1025.858
	A 20.000 20.000 0 0 1 4917.372 1054.142
	L 1025.858 4945.656
	A 20.000 20.000 0 0 0 1054.142 4973.940
	L 5002.224 1025.858
	A 20.000 20.000 0 0 1 5030.509 1054.142
	L 1025.858 5058.793
	A 20.000 20.000 0 0 0 1054.142 5087.077
	L 5115.361 1025.858
	A 20.000 20.000 0 0 1 5143.646 1054.142
	L 1025.858 5171.930
	A 20.000 20.000 0 0 0 1054.142 5200.214
	L 5228.499 1025.858
	A 20.000 20.000 0 0 1 5256.783 1054.142
	L 1025.858 5285.067
	A 20.000 20.000 0 0 0 1054.142 5313.351
	L 5341.636 1025.858
	A 20.000 20.000 0 0 1 5369.920 1054.142
	L 1025.858 5398.204
	A 20.000 20.000 0 0 0 1054.142 5426.488
	L 5454.773 1025.858
	A 20.000 20.000 0 0 1 5483.057 1054.142
	L 1025.858 5511.341
	A 20.000 20.000 0 0 0 1054.142 5539.626
	L 5567.910 1025.858
	A 20.000 20.000 0 0 1 5596.194 1054.142
	L 1025.858 5624.478
	A 20.000 20.000 0 0 0 1054.142 5652.763
	L 5681.047 1025.858
	A 20.000 20.000 0 0 1 5709.331 1054.142
	L 1025.858 5737.615
	A 20.000 20.000 0 0 0 1054.142 5765.900
	L 5794.184 1025.858
	A 20.000 20.000 0 0 1 5822.468 1054.142
	L 1025.858 5850.753
	A 20.000 20.000 0 0 0 1054.142 5879.037
	L 5907.321 1025.858
	A 20.000 20.000 0 0 1 5935.605 1054.142
	L 1025.858 5963.890
	A 20.000 20.000 0 0 0 1054.142 5992.174
	L 6020.458 1025.858
	A 20.000 20.000 0 0 1 6048.742 1054.142
	L 1025.858 6077.027
	A 20.000 20.000 0 0 0 1054.142 6105.311
	L 6133.595 1025.858
	A 20.000 20.000 0 0 1 6161.880 1054.142
	L 1025.858 6190.164
	A 20.000 20.000 0 0 0 1054.142 6218.448
	L 6246.732 1025.858
	A 20.000 20.000 0 0 1 6275.017 1054.142
	L 1025.858 6303.301
	A 20.000 20.000 0 0 0 1054.142 6331.585
	L 6359.869 1025.858
	A 20.000 20.000 0 0 1 6388.154 1054.142
	L 1025.858 6416.438
	A 20.000 20.000 0 0 0 1054.142 6444.722
	L 6473.006 1025.858
	A 20.000 20.000 0 0 1 6501.291 1054.142
	L 1025.858 6529.575
	A 20.000 20.000 0 0 0 1054.142 6557.859
	L 6586.144 1025.858
	A 20.000 20.000 0 0 1 6614.428 1054.142
	L 1025.858 6642.712
	A 20.000 20.000 0 0 0 1054.142 6670.996
	L 6699.281 1025.858
	A 20.000 20.000 0 0 1 6727.565 1054.142
	L 1025.858 6755.849
	A 20.000 20.000 0 0 0 1054.142 6784.133
	L 6812.418 1025.858
	A 20.000 20.000 0 0 1 6840.702 1054.142
	L 1025.858 6868.986
	A 20.000 20.000 0 0 0 1054.142 6897.271
	L 6925.555 1025.858
	A 20.000 20.000 0 0 1 6953.839 1054.142
	L 1025.858 6982.123
	A 20.000 20.000 0 0 0 1054.142 7010.408
	L 7038.692 1025.858
	A 20.000 20.000 0 0 1 7066.976 1054.142
	L 1025.858 7095.260
	A 20.000 20.000 0 0 0 1054.142 7123.545
	L 7151.829 1025.858
	A 20.000 20.000 0 0 1 7180.113 1054.142
	L 1025.858 7208.398
	A 20.000 20.000 0 0 0 1054.142 7236.682
	L 7264.966 1025.858
	A 20.000 20.000 0 0 1 7293.250 1054.142
	L 1025.858 7321.535
	A 20.000 20.000 0 0 0 1054.142 7349.819
	L 7378.103 1025.858
	A 20.000 20.000 0 0 1 7406.387 1054.142
	L 1025.858 7434.672
	A 20.000 20.000 0 0 0 1054.142 7462.956
	L 7491.240 1025.858
	A 20.000 20.000 0 0 1 7519.525 1054.142
	L 1025.858 7547.809
	A 20.000 20.000 0 0 0 1054.142 7576.093
	L 7604.377 1025.858
	A 20.000 20.000 0 0 1 7632.662 1054.142
	L 1025.858 7660.946
	A 20.000 20.000 0 0 0 1054.142 7689.230
	L 7717.514 1025.858
	A 20.000 20.000 0 0 1 7745.799 1054.142
	L 1025.858 7774.083
	A 20.000 20.000 0 0 0 1054.142 7802.367
	L 7830.652 1025.858
	A 20.000 20.000 0 0 1 7858.936 1054.142
	L 1025.858 7887.220
	A 20.000 20.000 0 0 0 1054.142 7915.504
	L 7943.789 1025.858
	A 20.000 20.000 0 0 1 7972.073 1054.142
	L 1025.858 8000.357
	A 20.000 20.000 0 0 0 1054.142 8028.641
	L 8056.926 1025.858
	A 20.000 20.000 0 0 1 8085.210 1054.142
	L 1025.858 8113.494
	A 20.000 20.000 0 0 0 1054.142 8141.778
	L 8170.063 1025.858
	A 20.000 20.000 0 0 1 8198.347 1054.142
	L 1025.858 8226.631
	A 20.000 20.000 0 0 0 1054.142 8254.916
	L 8283.200 1025.858
	A 20.000 20.000 0 0 1 8311.484 1054.142
	L 1025.858 8339.768
	A 20.000 20.000 0 0 0 1054.142 8368.053
	L 8396.337 1025.858
	A 20.000 20.000 0 0 1 8424.621 1054.142
	L 1025.858 8452.905
	A 20.000 20.000 0 0 0 1054.142 8481.190
	L 8509.474 1025.858
	A 20.000 20.000 0 0 1 8537.758 1054.142
	L 1025.858 8566.043
	A 20.000 20.000 0 0 0 1054.142 8594.327
	L 8622.611 1025.858
	A 20.000 20.000 0 0 1 8650.895 1054.142
	L 1025.858 8679.180
	A 20.000 20.000 0 0 0 1054.142 8707.464
	L 8735.748 1025.858
	A 20.000 20.000 0 0 1 8764.032 1054.142
	L 1025.858 8792.317
	A 20.000 20.000 0 0 0 1054.142 8820.601
	L 8848.885 1025.858
	A 20.000 20.000 0 0 1 8877.170 1054.142
	L 1025.858 8905.454
	A 20.000 20.000 0 0 0 1054.142 8933.738
	L 8945.858 1042.022
	A 20.000 20.000 0 0 1 8974.142 1070.307
	L 1098.591 8945.858
	A 20.000 20.000 0 0 0 1126.875 8974.142
	L 8945.858 1155.159
	A 20.000 20.000 0 0 1 8974.142 1183.444
	L 1211.728 8945.858
	A 20.000 20.000 0 0 0 1240.012 8974.142
	L 8945.858 1268.297
	A 20.000 20.000 0 0 1 8974.142 1296.581
	L 1324.865 8945.858
	A 20.000 20.000 0 0 0 1353.149 8974.142
	L 8945.858 1381.434
	A 20.000 20.000 0 0 1 8974.142 1409.718
	L 1438.002 8945.858
	A 20.000 20.000 0 0 0 1466.286 8974.142
	L 8945.858 1494.571
	A 20.000 20.000 0 0 1 8974.142 1522.855
	L 1551.139 8945.858
	A 20.000 20.000 0 0 0 1579.424 8974.142
	L 8945.858 1607.708
	A 20.000 20.000 0 0 1 8974.142 1635.992
	L 1664.276 8945.858
	A 20.000 20.000 0 0 0 1692.561 8974.142
	L 8945.858 1720.845
	A 20.000 20.000 0 0 1 8974.142 1749.129
	L 1777.413 8945.858
	A 20.000 20.000 0 0 0 1805.698 8974.142
	L 8945.858 1833.982
	A 20.000 20.000 0 0 1 8974.142 1862.266
	L 1890.550 8945.858
	A 20.000 20.000 0 0 0 1918.835 8974.142
	L 8945.858 1947.119
	A 20.000 20.000 0 0 1 8974.142 1975.403
	L 2003.688 8945.858
	A 20.000 20.000 0 0 0 2031.972 8974.142
	L 8945.858 2060.256
	A 20.000 20.000 0 0 1 8974.142 2088.540
	L 2116.825 8945.858
	A 20.000 20.000 0 0 0 2145.109 8974.142
	L 8945.858 2173.393
	A 20.000 20.000 0 0 1 8974.142 2201.677
	L 2229.962 8945.858
	A 20.000 20.000 0 0 0 2258.246 8974.142
	L 8945.858 2286.530
	A 20.000 20.000 0 0 1 8974.142 2314.815
	L 2343.099 8945.858
	A 20.000 20.000 0 0 0 2371.383 8974.142
	L 8945.858 2399.667
	A 20.000 20.000 0 0 1 8974.142 2427.952
	L 2456.236 8945.858
	A 20.000 20.000 0 0 0 2484.520 8974.142
	L 8945.858 2512.804
	A 20.000 20.000 0 0 1 8974.142 2541.089
	L 2569.373 8945.858
	A 20.000 20.000 0 0 0 2597.657 8974.142
	L 8945.858 2625.942
	A 20.000 20.000 0 0 1 8974.142 2654.226
	L 2682.510 8945.858
	A 20.000 20.000 0 0 0 2710.794 8974.142
	L 8945.858 2739.079
	A 20.000 20.000 0 0 1 8974.142 2767.363
	L 2795.647 8945.858
	A 20.000 20.000 0 0 0 2823.931 8974.142
	L 8945.858 2852.216
	A 20.000 20.000 0 0 1 8974.142 2880.500
	L 2908.784 8945.858
	A 20.000 20.000 0 0 0 2937.069 8974.142
	L 8945.858 2965.353
	A 20.000 20.000 0 0 1 8974.142 2993.637
	L 3021.921 8945.858
	A 20.000 20.000 0 0 0 3050.206 8974.142
	L 8945.858 3078.490
	A 20.000 20.000 0 0 1 8974.142 3106.774
	L 3135.058 8945.858
	A 20.000 20.000 0 0 0 3163.343 8974.142
	L 8945.858 3191.627
	A 20.000 20.000 0 0 1 8974.142 3219.911
	L 3248.196 8945.858
	A 20.000 20.000 0 0 0 3276.480 8974.142
	L 8945.858 3304.764
	A 20.000 20.000 0 0 1 8974.142 3333.048
	L 3361.333 8945.858
	A 20.000 20.000 0 0 0 3389.617 8974.142
	L 8945.858 3417.901
	A 20.000 20.000 0 0 1 8974.142 3446.185
	L 3474.470 8945.858
	A 20.000 20.000 0 0 0 3502.754 8974.142
	L 8945.858 3531.038
	A 20.000 20.000 0 0 1 8974.142 3559.322
	L 3587.607 8945.858
	A 20.000 20.000 0 0 0 3615.891 8974.142
	L 8945.858 3644.175
	A 20.000 20.000 0 0 1 8974.142 3672.460
	L 3700.744 8945.858
	A 20.000 20.000 0 0 0 3729.028 8974.142
	L 8945.858 3757.312
	A 20.000 20.000 0 0 1 8974.142 3785.597
	L 3813.881 8945.858
	A 20.000 20.000 0 0 0 3842.165 8974.142
	L 8945.858 3870.449
	A 20.000 20.000 0 0 1 8974.142 3898.734
	L 3927.018 8945.858
	A 20.000 20.000 0 0 0 3955.302 8974.142
	L 8945.858 3983.587
	A 20.000 20.000 0 0 1 8974.142 4011.871
	L 4040.155 8945.858
	A 20.000 20.000 0 0 0 4068.439 8974.142
	L 8945.858 4096.724
	A 20.000 20.000 0 0 1 8974.142 4125.008
	L 4153.292 8945.858
	A 20.000 20.000 0 0 0 4181.576 8974.142
	L 8945.858 4209.861
	A 20.000 20.000 0 0 1 8974.142 4238.145
	L 4266.429 8945.858
	A 20.000 20.000 0 0 0 4294.714 8974.142
	L 8945.858 4322.998
	A 20.000 20.000 0 0 1 8974.142 4351.282
	L 4379.566 8945.858
	A 20.000 20.000 0 0 0 4407.851 8974.142
	L 8945.858 4436.135
	A 20.000 20.000 0 0 1 8974.142 4464.419
	L 4492.703 8945.858
	A 20.000 20.000 0 0 0 4520.988 8974.142
	L 8945.858 4549.272
	A 20.000 20.000 0 0 1 8974.142 4577.556
	L 4605.841 8945.858
	A 20.000 20.000 0 0 0 4634.125 8974.142
	L 8945.858 4662.409
	A 20.000 20.000 0 0 1 8974.142 4690.693
	L 4718.978 8945.858
	A 20.000 20.000 0 0 0 4747.262 8974.142
	L 8945.858 4775.546
	A 20.000 20.000 0 0 1 8974.142 4803.830
	L 4832.115 8945.858
	A 20.000 20.000 0 0 0 4860.399 8974.142
	L 8945.858 4888.683
	A 20.000 20.000 0 0 1 8974.142 4916.968
	L 4945.252 8945.858
	A 20.000 20.000 0 0 0 4973.536 8974.142
	L 8945.858 5001.820
	A 20.000 20.000 0 0 1 8974.142 5030.105
	L 5058.389 8945.858
	A 20.000 20.000 0 0 0 5086.673 8974.142
	L 8945.858 5114.957
	A 20.000 20.000 0 0 1 8974.142 5143.242
	L 5171.526 8945.858
	A 20.000 20.000 0 0 0 5199.810 8974.142
	L 8945.858 5228.095
	A 20.000 20.000 0 0 1 8974.142 5256.379
	L 5284.663 8945.858
	A 20.000 20.000 0 0 0 5312.947 8974.142
	L 8945.858 5341.232
	A 20.000 20.000 0 0 1 8974.142 5369.516
	L 5397.800 8945.858
	A 20.000 20.000 0 0 0 5426.084 8974.142
	L 8945.858 5454.369
	A 20.000 20.000 0 0 1 8974.142 5482.653
	L 5510.937 8945.858
	A 20.000 20.000 0 0 0 5539.221 8974.142
	L 8945.858 5567.506
	A 20.000 20.000 0 0 1 8974.142 5595.790
	L 5624.074 8945.858
	A 20.000 20.000 0 0 0 5652.359 8974.142
	L 8945.858 5680.643
	A 20.000 20.000 0 0 1 8974.142 5708.927
	L 5737.211 8945.858
	A 20.000 20.000 0 0 0 5765.496 8974.142
	L 8945.858 5793.780
	A 20.000 20.000 0 0 1 8974.142 5822.064
	L 5850.348 8945.858
	A 20.000 20.000 0 0 0 5878.633 8974.142
	L 8945.858 5906.917
	A 20.000 20.000 0 0 1 8974.142 5935.201
	L 5963.486 8945.858
	A 20.000 20.000 0 0 0 5991.770 8974.142
	L 8945.858 6020.054
	A 20.000 20.000 0 0 1 8974.142 6048.338
	L 6076.623 8945.858
	A 20.000 20.000 0 0 0 6104.907 8974.142
	L 8945.858 6133.191
	A 20.000 20.000 0 0 1 8974.142 6161.475
	L 6189.760 8945.858
	A 20.000 20.000 0 0 0 6218.044 8974.142
	L 8945.858 6246.328
	A 20.000 20.000 0 0 1 8974.142 6274.613
	L 6302.897 8945.858
	A 20.000 20.000 0 0 0 6331.181 8974.142
	L 8945.858 6359.465
	A 20.000 20.000 0 0 1 8974.142 6387.750
	L 6416.034 8945.858
	A 20.000 20.000 0 0 0 6444.318 8974.142
	L 8945.858 6472.602
	A 20.000 20.000 0 0 1 8974.142 6500.887
	L 6529.171 8945.858
	A 20.000 20.000 0 0 0 6557.455 8974.142
	L 8945.858 6585.740
	A 20.000 20.000 0 0 1 8974.142 6614.024
	L 6642.308 8945.858
	A 20.000 20.000 0 0 0 6670.592 8974.142
	L 8945.858 6698.877
	A 20.000 20.000 0 0 1 8974.142 6727.161
	L 6755.445 8945.858
	A 20.000 20.000 0 0 0 6783.729 8974.142
	L 8945.858 6812.014
	A 20.000 20.000 0 0 1 8974.142 6840.298
	L 6868.582 8945.858
	A 20.000 20.000 0 0 0 6896.867 8974.142
	L 8945.858 6925.151
	A 20.000 20.000 0 0 1 8974.142 6953.435
	L 6981.719 8945.858
	A 20.000 20.000 0 0 0 7010.004 8974.142
	L 8945.858 7038.288
	A 20.000 20.000 0 0 1 8974.142 7066.572
	L 7094.856 8945.858
	A 20.000 20.000 0 0 0 7123.141 8974.142
	L 8945.858 7151.425
	A 20.000 20.000 0 0 1 8974.142 7179.709
	L 7207.993 8945.858
	A 20.000 20.000 0 0 0 7236.278 8974.142
	L 8945.858 7264.562
	A 20.000 20.000 0 0 1 8974.142 7292.846
	L 7321.131 8945.858
	A 20.000 20.000 0 0 0 7349.415 8974.142
	L 8945.858 7377.699
	A 20.000 20.000 0 0 1 8974.142 7405.983
	L 7434.268 8945.858
	A 20.000 20.000 0 0 0 7462.552 8974.142
	L 8945.858 7490.836
	A 20.000 20.000 0 0 1 8974.142 7519.120
	L 7547.405 8945.858
	A 20.000 20.000 0 0 0 7575.689 8974.142
	L 8945.858 7603.973
	A 20.000 20.000 0 0 1 8974.142 7632.258
	L 7660.542 8945.858
	A 20.000 20.000 0 0 0 7688.826 8974.142
	L 8945.858 7717.110
	A 20.000 20.000 0 0 1 8974.142 7745.395
	L 7773.679 8945.858
	A 20.000 20.000 0 0 0 7801.963 8974.142
	L 8945.858 7830.247
	A 20.000 20.000 0 0 1 8974.142 7858.532
	L 7886.816 8945.858
	A 20.000 20.000 0 0 0 7915.100 8974.142
	L 8945.858 7943.385
	A 20.000 20.000 0 0 1 8974.142 7971.669
	L 7999.953 8945.858
	A 20.000 20.000 0 0 0 8028.237 8974.142
	L 8945.858 8056.522
	A 20.000 20.000 0 0 1 8974.142 8084.806
	L 8113.090 8945.858
	A 20.000 20.000 0 0 0 8141.374 8974.142
	L 8945.858 8169.659
	A 20.000 20.000 0 0 1 8974.142 8197.943
	L 8226.227 8945.858
	A 20.000 20.000 0 0 0 8254.512 8974.142
	L 8945.858 8282.796
	A 20.000 20.000 0 0 1 8974.142 8311.080
	L 8339.364 8945.858
	A 20.000 20.000 0 0 0 8367.649 8974.142
	L 8945.858 8395.933
	A 20.000 20.000 0 0 1 8974.142 8424.217
	L 8452.501 8945.858
	A 20.000 20.000 0 0 0 8480.786 8974.142
	L 8945.858 8509.070
	A 20.000 20.000 0 0 1 8974.142 8537.354
	L 8565.639 8945.858
	A 20.000 20.000 0 0 0 8593.923 8974.142
	L 8945.858 8622.207
	A 20.000 20.000 0 0 1 8974.142 8650.491
	L 8678.776 8945.858
	A 20.000 20.000 0 0 0 8707.060 8974.142
	L 8945.858 8735.344
	A 20.000 20.000 0 0 1 8974.142 8763.628
	L 8791.913 8945.858
	A 20.000 20.000 0 0 0 8820.197 8974.142
	L 8945.858 8848.481
	A 20.000 20.000 0 0 1 8974.142 8876.765
	L 8905.050 8945.858
	A 20.000 20.000 0 0 0 8933.334 8974.142" stroke="black" fill="none" stroke-width="3" />
</g>
</svg>
