<?xml version="1.0" encoding="UTF-8"?>
<svg width="12in" height="9in" viewBox="0 0 10000 10000" version="1.1" id="svg6" sodipodi:docname="test_inkscape.svg" inkscape:version="1.3.2 (091e20e, 2023-11-25, custom)" xmlns:inkscape="http://www.inkscape.org/namespaces/inkscape" xmlns:sodipodi="http://sodipodi.sourceforge.net/DTD/sodipodi-0.dtd" xmlns="http://www.w3.org/2000/svg" xmlns:svg="http://www.w3.org/2000/svg"><g inkscape:groupmode="layer" inkscape:label="0 - frame" id="g5" transform="translate(0.0 0.0)"><path d="M 1000.0 1000.0 L 1000.0 9000.0 L 9000.0 9000.0 L 9000.0 1000.0 L 1000.0 1000.0" stroke="black" fill="none" stroke-width="3"/></g>
    <g inkscape:groupmode="layer" inkscape:label="1 - truchet" id="g5" transform="translate(0.0 0.0)"><path d="M 3000.0 1000.0 A 2000.0 2000.0 0 0 1 1000.0 3000.0" stroke="red" fill="none" stroke-width="10.0"/>
        <path d="M 7000.0 1000.0 A 2000.0 2000.0 0 0 1 5000.0 3000.0 A 2000.0 2000.0 0 0 0 3000.0 5000.0 A 2000.0 2000.0 0 0 1 1000.0 7000.0" stroke="red" fill="none" stroke-width="10.0"/>
        <path d="M 9000.0 3000.0 A 2000.0 2000.0 0 0 0 7000.0 5000.0 A 2000.0 2000.0 0 0 0 9000.0 7000.0" stroke="red" fill="none" stroke-width="10.0"/>
        <path d="M 9000.0 7000.0" stroke="red" fill="none" stroke-width="10.0"/>
        <path d="M 7000.0 9000.0 A 2000.0 2000.0 0 0 0 5000.0 7000.0 A 2000.0 2000.0 0 0 0 3000.0 9000.0" stroke="red" fill="none" stroke-width="10.0"/>
        <path d="M 3000.0 9000.0" stroke="red" fill="none" stroke-width="10.0"/>
        <path d="M 1000.0 7000.0" stroke="red" fill="none" stroke-width="10.0"/>
        <path d="M 1000.0 3000.0" stroke="red" fill="none" stroke-width="10.0"/>
    </g>
    <g inkscape:groupmode="layer" inkscape:label="2 - truchet" id="g5" transform="translate(0.0 0.0)"><path d="M 3100.0 1000.0 A 2100.0 2100.0 0 0 1 1000.0 3100.0" stroke="purple" fill="none" stroke-width="10.0"/>
        <path d="M 7100.0 1000.0 A 2100.0 2100.0 0 0 1 5000.0 3100.0 A 1900.0 1900.0 0 0 0 3100.0 5000.0 A 2100.0 2100.0 0 0 1 1000.0 7100.0" stroke="purple" fill="none" stroke-width="10.0"/>
        <path d="M 9000.0 3100.0 A 1900.0 1900.0 0 0 0 7100.0 5000.0 A 1900.0 1900.0 0 0 0 9000.0 6900.0" stroke="purple" fill="none" stroke-width="10.0"/>
        <path d="M 6900.0 9000.0 A 1900.0 1900.0 0 0 0 5000.0 7100.0 A 1900.0 1900.0 0 0 0 3100.0 9000.0" stroke="purple" fill="none" stroke-width="10.0"/>
        <path d="M 3080.0 1000.0 A 2080.0 2080.0 0 0 1 1000.0 3080.0" stroke="purple" fill="none" stroke-width="10.0"/>
        <path d="M 7080.0 1000.0 A 2080.0 2080.0 0 0 1 5000.0 3080.0 A 1920.0 1920.0 0 0 0 3080.0 5000.0 A 2080.0 2080.0 0 0 1 1000.0 7080.0" stroke="purple" fill="none" stroke-width="10.0"/>
        <path d="M 9000.0 3080.0 A 1920.0 1920.0 0 0 0 7080.0 5000.0 A 1920.0 1920.0 0 0 0 9000.0 6920.0" stroke="purple" fill="none" stroke-width="10.0"/>
        <path d="M 6920.0 9000.0 A 1920.0 1920.0 0 0 0 5000.0 7080.0 A 1920.0 1920.0 0 0 0 3080.0 9000.0" stroke="purple" fill="none" stroke-width="10.0"/>
        <path d="M 3060.0 1000.0 A 2060.0 2060.0 0 0 1 1000.0 3060.0" stroke="purple" fill="none" stroke-width="10.0"/>
        <path d="M 7060.0 1000.0 A 2060.0 2060.0 0 0 1 5000.0 3060.0 A 1940.0 1940.0 0 0 0 3060.0 5000.0 A 2060.0 2060.0 0 0 1 1000.0 7060.0" stroke="purple" fill="none" stroke-width="10.0"/>
        <path d="M 9000.0 3060.0 A 1940.0 1940.0 0 0 0 7060.0 5000.0 A 1940.0 1940.0 0 0 0 9000.0 6940.0" stroke="purple" fill="none" stroke-width="10.0"/>
        <path d="M 6940.0 9000.0 A 1940.0 1940.0 0 0 0 5000.0 7060.0 A 1940.0 1940.0 0 0 0 3060.0 9000.0" stroke="purple" fill="none" stroke-width="10.0"/>
        <path d="M 3040.0 1000.0 A 2040.0 2040.0 0 0 1 1000.0 3040.0" stroke="purple" fill="none" stroke-width="10.0"/>
        <path d="M 7040.0 1000.0 A 2040.0 2040.0 0 0 1 5000.0 3040.0 A 1960.0 1960.0 0 0 0 3040.0 5000.0 A 2040.0 2040.0 0 0 1 1000.0 7040.0" stroke="purple" fill="none" stroke-width="10.0"/>
        <path d="M 9000.0 3040.0 A 1960.0 1960.0 0 0 0 7040.0 5000.0 A 1960.0 1960.0 0 0 0 9000.0 6960.0" stroke="purple" fill="none" stroke-width="10.0"/>
        <path d="M 6960.0 9000.0 A 1960.0 1960.0 0 0 0 5000.0 7040.0 A 1960.0 1960.0 0 0 0 3040.0 9000.0" stroke="purple" fill="none" stroke-width="10.0"/>
        <path d="M 3020.0 1000.0 A 2020.0 2020.0 0 0 1 1000.0 3020.0" stroke="purple" fill="none" stroke-width="10.0"/>
        <path d="M 7020.0 1000.0 A 2020.0 2020.0 0 0 1 5000.0 3020.0 A 1980.0 1980.0 0 0 0 3020.0 5000.0 A 2020.0 2020.0 0 0 1 1000.0 7020.0" stroke="purple" fill="none" stroke-width="10.0"/>
        <path d="M 9000.0 3020.0 A 1980.0 1980.0 0 0 0 7020.0 5000.0 A 1980.0 1980.0 0 0 0 9000.0 6980.0" stroke="purple" fill="none" stroke-width="10.0"/>
        <path d="M 6980.0 9000.0 A 1980.0 1980.0 0 0 0 5000.0 7020.0 A 1980.0 1980.0 0 0 0 3020.0 9000.0" stroke="purple" fill="none" stroke-width="10.0"/>
        <path d="M 3000.0 1000.0 A 2000.0 2000.0 0 0 1 1000.0 3000.0" stroke="purple" fill="none" stroke-width="10.0"/>
        <path d="M 7000.0 1000.0 A 2000.0 2000.0 0 0 1 5000.0 3000.0 A 2000.0 2000.0 0 0 0 3000.0 5000.0 A 2000.0 2000.0 0 0 1 1000.0 7000.0" stroke="purple" fill="none" stroke-width="10.0"/>
        <path d="M 9000.0 3000.0 A 2000.0 2000.0 0 0 0 7000.0 5000.0 A 2000.0 2000.0 0 0 0 9000.0 7000.0" stroke="purple" fill="none" stroke-width="10.0"/>
        <path d="M 7000.0 9000.0 A 2000.0 2000.0 0 0 0 5000.0 7000.0 A 2000.0 2000.0 0 0 0 3000.0 9000.0" stroke="purple" fill="none" stroke-width="10.0"/>
        <path d="M 2980.0 1000.0 A 1980.0 1980.0 0 0 1 1000.0 2980.0" stroke="purple" fill="none" stroke-width="10.0"/>
        <path d="M 6980.0 1000.0 A 1980.0 1980.0 0 0 1 5000.0 2980.0 A 2020.0 2020.0 0 0 0 2980.0 5000.0 A 1980.0 1980.0 0 0 1 1000.0 6980.0" stroke="purple" fill="none" stroke-width="10.0"/>
        <path d="M 9000.0 2980.0 A 2020.0 2020.0 0 0 0 6980.0 5000.0 A 2020.0 2020.0 0 0 0 9000.0 7020.0" stroke="purple" fill="none" stroke-width="10.0"/>
        <path d="M 7020.0 9000.0 A 2020.0 2020.0 0 0 0 5000.0 6980.0 A 2020.0 2020.0 0 0 0 2980.0 9000.0" stroke="purple" fill="none" stroke-width="10.0"/>
        <path d="M 2960.0 1000.0 A 1960.0 1960.0 0 0 1 1000.0 2960.0" stroke="purple" fill="none" stroke-width="10.0"/>
        <path d="M 6960.0 1000.0 A 1960.0 1960.0 0 0 1 5000.0 2960.0 A 2040.0 2040.0 0 0 0 2960.0 5000.0 A 1960.0 1960.0 0 0 1 1000.0 6960.0" stroke="purple" fill="none" stroke-width="10.0"/>
        <path d="M 9000.0 2960.0 A 2040.0 2040.0 0 0 0 6960.0 5000.0 A 2040.0 2040.0 0 0 0 9000.0 7040.0" stroke="purple" fill="none" stroke-width="10.0"/>
        <path d="M 7040.0 9000.0 A 2040.0 2040.0 0 0 0 5000.0 6960.0 A 2040.0 2040.0 0 0 0 2960.0 9000.0" stroke="purple" fill="none" stroke-width="10.0"/>
        <path d="M 2940.0 1000.0 A 1940.0 1940.0 0 0 1 1000.0 2940.0" stroke="purple" fill="none" stroke-width="10.0"/>
        <path d="M 6940.0 1000.0 A 1940.0 1940.0 0 0 1 5000.0 2940.0 A 2060.0 2060.0 0 0 0 2940.0 5000.0 A 1940.0 1940.0 0 0 1 1000.0 6940.0" stroke="purple" fill="none" stroke-width="10.0"/>
        <path d="M 9000.0 2940.0 A 2060.0 2060.0 0 0 0 6940.0 5000.0 A 2060.0 2060.0 0 0 0 9000.0 7060.0" stroke="purple" fill="none" stroke-width="10.0"/>
        <path d="M 7060.0 9000.0 A 2060.0 2060.0 0 0 0 5000.0 6940.0 A 2060.0 2060.0 0 0 0 2940.0 9000.0" stroke="purple" fill="none" stroke-width="10.0"/>
        <path d="M 2920.0 1000.0 A 1920.0 1920.0 0 0 1 1000.0 2920.0" stroke="purple" fill="none" stroke-width="10.0"/>
        <path d="M 6920.0 1000.0 A 1920.0 1920.0 0 0 1 5000.0 2920.0 A 2080.0 2080.0 0 0 0 2920.0 5000.0 A 1920.0 1920.0 0 0 1 1000.0 6920.0" stroke="purple" fill="none" stroke-width="10.0"/>
        <path d="M 9000.0 2920.0 A 2080.0 2080.0 0 0 0 6920.0 5000.0 A 2080.0 2080.0 0 0 0 9000.0 7080.0" stroke="purple" fill="none" stroke-width="10.0"/>
        <path d="M 7080.0 9000.0 A 2080.0 2080.0 0 0 0 5000.0 6920.0 A 2080.0 2080.0 0 0 0 2920.0 9000.0" stroke="purple" fill="none" stroke-width="10.0"/>
    </g>
    <g inkscape:groupmode="layer" inkscape:label="3 - gridlines" id="g5" transform="translate(0.0 0.0)"><path d="M 1000.0 1000.0 L 1000.0 5000.0 L 5000.0 5000.0 L 5000.0 1000.0 L 1000.0 1000.0" stroke="black" fill="none" stroke-width="10.0"/>
        <path d="M 5000.0 1000.0 L 5000.0 5000.0 L 9000.0 5000.0 L 9000.0 1000.0 L 5000.0 1000.0" stroke="black" fill="none" stroke-width="10.0"/>
        <path d="M 1000.0 5000.0 L 1000.0 9000.0 L 5000.0 9000.0 L 5000.0 5000.0 L 1000.0 5000.0" stroke="black" fill="none" stroke-width="10.0"/>
        <path d="M 5000.0 5000.0 L 5000.0 9000.0 L 9000.0 9000.0 L 9000.0 5000.0 L 5000.0 5000.0" stroke="black" fill="none" stroke-width="10.0"/>
    </g>
    <g inkscape:groupmode="layer" inkscape:label="4 - GUIDELINES-pen" id="g5" transform="translate(0.0 0.0)"><line x1="1300.0" x2="1300.0" y1="225.0" y2="300.0" stroke="black" fill="none" stroke-width="3"/>
        <line x1="1325.0" x2="1325.0" y1="225.0" y2="300.0" stroke="black" fill="none" stroke-width="3"/>
        <line x1="1350.0" x2="1350.0" y1="225.0" y2="300.0" stroke="black" fill="none" stroke-width="3"/>
        <line x1="1375.0" x2="1375.0" y1="225.0" y2="300.0" stroke="black" fill="none" stroke-width="3"/>
        <line x1="1400.0" x2="1400.0" y1="225.0" y2="300.0" stroke="black" fill="none" stroke-width="3"/>
        <line x1="1425.0" x2="1425.0" y1="225.0" y2="300.0" stroke="black" fill="none" stroke-width="3"/>
        <line x1="1450.0" x2="1450.0" y1="225.0" y2="300.0" stroke="black" fill="none" stroke-width="3"/>
        <line x1="1475.0" x2="1475.0" y1="225.0" y2="300.0" stroke="black" fill="none" stroke-width="3"/>
        <line x1="1500.0" x2="1500.0" y1="200.0" y2="300.0" stroke="black" fill="none" stroke-width="3"/>
        <line x1="1525.0" x2="1525.0" y1="225.0" y2="300.0" stroke="black" fill="none" stroke-width="3"/>
        <line x1="1550.0" x2="1550.0" y1="225.0" y2="300.0" stroke="black" fill="none" stroke-width="3"/>
        <line x1="1575.0" x2="1575.0" y1="225.0" y2="300.0" stroke="black" fill="none" stroke-width="3"/>
        <line x1="1600.0" x2="1600.0" y1="225.0" y2="300.0" stroke="black" fill="none" stroke-width="3"/>
        <line x1="1625.0" x2="1625.0" y1="225.0" y2="300.0" stroke="black" fill="none" stroke-width="3"/>
        <line x1="1650.0" x2="1650.0" y1="225.0" y2="300.0" stroke="black" fill="none" stroke-width="3"/>
        <line x1="1675.0" x2="1675.0" y1="225.0" y2="300.0" stroke="black" fill="none" stroke-width="3"/>
        <line x1="1700.0" x2="1700.0" y1="225.0" y2="300.0" stroke="black" fill="none" stroke-width="3"/>
        <line x1="1300.0" x2="1300.0" y1="700.0" y2="775.0" stroke="black" fill="none" stroke-width="3"/>
        <line x1="1325.0" x2="1325.0" y1="700.0" y2="775.0" stroke="black" fill="none" stroke-width="3"/>
        <line x1="1350.0" x2="1350.0" y1="700.0" y2="775.0" stroke="black" fill="none" stroke-width="3"/>
        <line x1="1375.0" x2="1375.0" y1="700.0" y2="775.0" stroke="black" fill="none" stroke-width="3"/>
        <line x1="1400.0" x2="1400.0" y1="700.0" y2="775.0" stroke="black" fill="none" stroke-width="3"/>
        <line x1="1425.0" x2="1425.0" y1="700.0" y2="775.0" stroke="black" fill="none" stroke-width="3"/>
        <line x1="1450.0" x2="1450.0" y1="700.0" y2="775.0" stroke="black" fill="none" stroke-width="3"/>
        <line x1="1475.0" x2="1475.0" y1="700.0" y2="775.0" stroke="black" fill="none" stroke-width="3"/>
        <line x1="1500.0" x2="1500.0" y1="700.0" y2="800.0" stroke="black" fill="none" stroke-width="3"/>
        <line x1="1525.0" x2="1525.0" y1="700.0" y2="775.0" stroke="black" fill="none" stroke-width="3"/>
        <line x1="1550.0" x2="1550.0" y1="700.0" y2="775.0" stroke="black" fill="none" stroke-width="3"/>
        <line x1="1575.0" x2="1575.0" y1="700.0" y2="775.0" stroke="black" fill="none" stroke-width="3"/>
        <line x1="1600.0" x2="1600.0" y1="700.0" y2="775.0" stroke="black" fill="none" stroke-width="3"/>
        <line x1="1625.0" x2="1625.0" y1="700.0" y2="775.0" stroke="black" fill="none" stroke-width="3"/>
        <line x1="1650.0" x2="1650.0" y1="700.0" y2="775.0" stroke="black" fill="none" stroke-width="3"/>
        <line x1="1675.0" x2="1675.0" y1="700.0" y2="775.0" stroke="black" fill="none" stroke-width="3"/>
        <line x1="1700.0" x2="1700.0" y1="700.0" y2="775.0" stroke="black" fill="none" stroke-width="3"/>
        <line x1="1225.0" x2="1300.0" y1="300.0" y2="300.0" stroke="black" fill="none" stroke-width="3"/>
        <line x1="1225.0" x2="1300.0" y1="325.0" y2="325.0" stroke="black" fill="none" stroke-width="3"/>
        <line x1="1225.0" x2="1300.0" y1="350.0" y2="350.0" stroke="black" fill="none" stroke-width="3"/>
        <line x1="1225.0" x2="1300.0" y1="375.0" y2="375.0" stroke="black" fill="none" stroke-width="3"/>
        <line x1="1225.0" x2="1300.0" y1="400.0" y2="400.0" stroke="black" fill="none" stroke-width="3"/>
        <line x1="1225.0" x2="1300.0" y1="425.0" y2="425.0" stroke="black" fill="none" stroke-width="3"/>
        <line x1="1225.0" x2="1300.0" y1="450.0" y2="450.0" stroke="black" fill="none" stroke-width="3"/>
        <line x1="1225.0" x2="1300.0" y1="475.0" y2="475.0" stroke="black" fill="none" stroke-width="3"/>
        <line x1="1200.0" x2="1300.0" y1="500.0" y2="500.0" stroke="black" fill="none" stroke-width="3"/>
        <line x1="1225.0" x2="1300.0" y1="525.0" y2="525.0" stroke="black" fill="none" stroke-width="3"/>
        <line x1="1225.0" x2="1300.0" y1="550.0" y2="550.0" stroke="black" fill="none" stroke-width="3"/>
        <line x1="1225.0" x2="1300.0" y1="575.0" y2="575.0" stroke="black" fill="none" stroke-width="3"/>
        <line x1="1225.0" x2="1300.0" y1="600.0" y2="600.0" stroke="black" fill="none" stroke-width="3"/>
        <line x1="1225.0" x2="1300.0" y1="625.0" y2="625.0" stroke="black" fill="none" stroke-width="3"/>
        <line x1="1225.0" x2="1300.0" y1="650.0" y2="650.0" stroke="black" fill="none" stroke-width="3"/>
        <line x1="1225.0" x2="1300.0" y1="675.0" y2="675.0" stroke="black" fill="none" stroke-width="3"/>
        <line x1="1225.0" x2="1300.0" y1="700.0" y2="700.0" stroke="black" fill="none" stroke-width="3"/>
        <line x1="1700.0" x2="1775.0" y1="300.0" y2="300.0" stroke="black" fill="none" stroke-width="3"/>
        <line x1="1700.0" x2="1775.0" y1="325.0" y2="325.0" stroke="black" fill="none" stroke-width="3"/>
        <line x1="1700.0" x2="1775.0" y1="350.0" y2="350.0" stroke="black" fill="none" stroke-width="3"/>
        <line x1="1700.0" x2="1775.0" y1="375.0" y2="375.0" stroke="black" fill="none" stroke-width="3"/>
        <line x1="1700.0" x2="1775.0" y1="400.0" y2="400.0" stroke="black" fill="none" stroke-width="3"/>
        <line x1="1700.0" x2="1775.0" y1="425.0" y2="425.0" stroke="black" fill="none" stroke-width="3"/>
        <line x1="1700.0" x2="1775.0" y1="450.0" y2="450.0" stroke="black" fill="none" stroke-width="3"/>
        <line x1="1700.0" x2="1775.0" y1="475.0" y2="475.0" stroke="black" fill="none" stroke-width="3"/>
        <line x1="1700.0" x2="1800.0" y1="500.0" y2="500.0" stroke="black" fill="none" stroke-width="3"/>
        <line x1="1700.0" x2="1775.0" y1="525.0" y2="525.0" stroke="black" fill="none" stroke-width="3"/>
        <line x1="1700.0" x2="1775.0" y1="550.0" y2="550.0" stroke="black" fill="none" stroke-width="3"/>
        <line x1="1700.0" x2="1775.0" y1="575.0" y2="575.0" stroke="black" fill="none" stroke-width="3"/>
        <line x1="1700.0" x2="1775.0" y1="600.0" y2="600.0" stroke="black" fill="none" stroke-width="3"/>
        <line x1="1700.0" x2="1775.0" y1="625.0" y2="625.0" stroke="black" fill="none" stroke-width="3"/>
        <line x1="1700.0" x2="1775.0" y1="650.0" y2="650.0" stroke="black" fill="none" stroke-width="3"/>
        <line x1="1700.0" x2="1775.0" y1="675.0" y2="675.0" stroke="black" fill="none" stroke-width="3"/>
        <line x1="1700.0" x2="1775.0" y1="700.0" y2="700.0" stroke="black" fill="none" stroke-width="3"/>
        <line x1="2300.0" x2="2300.0" y1="225.0" y2="300.0" stroke="black" fill="none" stroke-width="3"/>
        <line x1="2325.0" x2="2325.0" y1="225.0" y2="300.0" stroke="black" fill="none" stroke-width="3"/>
        <line x1="2350.0" x2="2350.0" y1="225.0" y2="300.0" stroke="black" fill="none" stroke-width="3"/>
        <line x1="2375.0" x2="2375.0" y1="225.0" y2="300.0" stroke="black" fill="none" stroke-width="3"/>
        <line x1="2400.0" x2="2400.0" y1="225.0" y2="300.0" stroke="black" fill="none" stroke-width="3"/>
        <line x1="2425.0" x2="2425.0" y1="225.0" y2="300.0" stroke="black" fill="none" stroke-width="3"/>
        <line x1="2450.0" x2="2450.0" y1="225.0" y2="300.0" stroke="black" fill="none" stroke-width="3"/>
        <line x1="2475.0" x2="2475.0" y1="225.0" y2="300.0" stroke="black" fill="none" stroke-width="3"/>
        <line x1="2500.0" x2="2500.0" y1="200.0" y2="300.0" stroke="black" fill="none" stroke-width="3"/>
        <line x1="2525.0" x2="2525.0" y1="225.0" y2="300.0" stroke="black" fill="none" stroke-width="3"/>
        <line x1="2550.0" x2="2550.0" y1="225.0" y2="300.0" stroke="black" fill="none" stroke-width="3"/>
        <line x1="2575.0" x2="2575.0" y1="225.0" y2="300.0" stroke="black" fill="none" stroke-width="3"/>
        <line x1="2600.0" x2="2600.0" y1="225.0" y2="300.0" stroke="black" fill="none" stroke-width="3"/>
        <line x1="2625.0" x2="2625.0" y1="225.0" y2="300.0" stroke="black" fill="none" stroke-width="3"/>
        <line x1="2650.0" x2="2650.0" y1="225.0" y2="300.0" stroke="black" fill="none" stroke-width="3"/>
        <line x1="2675.0" x2="2675.0" y1="225.0" y2="300.0" stroke="black" fill="none" stroke-width="3"/>
        <line x1="2700.0" x2="2700.0" y1="225.0" y2="300.0" stroke="black" fill="none" stroke-width="3"/>
        <line x1="2300.0" x2="2300.0" y1="700.0" y2="775.0" stroke="black" fill="none" stroke-width="3"/>
        <line x1="2325.0" x2="2325.0" y1="700.0" y2="775.0" stroke="black" fill="none" stroke-width="3"/>
        <line x1="2350.0" x2="2350.0" y1="700.0" y2="775.0" stroke="black" fill="none" stroke-width="3"/>
        <line x1="2375.0" x2="2375.0" y1="700.0" y2="775.0" stroke="black" fill="none" stroke-width="3"/>
        <line x1="2400.0" x2="2400.0" y1="700.0" y2="775.0" stroke="black" fill="none" stroke-width="3"/>
        <line x1="2425.0" x2="2425.0" y1="700.0" y2="775.0" stroke="black" fill="none" stroke-width="3"/>
        <line x1="2450.0" x2="2450.0" y1="700.0" y2="775.0" stroke="black" fill="none" stroke-width="3"/>
        <line x1="2475.0" x2="2475.0" y1="700.0" y2="775.0" stroke="black" fill="none" stroke-width="3"/>
        <line x1="2500.0" x2="2500.0" y1="700.0" y2="800.0" stroke="black" fill="none" stroke-width="3"/>
        <line x1="2525.0" x2="2525.0" y1="700.0" y2="775.0" stroke="black" fill="none" stroke-width="3"/>
        <line x1="2550.0" x2="2550.0" y1="700.0" y2="775.0" stroke="black" fill="none" stroke-width="3"/>
        <line x1="2575.0" x2="2575.0" y1="700.0" y2="775.0" stroke="black" fill="none" stroke-width="3"/>
        <line x1="2600.0" x2="2600.0" y1="700.0" y2="775.0" stroke="black" fill="none" stroke-width="3"/>
        <line x1="2625.0" x2="2625.0" y1="700.0" y2="775.0" stroke="black" fill="none" stroke-width="3"/>
        <line x1="2650.0" x2="2650.0" y1="700.0" y2="775.0" stroke="black" fill="none" stroke-width="3"/>
        <line x1="2675.0" x2="2675.0" y1="700.0" y2="775.0" stroke="black" fill="none" stroke-width="3"/>
        <line x1="2700.0" x2="2700.0" y1="700.0" y2="775.0" stroke="black" fill="none" stroke-width="3"/>
        <line x1="2225.0" x2="2300.0" y1="300.0" y2="300.0" stroke="black" fill="none" stroke-width="3"/>
        <line x1="2225.0" x2="2300.0" y1="325.0" y2="325.0" stroke="black" fill="none" stroke-width="3"/>
        <line x1="2225.0" x2="2300.0" y1="350.0" y2="350.0" stroke="black" fill="none" stroke-width="3"/>
        <line x1="2225.0" x2="2300.0" y1="375.0" y2="375.0" stroke="black" fill="none" stroke-width="3"/>
        <line x1="2225.0" x2="2300.0" y1="400.0" y2="400.0" stroke="black" fill="none" stroke-width="3"/>
        <line x1="2225.0" x2="2300.0" y1="425.0" y2="425.0" stroke="black" fill="none" stroke-width="3"/>
        <line x1="2225.0" x2="2300.0" y1="450.0" y2="450.0" stroke="black" fill="none" stroke-width="3"/>
        <line x1="2225.0" x2="2300.0" y1="475.0" y2="475.0" stroke="black" fill="none" stroke-width="3"/>
        <line x1="2200.0" x2="2300.0" y1="500.0" y2="500.0" stroke="black" fill="none" stroke-width="3"/>
        <line x1="2225.0" x2="2300.0" y1="525.0" y2="525.0" stroke="black" fill="none" stroke-width="3"/>
        <line x1="2225.0" x2="2300.0" y1="550.0" y2="550.0" stroke="black" fill="none" stroke-width="3"/>
        <line x1="2225.0" x2="2300.0" y1="575.0" y2="575.0" stroke="black" fill="none" stroke-width="3"/>
        <line x1="2225.0" x2="2300.0" y1="600.0" y2="600.0" stroke="black" fill="none" stroke-width="3"/>
        <line x1="2225.0" x2="2300.0" y1="625.0" y2="625.0" stroke="black" fill="none" stroke-width="3"/>
        <line x1="2225.0" x2="2300.0" y1="650.0" y2="650.0" stroke="black" fill="none" stroke-width="3"/>
        <line x1="2225.0" x2="2300.0" y1="675.0" y2="675.0" stroke="black" fill="none" stroke-width="3"/>
        <line x1="2225.0" x2="2300.0" y1="700.0" y2="700.0" stroke="black" fill="none" stroke-width="3"/>
        <line x1="2700.0" x2="2775.0" y1="300.0" y2="300.0" stroke="black" fill="none" stroke-width="3"/>
        <line x1="2700.0" x2="2775.0" y1="325.0" y2="325.0" stroke="black" fill="none" stroke-width="3"/>
        <line x1="2700.0" x2="2775.0" y1="350.0" y2="350.0" stroke="black" fill="none" stroke-width="3"/>
        <line x1="2700.0" x2="2775.0" y1="375.0" y2="375.0" stroke="black" fill="none" stroke-width="3"/>
        <line x1="2700.0" x2="2775.0" y1="400.0" y2="400.0" stroke="black" fill="none" stroke-width="3"/>
        <line x1="2700.0" x2="2775.0" y1="425.0" y2="425.0" stroke="black" fill="none" stroke-width="3"/>
        <line x1="2700.0" x2="2775.0" y1="450.0" y2="450.0" stroke="black" fill="none" stroke-width="3"/>
        <line x1="2700.0" x2="2775.0" y1="475.0" y2="475.0" stroke="black" fill="none" stroke-width="3"/>
        <line x1="2700.0" x2="2800.0" y1="500.0" y2="500.0" stroke="black" fill="none" stroke-width="3"/>
        <line x1="2700.0" x2="2775.0" y1="525.0" y2="525.0" stroke="black" fill="none" stroke-width="3"/>
        <line x1="2700.0" x2="2775.0" y1="550.0" y2="550.0" stroke="black" fill="none" stroke-width="3"/>
        <line x1="2700.0" x2="2775.0" y1="575.0" y2="575.0" stroke="black" fill="none" stroke-width="3"/>
        <line x1="2700.0" x2="2775.0" y1="600.0" y2="600.0" stroke="black" fill="none" stroke-width="3"/>
        <line x1="2700.0" x2="2775.0" y1="625.0" y2="625.0" stroke="black" fill="none" stroke-width="3"/>
        <line x1="2700.0" x2="2775.0" y1="650.0" y2="650.0" stroke="black" fill="none" stroke-width="3"/>
        <line x1="2700.0" x2="2775.0" y1="675.0" y2="675.0" stroke="black" fill="none" stroke-width="3"/>
        <line x1="2700.0" x2="2775.0" y1="700.0" y2="700.0" stroke="black" fill="none" stroke-width="3"/>
        <line x1="3300.0" x2="3300.0" y1="225.0" y2="300.0" stroke="black" fill="none" stroke-width="3"/>
        <line x1="3325.0" x2="3325.0" y1="225.0" y2="300.0" stroke="black" fill="none" stroke-width="3"/>
        <line x1="3350.0" x2="3350.0" y1="225.0" y2="300.0" stroke="black" fill="none" stroke-width="3"/>
        <line x1="3375.0" x2="3375.0" y1="225.0" y2="300.0" stroke="black" fill="none" stroke-width="3"/>
        <line x1="3400.0" x2="3400.0" y1="225.0" y2="300.0" stroke="black" fill="none" stroke-width="3"/>
        <line x1="3425.0" x2="3425.0" y1="225.0" y2="300.0" stroke="black" fill="none" stroke-width="3"/>
        <line x1="3450.0" x2="3450.0" y1="225.0" y2="300.0" stroke="black" fill="none" stroke-width="3"/>
        <line x1="3475.0" x2="3475.0" y1="225.0" y2="300.0" stroke="black" fill="none" stroke-width="3"/>
        <line x1="3500.0" x2="3500.0" y1="200.0" y2="300.0" stroke="black" fill="none" stroke-width="3"/>
        <line x1="3525.0" x2="3525.0" y1="225.0" y2="300.0" stroke="black" fill="none" stroke-width="3"/>
        <line x1="3550.0" x2="3550.0" y1="225.0" y2="300.0" stroke="black" fill="none" stroke-width="3"/>
        <line x1="3575.0" x2="3575.0" y1="225.0" y2="300.0" stroke="black" fill="none" stroke-width="3"/>
        <line x1="3600.0" x2="3600.0" y1="225.0" y2="300.0" stroke="black" fill="none" stroke-width="3"/>
        <line x1="3625.0" x2="3625.0" y1="225.0" y2="300.0" stroke="black" fill="none" stroke-width="3"/>
        <line x1="3650.0" x2="3650.0" y1="225.0" y2="300.0" stroke="black" fill="none" stroke-width="3"/>
        <line x1="3675.0" x2="3675.0" y1="225.0" y2="300.0" stroke="black" fill="none" stroke-width="3"/>
        <line x1="3700.0" x2="3700.0" y1="225.0" y2="300.0" stroke="black" fill="none" stroke-width="3"/>
        <line x1="3300.0" x2="3300.0" y1="700.0" y2="775.0" stroke="black" fill="none" stroke-width="3"/>
        <line x1="3325.0" x2="3325.0" y1="700.0" y2="775.0" stroke="black" fill="none" stroke-width="3"/>
        <line x1="3350.0" x2="3350.0" y1="700.0" y2="775.0" stroke="black" fill="none" stroke-width="3"/>
        <line x1="3375.0" x2="3375.0" y1="700.0" y2="775.0" stroke="black" fill="none" stroke-width="3"/>
        <line x1="3400.0" x2="3400.0" y1="700.0" y2="775.0" stroke="black" fill="none" stroke-width="3"/>
        <line x1="3425.0" x2="3425.0" y1="700.0" y2="775.0" stroke="black" fill="none" stroke-width="3"/>
        <line x1="3450.0" x2="3450.0" y1="700.0" y2="775.0" stroke="black" fill="none" stroke-width="3"/>
        <line x1="3475.0" x2="3475.0" y1="700.0" y2="775.0" stroke="black" fill="none" stroke-width="3"/>
        <line x1="3500.0" x2="3500.0" y1="700.0" y2="800.0" stroke="black" fill="none" stroke-width="3"/>
        <line x1="3525.0" x2="3525.0" y1="700.0" y2="775.0" stroke="black" fill="none" stroke-width="3"/>
        <line x1="3550.0" x2="3550.0" y1="700.0" y2="775.0" stroke="black" fill="none" stroke-width="3"/>
        <line x1="3575.0" x2="3575.0" y1="700.0" y2="775.0" stroke="black" fill="none" stroke-width="3"/>
        <line x1="3600.0" x2="3600.0" y1="700.0" y2="775.0" stroke="black" fill="none" stroke-width="3"/>
        <line x1="3625.0" x2="3625.0" y1="700.0" y2="775.0" stroke="black" fill="none" stroke-width="3"/>
        <line x1="3650.0" x2="3650.0" y1="700.0" y2="775.0" stroke="black" fill="none" stroke-width="3"/>
        <line x1="3675.0" x2="3675.0" y1="700.0" y2="775.0" stroke="black" fill="none" stroke-width="3"/>
        <line x1="3700.0" x2="3700.0" y1="700.0" y2="775.0" stroke="black" fill="none" stroke-width="3"/>
        <line x1="3225.0" x2="3300.0" y1="300.0" y2="300.0" stroke="black" fill="none" stroke-width="3"/>
        <line x1="3225.0" x2="3300.0" y1="325.0" y2="325.0" stroke="black" fill="none" stroke-width="3"/>
        <line x1="3225.0" x2="3300.0" y1="350.0" y2="350.0" stroke="black" fill="none" stroke-width="3"/>
        <line x1="3225.0" x2="3300.0" y1="375.0" y2="375.0" stroke="black" fill="none" stroke-width="3"/>
        <line x1="3225.0" x2="3300.0" y1="400.0" y2="400.0" stroke="black" fill="none" stroke-width="3"/>
        <line x1="3225.0" x2="3300.0" y1="425.0" y2="425.0" stroke="black" fill="none" stroke-width="3"/>
        <line x1="3225.0" x2="3300.0" y1="450.0" y2="450.0" stroke="black" fill="none" stroke-width="3"/>
        <line x1="3225.0" x2="3300.0" y1="475.0" y2="475.0" stroke="black" fill="none" stroke-width="3"/>
        <line x1="3200.0" x2="3300.0" y1="500.0" y2="500.0" stroke="black" fill="none" stroke-width="3"/>
        <line x1="3225.0" x2="3300.0" y1="525.0" y2="525.0" stroke="black" fill="none" stroke-width="3"/>
        <line x1="3225.0" x2="3300.0" y1="550.0" y2="550.0" stroke="black" fill="none" stroke-width="3"/>
        <line x1="3225.0" x2="3300.0" y1="575.0" y2="575.0" stroke="black" fill="none" stroke-width="3"/>
        <line x1="3225.0" x2="3300.0" y1="600.0" y2="600.0" stroke="black" fill="none" stroke-width="3"/>
        <line x1="3225.0" x2="3300.0" y1="625.0" y2="625.0" stroke="black" fill="none" stroke-width="3"/>
        <line x1="3225.0" x2="3300.0" y1="650.0" y2="650.0" stroke="black" fill="none" stroke-width="3"/>
        <line x1="3225.0" x2="3300.0" y1="675.0" y2="675.0" stroke="black" fill="none" stroke-width="3"/>
        <line x1="3225.0" x2="3300.0" y1="700.0" y2="700.0" stroke="black" fill="none" stroke-width="3"/>
        <line x1="3700.0" x2="3775.0" y1="300.0" y2="300.0" stroke="black" fill="none" stroke-width="3"/>
        <line x1="3700.0" x2="3775.0" y1="325.0" y2="325.0" stroke="black" fill="none" stroke-width="3"/>
        <line x1="3700.0" x2="3775.0" y1="350.0" y2="350.0" stroke="black" fill="none" stroke-width="3"/>
        <line x1="3700.0" x2="3775.0" y1="375.0" y2="375.0" stroke="black" fill="none" stroke-width="3"/>
        <line x1="3700.0" x2="3775.0" y1="400.0" y2="400.0" stroke="black" fill="none" stroke-width="3"/>
        <line x1="3700.0" x2="3775.0" y1="425.0" y2="425.0" stroke="black" fill="none" stroke-width="3"/>
        <line x1="3700.0" x2="3775.0" y1="450.0" y2="450.0" stroke="black" fill="none" stroke-width="3"/>
        <line x1="3700.0" x2="3775.0" y1="475.0" y2="475.0" stroke="black" fill="none" stroke-width="3"/>
        <line x1="3700.0" x2="3800.0" y1="500.0" y2="500.0" stroke="black" fill="none" stroke-width="3"/>
        <line x1="3700.0" x2="3775.0" y1="525.0" y2="525.0" stroke="black" fill="none" stroke-width="3"/>
        <line x1="3700.0" x2="3775.0" y1="550.0" y2="550.0" stroke="black" fill="none" stroke-width="3"/>
        <line x1="3700.0" x2="3775.0" y1="575.0" y2="575.0" stroke="black" fill="none" stroke-width="3"/>
        <line x1="3700.0" x2="3775.0" y1="600.0" y2="600.0" stroke="black" fill="none" stroke-width="3"/>
        <line x1="3700.0" x2="3775.0" y1="625.0" y2="625.0" stroke="black" fill="none" stroke-width="3"/>
        <line x1="3700.0" x2="3775.0" y1="650.0" y2="650.0" stroke="black" fill="none" stroke-width="3"/>
        <line x1="3700.0" x2="3775.0" y1="675.0" y2="675.0" stroke="black" fill="none" stroke-width="3"/>
        <line x1="3700.0" x2="3775.0" y1="700.0" y2="700.0" stroke="black" fill="none" stroke-width="3"/>
    </g>
    <g inkscape:groupmode="layer" inkscape:label="5 - GUIDELINES-Layer 1" id="g5" transform="translate(0.0 0.0)"><line x1="1500.0" x2="1500.0" y1="300.0" y2="700.0" stroke="red" fill="none" stroke-width="10.0"/>
        <line x1="1300.0" x2="1700.0" y1="500.0" y2="500.0" stroke="red" fill="none" stroke-width="10.0"/>
    </g>
    <g inkscape:groupmode="layer" inkscape:label="6 - GUIDELINES-Layer 2" id="g5" transform="translate(0.0 0.0)"><line x1="2500.0" x2="2500.0" y1="300.0" y2="700.0" stroke="purple" fill="none" stroke-width="10.0"/>
        <line x1="2300.0" x2="2700.0" y1="500.0" y2="500.0" stroke="purple" fill="none" stroke-width="10.0"/>
    </g>
    <g inkscape:groupmode="layer" inkscape:label="7 - GUIDELINES-Layer 3" id="g5" transform="translate(0.0 0.0)"><line x1="3500.0" x2="3500.0" y1="300.0" y2="700.0" stroke="black" fill="none" stroke-width="10.0"/>
        <line x1="3300.0" x2="3700.0" y1="500.0" y2="500.0" stroke="black" fill="none" stroke-width="10.0"/>
    </g>
</svg>
