<?xml version="1.0" encoding="UTF-8" standalone="no"?>
<!-- Generated by SVGo -->

<svg
   width="12in"
   height="9in"
   viewBox="0 0 1000 1000"
   version="1.1"
   id="svg160"
   sodipodi:docname="test.svg"
   inkscape:version="1.3.2 (091e20e, 2023-11-25, custom)"
   xmlns:inkscape="http://www.inkscape.org/namespaces/inkscape"
   xmlns:sodipodi="http://sodipodi.sourceforge.net/DTD/sodipodi-0.dtd"
   xmlns="http://www.w3.org/2000/svg"
   xmlns:svg="http://www.w3.org/2000/svg">
  <sodipodi:namedview
     id="namedview160"
     pagecolor="#ffffff"
     bordercolor="#000000"
     borderopacity="0.25"
     inkscape:showpageshadow="2"
     inkscape:pageopacity="0.0"
     inkscape:pagecheckerboard="0"
     inkscape:deskcolor="#d1d1d1"
     inkscape:document-units="in"
     inkscape:zoom="0.74434447"
     inkscape:cx="452.07564"
     inkscape:cy="570.30047"
     inkscape:window-width="1649"
     inkscape:window-height="1266"
     inkscape:window-x="4106"
     inkscape:window-y="266"
     inkscape:window-maximized="0"
     inkscape:current-layer="layer1" />
  <defs
     id="defs160" />
  <g
     id="1 - Brush">
    <line
       x1="20"
       y1="50"
       x2="212"
       y2="50"
       style="fill:none;stroke:#000000;stroke-width:0.264583;stroke-opacity:1"
       id="line6" />
    <line
       x1="20"
       y1="80"
       x2="212"
       y2="80"
       style="fill:none;stroke:#000000;stroke-width:0.264583;stroke-opacity:1"
       id="line7" />
    <line
       x1="20"
       y1="110"
       x2="212"
       y2="110"
       style="fill:none;stroke:#000000;stroke-width:0.264583;stroke-opacity:1"
       id="line8" />
    <line
       x1="20"
       y1="140"
       x2="212"
       y2="140"
       style="fill:none;stroke:#000000;stroke-width:0.264583;stroke-opacity:1"
       id="line9" />
    <line
       x1="20"
       y1="170"
       x2="212"
       y2="170"
       style="fill:none;stroke:#000000;stroke-width:0.264583;stroke-opacity:1"
       id="line10" />
    <line
       x1="20"
       y1="200"
       x2="212"
       y2="200"
       style="fill:none;stroke:#000000;stroke-width:0.264583;stroke-opacity:1"
       id="line11" />
    <line
       x1="20"
       y1="230"
       x2="212"
       y2="230"
       style="fill:none;stroke:#000000;stroke-width:0.264583;stroke-opacity:1"
       id="line12" />
    <line
       x1="20"
       y1="260"
       x2="212"
       y2="260"
       style="fill:none;stroke:#000000;stroke-width:0.264583;stroke-opacity:1"
       id="line13" />
    <line
       x1="20"
       y1="290"
       x2="212"
       y2="290"
       style="fill:none;stroke:#000000;stroke-width:0.264583;stroke-opacity:1"
       id="line14" />
    <line
       x1="20"
       y1="320"
       x2="212"
       y2="320"
       style="fill:none;stroke:#000000;stroke-width:0.264583;stroke-opacity:1"
       id="line15" />
    <line
       x1="20"
       y1="350"
       x2="212"
       y2="350"
       style="fill:none;stroke:#000000;stroke-width:0.264583;stroke-opacity:1"
       id="line16" />
    <line
       x1="20"
       y1="380"
       x2="212"
       y2="380"
       style="fill:none;stroke:#000000;stroke-width:0.264583;stroke-opacity:1"
       id="line17" />
    <line
       x1="20"
       y1="410"
       x2="212"
       y2="410"
       style="fill:none;stroke:#000000;stroke-width:0.264583;stroke-opacity:1"
       id="line18" />
    <line
       x1="20"
       y1="440"
       x2="212"
       y2="440"
       style="fill:none;stroke:#000000;stroke-width:0.264583;stroke-opacity:1"
       id="line19" />
    <line
       x1="20"
       y1="470"
       x2="212"
       y2="470"
       style="fill:none;stroke:#000000;stroke-width:0.264583;stroke-opacity:1"
       id="line20" />
    <line
       x1="20"
       y1="500"
       x2="212"
       y2="500"
       style="fill:none;stroke:#000000;stroke-width:0.264583;stroke-opacity:1"
       id="line21" />
    <line
       x1="20"
       y1="530"
       x2="212"
       y2="530"
       style="fill:none;stroke:#000000;stroke-width:0.264583;stroke-opacity:1"
       id="line22" />
    <line
       x1="20"
       y1="560"
       x2="212"
       y2="560"
       style="fill:none;stroke:#000000;stroke-width:0.264583;stroke-opacity:1"
       id="line23" />
    <line
       x1="20"
       y1="590"
       x2="212"
       y2="590"
       style="fill:none;stroke:#000000;stroke-width:0.264583;stroke-opacity:1"
       id="line24" />
    <line
       x1="20"
       y1="620"
       x2="212"
       y2="620"
       style="fill:none;stroke:#000000;stroke-width:0.264583;stroke-opacity:1"
       id="line25" />
    <line
       x1="20"
       y1="650"
       x2="212"
       y2="650"
       style="fill:none;stroke:#000000;stroke-width:0.264583;stroke-opacity:1"
       id="line26" />
    <line
       x1="20"
       y1="680"
       x2="212"
       y2="680"
       style="fill:none;stroke:#000000;stroke-width:0.264583;stroke-opacity:1"
       id="line27" />
    <line
       x1="20"
       y1="710"
       x2="212"
       y2="710"
       style="fill:none;stroke:#000000;stroke-width:0.264583;stroke-opacity:1"
       id="line28" />
    <line
       x1="20"
       y1="740"
       x2="212"
       y2="740"
       style="fill:none;stroke:#000000;stroke-width:0.264583;stroke-opacity:1"
       id="line29" />
    <line
       x1="20"
       y1="770"
       x2="212"
       y2="770"
       style="fill:none;stroke:#000000;stroke-width:0.264583;stroke-opacity:1"
       id="line30" />
    <line
       x1="20"
       y1="800"
       x2="212"
       y2="800"
       style="fill:none;stroke:#000000;stroke-width:0.264583;stroke-opacity:1"
       id="line31" />
    <line
       x1="20"
       y1="830"
       x2="212"
       y2="830"
       style="fill:none;stroke:#000000;stroke-width:0.264583;stroke-opacity:1"
       id="line32" />
    <line
       x1="20"
       y1="860"
       x2="212"
       y2="860"
       style="fill:none;stroke:#000000;stroke-width:0.264583;stroke-opacity:1"
       id="line33" />
    <line
       x1="20"
       y1="890"
       x2="212"
       y2="890"
       style="fill:none;stroke:#000000;stroke-width:0.264583;stroke-opacity:1"
       id="line34" />
    <line
       x1="20"
       y1="920"
       x2="212"
       y2="920"
       style="fill:none;stroke:#000000;stroke-width:0.264583;stroke-opacity:1"
       id="line35" />
    <line
       x1="20"
       y1="950"
       x2="212"
       y2="950"
       style="fill:none;stroke:#000000;stroke-width:0.264583;stroke-opacity:1"
       id="line36" />
  </g>
  <g
     id="2 - Brush">
    <line
       x1="212"
       y1="50"
       x2="404"
       y2="50"
       style="fill:none;stroke:#000000;stroke-width:0.264583;stroke-opacity:1"
       id="line37" />
    <line
       x1="212"
       y1="80"
       x2="404"
       y2="80"
       style="fill:none;stroke:#000000;stroke-width:0.264583;stroke-opacity:1"
       id="line38" />
    <line
       x1="212"
       y1="110"
       x2="404"
       y2="110"
       style="fill:none;stroke:#000000;stroke-width:0.264583;stroke-opacity:1"
       id="line39" />
    <line
       x1="212"
       y1="140"
       x2="404"
       y2="140"
       style="fill:none;stroke:#000000;stroke-width:0.264583;stroke-opacity:1"
       id="line40" />
    <line
       x1="212"
       y1="170"
       x2="404"
       y2="170"
       style="fill:none;stroke:#000000;stroke-width:0.264583;stroke-opacity:1"
       id="line41" />
    <line
       x1="212"
       y1="200"
       x2="404"
       y2="200"
       style="fill:none;stroke:#000000;stroke-width:0.264583;stroke-opacity:1"
       id="line42" />
    <line
       x1="212"
       y1="230"
       x2="404"
       y2="230"
       style="fill:none;stroke:#000000;stroke-width:0.264583;stroke-opacity:1"
       id="line43" />
    <line
       x1="212"
       y1="260"
       x2="404"
       y2="260"
       style="fill:none;stroke:#000000;stroke-width:0.264583;stroke-opacity:1"
       id="line44" />
    <line
       x1="212"
       y1="290"
       x2="404"
       y2="290"
       style="fill:none;stroke:#000000;stroke-width:0.264583;stroke-opacity:1"
       id="line45" />
    <line
       x1="212"
       y1="320"
       x2="404"
       y2="320"
       style="fill:none;stroke:#000000;stroke-width:0.264583;stroke-opacity:1"
       id="line46" />
    <line
       x1="212"
       y1="350"
       x2="404"
       y2="350"
       style="fill:none;stroke:#000000;stroke-width:0.264583;stroke-opacity:1"
       id="line47" />
    <line
       x1="212"
       y1="380"
       x2="404"
       y2="380"
       style="fill:none;stroke:#000000;stroke-width:0.264583;stroke-opacity:1"
       id="line48" />
    <line
       x1="212"
       y1="410"
       x2="404"
       y2="410"
       style="fill:none;stroke:#000000;stroke-width:0.264583;stroke-opacity:1"
       id="line49" />
    <line
       x1="212"
       y1="440"
       x2="404"
       y2="440"
       style="fill:none;stroke:#000000;stroke-width:0.264583;stroke-opacity:1"
       id="line50" />
    <line
       x1="212"
       y1="470"
       x2="404"
       y2="470"
       style="fill:none;stroke:#000000;stroke-width:0.264583;stroke-opacity:1"
       id="line51" />
    <line
       x1="212"
       y1="500"
       x2="404"
       y2="500"
       style="fill:none;stroke:#000000;stroke-width:0.264583;stroke-opacity:1"
       id="line52" />
    <line
       x1="212"
       y1="530"
       x2="404"
       y2="530"
       style="fill:none;stroke:#000000;stroke-width:0.264583;stroke-opacity:1"
       id="line53" />
    <line
       x1="212"
       y1="560"
       x2="404"
       y2="560"
       style="fill:none;stroke:#000000;stroke-width:0.264583;stroke-opacity:1"
       id="line54" />
    <line
       x1="212"
       y1="590"
       x2="404"
       y2="590"
       style="fill:none;stroke:#000000;stroke-width:0.264583;stroke-opacity:1"
       id="line55" />
    <line
       x1="212"
       y1="620"
       x2="404"
       y2="620"
       style="fill:none;stroke:#000000;stroke-width:0.264583;stroke-opacity:1"
       id="line56" />
    <line
       x1="212"
       y1="650"
       x2="404"
       y2="650"
       style="fill:none;stroke:#000000;stroke-width:0.264583;stroke-opacity:1"
       id="line57" />
    <line
       x1="212"
       y1="680"
       x2="404"
       y2="680"
       style="fill:none;stroke:#000000;stroke-width:0.264583;stroke-opacity:1"
       id="line58" />
    <line
       x1="212"
       y1="710"
       x2="404"
       y2="710"
       style="fill:none;stroke:#000000;stroke-width:0.264583;stroke-opacity:1"
       id="line59" />
    <line
       x1="212"
       y1="740"
       x2="404"
       y2="740"
       style="fill:none;stroke:#000000;stroke-width:0.264583;stroke-opacity:1"
       id="line60" />
    <line
       x1="212"
       y1="770"
       x2="404"
       y2="770"
       style="fill:none;stroke:#000000;stroke-width:0.264583;stroke-opacity:1"
       id="line61" />
    <line
       x1="212"
       y1="800"
       x2="404"
       y2="800"
       style="fill:none;stroke:#000000;stroke-width:0.264583;stroke-opacity:1"
       id="line62" />
    <line
       x1="212"
       y1="830"
       x2="404"
       y2="830"
       style="fill:none;stroke:#000000;stroke-width:0.264583;stroke-opacity:1"
       id="line63" />
    <line
       x1="212"
       y1="860"
       x2="404"
       y2="860"
       style="fill:none;stroke:#000000;stroke-width:0.264583;stroke-opacity:1"
       id="line64" />
    <line
       x1="212"
       y1="890"
       x2="404"
       y2="890"
       style="fill:none;stroke:#000000;stroke-width:0.264583;stroke-opacity:1"
       id="line65" />
    <line
       x1="212"
       y1="920"
       x2="404"
       y2="920"
       style="fill:none;stroke:#000000;stroke-width:0.264583;stroke-opacity:1"
       id="line66" />
    <line
       x1="212"
       y1="950"
       x2="404"
       y2="950"
       style="fill:none;stroke:#000000;stroke-width:0.264583;stroke-opacity:1"
       id="line67" />
  </g>
  <g
     id="3 - Brush">
    <line
       x1="404"
       y1="50"
       x2="596"
       y2="50"
       style="fill:none;stroke:#000000;stroke-width:0.264583;stroke-opacity:1"
       id="line68" />
    <line
       x1="404"
       y1="80"
       x2="596"
       y2="80"
       style="fill:none;stroke:#000000;stroke-width:0.264583;stroke-opacity:1"
       id="line69" />
    <line
       x1="404"
       y1="110"
       x2="596"
       y2="110"
       style="fill:none;stroke:#000000;stroke-width:0.264583;stroke-opacity:1"
       id="line70" />
    <line
       x1="404"
       y1="140"
       x2="596"
       y2="140"
       style="fill:none;stroke:#000000;stroke-width:0.264583;stroke-opacity:1"
       id="line71" />
    <line
       x1="404"
       y1="170"
       x2="596"
       y2="170"
       style="fill:none;stroke:#000000;stroke-width:0.264583;stroke-opacity:1"
       id="line72" />
    <line
       x1="404"
       y1="200"
       x2="596"
       y2="200"
       style="fill:none;stroke:#000000;stroke-width:0.264583;stroke-opacity:1"
       id="line73" />
    <line
       x1="404"
       y1="230"
       x2="596"
       y2="230"
       style="fill:none;stroke:#000000;stroke-width:0.264583;stroke-opacity:1"
       id="line74" />
    <line
       x1="404"
       y1="260"
       x2="596"
       y2="260"
       style="fill:none;stroke:#000000;stroke-width:0.264583;stroke-opacity:1"
       id="line75" />
    <line
       x1="404"
       y1="290"
       x2="596"
       y2="290"
       style="fill:none;stroke:#000000;stroke-width:0.264583;stroke-opacity:1"
       id="line76" />
    <line
       x1="404"
       y1="320"
       x2="596"
       y2="320"
       style="fill:none;stroke:#000000;stroke-width:0.264583;stroke-opacity:1"
       id="line77" />
    <line
       x1="404"
       y1="350"
       x2="596"
       y2="350"
       style="fill:none;stroke:#000000;stroke-width:0.264583;stroke-opacity:1"
       id="line78" />
    <line
       x1="404"
       y1="380"
       x2="596"
       y2="380"
       style="fill:none;stroke:#000000;stroke-width:0.264583;stroke-opacity:1"
       id="line79" />
    <line
       x1="404"
       y1="410"
       x2="596"
       y2="410"
       style="fill:none;stroke:#000000;stroke-width:0.264583;stroke-opacity:1"
       id="line80" />
    <line
       x1="404"
       y1="440"
       x2="596"
       y2="440"
       style="fill:none;stroke:#000000;stroke-width:0.264583;stroke-opacity:1"
       id="line81" />
    <line
       x1="404"
       y1="470"
       x2="596"
       y2="470"
       style="fill:none;stroke:#000000;stroke-width:0.264583;stroke-opacity:1"
       id="line82" />
    <line
       x1="404"
       y1="500"
       x2="596"
       y2="500"
       style="fill:none;stroke:#000000;stroke-width:0.264583;stroke-opacity:1"
       id="line83" />
    <line
       x1="404"
       y1="530"
       x2="596"
       y2="530"
       style="fill:none;stroke:#000000;stroke-width:0.264583;stroke-opacity:1"
       id="line84" />
    <line
       x1="404"
       y1="560"
       x2="596"
       y2="560"
       style="fill:none;stroke:#000000;stroke-width:0.264583;stroke-opacity:1"
       id="line85" />
    <line
       x1="404"
       y1="590"
       x2="596"
       y2="590"
       style="fill:none;stroke:#000000;stroke-width:0.264583;stroke-opacity:1"
       id="line86" />
    <line
       x1="404"
       y1="620"
       x2="596"
       y2="620"
       style="fill:none;stroke:#000000;stroke-width:0.264583;stroke-opacity:1"
       id="line87" />
    <line
       x1="404"
       y1="650"
       x2="596"
       y2="650"
       style="fill:none;stroke:#000000;stroke-width:0.264583;stroke-opacity:1"
       id="line88" />
    <line
       x1="404"
       y1="680"
       x2="596"
       y2="680"
       style="fill:none;stroke:#000000;stroke-width:0.264583;stroke-opacity:1"
       id="line89" />
    <line
       x1="404"
       y1="710"
       x2="596"
       y2="710"
       style="fill:none;stroke:#000000;stroke-width:0.264583;stroke-opacity:1"
       id="line90" />
    <line
       x1="404"
       y1="740"
       x2="596"
       y2="740"
       style="fill:none;stroke:#000000;stroke-width:0.264583;stroke-opacity:1"
       id="line91" />
    <line
       x1="404"
       y1="770"
       x2="596"
       y2="770"
       style="fill:none;stroke:#000000;stroke-width:0.264583;stroke-opacity:1"
       id="line92" />
    <line
       x1="404"
       y1="800"
       x2="596"
       y2="800"
       style="fill:none;stroke:#000000;stroke-width:0.264583;stroke-opacity:1"
       id="line93" />
    <line
       x1="404"
       y1="830"
       x2="596"
       y2="830"
       style="fill:none;stroke:#000000;stroke-width:0.264583;stroke-opacity:1"
       id="line94" />
    <line
       x1="404"
       y1="860"
       x2="596"
       y2="860"
       style="fill:none;stroke:#000000;stroke-width:0.264583;stroke-opacity:1"
       id="line95" />
    <line
       x1="404"
       y1="890"
       x2="596"
       y2="890"
       style="fill:none;stroke:#000000;stroke-width:0.264583;stroke-opacity:1"
       id="line96" />
    <line
       x1="404"
       y1="920"
       x2="596"
       y2="920"
       style="fill:none;stroke:#000000;stroke-width:0.264583;stroke-opacity:1"
       id="line97" />
    <line
       x1="404"
       y1="950"
       x2="596"
       y2="950"
       style="fill:none;stroke:#000000;stroke-width:0.264583;stroke-opacity:1"
       id="line98" />
  </g>
  <g
     id="4 - Brush">
    <line
       x1="596"
       y1="50"
       x2="788"
       y2="50"
       style="fill:none;stroke:#000000;stroke-width:0.264583;stroke-opacity:1"
       id="line99" />
    <line
       x1="596"
       y1="80"
       x2="788"
       y2="80"
       style="fill:none;stroke:#000000;stroke-width:0.264583;stroke-opacity:1"
       id="line100" />
    <line
       x1="596"
       y1="110"
       x2="788"
       y2="110"
       style="fill:none;stroke:#000000;stroke-width:0.264583;stroke-opacity:1"
       id="line101" />
    <line
       x1="596"
       y1="140"
       x2="788"
       y2="140"
       style="fill:none;stroke:#000000;stroke-width:0.264583;stroke-opacity:1"
       id="line102" />
    <line
       x1="596"
       y1="170"
       x2="788"
       y2="170"
       style="fill:none;stroke:#000000;stroke-width:0.264583;stroke-opacity:1"
       id="line103" />
    <line
       x1="596"
       y1="200"
       x2="788"
       y2="200"
       style="fill:none;stroke:#000000;stroke-width:0.264583;stroke-opacity:1"
       id="line104" />
    <line
       x1="596"
       y1="230"
       x2="788"
       y2="230"
       style="fill:none;stroke:#000000;stroke-width:0.264583;stroke-opacity:1"
       id="line105" />
    <line
       x1="596"
       y1="260"
       x2="788"
       y2="260"
       style="fill:none;stroke:#000000;stroke-width:0.264583;stroke-opacity:1"
       id="line106" />
    <line
       x1="596"
       y1="290"
       x2="788"
       y2="290"
       style="fill:none;stroke:#000000;stroke-width:0.264583;stroke-opacity:1"
       id="line107" />
    <line
       x1="596"
       y1="320"
       x2="788"
       y2="320"
       style="fill:none;stroke:#000000;stroke-width:0.264583;stroke-opacity:1"
       id="line108" />
    <line
       x1="596"
       y1="350"
       x2="788"
       y2="350"
       style="fill:none;stroke:#000000;stroke-width:0.264583;stroke-opacity:1"
       id="line109" />
    <line
       x1="596"
       y1="380"
       x2="788"
       y2="380"
       style="fill:none;stroke:#000000;stroke-width:0.264583;stroke-opacity:1"
       id="line110" />
    <line
       x1="596"
       y1="410"
       x2="788"
       y2="410"
       style="fill:none;stroke:#000000;stroke-width:0.264583;stroke-opacity:1"
       id="line111" />
    <line
       x1="596"
       y1="440"
       x2="788"
       y2="440"
       style="fill:none;stroke:#000000;stroke-width:0.264583;stroke-opacity:1"
       id="line112" />
    <line
       x1="596"
       y1="470"
       x2="788"
       y2="470"
       style="fill:none;stroke:#000000;stroke-width:0.264583;stroke-opacity:1"
       id="line113" />
    <line
       x1="596"
       y1="500"
       x2="788"
       y2="500"
       style="fill:none;stroke:#000000;stroke-width:0.264583;stroke-opacity:1"
       id="line114" />
    <line
       x1="596"
       y1="530"
       x2="788"
       y2="530"
       style="fill:none;stroke:#000000;stroke-width:0.264583;stroke-opacity:1"
       id="line115" />
    <line
       x1="596"
       y1="560"
       x2="788"
       y2="560"
       style="fill:none;stroke:#000000;stroke-width:0.264583;stroke-opacity:1"
       id="line116" />
    <line
       x1="596"
       y1="590"
       x2="788"
       y2="590"
       style="fill:none;stroke:#000000;stroke-width:0.264583;stroke-opacity:1"
       id="line117" />
    <line
       x1="596"
       y1="620"
       x2="788"
       y2="620"
       style="fill:none;stroke:#000000;stroke-width:0.264583;stroke-opacity:1"
       id="line118" />
    <line
       x1="596"
       y1="650"
       x2="788"
       y2="650"
       style="fill:none;stroke:#000000;stroke-width:0.264583;stroke-opacity:1"
       id="line119" />
    <line
       x1="596"
       y1="680"
       x2="788"
       y2="680"
       style="fill:none;stroke:#000000;stroke-width:0.264583;stroke-opacity:1"
       id="line120" />
    <line
       x1="596"
       y1="710"
       x2="788"
       y2="710"
       style="fill:none;stroke:#000000;stroke-width:0.264583;stroke-opacity:1"
       id="line121" />
    <line
       x1="596"
       y1="740"
       x2="788"
       y2="740"
       style="fill:none;stroke:#000000;stroke-width:0.264583;stroke-opacity:1"
       id="line122" />
    <line
       x1="596"
       y1="770"
       x2="788"
       y2="770"
       style="fill:none;stroke:#000000;stroke-width:0.264583;stroke-opacity:1"
       id="line123" />
    <line
       x1="596"
       y1="800"
       x2="788"
       y2="800"
       style="fill:none;stroke:#000000;stroke-width:0.264583;stroke-opacity:1"
       id="line124" />
    <line
       x1="596"
       y1="830"
       x2="788"
       y2="830"
       style="fill:none;stroke:#000000;stroke-width:0.264583;stroke-opacity:1"
       id="line125" />
    <line
       x1="596"
       y1="860"
       x2="788"
       y2="860"
       style="fill:none;stroke:#000000;stroke-width:0.264583;stroke-opacity:1"
       id="line126" />
    <line
       x1="596"
       y1="890"
       x2="788"
       y2="890"
       style="fill:none;stroke:#000000;stroke-width:0.264583;stroke-opacity:1"
       id="line127" />
    <line
       x1="596"
       y1="920"
       x2="788"
       y2="920"
       style="fill:none;stroke:#000000;stroke-width:0.264583;stroke-opacity:1"
       id="line128" />
    <line
       x1="596"
       y1="950"
       x2="788"
       y2="950"
       style="fill:none;stroke:#000000;stroke-width:0.264583;stroke-opacity:1"
       id="line129" />
  </g>
  <g
     id="5 - Brush">
    <line
       x1="788"
       y1="50"
       x2="980"
       y2="50"
       style="fill:none;stroke:#000000;stroke-width:0.264583;stroke-opacity:1"
       id="line130" />
    <line
       x1="788"
       y1="80"
       x2="980"
       y2="80"
       style="fill:none;stroke:#000000;stroke-width:0.264583;stroke-opacity:1"
       id="line131" />
    <line
       x1="788"
       y1="110"
       x2="980"
       y2="110"
       style="fill:none;stroke:#000000;stroke-width:0.264583;stroke-opacity:1"
       id="line132" />
    <line
       x1="788"
       y1="140"
       x2="980"
       y2="140"
       style="fill:none;stroke:#000000;stroke-width:0.264583;stroke-opacity:1"
       id="line133" />
    <line
       x1="788"
       y1="170"
       x2="980"
       y2="170"
       style="fill:none;stroke:#000000;stroke-width:0.264583;stroke-opacity:1"
       id="line134" />
    <line
       x1="788"
       y1="200"
       x2="980"
       y2="200"
       style="fill:none;stroke:#000000;stroke-width:0.264583;stroke-opacity:1"
       id="line135" />
    <line
       x1="788"
       y1="230"
       x2="980"
       y2="230"
       style="fill:none;stroke:#000000;stroke-width:0.264583;stroke-opacity:1"
       id="line136" />
    <line
       x1="788"
       y1="260"
       x2="980"
       y2="260"
       style="fill:none;stroke:#000000;stroke-width:0.264583;stroke-opacity:1"
       id="line137" />
    <line
       x1="788"
       y1="290"
       x2="980"
       y2="290"
       style="fill:none;stroke:#000000;stroke-width:0.264583;stroke-opacity:1"
       id="line138" />
    <line
       x1="788"
       y1="320"
       x2="980"
       y2="320"
       style="fill:none;stroke:#000000;stroke-width:0.264583;stroke-opacity:1"
       id="line139" />
    <line
       x1="788"
       y1="350"
       x2="980"
       y2="350"
       style="fill:none;stroke:#000000;stroke-width:0.264583;stroke-opacity:1"
       id="line140" />
    <line
       x1="788"
       y1="380"
       x2="980"
       y2="380"
       style="fill:none;stroke:#000000;stroke-width:0.264583;stroke-opacity:1"
       id="line141" />
    <line
       x1="788"
       y1="410"
       x2="980"
       y2="410"
       style="fill:none;stroke:#000000;stroke-width:0.264583;stroke-opacity:1"
       id="line142" />
    <line
       x1="788"
       y1="440"
       x2="980"
       y2="440"
       style="fill:none;stroke:#000000;stroke-width:0.264583;stroke-opacity:1"
       id="line143" />
    <line
       x1="788"
       y1="470"
       x2="980"
       y2="470"
       style="fill:none;stroke:#000000;stroke-width:0.264583;stroke-opacity:1"
       id="line144" />
    <line
       x1="788"
       y1="500"
       x2="980"
       y2="500"
       style="fill:none;stroke:#000000;stroke-width:0.264583;stroke-opacity:1"
       id="line145" />
    <line
       x1="788"
       y1="530"
       x2="980"
       y2="530"
       style="fill:none;stroke:#000000;stroke-width:0.264583;stroke-opacity:1"
       id="line146" />
    <line
       x1="788"
       y1="560"
       x2="980"
       y2="560"
       style="fill:none;stroke:#000000;stroke-width:0.264583;stroke-opacity:1"
       id="line147" />
    <line
       x1="788"
       y1="590"
       x2="980"
       y2="590"
       style="fill:none;stroke:#000000;stroke-width:0.264583;stroke-opacity:1"
       id="line148" />
    <line
       x1="788"
       y1="620"
       x2="980"
       y2="620"
       style="fill:none;stroke:#000000;stroke-width:0.264583;stroke-opacity:1"
       id="line149" />
    <line
       x1="788"
       y1="650"
       x2="980"
       y2="650"
       style="fill:none;stroke:#000000;stroke-width:0.264583;stroke-opacity:1"
       id="line150" />
    <line
       x1="788"
       y1="680"
       x2="980"
       y2="680"
       style="fill:none;stroke:#000000;stroke-width:0.264583;stroke-opacity:1"
       id="line151" />
    <line
       x1="788"
       y1="710"
       x2="980"
       y2="710"
       style="fill:none;stroke:#000000;stroke-width:0.264583;stroke-opacity:1"
       id="line152" />
    <line
       x1="788"
       y1="740"
       x2="980"
       y2="740"
       style="fill:none;stroke:#000000;stroke-width:0.264583;stroke-opacity:1"
       id="line153" />
    <line
       x1="788"
       y1="770"
       x2="980"
       y2="770"
       style="fill:none;stroke:#000000;stroke-width:0.264583;stroke-opacity:1"
       id="line154" />
    <line
       x1="788"
       y1="800"
       x2="980"
       y2="800"
       style="fill:none;stroke:#000000;stroke-width:0.264583;stroke-opacity:1"
       id="line155" />
    <line
       x1="788"
       y1="830"
       x2="980"
       y2="830"
       style="fill:none;stroke:#000000;stroke-width:0.264583;stroke-opacity:1"
       id="line156" />
    <line
       x1="788"
       y1="860"
       x2="980"
       y2="860"
       style="fill:none;stroke:#000000;stroke-width:0.264583;stroke-opacity:1"
       id="line157" />
    <line
       x1="788"
       y1="890"
       x2="980"
       y2="890"
       style="fill:none;stroke:#000000;stroke-width:0.264583;stroke-opacity:1"
       id="line158" />
    <line
       x1="788"
       y1="920"
       x2="980"
       y2="920"
       style="fill:none;stroke:#000000;stroke-width:0.264583;stroke-opacity:1"
       id="line159" />
    <line
       x1="788"
       y1="950"
       x2="980"
       y2="950"
       style="fill:none;stroke:#000000;stroke-width:0.264583;stroke-opacity:1"
       id="line160" />
  </g>
  <g
     inkscape:groupmode="layer"
     id="layer1"
     inkscape:label="6-6666">
    <g
       id="0 - Pencil"
       inkscape:label="0 - Pencil">
      <line
         x1="30"
         y1="50"
         x2="30"
         y2="950"
         style="fill:none;stroke:#000000;stroke-width:0.264583;stroke-opacity:1"
         id="line1" />
      <line
         x1="222"
         y1="50"
         x2="222"
         y2="950"
         style="fill:none;stroke:#000000;stroke-width:0.264583;stroke-opacity:1"
         id="line2" />
      <line
         x1="414"
         y1="50"
         x2="414"
         y2="950"
         style="fill:none;stroke:#000000;stroke-width:0.264583;stroke-opacity:1"
         id="line3" />
      <line
         x1="606"
         y1="50"
         x2="606"
         y2="950"
         style="fill:none;stroke:#000000;stroke-width:0.264583;stroke-opacity:1"
         id="line4" />
      <line
         x1="798"
         y1="50"
         x2="798"
         y2="950"
         style="fill:none;stroke:#000000;stroke-width:0.264583;stroke-opacity:1"
         id="line5" />
    </g>
  </g>
  <g
     transform="matrix(111.111100,0.000000,0.000000,111.111100,-166.666700,0.000000)"
     inkscape:groupmode="layer"
     inkscape:label="% Preview"
     id="g170">
    <g
       inkscape:groupmode="layer"
       inkscape:label="Pen-up movement"
       id="g168">
      <path
         style="stroke-width:0.009000;fill:none;stroke-linejoin:round;stroke-linecap:round;stroke:LightPink"
         d="M0.000 0.000  0.020 0.005  0.061 0.016  0.122 0.031  0.203 0.052  0.304 0.078  0.426 0.108  0.568 0.144  1.202 0.306  1.344 0.342  1.466 0.373  1.567 0.398  1.648 0.419  1.709 0.435  1.750 0.445  1.770 0.450 M1.770 8.550  1.774 8.530  1.783 8.489  1.796 8.427  1.814 8.345  1.835 8.243  1.862 8.120  1.892 7.977  2.511 5.077  3.130 2.177  3.376 1.023  3.406 0.880  3.433 0.757  3.454 0.655  3.472 0.573  3.485 0.511  3.494 0.470  3.498 0.450 M3.498 8.550  3.502 8.530  3.511 8.489  3.524 8.427  3.542 8.345  3.563 8.243  3.590 8.120  3.620 7.977  4.239 5.077  4.858 2.177  5.104 1.023  5.134 0.880  5.161 0.757  5.182 0.655  5.200 0.573  5.213 0.511  5.222 0.470  5.226 0.450 M5.226 8.550  5.230 8.530  5.239 8.489  5.252 8.427  5.270 8.345  5.292 8.243  5.318 8.120  5.348 7.977  5.967 5.077  6.586 2.177  6.832 1.023  6.862 0.880  6.889 0.757  6.910 0.655  6.928 0.573  6.941 0.511  6.950 0.470  6.954 0.450 M6.954 8.550  6.958 8.530  6.967 8.489  6.980 8.427  6.998 8.345  7.019 8.243  7.046 8.120  7.076 7.977  7.695 5.077  8.313 2.177  8.560 1.023  8.590 0.880  8.616 0.757  8.638 0.655  8.656 0.573  8.669 0.511  8.678 0.470  8.682 0.450 M8.682 8.550  8.667 8.535  8.637 8.506  8.592 8.462  8.532 8.403  8.458 8.330  8.369 8.242  8.264 8.139  6.152 6.058  4.039 3.977  1.926 1.897  0.418 0.411  0.313 0.308  0.224 0.220  0.149 0.147  0.090 0.088  0.045 0.044  0.015 0.015  -0.000 -0.000"
         desc="pen-up transit"
         id="path168" />
    </g>
    <g
       inkscape:groupmode="layer"
       inkscape:label="Pen-down movement"
       id="g169">
      <path
         style="stroke-width:0.009000;fill:none;stroke-linejoin:round;stroke-linecap:round;stroke:Blue"
         d="M1.770 0.450  1.770 0.466  1.770 0.499  1.770 0.548  1.770 1.536  1.770 2.524  1.770 3.513  1.770 4.501  1.770 5.490  1.770 6.478  1.770 7.466  1.770 8.452  1.770 8.501  1.770 8.534  1.770 8.550 M3.498 0.450  3.498 0.466  3.498 0.499  3.498 0.548  3.498 1.536  3.498 2.524  3.498 3.513  3.498 4.501  3.498 5.490  3.498 6.478  3.498 7.466  3.498 8.452  3.498 8.501  3.498 8.534  3.498 8.550 M5.226 0.450  5.226 0.466  5.226 0.499  5.226 0.548  5.226 1.536  5.226 2.524  5.226 3.513  5.226 4.501  5.226 5.490  5.226 6.478  5.226 7.466  5.226 8.452  5.226 8.501  5.226 8.534  5.226 8.550 M6.954 0.450  6.954 0.466  6.954 0.499  6.954 0.548  6.954 1.536  6.954 2.524  6.954 3.513  6.954 4.501  6.954 5.490  6.954 6.478  6.954 7.466  6.954 8.452  6.954 8.501  6.954 8.534  6.954 8.550 M8.682 0.450  8.682 0.466  8.682 0.499  8.682 0.548  8.682 1.536  8.682 2.524  8.682 3.513  8.682 4.501  8.682 5.490  8.682 6.478  8.682 7.466  8.682 8.452  8.682 8.501  8.682 8.534  8.682 8.550"
         desc="pen-down drawing"
         id="path169" />
    </g>
  </g>
  <plotdata
     application="axidraw"
     model="1"
     plob_version="n/a"
     layer="-2"
     pause_dist="-25400"
     pause_ref="-25400"
     last_x="-4.763099636928558e-14"
     last_y="-2.3656875069999473e-13"
     rand_seed="1"
     row="0" />
</svg>
