<?xml version="1.0" encoding="UTF-8"?>
<svg width="12in" height="9in" viewBox="0 0 10000 10000" version="1.1" id="svg6" sodipodi:docname="test_inkscape.svg" inkscape:version="1.3.2 (091e20e, 2023-11-25, custom)" xmlns:inkscape="http://www.inkscape.org/namespaces/inkscape" xmlns:sodipodi="http://sodipodi.sourceforge.net/DTD/sodipodi-0.dtd" xmlns="http://www.w3.org/2000/svg" xmlns:svg="http://www.w3.org/2000/svg"><g inkscape:groupmode="layer" inkscape:label="0 - frame" id="g5" transform="translate(0.0 0.0)"><path d="M 1000.0 1000.0 L 1000.0 9000.0 L 9000.0 9000.0 L 9000.0 1000.0 L 1000.0 1000.0" stroke="black" fill="none" stroke-width="3" stroke-opacity="0.5"/></g>
    <g inkscape:groupmode="layer" inkscape:label="1 - sun_huggers" id="g5" transform="translate(0.0 0.0)"><path d="M 1000.0 8000.0 L 9000.0 8000.0" stroke="black" fill="none" stroke-width="20.0" stroke-opacity="0.5"/>
        <path d="M 9000.0 7990.0 L 1000.0 7990.0" stroke="black" fill="none" stroke-width="20.0" stroke-opacity="0.5"/>
        <path d="M 1000.0 7980.0 L 9000.0 7980.0" stroke="black" fill="none" stroke-width="20.0" stroke-opacity="0.5"/>
        <path d="M 9000.0 7970.0 L 1000.0 7970.0" stroke="black" fill="none" stroke-width="20.0" stroke-opacity="0.5"/>
        <path d="M 1000.0 7960.0 L 9000.0 7960.0" stroke="black" fill="none" stroke-width="20.0" stroke-opacity="0.5"/>
        <path d="M 9000.0 7950.0 L 1000.0 7950.0" stroke="black" fill="none" stroke-width="20.0" stroke-opacity="0.5"/>
        <path d="M 1000.0 7940.0 L 9000.0 7940.0" stroke="black" fill="none" stroke-width="20.0" stroke-opacity="0.5"/>
        <path d="M 9000.0 7930.0 L 1000.0 7930.0" stroke="black" fill="none" stroke-width="20.0" stroke-opacity="0.5"/>
        <path d="M 1000.0 7920.0 L 9000.0 7920.0" stroke="black" fill="none" stroke-width="20.0" stroke-opacity="0.5"/>
        <path d="M 9000.0 7910.0 L 1000.0 7910.0" stroke="black" fill="none" stroke-width="20.0" stroke-opacity="0.5"/>
        <path d="M 1000.0 7900.0 L 9000.0 7900.0" stroke="black" fill="none" stroke-width="20.0" stroke-opacity="0.5"/>
        <path d="M 9000.0 7890.0 L 1000.0 7890.0" stroke="black" fill="none" stroke-width="20.0" stroke-opacity="0.5"/>
        <path d="M 1000.0 7880.0 L 9000.0 7880.0" stroke="black" fill="none" stroke-width="20.0" stroke-opacity="0.5"/>
        <path d="M 9000.0 7870.0 L 1000.0 7870.0" stroke="black" fill="none" stroke-width="20.0" stroke-opacity="0.5"/>
        <path d="M 1000.0 7860.0 L 9000.0 7860.0" stroke="black" fill="none" stroke-width="20.0" stroke-opacity="0.5"/>
        <path d="M 9000.0 7850.0 L 1000.0 7850.0" stroke="black" fill="none" stroke-width="20.0" stroke-opacity="0.5"/>
        <path d="M 1000.0 7840.0 L 9000.0 7840.0" stroke="black" fill="none" stroke-width="20.0" stroke-opacity="0.5"/>
        <path d="M 9000.0 7830.0 L 1000.0 7830.0" stroke="black" fill="none" stroke-width="20.0" stroke-opacity="0.5"/>
        <path d="M 1000.0 7820.0 L 9000.0 7820.0" stroke="black" fill="none" stroke-width="20.0" stroke-opacity="0.5"/>
        <path d="M 9000.0 7810.0 L 1000.0 7810.0" stroke="black" fill="none" stroke-width="20.0" stroke-opacity="0.5"/>
        <path d="M 1000.0 7800.0 L 9000.0 7800.0" stroke="black" fill="none" stroke-width="20.0" stroke-opacity="0.5"/>
        <path d="M 9000.0 7790.0 L 1000.0 7790.0" stroke="black" fill="none" stroke-width="20.0" stroke-opacity="0.5"/>
        <path d="M 1000.0 7780.0 L 9000.0 7780.0" stroke="black" fill="none" stroke-width="20.0" stroke-opacity="0.5"/>
        <path d="M 9000.0 7770.0 L 1000.0 7770.0" stroke="black" fill="none" stroke-width="20.0" stroke-opacity="0.5"/>
        <path d="M 1000.0 7760.0 L 9000.0 7760.0" stroke="black" fill="none" stroke-width="20.0" stroke-opacity="0.5"/>
        <path d="M 9000.0 7750.0 L 1000.0 7750.0" stroke="black" fill="none" stroke-width="20.0" stroke-opacity="0.5"/>
        <path d="M 1000.0 7740.0 L 9000.0 7740.0" stroke="black" fill="none" stroke-width="20.0" stroke-opacity="0.5"/>
        <path d="M 9000.0 7730.0 L 1000.0 7730.0" stroke="black" fill="none" stroke-width="20.0" stroke-opacity="0.5"/>
        <path d="M 1000.0 7720.0 L 9000.0 7720.0" stroke="black" fill="none" stroke-width="20.0" stroke-opacity="0.5"/>
        <path d="M 9000.0 7710.0 L 1000.0 7710.0" stroke="black" fill="none" stroke-width="20.0" stroke-opacity="0.5"/>
        <path d="M 1000.0 7700.0 L 9000.0 7700.0" stroke="black" fill="none" stroke-width="20.0" stroke-opacity="0.5"/>
        <path d="M 9000.0 7690.0 L 1000.0 7690.0" stroke="black" fill="none" stroke-width="20.0" stroke-opacity="0.5"/>
        <path d="M 1000.0 7680.0 L 9000.0 7680.0" stroke="black" fill="none" stroke-width="20.0" stroke-opacity="0.5"/>
        <path d="M 9000.0 7670.0 L 1000.0 7670.0" stroke="black" fill="none" stroke-width="20.0" stroke-opacity="0.5"/>
        <path d="M 1000.0 7660.0 L 9000.0 7660.0" stroke="black" fill="none" stroke-width="20.0" stroke-opacity="0.5"/>
        <path d="M 9000.0 7650.0 L 1000.0 7650.0" stroke="black" fill="none" stroke-width="20.0" stroke-opacity="0.5"/>
        <path d="M 1000.0 7640.0 L 9000.0 7640.0" stroke="black" fill="none" stroke-width="20.0" stroke-opacity="0.5"/>
        <path d="M 9000.0 7630.0 L 1000.0 7630.0" stroke="black" fill="none" stroke-width="20.0" stroke-opacity="0.5"/>
        <path d="M 1000.0 7620.0 L 9000.0 7620.0" stroke="black" fill="none" stroke-width="20.0" stroke-opacity="0.5"/>
        <path d="M 9000.0 7610.0 L 1000.0 7610.0" stroke="black" fill="none" stroke-width="20.0" stroke-opacity="0.5"/>
        <path d="M 1000.0 7600.0 L 9000.0 7600.0" stroke="black" fill="none" stroke-width="20.0" stroke-opacity="0.5"/>
        <path d="M 9000.0 7590.0 L 1000.0 7590.0" stroke="black" fill="none" stroke-width="20.0" stroke-opacity="0.5"/>
        <path d="M 1000.0 7580.0 L 9000.0 7580.0" stroke="black" fill="none" stroke-width="20.0" stroke-opacity="0.5"/>
        <path d="M 9000.0 7570.0 L 1000.0 7570.0" stroke="black" fill="none" stroke-width="20.0" stroke-opacity="0.5"/>
        <path d="M 1000.0 7560.0 L 9000.0 7560.0" stroke="black" fill="none" stroke-width="20.0" stroke-opacity="0.5"/>
        <path d="M 9000.0 7550.0 L 7650.0 7550.0 A 950.0 950.0 0 0 1 6700.0 6600.0 L 6700.0 4000.0 A 1700.0 1700.0 0 0 0 3300.0 4000.0 L 3300.0 6600.0 A 950.0 950.0 0 0 1 2350.0 7550.0 L 1000.0 7550.0" stroke="black" fill="none" stroke-width="20.0" stroke-opacity="0.5"/>
        <path d="M 1000.0 7540.0 L 2350.0 7540.0 A 940.0 940.0 0 0 0 3290.0 6600.0 L 3290.0 4000.0 A 1710.0 1710.0 0 0 1 6710.0 4000.0 L 6710.0 6600.0 A 940.0 940.0 0 0 0 7650.0 7540.0 L 9000.0 7540.0" stroke="black" fill="none" stroke-width="20.0" stroke-opacity="0.5"/>
        <path d="M 9000.0 7530.0 L 7650.0 7530.0 A 930.0 930.0 0 0 1 6720.0 6600.0 L 6720.0 4000.0 A 1720.0 1720.0 0 0 0 3280.0 4000.0 L 3280.0 6600.0 A 930.0 930.0 0 0 1 2350.0 7530.0 L 1000.0 7530.0" stroke="black" fill="none" stroke-width="20.0" stroke-opacity="0.5"/>
        <path d="M 1000.0 7520.0 L 2350.0 7520.0 A 920.0 920.0 0 0 0 3270.0 6600.0 L 3270.0 4000.0 A 1730.0 1730.0 0 0 1 6730.0 4000.0 L 6730.0 6600.0 A 920.0 920.0 0 0 0 7650.0 7520.0 L 9000.0 7520.0" stroke="black" fill="none" stroke-width="20.0" stroke-opacity="0.5"/>
        <path d="M 9000.0 7510.0 L 7650.0 7510.0 A 910.0 910.0 0 0 1 6740.0 6600.0 L 6740.0 4000.0 A 1740.0 1740.0 0 0 0 3260.0 4000.0 L 3260.0 6600.0 A 910.0 910.0 0 0 1 2350.0 7510.0 L 1000.0 7510.0" stroke="black" fill="none" stroke-width="20.0" stroke-opacity="0.5"/>
        <path d="M 1000.0 7500.0 L 2350.0 7500.0 A 900.0 900.0 0 0 0 3250.0 6600.0 L 3250.0 4000.0 A 1750.0 1750.0 0 0 1 6750.0 4000.0 L 6750.0 6600.0 A 900.0 900.0 0 0 0 7650.0 7500.0 L 9000.0 7500.0" stroke="black" fill="none" stroke-width="20.0" stroke-opacity="0.5"/>
        <path d="M 9000.0 7490.0 L 7650.0 7490.0 A 890.0 890.0 0 0 1 6760.0 6600.0 L 6760.0 4000.0 A 1760.0 1760.0 0 0 0 3240.0 4000.0 L 3240.0 6600.0 A 890.0 890.0 0 0 1 2350.0 7490.0 L 1000.0 7490.0" stroke="black" fill="none" stroke-width="20.0" stroke-opacity="0.5"/>
        <path d="M 1000.0 7480.0 L 2350.0 7480.0 A 880.0 880.0 0 0 0 3230.0 6600.0 L 3230.0 4000.0 A 1770.0 1770.0 0 0 1 6770.0 4000.0 L 6770.0 6600.0 A 880.0 880.0 0 0 0 7650.0 7480.0 L 9000.0 7480.0" stroke="black" fill="none" stroke-width="20.0" stroke-opacity="0.5"/>
        <path d="M 9000.0 7470.0 L 7650.0 7470.0 A 870.0 870.0 0 0 1 6780.0 6600.0 L 6780.0 4000.0 A 1780.0 1780.0 0 0 0 3220.0 4000.0 L 3220.0 6600.0 A 870.0 870.0 0 0 1 2350.0 7470.0 L 1000.0 7470.0" stroke="black" fill="none" stroke-width="20.0" stroke-opacity="0.5"/>
        <path d="M 1000.0 7460.0 L 2350.0 7460.0 A 860.0 860.0 0 0 0 3210.0 6600.0 L 3210.0 4000.0 A 1790.0 1790.0 0 0 1 6790.0 4000.0 L 6790.0 6600.0 A 860.0 860.0 0 0 0 7650.0 7460.0 L 9000.0 7460.0" stroke="black" fill="none" stroke-width="20.0" stroke-opacity="0.5"/>
        <path d="M 9000.0 7450.0 L 7650.0 7450.0 A 850.0 850.0 0 0 1 6800.0 6600.0 L 6800.0 4000.0 A 1800.0 1800.0 0 0 0 3200.0 4000.0 L 3200.0 6600.0 A 850.0 850.0 0 0 1 2350.0 7450.0 L 1000.0 7450.0" stroke="black" fill="none" stroke-width="20.0" stroke-opacity="0.5"/>
        <path d="M 1000.0 7440.0 L 2350.0 7440.0 A 840.0 840.0 0 0 0 3190.0 6600.0 L 3190.0 4000.0 A 1810.0 1810.0 0 0 1 6810.0 4000.0 L 6810.0 6600.0 A 840.0 840.0 0 0 0 7650.0 7440.0 L 9000.0 7440.0" stroke="black" fill="none" stroke-width="20.0" stroke-opacity="0.5"/>
        <path d="M 9000.0 7430.0 L 7650.0 7430.0 A 830.0 830.0 0 0 1 6820.0 6600.0 L 6820.0 4000.0 A 1820.0 1820.0 0 0 0 3180.0 4000.0 L 3180.0 6600.0 A 830.0 830.0 0 0 1 2350.0 7430.0 L 1000.0 7430.0" stroke="black" fill="none" stroke-width="20.0" stroke-opacity="0.5"/>
        <path d="M 1000.0 7420.0 L 2350.0 7420.0 A 820.0 820.0 0 0 0 3170.0 6600.0 L 3170.0 4000.0 A 1830.0 1830.0 0 0 1 6830.0 4000.0 L 6830.0 6600.0 A 820.0 820.0 0 0 0 7650.0 7420.0 L 9000.0 7420.0" stroke="black" fill="none" stroke-width="20.0" stroke-opacity="0.5"/>
        <path d="M 9000.0 7410.0 L 7650.0 7410.0 A 810.0 810.0 0 0 1 6840.0 6600.0 L 6840.0 4000.0 A 1840.0 1840.0 0 0 0 3160.0 4000.0 L 3160.0 6600.0 A 810.0 810.0 0 0 1 2350.0 7410.0 L 1000.0 7410.0" stroke="black" fill="none" stroke-width="20.0" stroke-opacity="0.5"/>
        <path d="M 1000.0 7400.0 L 2350.0 7400.0 A 800.0 800.0 0 0 0 3150.0 6600.0 L 3150.0 4000.0 A 1850.0 1850.0 0 0 1 6850.0 4000.0 L 6850.0 6600.0 A 800.0 800.0 0 0 0 7650.0 7400.0 L 9000.0 7400.0" stroke="black" fill="none" stroke-width="20.0" stroke-opacity="0.5"/>
        <path d="M 9000.0 7390.0 L 7650.0 7390.0 A 790.0 790.0 0 0 1 6860.0 6600.0 L 6860.0 4000.0 A 1860.0 1860.0 0 0 0 3140.0 4000.0 L 3140.0 6600.0 A 790.0 790.0 0 0 1 2350.0 7390.0 L 1000.0 7390.0" stroke="black" fill="none" stroke-width="20.0" stroke-opacity="0.5"/>
        <path d="M 1000.0 7380.0 L 2350.0 7380.0 A 780.0 780.0 0 0 0 3130.0 6600.0 L 3130.0 4000.0 A 1870.0 1870.0 0 0 1 6870.0 4000.0 L 6870.0 6600.0 A 780.0 780.0 0 0 0 7650.0 7380.0 L 9000.0 7380.0" stroke="black" fill="none" stroke-width="20.0" stroke-opacity="0.5"/>
        <path d="M 9000.0 7370.0 L 7650.0 7370.0 A 770.0 770.0 0 0 1 6880.0 6600.0 L 6880.0 4000.0 A 1880.0 1880.0 0 0 0 3120.0 4000.0 L 3120.0 6600.0 A 770.0 770.0 0 0 1 2350.0 7370.0 L 1000.0 7370.0" stroke="black" fill="none" stroke-width="20.0" stroke-opacity="0.5"/>
        <path d="M 1000.0 7360.0 L 2350.0 7360.0 A 760.0 760.0 0 0 0 3110.0 6600.0 L 3110.0 4000.0 A 1890.0 1890.0 0 0 1 6890.0 4000.0 L 6890.0 6600.0 A 760.0 760.0 0 0 0 7650.0 7360.0 L 9000.0 7360.0" stroke="black" fill="none" stroke-width="20.0" stroke-opacity="0.5"/>
        <path d="M 9000.0 7350.0 L 7650.0 7350.0 A 750.0 750.0 0 0 1 6900.0 6600.0 L 6900.0 4000.0 A 1900.0 1900.0 0 0 0 3100.0 4000.0 L 3100.0 6600.0 A 750.0 750.0 0 0 1 2350.0 7350.0 L 1000.0 7350.0" stroke="black" fill="none" stroke-width="20.0" stroke-opacity="0.5"/>
        <path d="M 1000.0 7340.0 L 2350.0 7340.0 A 740.0 740.0 0 0 0 3090.0 6600.0 L 3090.0 4000.0 A 1910.0 1910.0 0 0 1 6910.0 4000.0 L 6910.0 6600.0 A 740.0 740.0 0 0 0 7650.0 7340.0 L 9000.0 7340.0" stroke="black" fill="none" stroke-width="20.0" stroke-opacity="0.5"/>
        <path d="M 9000.0 7330.0 L 7650.0 7330.0 A 730.0 730.0 0 0 1 6920.0 6600.0 L 6920.0 4000.0 A 1920.0 1920.0 0 0 0 3080.0 4000.0 L 3080.0 6600.0 A 730.0 730.0 0 0 1 2350.0 7330.0 L 1000.0 7330.0" stroke="black" fill="none" stroke-width="20.0" stroke-opacity="0.5"/>
        <path d="M 1000.0 7320.0 L 2350.0 7320.0 A 720.0 720.0 0 0 0 3070.0 6600.0 L 3070.0 4000.0 A 1930.0 1930.0 0 0 1 6930.0 4000.0 L 6930.0 6600.0 A 720.0 720.0 0 0 0 7650.0 7320.0 L 9000.0 7320.0" stroke="black" fill="none" stroke-width="20.0" stroke-opacity="0.5"/>
        <path d="M 9000.0 7310.0 L 7650.0 7310.0 A 710.0 710.0 0 0 1 6940.0 6600.0 L 6940.0 4000.0 A 1940.0 1940.0 0 0 0 3060.0 4000.0 L 3060.0 6600.0 A 710.0 710.0 0 0 1 2350.0 7310.0 L 1000.0 7310.0" stroke="black" fill="none" stroke-width="20.0" stroke-opacity="0.5"/>
        <path d="M 1000.0 7300.0 L 2350.0 7300.0 A 700.0 700.0 0 0 0 3050.0 6600.0 L 3050.0 4000.0 A 1950.0 1950.0 0 0 1 6950.0 4000.0 L 6950.0 6600.0 A 700.0 700.0 0 0 0 7650.0 7300.0 L 9000.0 7300.0" stroke="black" fill="none" stroke-width="20.0" stroke-opacity="0.5"/>
        <path d="M 9000.0 7290.0 L 7650.0 7290.0 A 690.0 690.0 0 0 1 6960.0 6600.0 L 6960.0 4000.0 A 1960.0 1960.0 0 0 0 3040.0 4000.0 L 3040.0 6600.0 A 690.0 690.0 0 0 1 2350.0 7290.0 L 1000.0 7290.0" stroke="black" fill="none" stroke-width="20.0" stroke-opacity="0.5"/>
        <path d="M 1000.0 7280.0 L 2350.0 7280.0 A 680.0 680.0 0 0 0 3030.0 6600.0 L 3030.0 4000.0 A 1970.0 1970.0 0 0 1 6970.0 4000.0 L 6970.0 6600.0 A 680.0 680.0 0 0 0 7650.0 7280.0 L 9000.0 7280.0" stroke="black" fill="none" stroke-width="20.0" stroke-opacity="0.5"/>
        <path d="M 9000.0 7270.0 L 7650.0 7270.0 A 670.0 670.0 0 0 1 6980.0 6600.0 L 6980.0 4000.0 A 1980.0 1980.0 0 0 0 3020.0 4000.0 L 3020.0 6600.0 A 670.0 670.0 0 0 1 2350.0 7270.0 L 1000.0 7270.0" stroke="black" fill="none" stroke-width="20.0" stroke-opacity="0.5"/>
        <path d="M 1000.0 7260.0 L 2350.0 7260.0 A 660.0 660.0 0 0 0 3010.0 6600.0 L 3010.0 4000.0 A 1990.0 1990.0 0 0 1 6990.0 4000.0 L 6990.0 6600.0 A 660.0 660.0 0 0 0 7650.0 7260.0 L 9000.0 7260.0" stroke="black" fill="none" stroke-width="20.0" stroke-opacity="0.5"/>
        <path d="M 9000.0 7250.0 L 7650.0 7250.0 A 650.0 650.0 0 0 1 7000.0 6600.0 L 7000.0 4000.0 A 2000.0 2000.0 0 0 0 3000.0 4000.0 L 3000.0 6600.0 A 650.0 650.0 0 0 1 2350.0 7250.0 L 1000.0 7250.0" stroke="black" fill="none" stroke-width="20.0" stroke-opacity="0.5"/>
        <path d="M 1000.0 7240.0 L 2350.0 7240.0 A 640.0 640.0 0 0 0 2990.0 6600.0 L 2990.0 4000.0 A 2010.0 2010.0 0 0 1 7010.0 4000.0 L 7010.0 6600.0 A 640.0 640.0 0 0 0 7650.0 7240.0 L 9000.0 7240.0" stroke="black" fill="none" stroke-width="20.0" stroke-opacity="0.5"/>
        <path d="M 9000.0 7230.0 L 7650.0 7230.0 A 630.0 630.0 0 0 1 7020.0 6600.0 L 7020.0 4000.0 A 2020.0 2020.0 0 0 0 2980.0 4000.0 L 2980.0 6600.0 A 630.0 630.0 0 0 1 2350.0 7230.0 L 1000.0 7230.0" stroke="black" fill="none" stroke-width="20.0" stroke-opacity="0.5"/>
        <path d="M 1000.0 7220.0 L 2350.0 7220.0 A 620.0 620.0 0 0 0 2970.0 6600.0 L 2970.0 4000.0 A 2030.0 2030.0 0 0 1 7030.0 4000.0 L 7030.0 6600.0 A 620.0 620.0 0 0 0 7650.0 7220.0 L 9000.0 7220.0" stroke="black" fill="none" stroke-width="20.0" stroke-opacity="0.5"/>
        <path d="M 9000.0 7210.0 L 7650.0 7210.0 A 610.0 610.0 0 0 1 7040.0 6600.0 L 7040.0 4000.0 A 2040.0 2040.0 0 0 0 2960.0 4000.0 L 2960.0 6600.0 A 610.0 610.0 0 0 1 2350.0 7210.0 L 1000.0 7210.0" stroke="black" fill="none" stroke-width="20.0" stroke-opacity="0.5"/>
        <path d="M 1000.0 7200.0 L 2350.0 7200.0 A 600.0 600.0 0 0 0 2950.0 6600.0 L 2950.0 4000.0 A 2050.0 2050.0 0 0 1 7050.0 4000.0 L 7050.0 6600.0 A 600.0 600.0 0 0 0 7650.0 7200.0 L 9000.0 7200.0" stroke="black" fill="none" stroke-width="20.0" stroke-opacity="0.5"/>
        <path d="M 9000.0 7190.0 L 7650.0 7190.0 A 590.0 590.0 0 0 1 7060.0 6600.0 L 7060.0 4000.0 A 2060.0 2060.0 0 0 0 2940.0 4000.0 L 2940.0 6600.0 A 590.0 590.0 0 0 1 2350.0 7190.0 L 1000.0 7190.0" stroke="black" fill="none" stroke-width="20.0" stroke-opacity="0.5"/>
        <path d="M 1000.0 7180.0 L 2350.0 7180.0 A 580.0 580.0 0 0 0 2930.0 6600.0 L 2930.0 4000.0 A 2070.0 2070.0 0 0 1 7070.0 4000.0 L 7070.0 6600.0 A 580.0 580.0 0 0 0 7650.0 7180.0 L 9000.0 7180.0" stroke="black" fill="none" stroke-width="20.0" stroke-opacity="0.5"/>
        <path d="M 9000.0 7170.0 L 7650.0 7170.0 A 570.0 570.0 0 0 1 7080.0 6600.0 L 7080.0 4000.0 A 2080.0 2080.0 0 0 0 2920.0 4000.0 L 2920.0 6600.0 A 570.0 570.0 0 0 1 2350.0 7170.0 L 1000.0 7170.0" stroke="black" fill="none" stroke-width="20.0" stroke-opacity="0.5"/>
        <path d="M 1000.0 7160.0 L 2350.0 7160.0 A 560.0 560.0 0 0 0 2910.0 6600.0 L 2910.0 4000.0 A 2090.0 2090.0 0 0 1 7090.0 4000.0 L 7090.0 6600.0 A 560.0 560.0 0 0 0 7650.0 7160.0 L 9000.0 7160.0" stroke="black" fill="none" stroke-width="20.0" stroke-opacity="0.5"/>
        <path d="M 9000.0 7150.0 L 7650.0 7150.0 A 550.0 550.0 0 0 1 7100.0 6600.0 L 7100.0 4000.0 A 2100.0 2100.0 0 0 0 2900.0 4000.0 L 2900.0 6600.0 A 550.0 550.0 0 0 1 2350.0 7150.0 L 1000.0 7150.0" stroke="black" fill="none" stroke-width="20.0" stroke-opacity="0.5"/>
        <path d="M 1000.0 7140.0 L 2350.0 7140.0 A 540.0 540.0 0 0 0 2890.0 6600.0 L 2890.0 4000.0 A 2110.0 2110.0 0 0 1 7110.0 4000.0 L 7110.0 6600.0 A 540.0 540.0 0 0 0 7650.0 7140.0 L 9000.0 7140.0" stroke="black" fill="none" stroke-width="20.0" stroke-opacity="0.5"/>
        <path d="M 9000.0 7130.0 L 7650.0 7130.0 A 530.0 530.0 0 0 1 7120.0 6600.0 L 7120.0 4000.0 A 2120.0 2120.0 0 0 0 2880.0 4000.0 L 2880.0 6600.0 A 530.0 530.0 0 0 1 2350.0 7130.0 L 1000.0 7130.0" stroke="black" fill="none" stroke-width="20.0" stroke-opacity="0.5"/>
        <path d="M 1000.0 7120.0 L 2350.0 7120.0 A 520.0 520.0 0 0 0 2870.0 6600.0 L 2870.0 4000.0 A 2130.0 2130.0 0 0 1 7130.0 4000.0 L 7130.0 6600.0 A 520.0 520.0 0 0 0 7650.0 7120.0 L 9000.0 7120.0" stroke="black" fill="none" stroke-width="20.0" stroke-opacity="0.5"/>
        <path d="M 9000.0 7110.0 L 7650.0 7110.0 A 510.0 510.0 0 0 1 7140.0 6600.0 L 7140.0 4000.0 A 2140.0 2140.0 0 0 0 2860.0 4000.0 L 2860.0 6600.0 A 510.0 510.0 0 0 1 2350.0 7110.0 L 1000.0 7110.0" stroke="black" fill="none" stroke-width="20.0" stroke-opacity="0.5"/>
    </g>
    <g inkscape:groupmode="layer" inkscape:label="2 - sun" id="g5" transform="translate(0.0 0.0)"><path d="M 5001.9 4004.6 A 5.0 5.0 0 0 1 4995.0 4000.0 A 5.0 5.0 0 0 1 5005.0 4000.0 A 5.0 5.0 0 0 1 5001.9 4004.6" stroke="red" fill="none" stroke-width="20.0" stroke-opacity="0.5"/>
        <path d="M 5002.7 3985.2 A 15.0 15.0 0 0 1 5015.0 4000.0 A 15.0 15.0 0 0 1 4985.0 4000.0 A 15.0 15.0 0 0 1 5002.7 3985.2" stroke="red" fill="none" stroke-width="20.0" stroke-opacity="0.5"/>
        <path d="M 5022.4 4011.1 A 25.0 25.0 0 0 1 4975.0 4000.0 A 25.0 25.0 0 0 1 5025.0 4000.0 A 25.0 25.0 0 0 1 5022.4 4011.1" stroke="red" fill="none" stroke-width="20.0" stroke-opacity="0.5"/>
        <path d="M 4966.7 3989.3 A 35.0 35.0 0 0 1 5035.0 4000.0 A 35.0 35.0 0 0 1 4965.0 4000.0 A 35.0 35.0 0 0 1 4966.7 3989.3" stroke="red" fill="none" stroke-width="20.0" stroke-opacity="0.5"/>
        <path d="M 5037.4 4025.1 A 45.0 45.0 0 0 1 4955.0 4000.0 A 45.0 45.0 0 0 1 5045.0 4000.0 A 45.0 45.0 0 0 1 5037.4 4025.1" stroke="red" fill="none" stroke-width="20.0" stroke-opacity="0.5"/>
        <path d="M 4949.8 4022.6 A 55.0 55.0 0 0 1 4945.0 4000.0 A 55.0 55.0 0 0 1 5055.0 4000.0 A 55.0 55.0 0 0 1 4949.8 4022.6" stroke="red" fill="none" stroke-width="20.0" stroke-opacity="0.5"/>
        <path d="M 5023.6 4060.6 A 65.0 65.0 0 0 1 4935.0 4000.0 A 65.0 65.0 0 0 1 5065.0 4000.0 A 65.0 65.0 0 0 1 5023.6 4060.6" stroke="red" fill="none" stroke-width="20.0" stroke-opacity="0.5"/>
        <path d="M 4926.9 3983.2 A 75.0 75.0 0 0 1 5075.0 4000.0 A 75.0 75.0 0 0 1 4925.0 4000.0 A 75.0 75.0 0 0 1 4926.9 3983.2" stroke="red" fill="none" stroke-width="20.0" stroke-opacity="0.5"/>
        <path d="M 5083.7 4014.7 A 85.0 85.0 0 0 1 4915.0 4000.0 A 85.0 85.0 0 0 1 5085.0 4000.0 A 85.0 85.0 0 0 1 5083.7 4014.7" stroke="red" fill="none" stroke-width="20.0" stroke-opacity="0.5"/>
        <path d="M 5038.8 3913.3 A 95.0 95.0 0 0 1 5095.0 4000.0 A 95.0 95.0 0 0 1 4905.0 4000.0 A 95.0 95.0 0 0 1 5038.8 3913.3" stroke="red" fill="none" stroke-width="20.0" stroke-opacity="0.5"/>
        <path d="M 5100.7 3970.4 A 105.0 105.0 0 0 1 5105.0 4000.0 A 105.0 105.0 0 0 1 4895.0 4000.0 A 105.0 105.0 0 0 1 5100.7 3970.4" stroke="red" fill="none" stroke-width="20.0" stroke-opacity="0.5"/>
        <path d="M 4909.7 4071.2 A 115.0 115.0 0 0 1 4885.0 4000.0 A 115.0 115.0 0 0 1 5115.0 4000.0 A 115.0 115.0 0 0 1 4909.7 4071.2" stroke="red" fill="none" stroke-width="20.0" stroke-opacity="0.5"/>
        <path d="M 5124.6 4010.1 A 125.0 125.0 0 0 1 4875.0 4000.0 A 125.0 125.0 0 0 1 5125.0 4000.0 A 125.0 125.0 0 0 1 5124.6 4010.1" stroke="red" fill="none" stroke-width="20.0" stroke-opacity="0.5"/>
        <path d="M 4872.0 3957.0 A 135.0 135.0 0 0 1 5135.0 4000.0 A 135.0 135.0 0 0 1 4865.0 4000.0 A 135.0 135.0 0 0 1 4872.0 3957.0" stroke="red" fill="none" stroke-width="20.0" stroke-opacity="0.5"/>
        <path d="M 4855.0 4002.8 A 145.0 145.0 0 0 1 4855.0 4000.0 A 145.0 145.0 0 0 1 5145.0 4000.0 A 145.0 145.0 0 0 1 4855.0 4002.8" stroke="red" fill="none" stroke-width="20.0" stroke-opacity="0.5"/>
        <path d="M 4959.5 4149.6 A 155.0 155.0 0 0 1 4845.0 4000.0 A 155.0 155.0 0 0 1 5155.0 4000.0 A 155.0 155.0 0 0 1 4959.5 4149.6" stroke="red" fill="none" stroke-width="20.0" stroke-opacity="0.5"/>
        <path d="M 5102.5 4129.3 A 165.0 165.0 0 0 1 4835.0 4000.0 A 165.0 165.0 0 0 1 5165.0 4000.0 A 165.0 165.0 0 0 1 5102.5 4129.3" stroke="red" fill="none" stroke-width="20.0" stroke-opacity="0.5"/>
        <path d="M 5069.5 4160.6 A 175.0 175.0 0 0 1 4825.0 4000.0 A 175.0 175.0 0 0 1 5175.0 4000.0 A 175.0 175.0 0 0 1 5069.5 4160.6" stroke="red" fill="none" stroke-width="20.0" stroke-opacity="0.5"/>
        <path d="M 5067.7 4172.2 A 185.0 185.0 0 0 1 4815.0 4000.0 A 185.0 185.0 0 0 1 5185.0 4000.0 A 185.0 185.0 0 0 1 5067.7 4172.2" stroke="red" fill="none" stroke-width="20.0" stroke-opacity="0.5"/>
        <path d="M 4864.6 3859.7 A 195.0 195.0 0 0 1 5195.0 4000.0 A 195.0 195.0 0 0 1 4805.0 4000.0 A 195.0 195.0 0 0 1 4864.6 3859.7" stroke="red" fill="none" stroke-width="20.0" stroke-opacity="0.5"/>
        <path d="M 4954.7 3800.1 A 205.0 205.0 0 0 1 5205.0 4000.0 A 205.0 205.0 0 0 1 4795.0 4000.0 A 205.0 205.0 0 0 1 4954.7 3800.1" stroke="red" fill="none" stroke-width="20.0" stroke-opacity="0.5"/>
        <path d="M 4873.9 4174.1 A 215.0 215.0 0 0 1 4785.0 4000.0 A 215.0 215.0 0 0 1 5215.0 4000.0 A 215.0 215.0 0 0 1 4873.9 4174.1" stroke="red" fill="none" stroke-width="20.0" stroke-opacity="0.5"/>
        <path d="M 5225.0 4003.4 A 225.0 225.0 0 0 1 4775.0 4000.0 A 225.0 225.0 0 0 1 5225.0 4000.0 A 225.0 225.0 0 0 1 5225.0 4003.4" stroke="red" fill="none" stroke-width="20.0" stroke-opacity="0.5"/>
        <path d="M 5231.4 4040.9 A 235.0 235.0 0 0 1 4765.0 4000.0 A 235.0 235.0 0 0 1 5235.0 4000.0 A 235.0 235.0 0 0 1 5231.4 4040.9" stroke="red" fill="none" stroke-width="20.0" stroke-opacity="0.5"/>
        <path d="M 5215.6 4116.3 A 245.0 245.0 0 0 1 4755.0 4000.0 A 245.0 245.0 0 0 1 5245.0 4000.0 A 245.0 245.0 0 0 1 5215.6 4116.3" stroke="red" fill="none" stroke-width="20.0" stroke-opacity="0.5"/>
        <path d="M 5255.0 4000.7 A 255.0 255.0 0 0 1 4745.0 4000.0 A 255.0 255.0 0 0 1 5255.0 4000.0 A 255.0 255.0 0 0 1 5255.0 4000.7" stroke="red" fill="none" stroke-width="20.0" stroke-opacity="0.5"/>
        <path d="M 4737.7 3962.0 A 265.0 265.0 0 0 1 5265.0 4000.0 A 265.0 265.0 0 0 1 4735.0 4000.0 A 265.0 265.0 0 0 1 4737.7 3962.0" stroke="red" fill="none" stroke-width="20.0" stroke-opacity="0.5"/>
        <path d="M 4758.5 3868.5 A 275.0 275.0 0 0 1 5275.0 4000.0 A 275.0 275.0 0 0 1 4725.0 4000.0 A 275.0 275.0 0 0 1 4758.5 3868.5" stroke="red" fill="none" stroke-width="20.0" stroke-opacity="0.5"/>
        <path d="M 4886.5 4261.4 A 285.0 285.0 0 0 1 4715.0 4000.0 A 285.0 285.0 0 0 1 5285.0 4000.0 A 285.0 285.0 0 0 1 4886.5 4261.4" stroke="red" fill="none" stroke-width="20.0" stroke-opacity="0.5"/>
        <path d="M 4739.1 3862.2 A 295.0 295.0 0 0 1 5295.0 4000.0 A 295.0 295.0 0 0 1 4705.0 4000.0 A 295.0 295.0 0 0 1 4739.1 3862.2" stroke="red" fill="none" stroke-width="20.0" stroke-opacity="0.5"/>
        <path d="M 5020.9 3695.7 A 305.0 305.0 0 0 1 5305.0 4000.0 A 305.0 305.0 0 0 1 4695.0 4000.0 A 305.0 305.0 0 0 1 5020.9 3695.7" stroke="red" fill="none" stroke-width="20.0" stroke-opacity="0.5"/>
        <path d="M 4800.1 4243.5 A 315.0 315.0 0 0 1 4685.0 4000.0 A 315.0 315.0 0 0 1 5315.0 4000.0 A 315.0 315.0 0 0 1 4800.1 4243.5" stroke="red" fill="none" stroke-width="20.0" stroke-opacity="0.5"/>
        <path d="M 4777.5 4236.9 A 325.0 325.0 0 0 1 4675.0 4000.0 A 325.0 325.0 0 0 1 5325.0 4000.0 A 325.0 325.0 0 0 1 4777.5 4236.9" stroke="red" fill="none" stroke-width="20.0" stroke-opacity="0.5"/>
        <path d="M 5310.8 4125.1 A 335.0 335.0 0 0 1 4665.0 4000.0 A 335.0 335.0 0 0 1 5335.0 4000.0 A 335.0 335.0 0 0 1 5310.8 4125.1" stroke="red" fill="none" stroke-width="20.0" stroke-opacity="0.5"/>
        <path d="M 5341.3 3949.8 A 345.0 345.0 0 0 1 5345.0 4000.0 A 345.0 345.0 0 0 1 4655.0 4000.0 A 345.0 345.0 0 0 1 5341.3 3949.8" stroke="red" fill="none" stroke-width="20.0" stroke-opacity="0.5"/>
        <path d="M 5066.4 3651.3 A 355.0 355.0 0 0 1 5355.0 4000.0 A 355.0 355.0 0 0 1 4645.0 4000.0 A 355.0 355.0 0 0 1 5066.4 3651.3" stroke="red" fill="none" stroke-width="20.0" stroke-opacity="0.5"/>
        <path d="M 5363.5 3967.1 A 365.0 365.0 0 0 1 5365.0 4000.0 A 365.0 365.0 0 0 1 4635.0 4000.0 A 365.0 365.0 0 0 1 5363.5 3967.1" stroke="red" fill="none" stroke-width="20.0" stroke-opacity="0.5"/>
        <path d="M 5348.5 3861.5 A 375.0 375.0 0 0 1 5375.0 4000.0 A 375.0 375.0 0 0 1 4625.0 4000.0 A 375.0 375.0 0 0 1 5348.5 3861.5" stroke="red" fill="none" stroke-width="20.0" stroke-opacity="0.5"/>
        <path d="M 4715.3 3740.8 A 385.0 385.0 0 0 1 5385.0 4000.0 A 385.0 385.0 0 0 1 4615.0 4000.0 A 385.0 385.0 0 0 1 4715.3 3740.8" stroke="red" fill="none" stroke-width="20.0" stroke-opacity="0.5"/>
        <path d="M 4605.3 4016.5 A 395.0 395.0 0 0 1 4605.0 4000.0 A 395.0 395.0 0 0 1 5395.0 4000.0 A 395.0 395.0 0 0 1 4605.3 4016.5" stroke="red" fill="none" stroke-width="20.0" stroke-opacity="0.5"/>
        <path d="M 5107.6 3609.6 A 405.0 405.0 0 0 1 5405.0 4000.0 A 405.0 405.0 0 0 1 4595.0 4000.0 A 405.0 405.0 0 0 1 5107.6 3609.6" stroke="red" fill="none" stroke-width="20.0" stroke-opacity="0.5"/>
        <path d="M 4623.7 4174.9 A 415.0 415.0 0 0 1 4585.0 4000.0 A 415.0 415.0 0 0 1 5415.0 4000.0 A 415.0 415.0 0 0 1 4623.7 4174.9" stroke="red" fill="none" stroke-width="20.0" stroke-opacity="0.5"/>
        <path d="M 4575.9 3973.0 A 425.0 425.0 0 0 1 5425.0 4000.0 A 425.0 425.0 0 0 1 4575.0 4000.0 A 425.0 425.0 0 0 1 4575.9 3973.0" stroke="red" fill="none" stroke-width="20.0" stroke-opacity="0.5"/>
        <path d="M 5249.8 4356.2 A 435.0 435.0 0 0 1 4565.0 4000.0 A 435.0 435.0 0 0 1 5435.0 4000.0 A 435.0 435.0 0 0 1 5249.8 4356.2" stroke="red" fill="none" stroke-width="20.0" stroke-opacity="0.5"/>
        <path d="M 5438.2 4077.8 A 445.0 445.0 0 0 1 4555.0 4000.0 A 445.0 445.0 0 0 1 5445.0 4000.0 A 445.0 445.0 0 0 1 5438.2 4077.8" stroke="red" fill="none" stroke-width="20.0" stroke-opacity="0.5"/>
        <path d="M 5307.8 3664.9 A 455.0 455.0 0 0 1 5455.0 4000.0 A 455.0 455.0 0 0 1 4545.0 4000.0 A 455.0 455.0 0 0 1 5307.8 3664.9" stroke="red" fill="none" stroke-width="20.0" stroke-opacity="0.5"/>
        <path d="M 4760.5 4398.6 A 465.0 465.0 0 0 1 4535.0 4000.0 A 465.0 465.0 0 0 1 5465.0 4000.0 A 465.0 465.0 0 0 1 4760.5 4398.6" stroke="red" fill="none" stroke-width="20.0" stroke-opacity="0.5"/>
        <path d="M 5266.9 4392.9 A 475.0 475.0 0 0 1 4525.0 4000.0 A 475.0 475.0 0 0 1 5475.0 4000.0 A 475.0 475.0 0 0 1 5266.9 4392.9" stroke="red" fill="none" stroke-width="20.0" stroke-opacity="0.5"/>
        <path d="M 5467.4 4129.3 A 485.0 485.0 0 0 1 4515.0 4000.0 A 485.0 485.0 0 0 1 5485.0 4000.0 A 485.0 485.0 0 0 1 5467.4 4129.3" stroke="red" fill="none" stroke-width="20.0" stroke-opacity="0.5"/>
        <path d="M 4520.2 4121.8 A 495.0 495.0 0 0 1 4505.0 4000.0 A 495.0 495.0 0 0 1 5495.0 4000.0 A 495.0 495.0 0 0 1 4520.2 4121.8" stroke="red" fill="none" stroke-width="20.0" stroke-opacity="0.5"/>
        <path d="M 4526.7 3824.0 A 505.0 505.0 0 0 1 5505.0 4000.0 A 505.0 505.0 0 0 1 4495.0 4000.0 A 505.0 505.0 0 0 1 4526.7 3824.0" stroke="red" fill="none" stroke-width="20.0" stroke-opacity="0.5"/>
        <path d="M 5510.6 3933.2 A 515.0 515.0 0 0 1 5515.0 4000.0 A 515.0 515.0 0 0 1 4485.0 4000.0 A 515.0 515.0 0 0 1 5510.6 3933.2" stroke="red" fill="none" stroke-width="20.0" stroke-opacity="0.5"/>
        <path d="M 5459.0 3745.2 A 525.0 525.0 0 0 1 5525.0 4000.0 A 525.0 525.0 0 0 1 4475.0 4000.0 A 525.0 525.0 0 0 1 5459.0 3745.2" stroke="red" fill="none" stroke-width="20.0" stroke-opacity="0.5"/>
        <path d="M 4572.0 3679.0 A 535.0 535.0 0 0 1 5535.0 4000.0 A 535.0 535.0 0 0 1 4465.0 4000.0 A 535.0 535.0 0 0 1 4572.0 3679.0" stroke="red" fill="none" stroke-width="20.0" stroke-opacity="0.5"/>
        <path d="M 4972.1 4544.3 A 545.0 545.0 0 0 1 4455.0 4000.0 A 545.0 545.0 0 0 1 5545.0 4000.0 A 545.0 545.0 0 0 1 4972.1 4544.3" stroke="red" fill="none" stroke-width="20.0" stroke-opacity="0.5"/>
        <path d="M 4660.8 4439.2 A 555.0 555.0 0 0 1 4445.0 4000.0 A 555.0 555.0 0 0 1 5555.0 4000.0 A 555.0 555.0 0 0 1 4660.8 4439.2" stroke="red" fill="none" stroke-width="20.0" stroke-opacity="0.5"/>
        <path d="M 4520.7 3700.8 A 565.0 565.0 0 0 1 5565.0 4000.0 A 565.0 565.0 0 0 1 4435.0 4000.0 A 565.0 565.0 0 0 1 4520.7 3700.8" stroke="red" fill="none" stroke-width="20.0" stroke-opacity="0.5"/>
        <path d="M 5554.9 4150.6 A 575.0 575.0 0 0 1 4425.0 4000.0 A 575.0 575.0 0 0 1 5575.0 4000.0 A 575.0 575.0 0 0 1 5554.9 4150.6" stroke="red" fill="none" stroke-width="20.0" stroke-opacity="0.5"/>
        <path d="M 4420.5 3920.0 A 585.0 585.0 0 0 1 5585.0 4000.0 A 585.0 585.0 0 0 1 4415.0 4000.0 A 585.0 585.0 0 0 1 4420.5 3920.0" stroke="red" fill="none" stroke-width="20.0" stroke-opacity="0.5"/>
        <path d="M 5322.3 4500.2 A 595.0 595.0 0 0 1 4405.0 4000.0 A 595.0 595.0 0 0 1 5595.0 4000.0 A 595.0 595.0 0 0 1 5322.3 4500.2" stroke="red" fill="none" stroke-width="20.0" stroke-opacity="0.5"/>
        <path d="M 5496.9 3654.9 A 605.0 605.0 0 0 1 5605.0 4000.0 A 605.0 605.0 0 0 1 4395.0 4000.0 A 605.0 605.0 0 0 1 5496.9 3654.9" stroke="red" fill="none" stroke-width="20.0" stroke-opacity="0.5"/>
        <path d="M 5529.1 3686.6 A 615.0 615.0 0 0 1 5615.0 4000.0 A 615.0 615.0 0 0 1 4385.0 4000.0 A 615.0 615.0 0 0 1 5529.1 3686.6" stroke="red" fill="none" stroke-width="20.0" stroke-opacity="0.5"/>
        <path d="M 4394.6 3844.8 A 625.0 625.0 0 0 1 5625.0 4000.0 A 625.0 625.0 0 0 1 4375.0 4000.0 A 625.0 625.0 0 0 1 4394.6 3844.8" stroke="red" fill="none" stroke-width="20.0" stroke-opacity="0.5"/>
        <path d="M 5189.4 3393.9 A 635.0 635.0 0 0 1 5635.0 4000.0 A 635.0 635.0 0 0 1 4365.0 4000.0 A 635.0 635.0 0 0 1 5189.4 3393.9" stroke="red" fill="none" stroke-width="20.0" stroke-opacity="0.5"/>
        <path d="M 5416.8 4492.3 A 645.0 645.0 0 0 1 4355.0 4000.0 A 645.0 645.0 0 0 1 5645.0 4000.0 A 645.0 645.0 0 0 1 5416.8 4492.3" stroke="red" fill="none" stroke-width="20.0" stroke-opacity="0.5"/>
        <path d="M 4349.2 3926.3 A 655.0 655.0 0 0 1 5655.0 4000.0 A 655.0 655.0 0 0 1 4345.0 4000.0 A 655.0 655.0 0 0 1 4349.2 3926.3" stroke="red" fill="none" stroke-width="20.0" stroke-opacity="0.5"/>
        <path d="M 4402.8 4292.5 A 665.0 665.0 0 0 1 4335.0 4000.0 A 665.0 665.0 0 0 1 5665.0 4000.0 A 665.0 665.0 0 0 1 4402.8 4292.5" stroke="red" fill="none" stroke-width="20.0" stroke-opacity="0.5"/>
        <path d="M 4529.6 3515.9 A 675.0 675.0 0 0 1 5675.0 4000.0 A 675.0 675.0 0 0 1 4325.0 4000.0 A 675.0 675.0 0 0 1 4529.6 3515.9" stroke="red" fill="none" stroke-width="20.0" stroke-opacity="0.5"/>
        <path d="M 5309.5 3388.9 A 685.0 685.0 0 0 1 5685.0 4000.0 A 685.0 685.0 0 0 1 4315.0 4000.0 A 685.0 685.0 0 0 1 5309.5 3388.9" stroke="red" fill="none" stroke-width="20.0" stroke-opacity="0.5"/>
        <path d="M 5686.5 3891.8 A 695.0 695.0 0 0 1 5695.0 4000.0 A 695.0 695.0 0 0 1 4305.0 4000.0 A 695.0 695.0 0 0 1 5686.5 3891.8" stroke="red" fill="none" stroke-width="20.0" stroke-opacity="0.5"/>
        <path d="M 4504.6 3498.4 A 705.0 705.0 0 0 1 5705.0 4000.0 A 705.0 705.0 0 0 1 4295.0 4000.0 A 705.0 705.0 0 0 1 4504.6 3498.4" stroke="red" fill="none" stroke-width="20.0" stroke-opacity="0.5"/>
        <path d="M 4369.6 4337.4 A 715.0 715.0 0 0 1 4285.0 4000.0 A 715.0 715.0 0 0 1 5715.0 4000.0 A 715.0 715.0 0 0 1 4369.6 4337.4" stroke="red" fill="none" stroke-width="20.0" stroke-opacity="0.5"/>
        <path d="M 4577.2 3411.0 A 725.0 725.0 0 0 1 5725.0 4000.0 A 725.0 725.0 0 0 1 4275.0 4000.0 A 725.0 725.0 0 0 1 4577.2 3411.0" stroke="red" fill="none" stroke-width="20.0" stroke-opacity="0.5"/>
        <path d="M 5672.8 3704.1 A 735.0 735.0 0 0 1 5735.0 4000.0 A 735.0 735.0 0 0 1 4265.0 4000.0 A 735.0 735.0 0 0 1 5672.8 3704.1" stroke="red" fill="none" stroke-width="20.0" stroke-opacity="0.5"/>
        <path d="M 5206.2 4715.9 A 745.0 745.0 0 0 1 4255.0 4000.0 A 745.0 745.0 0 0 1 5745.0 4000.0 A 745.0 745.0 0 0 1 5206.2 4715.9" stroke="red" fill="none" stroke-width="20.0" stroke-opacity="0.5"/>
        <path d="M 4426.5 4491.0 A 755.0 755.0 0 0 1 4245.0 4000.0 A 755.0 755.0 0 0 1 5755.0 4000.0 A 755.0 755.0 0 0 1 4426.5 4491.0" stroke="red" fill="none" stroke-width="20.0" stroke-opacity="0.5"/>
        <path d="M 4439.8 4520.9 A 765.0 765.0 0 0 1 4235.0 4000.0 A 765.0 765.0 0 0 1 5765.0 4000.0 A 765.0 765.0 0 0 1 4439.8 4520.9" stroke="red" fill="none" stroke-width="20.0" stroke-opacity="0.5"/>
        <path d="M 4403.8 3504.8 A 775.0 775.0 0 0 1 5775.0 4000.0 A 775.0 775.0 0 0 1 4225.0 4000.0 A 775.0 775.0 0 0 1 4403.8 3504.8" stroke="red" fill="none" stroke-width="20.0" stroke-opacity="0.5"/>
        <path d="M 5466.3 3368.5 A 785.0 785.0 0 0 1 5785.0 4000.0 A 785.0 785.0 0 0 1 4215.0 4000.0 A 785.0 785.0 0 0 1 5466.3 3368.5" stroke="red" fill="none" stroke-width="20.0" stroke-opacity="0.5"/>
        <path d="M 4256.4 3718.7 A 795.0 795.0 0 0 1 5795.0 4000.0 A 795.0 795.0 0 0 1 4205.0 4000.0 A 795.0 795.0 0 0 1 4256.4 3718.7" stroke="red" fill="none" stroke-width="20.0" stroke-opacity="0.5"/>
        <path d="M 4635.4 4717.7 A 805.0 805.0 0 0 1 4195.0 4000.0 A 805.0 805.0 0 0 1 5805.0 4000.0 A 805.0 805.0 0 0 1 4635.4 4717.7" stroke="red" fill="none" stroke-width="20.0" stroke-opacity="0.5"/>
        <path d="M 4413.4 3434.2 A 815.0 815.0 0 0 1 5815.0 4000.0 A 815.0 815.0 0 0 1 4185.0 4000.0 A 815.0 815.0 0 0 1 4413.4 3434.2" stroke="red" fill="none" stroke-width="20.0" stroke-opacity="0.5"/>
        <path d="M 4831.0 4807.5 A 825.0 825.0 0 0 1 4175.0 4000.0 A 825.0 825.0 0 0 1 5825.0 4000.0 A 825.0 825.0 0 0 1 4831.0 4807.5" stroke="red" fill="none" stroke-width="20.0" stroke-opacity="0.5"/>
        <path d="M 4927.5 3168.2 A 835.0 835.0 0 0 1 5835.0 4000.0 A 835.0 835.0 0 0 1 4165.0 4000.0 A 835.0 835.0 0 0 1 4927.5 3168.2" stroke="red" fill="none" stroke-width="20.0" stroke-opacity="0.5"/>
        <path d="M 5843.9 3957.0 A 845.0 845.0 0 0 1 5845.0 4000.0 A 845.0 845.0 0 0 1 4155.0 4000.0 A 845.0 845.0 0 0 1 5843.9 3957.0" stroke="red" fill="none" stroke-width="20.0" stroke-opacity="0.5"/>
        <path d="M 5004.0 3145.0 A 855.0 855.0 0 0 1 5855.0 4000.0 A 855.0 855.0 0 0 1 4145.0 4000.0 A 855.0 855.0 0 0 1 5004.0 3145.0" stroke="red" fill="none" stroke-width="20.0" stroke-opacity="0.5"/>
        <path d="M 5864.5 4028.9 A 865.0 865.0 0 0 1 4135.0 4000.0 A 865.0 865.0 0 0 1 5865.0 4000.0 A 865.0 865.0 0 0 1 5864.5 4028.9" stroke="red" fill="none" stroke-width="20.0" stroke-opacity="0.5"/>
        <path d="M 5690.5 4537.4 A 875.0 875.0 0 0 1 4125.0 4000.0 A 875.0 875.0 0 0 1 5875.0 4000.0 A 875.0 875.0 0 0 1 5690.5 4537.4" stroke="red" fill="none" stroke-width="20.0" stroke-opacity="0.5"/>
        <path d="M 4157.8 4272.0 A 885.0 885.0 0 0 1 4115.0 4000.0 A 885.0 885.0 0 0 1 5885.0 4000.0 A 885.0 885.0 0 0 1 4157.8 4272.0" stroke="red" fill="none" stroke-width="20.0" stroke-opacity="0.5"/>
        <path d="M 5064.7 4892.7 A 895.0 895.0 0 0 1 4105.0 4000.0 A 895.0 895.0 0 0 1 5895.0 4000.0 A 895.0 895.0 0 0 1 5064.7 4892.7" stroke="red" fill="none" stroke-width="20.0" stroke-opacity="0.5"/>
        <path d="M 4841.6 3109.0 A 905.0 905.0 0 0 1 5905.0 4000.0 A 905.0 905.0 0 0 1 4095.0 4000.0 A 905.0 905.0 0 0 1 4841.6 3109.0" stroke="red" fill="none" stroke-width="20.0" stroke-opacity="0.5"/>
        <path d="M 5887.0 4224.5 A 915.0 915.0 0 0 1 4085.0 4000.0 A 915.0 915.0 0 0 1 5915.0 4000.0 A 915.0 915.0 0 0 1 5887.0 4224.5" stroke="red" fill="none" stroke-width="20.0" stroke-opacity="0.5"/>
        <path d="M 4947.3 4923.5 A 925.0 925.0 0 0 1 4075.0 4000.0 A 925.0 925.0 0 0 1 5925.0 4000.0 A 925.0 925.0 0 0 1 4947.3 4923.5" stroke="red" fill="none" stroke-width="20.0" stroke-opacity="0.5"/>
        <path d="M 4089.5 4212.7 A 935.0 935.0 0 0 1 4065.0 4000.0 A 935.0 935.0 0 0 1 5935.0 4000.0 A 935.0 935.0 0 0 1 4089.5 4212.7" stroke="red" fill="none" stroke-width="20.0" stroke-opacity="0.5"/>
        <path d="M 4195.2 3504.7 A 945.0 945.0 0 0 1 5945.0 4000.0 A 945.0 945.0 0 0 1 4055.0 4000.0 A 945.0 945.0 0 0 1 4195.2 3504.7" stroke="red" fill="none" stroke-width="20.0" stroke-opacity="0.5"/>
        <path d="M 5385.1 3126.1 A 955.0 955.0 0 0 1 5955.0 4000.0 A 955.0 955.0 0 0 1 4045.0 4000.0 A 955.0 955.0 0 0 1 5385.1 3126.1" stroke="red" fill="none" stroke-width="20.0" stroke-opacity="0.5"/>
        <path d="M 4395.4 4752.2 A 965.0 965.0 0 0 1 4035.0 4000.0 A 965.0 965.0 0 0 1 5965.0 4000.0 A 965.0 965.0 0 0 1 4395.4 4752.2" stroke="red" fill="none" stroke-width="20.0" stroke-opacity="0.5"/>
        <path d="M 5970.0 4099.0 A 975.0 975.0 0 0 1 4025.0 4000.0 A 975.0 975.0 0 0 1 5975.0 4000.0 A 975.0 975.0 0 0 1 5970.0 4099.0" stroke="red" fill="none" stroke-width="20.0" stroke-opacity="0.5"/>
        <path d="M 5178.3 3031.3 A 985.0 985.0 0 0 1 5985.0 4000.0 A 985.0 985.0 0 0 1 4015.0 4000.0 A 985.0 985.0 0 0 1 5178.3 3031.3" stroke="red" fill="none" stroke-width="20.0" stroke-opacity="0.5"/>
        <path d="M 4403.5 3203.6 A 995.0 995.0 0 0 1 5995.0 4000.0 A 995.0 995.0 0 0 1 4005.0 4000.0 A 995.0 995.0 0 0 1 4403.5 3203.6" stroke="red" fill="none" stroke-width="20.0" stroke-opacity="0.5"/>
        <path d="M 5910.8 3575.2 A 1005.0 1005.0 0 0 1 6005.0 4000.0 A 1005.0 1005.0 0 0 1 3995.0 4000.0 A 1005.0 1005.0 0 0 1 5910.8 3575.2" stroke="red" fill="none" stroke-width="20.0" stroke-opacity="0.5"/>
        <path d="M 4124.2 3486.9 A 1015.0 1015.0 0 0 1 6015.0 4000.0 A 1015.0 1015.0 0 0 1 3985.0 4000.0 A 1015.0 1015.0 0 0 1 4124.2 3486.9" stroke="red" fill="none" stroke-width="20.0" stroke-opacity="0.5"/>
        <path d="M 6008.3 4184.2 A 1025.0 1025.0 0 0 1 3975.0 4000.0 A 1025.0 1025.0 0 0 1 6025.0 4000.0 A 1025.0 1025.0 0 0 1 6008.3 4184.2" stroke="red" fill="none" stroke-width="20.0" stroke-opacity="0.5"/>
        <path d="M 5032.0 5034.5 A 1035.0 1035.0 0 0 1 3965.0 4000.0 A 1035.0 1035.0 0 0 1 6035.0 4000.0 A 1035.0 1035.0 0 0 1 5032.0 5034.5" stroke="red" fill="none" stroke-width="20.0" stroke-opacity="0.5"/>
        <path d="M 6034.8 4145.7 A 1045.0 1045.0 0 0 1 3955.0 4000.0 A 1045.0 1045.0 0 0 1 6045.0 4000.0 A 1045.0 1045.0 0 0 1 6034.8 4145.7" stroke="red" fill="none" stroke-width="20.0" stroke-opacity="0.5"/>
        <path d="M 5471.4 3056.2 A 1055.0 1055.0 0 0 1 6055.0 4000.0 A 1055.0 1055.0 0 0 1 3945.0 4000.0 A 1055.0 1055.0 0 0 1 5471.4 3056.2" stroke="red" fill="none" stroke-width="20.0" stroke-opacity="0.5"/>
        <path d="M 3937.3 4069.4 A 1065.0 1065.0 0 0 1 3935.0 4000.0 A 1065.0 1065.0 0 0 1 6065.0 4000.0 A 1065.0 1065.0 0 0 1 3937.3 4069.4" stroke="red" fill="none" stroke-width="20.0" stroke-opacity="0.5"/>
        <path d="M 4554.5 4978.3 A 1075.0 1075.0 0 0 1 3925.0 4000.0 A 1075.0 1075.0 0 0 1 6075.0 4000.0 A 1075.0 1075.0 0 0 1 4554.5 4978.3" stroke="red" fill="none" stroke-width="20.0" stroke-opacity="0.5"/>
        <path d="M 5142.0 5075.7 A 1085.0 1085.0 0 0 1 3915.0 4000.0 A 1085.0 1085.0 0 0 1 6085.0 4000.0 A 1085.0 1085.0 0 0 1 5142.0 5075.7" stroke="red" fill="none" stroke-width="20.0" stroke-opacity="0.5"/>
        <path d="M 4890.7 2910.5 A 1095.0 1095.0 0 0 1 6095.0 4000.0 A 1095.0 1095.0 0 0 1 3905.0 4000.0 A 1095.0 1095.0 0 0 1 4890.7 2910.5" stroke="red" fill="none" stroke-width="20.0" stroke-opacity="0.5"/>
        <path d="M 5808.6 3246.8 A 1105.0 1105.0 0 0 1 6105.0 4000.0 A 1105.0 1105.0 0 0 1 3895.0 4000.0 A 1105.0 1105.0 0 0 1 5808.6 3246.8" stroke="red" fill="none" stroke-width="20.0" stroke-opacity="0.5"/>
        <path d="M 3997.6 3511.7 A 1115.0 1115.0 0 0 1 6115.0 4000.0 A 1115.0 1115.0 0 0 1 3885.0 4000.0 A 1115.0 1115.0 0 0 1 3997.6 3511.7" stroke="red" fill="none" stroke-width="20.0" stroke-opacity="0.5"/>
        <path d="M 5005.1 2875.0 A 1125.0 1125.0 0 0 1 6125.0 4000.0 A 1125.0 1125.0 0 0 1 3875.0 4000.0 A 1125.0 1125.0 0 0 1 5005.1 2875.0" stroke="red" fill="none" stroke-width="20.0" stroke-opacity="0.5"/>
        <path d="M 5944.0 4630.2 A 1135.0 1135.0 0 0 1 3865.0 4000.0 A 1135.0 1135.0 0 0 1 6135.0 4000.0 A 1135.0 1135.0 0 0 1 5944.0 4630.2" stroke="red" fill="none" stroke-width="20.0" stroke-opacity="0.5"/>
        <path d="M 4651.9 5090.8 A 1145.0 1145.0 0 0 1 3855.0 4000.0 A 1145.0 1145.0 0 0 1 6145.0 4000.0 A 1145.0 1145.0 0 0 1 4651.9 5090.8" stroke="red" fill="none" stroke-width="20.0" stroke-opacity="0.5"/>
        <path d="M 4119.0 4746.9 A 1155.0 1155.0 0 0 1 3845.0 4000.0 A 1155.0 1155.0 0 0 1 6155.0 4000.0 A 1155.0 1155.0 0 0 1 4119.0 4746.9" stroke="red" fill="none" stroke-width="20.0" stroke-opacity="0.5"/>
        <path d="M 4875.9 5158.4 A 1165.0 1165.0 0 0 1 3835.0 4000.0 A 1165.0 1165.0 0 0 1 6165.0 4000.0 A 1165.0 1165.0 0 0 1 4875.9 5158.4" stroke="red" fill="none" stroke-width="20.0" stroke-opacity="0.5"/>
        <path d="M 4855.0 5166.0 A 1175.0 1175.0 0 0 1 3825.0 4000.0 A 1175.0 1175.0 0 0 1 6175.0 4000.0 A 1175.0 1175.0 0 0 1 4855.0 5166.0" stroke="red" fill="none" stroke-width="20.0" stroke-opacity="0.5"/>
        <path d="M 4480.2 5064.9 A 1185.0 1185.0 0 0 1 3815.0 4000.0 A 1185.0 1185.0 0 0 1 6185.0 4000.0 A 1185.0 1185.0 0 0 1 4480.2 5064.9" stroke="red" fill="none" stroke-width="20.0" stroke-opacity="0.5"/>
        <path d="M 4909.5 5191.6 A 1195.0 1195.0 0 0 1 3805.0 4000.0 A 1195.0 1195.0 0 0 1 6195.0 4000.0 A 1195.0 1195.0 0 0 1 4909.5 5191.6" stroke="red" fill="none" stroke-width="20.0" stroke-opacity="0.5"/>
        <path d="M 5092.5 2798.6 A 1205.0 1205.0 0 0 1 6205.0 4000.0 A 1205.0 1205.0 0 0 1 3795.0 4000.0 A 1205.0 1205.0 0 0 1 5092.5 2798.6" stroke="red" fill="none" stroke-width="20.0" stroke-opacity="0.5"/>
        <path d="M 4865.8 5207.6 A 1215.0 1215.0 0 0 1 3785.0 4000.0 A 1215.0 1215.0 0 0 1 6215.0 4000.0 A 1215.0 1215.0 0 0 1 4865.8 5207.6" stroke="red" fill="none" stroke-width="20.0" stroke-opacity="0.5"/>
        <path d="M 5130.7 2782.0 A 1225.0 1225.0 0 0 1 6225.0 4000.0 A 1225.0 1225.0 0 0 1 3775.0 4000.0 A 1225.0 1225.0 0 0 1 5130.7 2782.0" stroke="red" fill="none" stroke-width="20.0" stroke-opacity="0.5"/>
        <path d="M 6231.1 4097.9 A 1235.0 1235.0 0 0 1 3765.0 4000.0 A 1235.0 1235.0 0 0 1 6235.0 4000.0 A 1235.0 1235.0 0 0 1 6231.1 4097.9" stroke="red" fill="none" stroke-width="20.0" stroke-opacity="0.5"/>
        <path d="M 4174.3 3068.2 A 1245.0 1245.0 0 0 1 6245.0 4000.0 A 1245.0 1245.0 0 0 1 3755.0 4000.0 A 1245.0 1245.0 0 0 1 4174.3 3068.2" stroke="red" fill="none" stroke-width="20.0" stroke-opacity="0.5"/>
        <path d="M 5976.0 3211.0 A 1255.0 1255.0 0 0 1 6255.0 4000.0 A 1255.0 1255.0 0 0 1 3745.0 4000.0 A 1255.0 1255.0 0 0 1 5976.0 3211.0" stroke="red" fill="none" stroke-width="20.0" stroke-opacity="0.5"/>
        <path d="M 4810.1 2749.3 A 1265.0 1265.0 0 0 1 6265.0 4000.0 A 1265.0 1265.0 0 0 1 3735.0 4000.0 A 1265.0 1265.0 0 0 1 4810.1 2749.3" stroke="red" fill="none" stroke-width="20.0" stroke-opacity="0.5"/>
        <path d="M 3895.2 3363.5 A 1275.0 1275.0 0 0 1 6275.0 4000.0 A 1275.0 1275.0 0 0 1 3725.0 4000.0 A 1275.0 1275.0 0 0 1 3895.2 3363.5" stroke="red" fill="none" stroke-width="20.0" stroke-opacity="0.5"/>
        <path d="M 4305.0 2919.2 A 1285.0 1285.0 0 0 1 6285.0 4000.0 A 1285.0 1285.0 0 0 1 3715.0 4000.0 A 1285.0 1285.0 0 0 1 4305.0 2919.2" stroke="red" fill="none" stroke-width="20.0" stroke-opacity="0.5"/>
        <path d="M 5207.6 2721.7 A 1295.0 1295.0 0 0 1 6295.0 4000.0 A 1295.0 1295.0 0 0 1 3705.0 4000.0 A 1295.0 1295.0 0 0 1 5207.6 2721.7" stroke="red" fill="none" stroke-width="20.0" stroke-opacity="0.5"/>
        <path d="M 4297.8 5100.0 A 1305.0 1305.0 0 0 1 3695.0 4000.0 A 1305.0 1305.0 0 0 1 6305.0 4000.0 A 1305.0 1305.0 0 0 1 4297.8 5100.0" stroke="red" fill="none" stroke-width="20.0" stroke-opacity="0.5"/>
        <path d="M 5985.2 4870.9 A 1315.0 1315.0 0 0 1 3685.0 4000.0 A 1315.0 1315.0 0 0 1 6315.0 4000.0 A 1315.0 1315.0 0 0 1 5985.2 4870.9" stroke="red" fill="none" stroke-width="20.0" stroke-opacity="0.5"/>
        <path d="M 3765.8 4482.0 A 1325.0 1325.0 0 0 1 3675.0 4000.0 A 1325.0 1325.0 0 0 1 6325.0 4000.0 A 1325.0 1325.0 0 0 1 3765.8 4482.0" stroke="red" fill="none" stroke-width="20.0" stroke-opacity="0.5"/>
        <path d="M 3667.3 3921.1 A 1335.0 1335.0 0 0 1 6335.0 4000.0 A 1335.0 1335.0 0 0 1 3665.0 4000.0 A 1335.0 1335.0 0 0 1 3667.3 3921.1" stroke="red" fill="none" stroke-width="20.0" stroke-opacity="0.5"/>
        <path d="M 6331.1 3807.2 A 1345.0 1345.0 0 0 1 6345.0 4000.0 A 1345.0 1345.0 0 0 1 3655.0 4000.0 A 1345.0 1345.0 0 0 1 6331.1 3807.2" stroke="red" fill="none" stroke-width="20.0" stroke-opacity="0.5"/>
        <path d="M 4070.5 3014.1 A 1355.0 1355.0 0 0 1 6355.0 4000.0 A 1355.0 1355.0 0 0 1 3645.0 4000.0 A 1355.0 1355.0 0 0 1 4070.5 3014.1" stroke="red" fill="none" stroke-width="20.0" stroke-opacity="0.5"/>
        <path d="M 6310.9 3619.5 A 1365.0 1365.0 0 0 1 6365.0 4000.0 A 1365.0 1365.0 0 0 1 3635.0 4000.0 A 1365.0 1365.0 0 0 1 6310.9 3619.5" stroke="red" fill="none" stroke-width="20.0" stroke-opacity="0.5"/>
        <path d="M 6366.7 4150.5 A 1375.0 1375.0 0 0 1 3625.0 4000.0 A 1375.0 1375.0 0 0 1 6375.0 4000.0 A 1375.0 1375.0 0 0 1 6366.7 4150.5" stroke="red" fill="none" stroke-width="20.0" stroke-opacity="0.5"/>
        <path d="M 3894.7 3165.4 A 1385.0 1385.0 0 0 1 6385.0 4000.0 A 1385.0 1385.0 0 0 1 3615.0 4000.0 A 1385.0 1385.0 0 0 1 3894.7 3165.4" stroke="red" fill="none" stroke-width="20.0" stroke-opacity="0.5"/>
        <path d="M 3793.9 3299.0 A 1395.0 1395.0 0 0 1 6395.0 4000.0 A 1395.0 1395.0 0 0 1 3605.0 4000.0 A 1395.0 1395.0 0 0 1 3793.9 3299.0" stroke="red" fill="none" stroke-width="20.0" stroke-opacity="0.5"/>
        <path d="M 5280.7 2623.3 A 1405.0 1405.0 0 0 1 6405.0 4000.0 A 1405.0 1405.0 0 0 1 3595.0 4000.0 A 1405.0 1405.0 0 0 1 5280.7 2623.3" stroke="red" fill="none" stroke-width="20.0" stroke-opacity="0.5"/>
        <path d="M 3781.7 3280.2 A 1415.0 1415.0 0 0 1 6415.0 4000.0 A 1415.0 1415.0 0 0 1 3585.0 4000.0 A 1415.0 1415.0 0 0 1 3781.7 3280.2" stroke="red" fill="none" stroke-width="20.0" stroke-opacity="0.5"/>
        <path d="M 4099.4 5104.3 A 1425.0 1425.0 0 0 1 3575.0 4000.0 A 1425.0 1425.0 0 0 1 6425.0 4000.0 A 1425.0 1425.0 0 0 1 4099.4 5104.3" stroke="red" fill="none" stroke-width="20.0" stroke-opacity="0.5"/>
        <path d="M 5591.4 2692.5 A 1435.0 1435.0 0 0 1 6435.0 4000.0 A 1435.0 1435.0 0 0 1 3565.0 4000.0 A 1435.0 1435.0 0 0 1 5591.4 2692.5" stroke="red" fill="none" stroke-width="20.0" stroke-opacity="0.5"/>
        <path d="M 3712.5 4656.1 A 1445.0 1445.0 0 0 1 3555.0 4000.0 A 1445.0 1445.0 0 0 1 6445.0 4000.0 A 1445.0 1445.0 0 0 1 3712.5 4656.1" stroke="red" fill="none" stroke-width="20.0" stroke-opacity="0.5"/>
        <path d="M 6301.5 4650.6 A 1455.0 1455.0 0 0 1 3545.0 4000.0 A 1455.0 1455.0 0 0 1 6455.0 4000.0 A 1455.0 1455.0 0 0 1 6301.5 4650.6" stroke="red" fill="none" stroke-width="20.0" stroke-opacity="0.5"/>
        <path d="M 6425.5 4337.8 A 1465.0 1465.0 0 0 1 3535.0 4000.0 A 1465.0 1465.0 0 0 1 6465.0 4000.0 A 1465.0 1465.0 0 0 1 6425.5 4337.8" stroke="red" fill="none" stroke-width="20.0" stroke-opacity="0.5"/>
        <path d="M 3561.7 4326.9 A 1475.0 1475.0 0 0 1 3525.0 4000.0 A 1475.0 1475.0 0 0 1 6475.0 4000.0 A 1475.0 1475.0 0 0 1 3561.7 4326.9" stroke="red" fill="none" stroke-width="20.0" stroke-opacity="0.5"/>
        <path d="M 5125.4 5479.7 A 1485.0 1485.0 0 0 1 3515.0 4000.0 A 1485.0 1485.0 0 0 1 6485.0 4000.0 A 1485.0 1485.0 0 0 1 5125.4 5479.7" stroke="red" fill="none" stroke-width="20.0" stroke-opacity="0.5"/>
        <path d="M 5970.0 2862.4 A 1495.0 1495.0 0 0 1 6495.0 4000.0 A 1495.0 1495.0 0 0 1 3505.0 4000.0 A 1495.0 1495.0 0 0 1 5970.0 2862.4" stroke="red" fill="none" stroke-width="20.0" stroke-opacity="0.5"/>
    </g>
    <g inkscape:groupmode="layer" inkscape:label="3 - GUIDELINES-pen" id="g5" transform="translate(0.0 0.0)"><line x1="1300.0" x2="1300.0" y1="225.0" y2="300.0" stroke="black" fill="none" stroke-width="3"/>
        <line x1="1325.0" x2="1325.0" y1="225.0" y2="300.0" stroke="black" fill="none" stroke-width="3"/>
        <line x1="1350.0" x2="1350.0" y1="225.0" y2="300.0" stroke="black" fill="none" stroke-width="3"/>
        <line x1="1375.0" x2="1375.0" y1="225.0" y2="300.0" stroke="black" fill="none" stroke-width="3"/>
        <line x1="1400.0" x2="1400.0" y1="225.0" y2="300.0" stroke="black" fill="none" stroke-width="3"/>
        <line x1="1425.0" x2="1425.0" y1="225.0" y2="300.0" stroke="black" fill="none" stroke-width="3"/>
        <line x1="1450.0" x2="1450.0" y1="225.0" y2="300.0" stroke="black" fill="none" stroke-width="3"/>
        <line x1="1475.0" x2="1475.0" y1="225.0" y2="300.0" stroke="black" fill="none" stroke-width="3"/>
        <line x1="1500.0" x2="1500.0" y1="200.0" y2="300.0" stroke="black" fill="none" stroke-width="3"/>
        <line x1="1525.0" x2="1525.0" y1="225.0" y2="300.0" stroke="black" fill="none" stroke-width="3"/>
        <line x1="1550.0" x2="1550.0" y1="225.0" y2="300.0" stroke="black" fill="none" stroke-width="3"/>
        <line x1="1575.0" x2="1575.0" y1="225.0" y2="300.0" stroke="black" fill="none" stroke-width="3"/>
        <line x1="1600.0" x2="1600.0" y1="225.0" y2="300.0" stroke="black" fill="none" stroke-width="3"/>
        <line x1="1625.0" x2="1625.0" y1="225.0" y2="300.0" stroke="black" fill="none" stroke-width="3"/>
        <line x1="1650.0" x2="1650.0" y1="225.0" y2="300.0" stroke="black" fill="none" stroke-width="3"/>
        <line x1="1675.0" x2="1675.0" y1="225.0" y2="300.0" stroke="black" fill="none" stroke-width="3"/>
        <line x1="1700.0" x2="1700.0" y1="225.0" y2="300.0" stroke="black" fill="none" stroke-width="3"/>
        <line x1="1300.0" x2="1300.0" y1="700.0" y2="775.0" stroke="black" fill="none" stroke-width="3"/>
        <line x1="1325.0" x2="1325.0" y1="700.0" y2="775.0" stroke="black" fill="none" stroke-width="3"/>
        <line x1="1350.0" x2="1350.0" y1="700.0" y2="775.0" stroke="black" fill="none" stroke-width="3"/>
        <line x1="1375.0" x2="1375.0" y1="700.0" y2="775.0" stroke="black" fill="none" stroke-width="3"/>
        <line x1="1400.0" x2="1400.0" y1="700.0" y2="775.0" stroke="black" fill="none" stroke-width="3"/>
        <line x1="1425.0" x2="1425.0" y1="700.0" y2="775.0" stroke="black" fill="none" stroke-width="3"/>
        <line x1="1450.0" x2="1450.0" y1="700.0" y2="775.0" stroke="black" fill="none" stroke-width="3"/>
        <line x1="1475.0" x2="1475.0" y1="700.0" y2="775.0" stroke="black" fill="none" stroke-width="3"/>
        <line x1="1500.0" x2="1500.0" y1="700.0" y2="800.0" stroke="black" fill="none" stroke-width="3"/>
        <line x1="1525.0" x2="1525.0" y1="700.0" y2="775.0" stroke="black" fill="none" stroke-width="3"/>
        <line x1="1550.0" x2="1550.0" y1="700.0" y2="775.0" stroke="black" fill="none" stroke-width="3"/>
        <line x1="1575.0" x2="1575.0" y1="700.0" y2="775.0" stroke="black" fill="none" stroke-width="3"/>
        <line x1="1600.0" x2="1600.0" y1="700.0" y2="775.0" stroke="black" fill="none" stroke-width="3"/>
        <line x1="1625.0" x2="1625.0" y1="700.0" y2="775.0" stroke="black" fill="none" stroke-width="3"/>
        <line x1="1650.0" x2="1650.0" y1="700.0" y2="775.0" stroke="black" fill="none" stroke-width="3"/>
        <line x1="1675.0" x2="1675.0" y1="700.0" y2="775.0" stroke="black" fill="none" stroke-width="3"/>
        <line x1="1700.0" x2="1700.0" y1="700.0" y2="775.0" stroke="black" fill="none" stroke-width="3"/>
        <line x1="1225.0" x2="1300.0" y1="300.0" y2="300.0" stroke="black" fill="none" stroke-width="3"/>
        <line x1="1225.0" x2="1300.0" y1="325.0" y2="325.0" stroke="black" fill="none" stroke-width="3"/>
        <line x1="1225.0" x2="1300.0" y1="350.0" y2="350.0" stroke="black" fill="none" stroke-width="3"/>
        <line x1="1225.0" x2="1300.0" y1="375.0" y2="375.0" stroke="black" fill="none" stroke-width="3"/>
        <line x1="1225.0" x2="1300.0" y1="400.0" y2="400.0" stroke="black" fill="none" stroke-width="3"/>
        <line x1="1225.0" x2="1300.0" y1="425.0" y2="425.0" stroke="black" fill="none" stroke-width="3"/>
        <line x1="1225.0" x2="1300.0" y1="450.0" y2="450.0" stroke="black" fill="none" stroke-width="3"/>
        <line x1="1225.0" x2="1300.0" y1="475.0" y2="475.0" stroke="black" fill="none" stroke-width="3"/>
        <line x1="1200.0" x2="1300.0" y1="500.0" y2="500.0" stroke="black" fill="none" stroke-width="3"/>
        <line x1="1225.0" x2="1300.0" y1="525.0" y2="525.0" stroke="black" fill="none" stroke-width="3"/>
        <line x1="1225.0" x2="1300.0" y1="550.0" y2="550.0" stroke="black" fill="none" stroke-width="3"/>
        <line x1="1225.0" x2="1300.0" y1="575.0" y2="575.0" stroke="black" fill="none" stroke-width="3"/>
        <line x1="1225.0" x2="1300.0" y1="600.0" y2="600.0" stroke="black" fill="none" stroke-width="3"/>
        <line x1="1225.0" x2="1300.0" y1="625.0" y2="625.0" stroke="black" fill="none" stroke-width="3"/>
        <line x1="1225.0" x2="1300.0" y1="650.0" y2="650.0" stroke="black" fill="none" stroke-width="3"/>
        <line x1="1225.0" x2="1300.0" y1="675.0" y2="675.0" stroke="black" fill="none" stroke-width="3"/>
        <line x1="1225.0" x2="1300.0" y1="700.0" y2="700.0" stroke="black" fill="none" stroke-width="3"/>
        <line x1="1700.0" x2="1775.0" y1="300.0" y2="300.0" stroke="black" fill="none" stroke-width="3"/>
        <line x1="1700.0" x2="1775.0" y1="325.0" y2="325.0" stroke="black" fill="none" stroke-width="3"/>
        <line x1="1700.0" x2="1775.0" y1="350.0" y2="350.0" stroke="black" fill="none" stroke-width="3"/>
        <line x1="1700.0" x2="1775.0" y1="375.0" y2="375.0" stroke="black" fill="none" stroke-width="3"/>
        <line x1="1700.0" x2="1775.0" y1="400.0" y2="400.0" stroke="black" fill="none" stroke-width="3"/>
        <line x1="1700.0" x2="1775.0" y1="425.0" y2="425.0" stroke="black" fill="none" stroke-width="3"/>
        <line x1="1700.0" x2="1775.0" y1="450.0" y2="450.0" stroke="black" fill="none" stroke-width="3"/>
        <line x1="1700.0" x2="1775.0" y1="475.0" y2="475.0" stroke="black" fill="none" stroke-width="3"/>
        <line x1="1700.0" x2="1800.0" y1="500.0" y2="500.0" stroke="black" fill="none" stroke-width="3"/>
        <line x1="1700.0" x2="1775.0" y1="525.0" y2="525.0" stroke="black" fill="none" stroke-width="3"/>
        <line x1="1700.0" x2="1775.0" y1="550.0" y2="550.0" stroke="black" fill="none" stroke-width="3"/>
        <line x1="1700.0" x2="1775.0" y1="575.0" y2="575.0" stroke="black" fill="none" stroke-width="3"/>
        <line x1="1700.0" x2="1775.0" y1="600.0" y2="600.0" stroke="black" fill="none" stroke-width="3"/>
        <line x1="1700.0" x2="1775.0" y1="625.0" y2="625.0" stroke="black" fill="none" stroke-width="3"/>
        <line x1="1700.0" x2="1775.0" y1="650.0" y2="650.0" stroke="black" fill="none" stroke-width="3"/>
        <line x1="1700.0" x2="1775.0" y1="675.0" y2="675.0" stroke="black" fill="none" stroke-width="3"/>
        <line x1="1700.0" x2="1775.0" y1="700.0" y2="700.0" stroke="black" fill="none" stroke-width="3"/>
        <line x1="2300.0" x2="2300.0" y1="225.0" y2="300.0" stroke="black" fill="none" stroke-width="3"/>
        <line x1="2325.0" x2="2325.0" y1="225.0" y2="300.0" stroke="black" fill="none" stroke-width="3"/>
        <line x1="2350.0" x2="2350.0" y1="225.0" y2="300.0" stroke="black" fill="none" stroke-width="3"/>
        <line x1="2375.0" x2="2375.0" y1="225.0" y2="300.0" stroke="black" fill="none" stroke-width="3"/>
        <line x1="2400.0" x2="2400.0" y1="225.0" y2="300.0" stroke="black" fill="none" stroke-width="3"/>
        <line x1="2425.0" x2="2425.0" y1="225.0" y2="300.0" stroke="black" fill="none" stroke-width="3"/>
        <line x1="2450.0" x2="2450.0" y1="225.0" y2="300.0" stroke="black" fill="none" stroke-width="3"/>
        <line x1="2475.0" x2="2475.0" y1="225.0" y2="300.0" stroke="black" fill="none" stroke-width="3"/>
        <line x1="2500.0" x2="2500.0" y1="200.0" y2="300.0" stroke="black" fill="none" stroke-width="3"/>
        <line x1="2525.0" x2="2525.0" y1="225.0" y2="300.0" stroke="black" fill="none" stroke-width="3"/>
        <line x1="2550.0" x2="2550.0" y1="225.0" y2="300.0" stroke="black" fill="none" stroke-width="3"/>
        <line x1="2575.0" x2="2575.0" y1="225.0" y2="300.0" stroke="black" fill="none" stroke-width="3"/>
        <line x1="2600.0" x2="2600.0" y1="225.0" y2="300.0" stroke="black" fill="none" stroke-width="3"/>
        <line x1="2625.0" x2="2625.0" y1="225.0" y2="300.0" stroke="black" fill="none" stroke-width="3"/>
        <line x1="2650.0" x2="2650.0" y1="225.0" y2="300.0" stroke="black" fill="none" stroke-width="3"/>
        <line x1="2675.0" x2="2675.0" y1="225.0" y2="300.0" stroke="black" fill="none" stroke-width="3"/>
        <line x1="2700.0" x2="2700.0" y1="225.0" y2="300.0" stroke="black" fill="none" stroke-width="3"/>
        <line x1="2300.0" x2="2300.0" y1="700.0" y2="775.0" stroke="black" fill="none" stroke-width="3"/>
        <line x1="2325.0" x2="2325.0" y1="700.0" y2="775.0" stroke="black" fill="none" stroke-width="3"/>
        <line x1="2350.0" x2="2350.0" y1="700.0" y2="775.0" stroke="black" fill="none" stroke-width="3"/>
        <line x1="2375.0" x2="2375.0" y1="700.0" y2="775.0" stroke="black" fill="none" stroke-width="3"/>
        <line x1="2400.0" x2="2400.0" y1="700.0" y2="775.0" stroke="black" fill="none" stroke-width="3"/>
        <line x1="2425.0" x2="2425.0" y1="700.0" y2="775.0" stroke="black" fill="none" stroke-width="3"/>
        <line x1="2450.0" x2="2450.0" y1="700.0" y2="775.0" stroke="black" fill="none" stroke-width="3"/>
        <line x1="2475.0" x2="2475.0" y1="700.0" y2="775.0" stroke="black" fill="none" stroke-width="3"/>
        <line x1="2500.0" x2="2500.0" y1="700.0" y2="800.0" stroke="black" fill="none" stroke-width="3"/>
        <line x1="2525.0" x2="2525.0" y1="700.0" y2="775.0" stroke="black" fill="none" stroke-width="3"/>
        <line x1="2550.0" x2="2550.0" y1="700.0" y2="775.0" stroke="black" fill="none" stroke-width="3"/>
        <line x1="2575.0" x2="2575.0" y1="700.0" y2="775.0" stroke="black" fill="none" stroke-width="3"/>
        <line x1="2600.0" x2="2600.0" y1="700.0" y2="775.0" stroke="black" fill="none" stroke-width="3"/>
        <line x1="2625.0" x2="2625.0" y1="700.0" y2="775.0" stroke="black" fill="none" stroke-width="3"/>
        <line x1="2650.0" x2="2650.0" y1="700.0" y2="775.0" stroke="black" fill="none" stroke-width="3"/>
        <line x1="2675.0" x2="2675.0" y1="700.0" y2="775.0" stroke="black" fill="none" stroke-width="3"/>
        <line x1="2700.0" x2="2700.0" y1="700.0" y2="775.0" stroke="black" fill="none" stroke-width="3"/>
        <line x1="2225.0" x2="2300.0" y1="300.0" y2="300.0" stroke="black" fill="none" stroke-width="3"/>
        <line x1="2225.0" x2="2300.0" y1="325.0" y2="325.0" stroke="black" fill="none" stroke-width="3"/>
        <line x1="2225.0" x2="2300.0" y1="350.0" y2="350.0" stroke="black" fill="none" stroke-width="3"/>
        <line x1="2225.0" x2="2300.0" y1="375.0" y2="375.0" stroke="black" fill="none" stroke-width="3"/>
        <line x1="2225.0" x2="2300.0" y1="400.0" y2="400.0" stroke="black" fill="none" stroke-width="3"/>
        <line x1="2225.0" x2="2300.0" y1="425.0" y2="425.0" stroke="black" fill="none" stroke-width="3"/>
        <line x1="2225.0" x2="2300.0" y1="450.0" y2="450.0" stroke="black" fill="none" stroke-width="3"/>
        <line x1="2225.0" x2="2300.0" y1="475.0" y2="475.0" stroke="black" fill="none" stroke-width="3"/>
        <line x1="2200.0" x2="2300.0" y1="500.0" y2="500.0" stroke="black" fill="none" stroke-width="3"/>
        <line x1="2225.0" x2="2300.0" y1="525.0" y2="525.0" stroke="black" fill="none" stroke-width="3"/>
        <line x1="2225.0" x2="2300.0" y1="550.0" y2="550.0" stroke="black" fill="none" stroke-width="3"/>
        <line x1="2225.0" x2="2300.0" y1="575.0" y2="575.0" stroke="black" fill="none" stroke-width="3"/>
        <line x1="2225.0" x2="2300.0" y1="600.0" y2="600.0" stroke="black" fill="none" stroke-width="3"/>
        <line x1="2225.0" x2="2300.0" y1="625.0" y2="625.0" stroke="black" fill="none" stroke-width="3"/>
        <line x1="2225.0" x2="2300.0" y1="650.0" y2="650.0" stroke="black" fill="none" stroke-width="3"/>
        <line x1="2225.0" x2="2300.0" y1="675.0" y2="675.0" stroke="black" fill="none" stroke-width="3"/>
        <line x1="2225.0" x2="2300.0" y1="700.0" y2="700.0" stroke="black" fill="none" stroke-width="3"/>
        <line x1="2700.0" x2="2775.0" y1="300.0" y2="300.0" stroke="black" fill="none" stroke-width="3"/>
        <line x1="2700.0" x2="2775.0" y1="325.0" y2="325.0" stroke="black" fill="none" stroke-width="3"/>
        <line x1="2700.0" x2="2775.0" y1="350.0" y2="350.0" stroke="black" fill="none" stroke-width="3"/>
        <line x1="2700.0" x2="2775.0" y1="375.0" y2="375.0" stroke="black" fill="none" stroke-width="3"/>
        <line x1="2700.0" x2="2775.0" y1="400.0" y2="400.0" stroke="black" fill="none" stroke-width="3"/>
        <line x1="2700.0" x2="2775.0" y1="425.0" y2="425.0" stroke="black" fill="none" stroke-width="3"/>
        <line x1="2700.0" x2="2775.0" y1="450.0" y2="450.0" stroke="black" fill="none" stroke-width="3"/>
        <line x1="2700.0" x2="2775.0" y1="475.0" y2="475.0" stroke="black" fill="none" stroke-width="3"/>
        <line x1="2700.0" x2="2800.0" y1="500.0" y2="500.0" stroke="black" fill="none" stroke-width="3"/>
        <line x1="2700.0" x2="2775.0" y1="525.0" y2="525.0" stroke="black" fill="none" stroke-width="3"/>
        <line x1="2700.0" x2="2775.0" y1="550.0" y2="550.0" stroke="black" fill="none" stroke-width="3"/>
        <line x1="2700.0" x2="2775.0" y1="575.0" y2="575.0" stroke="black" fill="none" stroke-width="3"/>
        <line x1="2700.0" x2="2775.0" y1="600.0" y2="600.0" stroke="black" fill="none" stroke-width="3"/>
        <line x1="2700.0" x2="2775.0" y1="625.0" y2="625.0" stroke="black" fill="none" stroke-width="3"/>
        <line x1="2700.0" x2="2775.0" y1="650.0" y2="650.0" stroke="black" fill="none" stroke-width="3"/>
        <line x1="2700.0" x2="2775.0" y1="675.0" y2="675.0" stroke="black" fill="none" stroke-width="3"/>
        <line x1="2700.0" x2="2775.0" y1="700.0" y2="700.0" stroke="black" fill="none" stroke-width="3"/>
    </g>
    <g inkscape:groupmode="layer" inkscape:label="4 - GUIDELINES-Layer 1" id="g5" transform="translate(0.0 0.0)"><line x1="1500.0" x2="1500.0" y1="300.0" y2="700.0" stroke="black" fill="none" stroke-width="20.0"/>
        <line x1="1300.0" x2="1700.0" y1="500.0" y2="500.0" stroke="black" fill="none" stroke-width="20.0"/>
    </g>
    <g inkscape:groupmode="layer" inkscape:label="5 - GUIDELINES-Layer 2" id="g5" transform="translate(0.0 0.0)"><line x1="2500.0" x2="2500.0" y1="300.0" y2="700.0" stroke="red" fill="none" stroke-width="20.0"/>
        <line x1="2300.0" x2="2700.0" y1="500.0" y2="500.0" stroke="red" fill="none" stroke-width="20.0"/>
    </g>
</svg>
