<?xml version="1.0" encoding="UTF-8"?>
<svg width="12in" height="9in" viewBox="0 0 10000 10000" version="1.1" id="svg6" sodipodi:docname="test_inkscape.svg" inkscape:version="1.3.2 (091e20e, 2023-11-25, custom)" xmlns:inkscape="http://www.inkscape.org/namespaces/inkscape" xmlns:sodipodi="http://sodipodi.sourceforge.net/DTD/sodipodi-0.dtd" xmlns="http://www.w3.org/2000/svg" xmlns:svg="http://www.w3.org/2000/svg"><g inkscape:groupmode="layer" inkscape:label="0 - frame" id="g5" transform="translate(0.0 0.0)"><path d="M 1000.0 1000.0 L 1000.0 9000.0 L 9000.0 9000.0 L 9000.0 1000.0 L 1000.0 1000.0" stroke="black" fill="none" stroke-width="3"/></g>
    <g inkscape:groupmode="layer" inkscape:label="1 - Curly1" id="g5" transform="translate(0.0 0.0)"><path d="M 1133.3 1000.0 A 133.3 133.3 0 0 0 1266.7 1107.8 A 133.3 133.3 0 0 0 1449.3 1000.0" stroke="red" fill="none" stroke-width="10.0"/>
        <path d="M 1400.0 1000.0" stroke="red" fill="none" stroke-width="10.0"/>
        <path d="M 1666.7 1000.0 A 133.3 133.3 0 0 0 1800.0 1147.4 A 133.3 133.3 0 0 1 1950.7 1266.7 A 133.3 133.3 0 0 1 1800.0 1437.7 A 133.3 133.3 0 0 0 1631.1 1533.3 A 133.3 133.3 0 0 1 1533.3 1706.9 A 133.3 133.3 0 0 1 1384.9 1533.3 A 133.3 133.3 0 0 1 1533.3 1389.0 A 133.3 133.3 0 0 0 1637.9 1266.7 A 133.3 133.3 0 0 0 1533.3 1131.1 A 133.3 133.3 0 0 0 1367.2 1266.7 A 133.3 133.3 0 0 1 1266.7 1446.0 A 133.3 133.3 0 0 1 1164.2 1266.7 A 133.3 133.3 0 0 0 1000.0 1129.1" stroke="red" fill="none" stroke-width="10.0"/>
        <path d="M 1933.3 1000.0 A 133.3 133.3 0 0 0 2066.7 1130.8 A 133.3 133.3 0 0 1 2228.0 1266.7 A 133.3 133.3 0 0 0 2333.3 1434.2 A 133.3 133.3 0 0 0 2418.3 1266.7 A 133.3 133.3 0 0 0 2333.3 1163.1 A 133.3 133.3 0 0 1 2199.0 1000.0" stroke="red" fill="none" stroke-width="10.0"/>
        <path d="M 2200.0 1000.0" stroke="red" fill="none" stroke-width="10.0"/>
        <path d="M 2466.7 1000.0 A 133.3 133.3 0 0 0 2600.0 1080.9 A 133.3 133.3 0 0 0 2688.1 1000.0" stroke="red" fill="none" stroke-width="10.0"/>
        <path d="M 2733.3 1000.0" stroke="red" fill="none" stroke-width="10.0"/>
        <path d="M 3000.0 1000.0 A 133.3 133.3 0 0 0 3133.3 1165.5 A 133.3 133.3 0 0 1 3286.2 1266.7 A 133.3 133.3 0 0 0 3400.0 1363.9 A 133.3 133.3 0 0 0 3533.4 1266.7 A 133.3 133.3 0 0 1 3666.7 1093.9 A 133.3 133.3 0 0 1 3756.4 1266.7 A 133.3 133.3 0 0 1 3666.7 1401.1 A 133.3 133.3 0 0 0 3485.2 1533.3 A 133.3 133.3 0 0 0 3666.7 1631.5 A 133.3 133.3 0 0 0 3833.2 1533.3 A 133.3 133.3 0 0 1 3933.3 1366.2 A 133.3 133.3 0 0 1 4035.6 1533.3 A 133.3 133.3 0 0 1 3933.3 1699.0 A 133.3 133.3 0 0 0 3783.9 1800.0 A 133.3 133.3 0 0 1 3666.7 1955.4 A 133.3 133.3 0 0 1 3485.0 1800.0 A 133.3 133.3 0 0 0 3400.0 1663.9 A 133.3 133.3 0 0 0 3254.4 1800.0 A 133.3 133.3 0 0 0 3400.0 1932.1 A 133.3 133.3 0 0 1 3523.5 2066.7 A 133.3 133.3 0 0 1 3400.0 2163.7 A 133.3 133.3 0 0 1 3222.4 2066.7 A 133.3 133.3 0 0 0 3133.3 1921.3 A 133.3 133.3 0 0 0 2949.8 2066.7 A 133.3 133.3 0 0 1 2866.7 2182.1 A 133.3 133.3 0 0 0 2703.1 2333.3 A 133.3 133.3 0 0 0 2866.7 2446.7 A 133.3 133.3 0 0 0 3003.0 2333.3 A 133.3 133.3 0 0 1 3133.3 2242.0 A 133.3 133.3 0 0 1 3315.9 2333.3 A 133.3 133.3 0 0 0 3400.0 2475.9 A 133.3 133.3 0 0 1 3524.5 2600.0 A 133.3 133.3 0 0 0 3666.7 2745.5 A 133.3 133.3 0 0 1 3778.7 2866.7 A 133.3 133.3 0 0 0 3933.3 2971.8 A 133.3 133.3 0 0 0 4108.7 2866.7 A 133.3 133.3 0 0 1 4200.0 2770.6 A 133.3 133.3 0 0 1 4344.0 2866.7 A 133.3 133.3 0 0 1 4200.0 3041.6 A 133.3 133.3 0 0 0 4104.5 3133.3 A 133.3 133.3 0 0 0 4200.0 3282.7 A 133.3 133.3 0 0 1 4281.4 3400.0 A 133.3 133.3 0 0 0 4466.7 3555.9 A 133.3 133.3 0 0 1 4557.9 3666.7 A 133.3 133.3 0 0 1 4466.7 3843.5 A 133.3 133.3 0 0 1 4307.7 3666.7 A 133.3 133.3 0 0 0 4200.0 3579.7 A 133.3 133.3 0 0 0 4097.2 3666.7 A 133.3 133.3 0 0 1 3933.3 3835.4 A 133.3 133.3 0 0 0 3788.7 3933.3 A 133.3 133.3 0 0 1 3666.7 4092.5 A 133.3 133.3 0 0 0 3498.2 4200.0 A 133.3 133.3 0 0 1 3400.0 4287.0 A 133.3 133.3 0 0 0 3312.1 4466.7 A 133.3 133.3 0 0 1 3133.3 4613.6 A 133.3 133.3 0 0 1 2986.6 4466.7 A 133.3 133.3 0 0 0 2866.7 4340.4 A 133.3 133.3 0 0 1 2723.0 4200.0 A 133.3 133.3 0 0 0 2600.0 4107.0 A 133.3 133.3 0 0 0 2418.2 4200.0 A 133.3 133.3 0 0 0 2600.0 4383.5 A 133.3 133.3 0 0 1 2746.9 4466.7 A 133.3 133.3 0 0 0 2866.7 4576.6 A 133.3 133.3 0 0 1 2995.7 4733.3 A 133.3 133.3 0 0 0 3133.3 4915.9 A 133.3 133.3 0 0 0 3301.5 4733.3 A 133.3 133.3 0 0 1 3400.0 4562.1 A 133.3 133.3 0 0 0 3528.7 4466.7 A 133.3 133.3 0 0 1 3666.7 4347.5 A 133.3 133.3 0 0 0 3794.1 4200.0 A 133.3 133.3 0 0 1 3933.3 4096.8 A 133.3 133.3 0 0 1 4042.2 4200.0 A 133.3 133.3 0 0 0 4200.0 4347.1 A 133.3 133.3 0 0 1 4354.2 4466.7 A 133.3 133.3 0 0 0 4466.7 4648.7 A 133.3 133.3 0 0 0 4562.0 4466.7 A 133.3 133.3 0 0 1 4733.3 4343.4 A 133.3 133.3 0 0 1 4918.1 4466.7 A 133.3 133.3 0 0 0 5000.0 4648.6 A 133.3 133.3 0 0 1 5114.2 4733.3 A 133.3 133.3 0 0 0 5266.7 4878.5 A 133.3 133.3 0 0 0 5373.8 4733.3 A 133.3 133.3 0 0 0 5266.7 4625.7 A 133.3 133.3 0 0 1 5160.2 4466.7 A 133.3 133.3 0 0 1 5266.7 4359.9 A 133.3 133.3 0 0 0 5405.8 4200.0 A 133.3 133.3 0 0 0 5266.7 4085.6 A 133.3 133.3 0 0 0 5173.3 4200.0 A 133.3 133.3 0 0 1 5000.0 4377.1 A 133.3 133.3 0 0 1 4830.0 4200.0 A 133.3 133.3 0 0 1 5000.0 4038.0 A 133.3 133.3 0 0 0 5149.7 3933.3 A 133.3 133.3 0 0 0 5000.0 3844.0 A 133.3 133.3 0 0 1 4895.1 3666.7 A 133.3 133.3 0 0 0 4733.3 3568.7 A 133.3 133.3 0 0 1 4572.7 3400.0 A 133.3 133.3 0 0 0 4466.7 3237.1 A 133.3 133.3 0 0 1 4289.5 3133.3 A 133.3 133.3 0 0 1 4466.7 2952.4 A 133.3 133.3 0 0 1 4583.7 3133.3 A 133.3 133.3 0 0 0 4733.3 3308.5 A 133.3 133.3 0 0 1 4896.5 3400.0 A 133.3 133.3 0 0 0 5000.0 3571.1 A 133.3 133.3 0 0 0 5080.6 3400.0 A 133.3 133.3 0 0 0 5000.0 3280.7 A 133.3 133.3 0 0 1 4879.7 3133.3 A 133.3 133.3 0 0 1 5000.0 2963.6 A 133.3 133.3 0 0 0 5170.9 2866.7 A 133.3 133.3 0 0 1 5266.7 2767.5 A 133.3 133.3 0 0 1 5426.4 2866.7 A 133.3 133.3 0 0 1 5266.7 3013.4 A 133.3 133.3 0 0 0 5084.4 3133.3 A 133.3 133.3 0 0 0 5266.7 3264.5 A 133.3 133.3 0 0 1 5420.3 3400.0 A 133.3 133.3 0 0 1 5266.7 3485.7 A 133.3 133.3 0 0 0 5139.2 3666.7 A 133.3 133.3 0 0 0 5266.7 3823.9 A 133.3 133.3 0 0 1 5440.4 3933.3 A 133.3 133.3 0 0 0 5533.3 4062.5 A 133.3 133.3 0 0 1 5681.5 4200.0 A 133.3 133.3 0 0 0 5800.0 4302.5 A 133.3 133.3 0 0 1 5929.3 4466.7 A 133.3 133.3 0 0 0 6066.7 4583.1 A 133.3 133.3 0 0 0 6227.0 4466.7 A 133.3 133.3 0 0 1 6333.3 4318.0 A 133.3 133.3 0 0 0 6446.5 4200.0 A 133.3 133.3 0 0 0 6333.3 4073.5 A 133.3 133.3 0 0 0 6226.3 4200.0 A 133.3 133.3 0 0 1 6066.7 4334.1 A 133.3 133.3 0 0 1 5941.2 4200.0 A 133.3 133.3 0 0 0 5800.0 4032.1 A 133.3 133.3 0 0 1 5695.7 3933.3 A 133.3 133.3 0 0 0 5533.3 3776.2 A 133.3 133.3 0 0 1 5359.7 3666.7 A 133.3 133.3 0 0 1 5533.3 3481.1 A 133.3 133.3 0 0 0 5652.0 3400.0 A 133.3 133.3 0 0 0 5533.3 3294.2 A 133.3 133.3 0 0 1 5446.8 3133.3 A 133.3 133.3 0 0 1 5533.3 2957.9 A 133.3 133.3 0 0 1 5675.3 3133.3 A 133.3 133.3 0 0 0 5800.0 3301.4 A 133.3 133.3 0 0 1 5980.5 3400.0 A 133.3 133.3 0 0 0 6066.7 3522.6 A 133.3 133.3 0 0 1 6252.9 3666.7 A 133.3 133.3 0 0 1 6066.7 3773.3 A 133.3 133.3 0 0 1 5938.9 3666.7 A 133.3 133.3 0 0 0 5800.0 3525.0 A 133.3 133.3 0 0 0 5705.1 3666.7 A 133.3 133.3 0 0 0 5800.0 3752.5 A 133.3 133.3 0 0 1 5944.8 3933.3 A 133.3 133.3 0 0 0 6066.7 4092.6 A 133.3 133.3 0 0 0 6231.1 3933.3 A 133.3 133.3 0 0 1 6333.3 3792.5 A 133.3 133.3 0 0 0 6434.3 3666.7 A 133.3 133.3 0 0 0 6333.3 3555.7 A 133.3 133.3 0 0 1 6163.2 3400.0 A 133.3 133.3 0 0 0 6066.7 3258.7 A 133.3 133.3 0 0 1 5950.0 3133.3 A 133.3 133.3 0 0 0 5800.0 3040.4 A 133.3 133.3 0 0 1 5656.4 2866.7 A 133.3 133.3 0 0 1 5800.0 2702.8 A 133.3 133.3 0 0 1 5952.3 2866.7 A 133.3 133.3 0 0 0 6066.7 2970.9 A 133.3 133.3 0 0 0 6171.4 2866.7 A 133.3 133.3 0 0 0 6066.7 2710.1 A 133.3 133.3 0 0 1 5965.6 2600.0 A 133.3 133.3 0 0 1 6066.7 2475.2 A 133.3 133.3 0 0 1 6159.9 2600.0 A 133.3 133.3 0 0 0 6333.3 2723.1 A 133.3 133.3 0 0 1 6468.9 2866.7 A 133.3 133.3 0 0 1 6333.3 3041.4 A 133.3 133.3 0 0 0 6204.2 3133.3 A 133.3 133.3 0 0 0 6333.3 3262.6 A 133.3 133.3 0 0 0 6464.9 3133.3 A 133.3 133.3 0 0 1 6600.0 2952.1 A 133.3 133.3 0 0 0 6755.1 2866.7 A 133.3 133.3 0 0 1 6866.7 2742.9 A 133.3 133.3 0 0 1 7034.2 2866.7 A 133.3 133.3 0 0 0 7133.3 2997.6 A 133.3 133.3 0 0 0 7228.9 2866.7 A 133.3 133.3 0 0 0 7133.3 2746.8 A 133.3 133.3 0 0 1 6980.9 2600.0 A 133.3 133.3 0 0 1 7133.3 2503.3 A 133.3 133.3 0 0 0 7313.1 2333.3 A 133.3 133.3 0 0 1 7400.0 2236.6 A 133.3 133.3 0 0 0 7508.7 2066.7 A 133.3 133.3 0 0 1 7666.7 1959.9 A 133.3 133.3 0 0 0 7799.9 1800.0 A 133.3 133.3 0 0 1 7933.3 1630.4 A 133.3 133.3 0 0 0 8040.7 1533.3 A 133.3 133.3 0 0 1 8200.0 1389.2 A 133.3 133.3 0 0 0 8348.9 1266.7 A 133.3 133.3 0 0 0 8200.0 1124.8 A 133.3 133.3 0 0 0 8099.7 1266.7 A 133.3 133.3 0 0 1 7933.3 1357.7 A 133.3 133.3 0 0 0 7830.9 1533.3 A 133.3 133.3 0 0 1 7666.7 1649.9 A 133.3 133.3 0 0 0 7488.5 1800.0 A 133.3 133.3 0 0 1 7400.0 1923.7 A 133.3 133.3 0 0 0 7259.0 2066.7 A 133.3 133.3 0 0 1 7133.3 2195.9 A 133.3 133.3 0 0 1 7008.2 2066.7 A 133.3 133.3 0 0 1 7133.3 1946.0 A 133.3 133.3 0 0 0 7218.2 1800.0 A 133.3 133.3 0 0 1 7400.0 1718.5 A 133.3 133.3 0 0 0 7561.8 1533.3 A 133.3 133.3 0 0 0 7400.0 1428.7 A 133.3 133.3 0 0 0 7257.7 1533.3 A 133.3 133.3 0 0 1 7133.3 1684.6 A 133.3 133.3 0 0 0 7025.6 1800.0 A 133.3 133.3 0 0 1 6866.7 1896.8 A 133.3 133.3 0 0 1 6730.1 1800.0 A 133.3 133.3 0 0 1 6866.7 1645.4 A 133.3 133.3 0 0 0 7042.1 1533.3 A 133.3 133.3 0 0 1 7133.3 1422.5 A 133.3 133.3 0 0 0 7250.9 1266.7 A 133.3 133.3 0 0 1 7400.0 1109.8 A 133.3 133.3 0 0 0 7516.2 1000.0" stroke="red" fill="none" stroke-width="10.0"/>
        <path d="M 3266.7 1000.0 A 133.3 133.3 0 0 0 3400.0 1109.3 A 133.3 133.3 0 0 0 3515.0 1000.0" stroke="red" fill="none" stroke-width="10.0"/>
        <path d="M 3533.3 1000.0" stroke="red" fill="none" stroke-width="10.0"/>
        <path d="M 3800.0 1000.0 A 133.3 133.3 0 0 0 3933.3 1081.2 A 133.3 133.3 0 0 0 4102.3 1000.0" stroke="red" fill="none" stroke-width="10.0"/>
        <path d="M 4066.7 1000.0" stroke="red" fill="none" stroke-width="10.0"/>
        <path d="M 4333.3 1000.0 A 133.3 133.3 0 0 1 4200.0 1153.9 A 133.3 133.3 0 0 0 4076.5 1266.7 A 133.3 133.3 0 0 0 4200.0 1449.7 A 133.3 133.3 0 0 0 4323.4 1266.7 A 133.3 133.3 0 0 1 4466.7 1129.9 A 133.3 133.3 0 0 0 4584.2 1000.0" stroke="red" fill="none" stroke-width="10.0"/>
        <path d="M 4600.0 1000.0" stroke="red" fill="none" stroke-width="10.0"/>
        <path d="M 4866.7 1000.0 A 133.3 133.3 0 0 1 4733.3 1183.3 A 133.3 133.3 0 0 0 4621.7 1266.7 A 133.3 133.3 0 0 0 4733.3 1348.8 A 133.3 133.3 0 0 1 4914.3 1533.3 A 133.3 133.3 0 0 1 4733.3 1671.3 A 133.3 133.3 0 0 1 4634.0 1533.3 A 133.3 133.3 0 0 0 4466.7 1426.6 A 133.3 133.3 0 0 0 4333.1 1533.3 A 133.3 133.3 0 0 1 4200.0 1646.6 A 133.3 133.3 0 0 0 4064.8 1800.0 A 133.3 133.3 0 0 0 4200.0 1973.2 A 133.3 133.3 0 0 0 4283.3 1800.0 A 133.3 133.3 0 0 1 4466.7 1687.8 A 133.3 133.3 0 0 1 4582.4 1800.0 A 133.3 133.3 0 0 0 4733.3 1963.8 A 133.3 133.3 0 0 1 4817.3 2066.7 A 133.3 133.3 0 0 1 4733.3 2211.0 A 133.3 133.3 0 0 1 4608.4 2066.7 A 133.3 133.3 0 0 0 4466.7 1934.4 A 133.3 133.3 0 0 0 4289.6 2066.7 A 133.3 133.3 0 0 0 4466.7 2153.3 A 133.3 133.3 0 0 1 4648.0 2333.3 A 133.3 133.3 0 0 0 4733.3 2415.2 A 133.3 133.3 0 0 1 4915.8 2600.0 A 133.3 133.3 0 0 0 5000.0 2707.9 A 133.3 133.3 0 0 0 5136.5 2600.0 A 133.3 133.3 0 0 1 5266.7 2425.3 A 133.3 133.3 0 0 0 5366.0 2333.3 A 133.3 133.3 0 0 1 5533.3 2163.2 A 133.3 133.3 0 0 1 5646.2 2333.3 A 133.3 133.3 0 0 1 5533.3 2510.0 A 133.3 133.3 0 0 0 5347.0 2600.0 A 133.3 133.3 0 0 0 5533.3 2698.7 A 133.3 133.3 0 0 0 5648.3 2600.0 A 133.3 133.3 0 0 1 5800.0 2484.9 A 133.3 133.3 0 0 0 5946.6 2333.3 A 133.3 133.3 0 0 0 5800.0 2177.7 A 133.3 133.3 0 0 1 5681.2 2066.7 A 133.3 133.3 0 0 1 5800.0 1971.8 A 133.3 133.3 0 0 0 5969.6 1800.0 A 133.3 133.3 0 0 0 5800.0 1635.7 A 133.3 133.3 0 0 1 5658.1 1533.3 A 133.3 133.3 0 0 0 5533.3 1452.4 A 133.3 133.3 0 0 1 5433.9 1266.7 A 133.3 133.3 0 0 1 5533.3 1121.6 A 133.3 133.3 0 0 0 5672.2 1000.0" stroke="red" fill="none" stroke-width="10.0"/>
        <path d="M 5133.3 1000.0 A 133.3 133.3 0 0 1 5000.0 1145.3 A 133.3 133.3 0 0 0 4819.9 1266.7 A 133.3 133.3 0 0 0 5000.0 1441.8 A 133.3 133.3 0 0 1 5173.8 1533.3 A 133.3 133.3 0 0 1 5000.0 1621.1 A 133.3 133.3 0 0 0 4851.3 1800.0 A 133.3 133.3 0 0 0 5000.0 1942.2 A 133.3 133.3 0 0 1 5087.0 2066.7 A 133.3 133.3 0 0 1 5000.0 2253.2 A 133.3 133.3 0 0 0 4888.3 2333.3 A 133.3 133.3 0 0 0 5000.0 2447.1 A 133.3 133.3 0 0 0 5167.0 2333.3 A 133.3 133.3 0 0 1 5266.7 2161.3 A 133.3 133.3 0 0 0 5443.1 2066.7 A 133.3 133.3 0 0 1 5533.3 1981.7 A 133.3 133.3 0 0 0 5691.6 1800.0 A 133.3 133.3 0 0 0 5533.3 1647.6 A 133.3 133.3 0 0 1 5445.1 1533.3 A 133.3 133.3 0 0 0 5266.7 1425.8 A 133.3 133.3 0 0 1 5102.0 1266.7 A 133.3 133.3 0 0 1 5266.7 1133.3 A 133.3 133.3 0 0 0 5399.4 1000.0" stroke="red" fill="none" stroke-width="10.0"/>
        <path d="M 5400.0 1000.0" stroke="red" fill="none" stroke-width="10.0"/>
        <path d="M 5666.7 1000.0" stroke="red" fill="none" stroke-width="10.0"/>
        <path d="M 5933.3 1000.0 A 133.3 133.3 0 0 0 6066.7 1142.2 A 133.3 133.3 0 0 1 6166.2 1266.7 A 133.3 133.3 0 0 1 6066.7 1362.2 A 133.3 133.3 0 0 1 5983.5 1266.7 A 133.3 133.3 0 0 0 5800.0 1169.8 A 133.3 133.3 0 0 0 5689.2 1266.7 A 133.3 133.3 0 0 0 5800.0 1407.5 A 133.3 133.3 0 0 1 5981.6 1533.3 A 133.3 133.3 0 0 0 6066.7 1708.5 A 133.3 133.3 0 0 1 6184.8 1800.0 A 133.3 133.3 0 0 1 6066.7 1919.6 A 133.3 133.3 0 0 0 5962.7 2066.7 A 133.3 133.3 0 0 0 6066.7 2182.9 A 133.3 133.3 0 0 0 6241.3 2066.7 A 133.3 133.3 0 0 1 6333.3 1914.9 A 133.3 133.3 0 0 1 6447.7 2066.7 A 133.3 133.3 0 0 1 6333.3 2168.4 A 133.3 133.3 0 0 0 6231.7 2333.3 A 133.3 133.3 0 0 0 6333.3 2467.7 A 133.3 133.3 0 0 1 6460.1 2600.0 A 133.3 133.3 0 0 0 6600.0 2705.9 A 133.3 133.3 0 0 0 6772.5 2600.0 A 133.3 133.3 0 0 0 6600.0 2417.3 A 133.3 133.3 0 0 1 6423.7 2333.3 A 133.3 133.3 0 0 1 6600.0 2187.7 A 133.3 133.3 0 0 1 6756.6 2333.3 A 133.3 133.3 0 0 0 6866.7 2496.4 A 133.3 133.3 0 0 0 6991.1 2333.3 A 133.3 133.3 0 0 0 6866.7 2162.4 A 133.3 133.3 0 0 1 6690.9 2066.7 A 133.3 133.3 0 0 0 6600.0 1880.8 A 133.3 133.3 0 0 1 6464.6 1800.0 A 133.3 133.3 0 0 0 6333.3 1710.3 A 133.3 133.3 0 0 1 6226.6 1533.3 A 133.3 133.3 0 0 1 6333.3 1430.7 A 133.3 133.3 0 0 0 6445.5 1266.7 A 133.3 133.3 0 0 1 6600.0 1132.3 A 133.3 133.3 0 0 0 6682.9 1000.0" stroke="red" fill="none" stroke-width="10.0"/>
        <path d="M 6200.0 1000.0 A 133.3 133.3 0 0 0 6333.3 1159.1 A 133.3 133.3 0 0 0 6505.6 1000.0" stroke="red" fill="none" stroke-width="10.0"/>
        <path d="M 6466.7 1000.0" stroke="red" fill="none" stroke-width="10.0"/>
        <path d="M 6733.3 1000.0" stroke="red" fill="none" stroke-width="10.0"/>
        <path d="M 7000.0 1000.0 A 133.3 133.3 0 0 0 7133.3 1120.1 A 133.3 133.3 0 0 0 7267.6 1000.0" stroke="red" fill="none" stroke-width="10.0"/>
        <path d="M 7266.7 1000.0" stroke="red" fill="none" stroke-width="10.0"/>
        <path d="M 7533.3 1000.0" stroke="red" fill="none" stroke-width="10.0"/>
        <path d="M 7800.0 1000.0 A 133.3 133.3 0 0 0 7933.3 1138.0 A 133.3 133.3 0 0 0 8103.2 1000.0" stroke="red" fill="none" stroke-width="10.0"/>
        <path d="M 8066.7 1000.0" stroke="red" fill="none" stroke-width="10.0"/>
        <path d="M 8333.3 1000.0 A 133.3 133.3 0 0 0 8466.7 1156.0 A 133.3 133.3 0 0 1 8573.9 1266.7 A 133.3 133.3 0 0 1 8466.7 1356.5 A 133.3 133.3 0 0 0 8342.8 1533.3 A 133.3 133.3 0 0 0 8466.7 1658.1 A 133.3 133.3 0 0 1 8610.9 1800.0 A 133.3 133.3 0 0 0 8733.3 1952.9 A 133.3 133.3 0 0 1 8863.8 2066.7 A 133.3 133.3 0 0 1 8733.3 2251.4 A 133.3 133.3 0 0 0 8564.3 2333.3 A 133.3 133.3 0 0 0 8733.3 2440.2 A 133.3 133.3 0 0 1 8879.9 2600.0 A 133.3 133.3 0 0 1 8733.3 2749.0 A 133.3 133.3 0 0 0 8616.5 2866.7 A 133.3 133.3 0 0 1 8466.7 2976.5 A 133.3 133.3 0 0 0 8377.5 3133.3 A 133.3 133.3 0 0 0 8466.7 3231.8 A 133.3 133.3 0 0 1 8583.8 3400.0 A 133.3 133.3 0 0 0 8733.3 3550.5 A 133.3 133.3 0 0 1 8872.8 3666.7 A 133.3 133.3 0 0 0 9000.0 3780.3" stroke="red" fill="none" stroke-width="10.0"/>
        <path d="M 8600.0 1000.0 A 133.3 133.3 0 0 0 8733.3 1084.9 A 133.3 133.3 0 0 1 8874.5 1266.7 A 133.3 133.3 0 0 0 9000.0 1364.0" stroke="red" fill="none" stroke-width="10.0"/>
        <path d="M 8866.7 1000.0 A 133.3 133.3 0 0 0 9000.0 1146.5" stroke="red" fill="none" stroke-width="10.0"/>
        <path d="M 9000.0 1133.3" stroke="red" fill="none" stroke-width="10.0"/>
        <path d="M 9000.0 1400.0" stroke="red" fill="none" stroke-width="10.0"/>
        <path d="M 9000.0 1666.7 A 133.3 133.3 0 0 0 8846.0 1800.0 A 133.3 133.3 0 0 0 9000.0 1944.2" stroke="red" fill="none" stroke-width="10.0"/>
        <path d="M 9000.0 1933.3" stroke="red" fill="none" stroke-width="10.0"/>
        <path d="M 9000.0 2200.0 A 133.3 133.3 0 0 0 8837.5 2333.3 A 133.3 133.3 0 0 0 9000.0 2503.3" stroke="red" fill="none" stroke-width="10.0"/>
        <path d="M 9000.0 2466.7" stroke="red" fill="none" stroke-width="10.0"/>
        <path d="M 9000.0 2733.3 A 133.3 133.3 0 0 0 8870.8 2866.7 A 133.3 133.3 0 0 0 9000.0 2955.5" stroke="red" fill="none" stroke-width="10.0"/>
        <path d="M 9000.0 3000.0" stroke="red" fill="none" stroke-width="10.0"/>
        <path d="M 9000.0 3266.7 A 133.3 133.3 0 0 1 8893.9 3133.3 A 133.3 133.3 0 0 0 8733.3 2981.5 A 133.3 133.3 0 0 0 8570.7 3133.3 A 133.3 133.3 0 0 0 8733.3 3232.0 A 133.3 133.3 0 0 1 8833.4 3400.0 A 133.3 133.3 0 0 0 9000.0 3483.9" stroke="red" fill="none" stroke-width="10.0"/>
        <path d="M 9000.0 3533.3" stroke="red" fill="none" stroke-width="10.0"/>
        <path d="M 9000.0 3800.0" stroke="red" fill="none" stroke-width="10.0"/>
        <path d="M 9000.0 4066.7 A 133.3 133.3 0 0 0 8876.3 4200.0 A 133.3 133.3 0 0 0 9000.0 4379.9" stroke="red" fill="none" stroke-width="10.0"/>
        <path d="M 9000.0 4333.3" stroke="red" fill="none" stroke-width="10.0"/>
        <path d="M 9000.0 4600.0 A 133.3 133.3 0 0 1 8853.6 4466.7 A 133.3 133.3 0 0 0 8733.3 4358.6 A 133.3 133.3 0 0 1 8592.9 4200.0 A 133.3 133.3 0 0 0 8466.7 4118.1 A 133.3 133.3 0 0 0 8384.5 4200.0 A 133.3 133.3 0 0 1 8200.0 4347.0 A 133.3 133.3 0 0 1 8058.6 4200.0 A 133.3 133.3 0 0 0 7933.3 4072.5 A 133.3 133.3 0 0 1 7798.0 3933.3 A 133.3 133.3 0 0 1 7933.3 3802.8 A 133.3 133.3 0 0 0 8083.3 3666.7 A 133.3 133.3 0 0 0 7933.3 3575.9 A 133.3 133.3 0 0 0 7788.5 3666.7 A 133.3 133.3 0 0 1 7666.7 3786.3 A 133.3 133.3 0 0 0 7582.3 3933.3 A 133.3 133.3 0 0 1 7400.0 4051.4 A 133.3 133.3 0 0 1 7317.5 3933.3 A 133.3 133.3 0 0 0 7133.3 3829.8 A 133.3 133.3 0 0 0 6972.4 3933.3 A 133.3 133.3 0 0 1 6866.7 4119.2 A 133.3 133.3 0 0 0 6735.0 4200.0 A 133.3 133.3 0 0 0 6866.7 4358.9 A 133.3 133.3 0 0 1 7043.6 4466.7 A 133.3 133.3 0 0 1 6866.7 4573.2 A 133.3 133.3 0 0 0 6706.8 4733.3 A 133.3 133.3 0 0 0 6866.7 4919.3 A 133.3 133.3 0 0 0 6958.9 4733.3 A 133.3 133.3 0 0 1 7133.3 4630.7 A 133.3 133.3 0 0 0 7275.1 4466.7 A 133.3 133.3 0 0 1 7400.0 4366.3 A 133.3 133.3 0 0 0 7484.3 4200.0 A 133.3 133.3 0 0 1 7666.7 4119.6 A 133.3 133.3 0 0 1 7783.4 4200.0 A 133.3 133.3 0 0 0 7933.3 4376.2 A 133.3 133.3 0 0 1 8094.8 4466.7 A 133.3 133.3 0 0 0 8200.0 4631.2 A 133.3 133.3 0 0 0 8334.9 4466.7 A 133.3 133.3 0 0 1 8466.7 4331.8 A 133.3 133.3 0 0 1 8637.3 4466.7 A 133.3 133.3 0 0 1 8466.7 4549.9 A 133.3 133.3 0 0 0 8358.7 4733.3 A 133.3 133.3 0 0 0 8466.7 4844.1 A 133.3 133.3 0 0 1 8590.5 5000.0 A 133.3 133.3 0 0 0 8733.3 5147.7 A 133.3 133.3 0 0 1 8816.1 5266.7 A 133.3 133.3 0 0 1 8733.3 5349.6 A 133.3 133.3 0 0 0 8618.4 5533.3 A 133.3 133.3 0 0 0 8733.3 5682.8 A 133.3 133.3 0 0 1 8889.8 5800.0 A 133.3 133.3 0 0 1 8733.3 5973.1 A 133.3 133.3 0 0 1 8633.6 5800.0 A 133.3 133.3 0 0 0 8466.7 5718.3 A 133.3 133.3 0 0 0 8367.5 5800.0 A 133.3 133.3 0 0 1 8200.0 5969.0 A 133.3 133.3 0 0 1 8077.8 5800.0 A 133.3 133.3 0 0 0 7933.3 5719.5 A 133.3 133.3 0 0 0 7818.6 5800.0 A 133.3 133.3 0 0 1 7666.7 5905.0 A 133.3 133.3 0 0 1 7556.6 5800.0 A 133.3 133.3 0 0 1 7666.7 5707.0 A 133.3 133.3 0 0 0 7794.8 5533.3 A 133.3 133.3 0 0 1 7933.3 5359.3 A 133.3 133.3 0 0 0 8088.6 5266.7 A 133.3 133.3 0 0 0 7933.3 5125.5 A 133.3 133.3 0 0 1 7777.7 5000.0 A 133.3 133.3 0 0 1 7933.3 4853.5 A 133.3 133.3 0 0 1 8057.8 5000.0 A 133.3 133.3 0 0 0 8200.0 5082.1 A 133.3 133.3 0 0 1 8326.0 5266.7 A 133.3 133.3 0 0 0 8466.7 5401.8 A 133.3 133.3 0 0 0 8574.8 5266.7 A 133.3 133.3 0 0 0 8466.7 5152.9 A 133.3 133.3 0 0 1 8356.1 5000.0 A 133.3 133.3 0 0 0 8200.0 4875.5 A 133.3 133.3 0 0 1 8068.4 4733.3 A 133.3 133.3 0 0 0 7933.3 4609.4 A 133.3 133.3 0 0 0 7829.2 4733.3 A 133.3 133.3 0 0 1 7666.7 4814.2 A 133.3 133.3 0 0 1 7510.0 4733.3 A 133.3 133.3 0 0 1 7666.7 4558.4 A 133.3 133.3 0 0 0 7753.7 4466.7 A 133.3 133.3 0 0 0 7666.7 4295.0 A 133.3 133.3 0 0 0 7513.1 4466.7 A 133.3 133.3 0 0 1 7400.0 4567.4 A 133.3 133.3 0 0 0 7256.8 4733.3 A 133.3 133.3 0 0 1 7133.3 4889.8 A 133.3 133.3 0 0 0 6948.9 5000.0 A 133.3 133.3 0 0 1 6866.7 5156.3 A 133.3 133.3 0 0 1 6760.0 5000.0 A 133.3 133.3 0 0 0 6600.0 4842.2 A 133.3 133.3 0 0 1 6430.5 4733.3 A 133.3 133.3 0 0 1 6600.0 4640.7 A 133.3 133.3 0 0 0 6739.6 4466.7 A 133.3 133.3 0 0 0 6600.0 4325.2 A 133.3 133.3 0 0 0 6471.5 4466.7 A 133.3 133.3 0 0 1 6333.3 4550.0 A 133.3 133.3 0 0 0 6202.4 4733.3 A 133.3 133.3 0 0 0 6333.3 4837.2 A 133.3 133.3 0 0 1 6497.1 5000.0 A 133.3 133.3 0 0 0 6600.0 5114.1 A 133.3 133.3 0 0 1 6738.6 5266.7 A 133.3 133.3 0 0 1 6600.0 5375.7 A 133.3 133.3 0 0 0 6507.4 5533.3 A 133.3 133.3 0 0 0 6600.0 5672.2 A 133.3 133.3 0 0 1 6702.6 5800.0 A 133.3 133.3 0 0 1 6600.0 5985.2 A 133.3 133.3 0 0 1 6418.3 5800.0 A 133.3 133.3 0 0 0 6333.3 5626.9 A 133.3 133.3 0 0 0 6248.2 5800.0 A 133.3 133.3 0 0 0 6333.3 5889.3 A 133.3 133.3 0 0 1 6463.6 6066.7 A 133.3 133.3 0 0 0 6600.0 6163.9 A 133.3 133.3 0 0 0 6742.1 6066.7 A 133.3 133.3 0 0 1 6866.7 5921.1 A 133.3 133.3 0 0 1 6960.6 6066.7 A 133.3 133.3 0 0 1 6866.7 6210.0 A 133.3 133.3 0 0 0 6702.9 6333.3 A 133.3 133.3 0 0 0 6866.7 6461.6 A 133.3 133.3 0 0 0 7015.8 6333.3 A 133.3 133.3 0 0 1 7133.3 6159.5 A 133.3 133.3 0 0 1 7311.6 6333.3 A 133.3 133.3 0 0 1 7133.3 6504.7 A 133.3 133.3 0 0 0 6948.3 6600.0 A 133.3 133.3 0 0 1 6866.7 6694.5 A 133.3 133.3 0 0 1 6688.1 6600.0 A 133.3 133.3 0 0 0 6600.0 6514.4 A 133.3 133.3 0 0 1 6426.6 6333.3 A 133.3 133.3 0 0 0 6333.3 6146.9 A 133.3 133.3 0 0 1 6156.4 6066.7 A 133.3 133.3 0 0 0 6066.7 5919.5 A 133.3 133.3 0 0 0 5935.5 6066.7 A 133.3 133.3 0 0 0 6066.7 6157.4 A 133.3 133.3 0 0 1 6152.1 6333.3 A 133.3 133.3 0 0 0 6333.3 6511.9 A 133.3 133.3 0 0 1 6415.8 6600.0 A 133.3 133.3 0 0 0 6600.0 6771.4 A 133.3 133.3 0 0 1 6786.2 6866.7 A 133.3 133.3 0 0 0 6866.7 6955.2 A 133.3 133.3 0 0 0 7029.9 6866.7 A 133.3 133.3 0 0 1 7133.3 6761.5 A 133.3 133.3 0 0 0 7225.1 6600.0 A 133.3 133.3 0 0 1 7400.0 6495.7 A 133.3 133.3 0 0 1 7495.6 6600.0 A 133.3 133.3 0 0 1 7400.0 6748.8 A 133.3 133.3 0 0 0 7272.7 6866.7 A 133.3 133.3 0 0 1 7133.3 7038.9 A 133.3 133.3 0 0 0 7026.1 7133.3 A 133.3 133.3 0 0 0 7133.3 7251.4 A 133.3 133.3 0 0 0 7311.8 7133.3 A 133.3 133.3 0 0 1 7400.0 6954.1 A 133.3 133.3 0 0 0 7543.9 6866.7 A 133.3 133.3 0 0 1 7666.7 6753.0 A 133.3 133.3 0 0 1 7793.0 6866.7 A 133.3 133.3 0 0 0 7933.3 7009.0 A 133.3 133.3 0 0 1 8015.2 7133.3 A 133.3 133.3 0 0 0 8200.0 7261.1 A 133.3 133.3 0 0 1 8366.0 7400.0 A 133.3 133.3 0 0 1 8200.0 7493.9 A 133.3 133.3 0 0 0 8020.2 7666.7 A 133.3 133.3 0 0 0 8200.0 7822.2 A 133.3 133.3 0 0 0 8323.5 7666.7 A 133.3 133.3 0 0 1 8466.7 7570.1 A 133.3 133.3 0 0 1 8619.5 7666.7 A 133.3 133.3 0 0 1 8466.7 7782.5 A 133.3 133.3 0 0 0 8285.4 7933.3 A 133.3 133.3 0 0 1 8200.0 8082.8 A 133.3 133.3 0 0 1 8041.2 7933.3 A 133.3 133.3 0 0 0 7933.3 7827.2 A 133.3 133.3 0 0 0 7833.0 7933.3 A 133.3 133.3 0 0 0 7933.3 8097.2 A 133.3 133.3 0 0 1 8015.2 8200.0 A 133.3 133.3 0 0 0 8200.0 8375.7 A 133.3 133.3 0 0 1 8293.7 8466.7 A 133.3 133.3 0 0 0 8466.7 8601.5 A 133.3 133.3 0 0 0 8586.2 8466.7 A 133.3 133.3 0 0 1 8733.3 8330.2 A 133.3 133.3 0 0 1 8887.5 8466.7 A 133.3 133.3 0 0 1 8733.3 8645.2 A 133.3 133.3 0 0 0 8621.1 8733.3 A 133.3 133.3 0 0 0 8733.3 8837.1 A 133.3 133.3 0 0 1 8851.4 9000.0" stroke="red" fill="none" stroke-width="10.0"/>
        <path d="M 9000.0 4866.7 A 133.3 133.3 0 0 1 8885.3 4733.3 A 133.3 133.3 0 0 0 8733.3 4584.4 A 133.3 133.3 0 0 0 8619.3 4733.3 A 133.3 133.3 0 0 0 8733.3 4839.8 A 133.3 133.3 0 0 1 8868.1 5000.0 A 133.3 133.3 0 0 0 9000.0 5171.2" stroke="red" fill="none" stroke-width="10.0"/>
        <path d="M 9000.0 5133.3" stroke="red" fill="none" stroke-width="10.0"/>
        <path d="M 9000.0 5400.0 A 133.3 133.3 0 0 0 8891.1 5533.3 A 133.3 133.3 0 0 0 9000.0 5714.3" stroke="red" fill="none" stroke-width="10.0"/>
        <path d="M 9000.0 5666.7" stroke="red" fill="none" stroke-width="10.0"/>
        <path d="M 9000.0 5933.3 A 133.3 133.3 0 0 0 8888.2 6066.7 A 133.3 133.3 0 0 1 8733.3 6227.7 A 133.3 133.3 0 0 1 8609.6 6066.7 A 133.3 133.3 0 0 0 8466.7 5957.7 A 133.3 133.3 0 0 0 8283.7 6066.7 A 133.3 133.3 0 0 0 8466.7 6183.3 A 133.3 133.3 0 0 1 8607.7 6333.3 A 133.3 133.3 0 0 1 8466.7 6483.0 A 133.3 133.3 0 0 1 8365.4 6333.3 A 133.3 133.3 0 0 0 8200.0 6235.0 A 133.3 133.3 0 0 1 8048.9 6066.7 A 133.3 133.3 0 0 0 7933.3 5980.8 A 133.3 133.3 0 0 0 7755.0 6066.7 A 133.3 133.3 0 0 1 7666.7 6172.1 A 133.3 133.3 0 0 1 7483.2 6066.7 A 133.3 133.3 0 0 0 7400.0 5972.6 A 133.3 133.3 0 0 1 7231.2 5800.0 A 133.3 133.3 0 0 0 7133.3 5669.7 A 133.3 133.3 0 0 1 6989.1 5533.3 A 133.3 133.3 0 0 0 6866.7 5365.6 A 133.3 133.3 0 0 0 6728.1 5533.3 A 133.3 133.3 0 0 0 6866.7 5655.3 A 133.3 133.3 0 0 1 7030.8 5800.0 A 133.3 133.3 0 0 0 7133.3 5906.4 A 133.3 133.3 0 0 1 7307.7 6066.7 A 133.3 133.3 0 0 0 7400.0 6197.0 A 133.3 133.3 0 0 1 7576.6 6333.3 A 133.3 133.3 0 0 0 7666.7 6442.7 A 133.3 133.3 0 0 1 7770.7 6600.0 A 133.3 133.3 0 0 0 7933.3 6734.7 A 133.3 133.3 0 0 0 8082.3 6600.0 A 133.3 133.3 0 0 1 8200.0 6459.6 A 133.3 133.3 0 0 1 8334.4 6600.0 A 133.3 133.3 0 0 1 8200.0 6707.7 A 133.3 133.3 0 0 0 8053.2 6866.7 A 133.3 133.3 0 0 0 8200.0 6993.1 A 133.3 133.3 0 0 0 8340.9 6866.7 A 133.3 133.3 0 0 1 8466.7 6734.6 A 133.3 133.3 0 0 0 8648.7 6600.0 A 133.3 133.3 0 0 1 8733.3 6490.0 A 133.3 133.3 0 0 0 8824.0 6333.3 A 133.3 133.3 0 0 1 9000.0 6219.3" stroke="red" fill="none" stroke-width="10.0"/>
        <path d="M 9000.0 6200.0" stroke="red" fill="none" stroke-width="10.0"/>
        <path d="M 9000.0 6466.7 A 133.3 133.3 0 0 0 8883.7 6600.0 A 133.3 133.3 0 0 0 9000.0 6747.9" stroke="red" fill="none" stroke-width="10.0"/>
        <path d="M 9000.0 6733.3" stroke="red" fill="none" stroke-width="10.0"/>
        <path d="M 9000.0 7000.0 A 133.3 133.3 0 0 0 8858.8 7133.3 A 133.3 133.3 0 0 1 8733.3 7268.5 A 133.3 133.3 0 0 0 8651.0 7400.0 A 133.3 133.3 0 0 0 8733.3 7495.1 A 133.3 133.3 0 0 0 8844.3 7400.0 A 133.3 133.3 0 0 1 9000.0 7227.4" stroke="red" fill="none" stroke-width="10.0"/>
        <path d="M 9000.0 7266.7" stroke="red" fill="none" stroke-width="10.0"/>
        <path d="M 9000.0 7533.3 A 133.3 133.3 0 0 0 8828.8 7666.7 A 133.3 133.3 0 0 1 8733.3 7820.2 A 133.3 133.3 0 0 0 8558.6 7933.3 A 133.3 133.3 0 0 1 8466.7 8090.6 A 133.3 133.3 0 0 0 8303.6 8200.0 A 133.3 133.3 0 0 0 8466.7 8361.2 A 133.3 133.3 0 0 0 8606.5 8200.0 A 133.3 133.3 0 0 1 8733.3 8092.2 A 133.3 133.3 0 0 0 8868.7 7933.3 A 133.3 133.3 0 0 1 9000.0 7845.9" stroke="red" fill="none" stroke-width="10.0"/>
        <path d="M 9000.0 7800.0" stroke="red" fill="none" stroke-width="10.0"/>
        <path d="M 9000.0 8066.7 A 133.3 133.3 0 0 0 8818.5 8200.0 A 133.3 133.3 0 0 0 9000.0 8325.9" stroke="red" fill="none" stroke-width="10.0"/>
        <path d="M 9000.0 8333.3" stroke="red" fill="none" stroke-width="10.0"/>
        <path d="M 9000.0 8600.0 A 133.3 133.3 0 0 0 8863.4 8733.3 A 133.3 133.3 0 0 0 9000.0 8915.0" stroke="red" fill="none" stroke-width="10.0"/>
        <path d="M 9000.0 8866.7" stroke="red" fill="none" stroke-width="10.0"/>
        <path d="M 8866.7 9000.0" stroke="red" fill="none" stroke-width="10.0"/>
        <path d="M 8600.0 9000.0 A 133.3 133.3 0 0 0 8466.7 8844.8 A 133.3 133.3 0 0 0 8313.1 9000.0" stroke="red" fill="none" stroke-width="10.0"/>
        <path d="M 8333.3 9000.0" stroke="red" fill="none" stroke-width="10.0"/>
        <path d="M 8066.7 9000.0 A 133.3 133.3 0 0 1 8200.0 8906.4 A 133.3 133.3 0 0 0 8367.1 8733.3 A 133.3 133.3 0 0 0 8200.0 8596.5 A 133.3 133.3 0 0 0 8094.7 8733.3 A 133.3 133.3 0 0 1 7933.3 8884.8 A 133.3 133.3 0 0 1 7828.2 8733.3 A 133.3 133.3 0 0 0 7666.7 8619.3 A 133.3 133.3 0 0 1 7571.7 8466.7 A 133.3 133.3 0 0 0 7400.0 8334.3 A 133.3 133.3 0 0 0 7218.0 8466.7 A 133.3 133.3 0 0 0 7400.0 8628.4 A 133.3 133.3 0 0 1 7542.6 8733.3 A 133.3 133.3 0 0 1 7400.0 8846.7 A 133.3 133.3 0 0 0 7228.6 9000.0" stroke="red" fill="none" stroke-width="10.0"/>
        <path d="M 7800.0 9000.0 A 133.3 133.3 0 0 0 7666.7 8869.3 A 133.3 133.3 0 0 0 7502.5 9000.0" stroke="red" fill="none" stroke-width="10.0"/>
        <path d="M 7533.3 9000.0" stroke="red" fill="none" stroke-width="10.0"/>
        <path d="M 7266.7 9000.0" stroke="red" fill="none" stroke-width="10.0"/>
        <path d="M 7000.0 9000.0 A 133.3 133.3 0 0 0 6866.7 8867.3 A 133.3 133.3 0 0 1 6730.4 8733.3 A 133.3 133.3 0 0 1 6866.7 8588.8 A 133.3 133.3 0 0 0 7000.9 8466.7 A 133.3 133.3 0 0 0 6866.7 8336.9 A 133.3 133.3 0 0 1 6727.1 8200.0 A 133.3 133.3 0 0 1 6866.7 8045.3 A 133.3 133.3 0 0 0 6953.8 7933.3 A 133.3 133.3 0 0 0 6866.7 7784.8 A 133.3 133.3 0 0 1 6786.6 7666.7 A 133.3 133.3 0 0 0 6600.0 7503.1 A 133.3 133.3 0 0 1 6498.5 7400.0 A 133.3 133.3 0 0 1 6600.0 7300.3 A 133.3 133.3 0 0 1 6771.7 7400.0 A 133.3 133.3 0 0 0 6866.7 7574.3 A 133.3 133.3 0 0 1 7021.5 7666.7 A 133.3 133.3 0 0 0 7133.3 7823.9 A 133.3 133.3 0 0 1 7258.9 7933.3 A 133.3 133.3 0 0 1 7133.3 8050.7 A 133.3 133.3 0 0 0 7025.8 8200.0 A 133.3 133.3 0 0 0 7133.3 8355.8 A 133.3 133.3 0 0 0 7219.0 8200.0 A 133.3 133.3 0 0 1 7400.0 8097.4 A 133.3 133.3 0 0 1 7503.6 8200.0 A 133.3 133.3 0 0 0 7666.7 8370.7 A 133.3 133.3 0 0 0 7763.2 8200.0 A 133.3 133.3 0 0 0 7666.7 8022.3 A 133.3 133.3 0 0 1 7513.2 7933.3 A 133.3 133.3 0 0 0 7400.0 7799.8 A 133.3 133.3 0 0 1 7220.0 7666.7 A 133.3 133.3 0 0 0 7133.3 7563.9 A 133.3 133.3 0 0 1 6962.7 7400.0 A 133.3 133.3 0 0 0 6866.7 7283.1 A 133.3 133.3 0 0 1 6703.9 7133.3 A 133.3 133.3 0 0 0 6600.0 6978.0 A 133.3 133.3 0 0 1 6510.0 6866.7 A 133.3 133.3 0 0 0 6333.3 6781.3 A 133.3 133.3 0 0 1 6243.2 6600.0 A 133.3 133.3 0 0 0 6066.7 6508.7 A 133.3 133.3 0 0 0 5931.3 6600.0 A 133.3 133.3 0 0 0 6066.7 6776.3 A 133.3 133.3 0 0 1 6161.7 6866.7 A 133.3 133.3 0 0 1 6066.7 7034.7 A 133.3 133.3 0 0 1 5938.7 6866.7 A 133.3 133.3 0 0 0 5800.0 6726.7 A 133.3 133.3 0 0 0 5708.8 6866.7 A 133.3 133.3 0 0 0 5800.0 6989.8 A 133.3 133.3 0 0 1 5956.5 7133.3 A 133.3 133.3 0 0 1 5800.0 7277.1 A 133.3 133.3 0 0 1 5664.9 7133.3 A 133.3 133.3 0 0 0 5533.3 7006.4 A 133.3 133.3 0 0 0 5426.9 7133.3 A 133.3 133.3 0 0 1 5266.7 7236.1 A 133.3 133.3 0 0 1 5140.6 7133.3 A 133.3 133.3 0 0 0 5000.0 6990.6 A 133.3 133.3 0 0 0 4913.2 7133.3 A 133.3 133.3 0 0 0 5000.0 7260.7 A 133.3 133.3 0 0 1 5122.8 7400.0 A 133.3 133.3 0 0 0 5266.7 7552.0 A 133.3 133.3 0 0 1 5444.1 7666.7 A 133.3 133.3 0 0 1 5266.7 7823.6 A 133.3 133.3 0 0 0 5159.0 7933.3 A 133.3 133.3 0 0 0 5266.7 8100.2 A 133.3 133.3 0 0 0 5407.7 7933.3 A 133.3 133.3 0 0 1 5533.3 7811.3 A 133.3 133.3 0 0 1 5629.5 7933.3 A 133.3 133.3 0 0 0 5800.0 8044.2 A 133.3 133.3 0 0 0 5953.4 7933.3 A 133.3 133.3 0 0 0 5800.0 7851.9 A 133.3 133.3 0 0 1 5630.2 7666.7 A 133.3 133.3 0 0 0 5533.3 7553.9 A 133.3 133.3 0 0 1 5354.2 7400.0 A 133.3 133.3 0 0 1 5533.3 7250.2 A 133.3 133.3 0 0 1 5651.3 7400.0 A 133.3 133.3 0 0 0 5800.0 7480.6 A 133.3 133.3 0 0 1 5931.2 7666.7 A 133.3 133.3 0 0 0 6066.7 7764.4 A 133.3 133.3 0 0 1 6173.4 7933.3 A 133.3 133.3 0 0 1 6066.7 8018.1 A 133.3 133.3 0 0 0 5905.8 8200.0 A 133.3 133.3 0 0 1 5800.0 8295.7 A 133.3 133.3 0 0 1 5663.9 8200.0 A 133.3 133.3 0 0 0 5533.3 8089.2 A 133.3 133.3 0 0 0 5443.2 8200.0 A 133.3 133.3 0 0 0 5533.3 8383.0 A 133.3 133.3 0 0 1 5703.4 8466.7 A 133.3 133.3 0 0 0 5800.0 8640.2 A 133.3 133.3 0 0 0 5957.9 8466.7 A 133.3 133.3 0 0 1 6066.7 8327.8 A 133.3 133.3 0 0 0 6193.4 8200.0 A 133.3 133.3 0 0 1 6333.3 8102.6 A 133.3 133.3 0 0 1 6467.6 8200.0 A 133.3 133.3 0 0 1 6333.3 8286.2 A 133.3 133.3 0 0 0 6249.0 8466.7 A 133.3 133.3 0 0 0 6333.3 8595.7 A 133.3 133.3 0 0 1 6509.9 8733.3 A 133.3 133.3 0 0 1 6333.3 8856.1 A 133.3 133.3 0 0 1 6180.9 8733.3 A 133.3 133.3 0 0 0 6066.7 8650.8 A 133.3 133.3 0 0 0 5918.7 8733.3 A 133.3 133.3 0 0 0 6066.7 8879.7 A 133.3 133.3 0 0 1 6164.0 9000.0" stroke="red" fill="none" stroke-width="10.0"/>
        <path d="M 6733.3 9000.0 A 133.3 133.3 0 0 0 6600.0 8870.6 A 133.3 133.3 0 0 0 6468.7 9000.0" stroke="red" fill="none" stroke-width="10.0"/>
        <path d="M 6466.7 9000.0" stroke="red" fill="none" stroke-width="10.0"/>
        <path d="M 6200.0 9000.0" stroke="red" fill="none" stroke-width="10.0"/>
        <path d="M 5933.3 9000.0 A 133.3 133.3 0 0 0 5800.0 8898.2 A 133.3 133.3 0 0 0 5690.2 9000.0" stroke="red" fill="none" stroke-width="10.0"/>
        <path d="M 5666.7 9000.0" stroke="red" fill="none" stroke-width="10.0"/>
        <path d="M 5400.0 9000.0 A 133.3 133.3 0 0 1 5533.3 8840.7 A 133.3 133.3 0 0 0 5718.8 8733.3 A 133.3 133.3 0 0 0 5533.3 8605.9 A 133.3 133.3 0 0 1 5389.6 8466.7 A 133.3 133.3 0 0 0 5266.7 8321.7 A 133.3 133.3 0 0 0 5123.5 8466.7 A 133.3 133.3 0 0 0 5266.7 8559.7 A 133.3 133.3 0 0 1 5347.4 8733.3 A 133.3 133.3 0 0 1 5266.7 8878.3 A 133.3 133.3 0 0 0 5130.5 9000.0" stroke="red" fill="none" stroke-width="10.0"/>
        <path d="M 5133.3 9000.0" stroke="red" fill="none" stroke-width="10.0"/>
        <path d="M 4866.7 9000.0 A 133.3 133.3 0 0 0 4733.3 8836.5 A 133.3 133.3 0 0 0 4643.2 9000.0" stroke="red" fill="none" stroke-width="10.0"/>
        <path d="M 4600.0 9000.0" stroke="red" fill="none" stroke-width="10.0"/>
        <path d="M 4333.3 9000.0 A 133.3 133.3 0 0 1 4466.7 8884.1 A 133.3 133.3 0 0 0 4624.9 8733.3 A 133.3 133.3 0 0 0 4466.7 8643.1 A 133.3 133.3 0 0 0 4290.8 8733.3 A 133.3 133.3 0 0 1 4200.0 8911.2 A 133.3 133.3 0 0 1 4082.9 8733.3 A 133.3 133.3 0 0 0 3933.3 8614.0 A 133.3 133.3 0 0 0 3840.9 8733.3 A 133.3 133.3 0 0 1 3666.7 8901.5 A 133.3 133.3 0 0 0 3480.7 9000.0" stroke="red" fill="none" stroke-width="10.0"/>
        <path d="M 4066.7 9000.0 A 133.3 133.3 0 0 0 3933.3 8853.0 A 133.3 133.3 0 0 0 3813.0 9000.0" stroke="red" fill="none" stroke-width="10.0"/>
        <path d="M 3800.0 9000.0" stroke="red" fill="none" stroke-width="10.0"/>
        <path d="M 3533.3 9000.0" stroke="red" fill="none" stroke-width="10.0"/>
        <path d="M 3266.7 9000.0 A 133.3 133.3 0 0 1 3400.0 8887.6 A 133.3 133.3 0 0 0 3517.2 8733.3 A 133.3 133.3 0 0 0 3400.0 8566.3 A 133.3 133.3 0 0 0 3247.8 8733.3 A 133.3 133.3 0 0 1 3133.3 8813.9 A 133.3 133.3 0 0 1 2991.8 8733.3 A 133.3 133.3 0 0 1 3133.3 8641.8 A 133.3 133.3 0 0 0 3244.5 8466.7 A 133.3 133.3 0 0 0 3133.3 8300.2 A 133.3 133.3 0 0 0 3028.4 8466.7 A 133.3 133.3 0 0 1 2866.7 8555.1 A 133.3 133.3 0 0 1 2766.2 8466.7 A 133.3 133.3 0 0 0 2600.0 8322.7 A 133.3 133.3 0 0 1 2424.6 8200.0 A 133.3 133.3 0 0 1 2600.0 8026.0 A 133.3 133.3 0 0 0 2763.6 7933.3 A 133.3 133.3 0 0 0 2600.0 7793.8 A 133.3 133.3 0 0 0 2427.0 7933.3 A 133.3 133.3 0 0 1 2333.3 8026.0 A 133.3 133.3 0 0 0 2241.3 8200.0 A 133.3 133.3 0 0 1 2066.7 8368.6 A 133.3 133.3 0 0 0 1887.5 8466.7 A 133.3 133.3 0 0 1 1800.0 8631.2 A 133.3 133.3 0 0 0 1684.8 8733.3 A 133.3 133.3 0 0 0 1800.0 8906.8 A 133.3 133.3 0 0 1 1901.9 9000.0" stroke="red" fill="none" stroke-width="10.0"/>
        <path d="M 3000.0 9000.0 A 133.3 133.3 0 0 0 2866.7 8881.5 A 133.3 133.3 0 0 0 2737.7 9000.0" stroke="red" fill="none" stroke-width="10.0"/>
        <path d="M 2733.3 9000.0" stroke="red" fill="none" stroke-width="10.0"/>
        <path d="M 2466.7 9000.0 A 133.3 133.3 0 0 0 2333.3 8819.2 A 133.3 133.3 0 0 0 2221.8 9000.0" stroke="red" fill="none" stroke-width="10.0"/>
        <path d="M 2200.0 9000.0" stroke="red" fill="none" stroke-width="10.0"/>
        <path d="M 1933.3 9000.0" stroke="red" fill="none" stroke-width="10.0"/>
        <path d="M 1666.7 9000.0 A 133.3 133.3 0 0 0 1533.3 8831.5 A 133.3 133.3 0 0 1 1365.3 8733.3 A 133.3 133.3 0 0 0 1266.7 8648.1 A 133.3 133.3 0 0 1 1141.6 8466.7 A 133.3 133.3 0 0 0 1000.0 8376.9" stroke="red" fill="none" stroke-width="10.0"/>
        <path d="M 1400.0 9000.0 A 133.3 133.3 0 0 0 1266.7 8815.4 A 133.3 133.3 0 0 1 1100.8 8733.3 A 133.3 133.3 0 0 0 1000.0 8577.6" stroke="red" fill="none" stroke-width="10.0"/>
        <path d="M 1133.3 9000.0 A 133.3 133.3 0 0 0 1000.0 8821.1" stroke="red" fill="none" stroke-width="10.0"/>
        <path d="M 1000.0 8866.7" stroke="red" fill="none" stroke-width="10.0"/>
        <path d="M 1000.0 8600.0" stroke="red" fill="none" stroke-width="10.0"/>
        <path d="M 1000.0 8333.3" stroke="red" fill="none" stroke-width="10.0"/>
        <path d="M 1000.0 8066.7 A 133.3 133.3 0 0 1 1092.1 8200.0 A 133.3 133.3 0 0 0 1266.7 8370.6 A 133.3 133.3 0 0 0 1433.2 8200.0 A 133.3 133.3 0 0 0 1266.7 8058.7 A 133.3 133.3 0 0 1 1088.2 7933.3 A 133.3 133.3 0 0 0 1000.0 7776.2" stroke="red" fill="none" stroke-width="10.0"/>
        <path d="M 1000.0 7800.0" stroke="red" fill="none" stroke-width="10.0"/>
        <path d="M 1000.0 7533.3 A 133.3 133.3 0 0 1 1154.9 7666.7 A 133.3 133.3 0 0 0 1266.7 7767.3 A 133.3 133.3 0 0 1 1410.3 7933.3 A 133.3 133.3 0 0 0 1533.3 8079.4 A 133.3 133.3 0 0 0 1689.9 7933.3 A 133.3 133.3 0 0 0 1533.3 7848.5 A 133.3 133.3 0 0 1 1369.0 7666.7 A 133.3 133.3 0 0 1 1533.3 7584.1 A 133.3 133.3 0 0 1 1655.6 7666.7 A 133.3 133.3 0 0 0 1800.0 7841.4 A 133.3 133.3 0 0 0 1910.0 7666.7 A 133.3 133.3 0 0 1 2066.7 7491.2 A 133.3 133.3 0 0 0 2172.4 7400.0 A 133.3 133.3 0 0 0 2066.7 7233.3 A 133.3 133.3 0 0 0 1946.7 7400.0 A 133.3 133.3 0 0 1 1800.0 7485.4 A 133.3 133.3 0 0 1 1711.5 7400.0 A 133.3 133.3 0 0 1 1800.0 7268.2 A 133.3 133.3 0 0 0 1933.4 7133.3 A 133.3 133.3 0 0 0 1800.0 7045.5 A 133.3 133.3 0 0 1 1714.1 6866.7 A 133.3 133.3 0 0 0 1533.3 6716.2 A 133.3 133.3 0 0 1 1431.1 6600.0 A 133.3 133.3 0 0 1 1533.3 6485.1 A 133.3 133.3 0 0 0 1676.5 6333.3 A 133.3 133.3 0 0 1 1800.0 6199.7 A 133.3 133.3 0 0 1 1947.2 6333.3 A 133.3 133.3 0 0 0 2066.7 6419.6 A 133.3 133.3 0 0 0 2200.3 6333.3 A 133.3 133.3 0 0 0 2066.7 6218.0 A 133.3 133.3 0 0 1 1938.2 6066.7 A 133.3 133.3 0 0 1 2066.7 5958.8 A 133.3 133.3 0 0 1 2231.4 6066.7 A 133.3 133.3 0 0 0 2333.3 6205.6 A 133.3 133.3 0 0 0 2468.0 6066.7 A 133.3 133.3 0 0 0 2333.3 5970.4 A 133.3 133.3 0 0 1 2252.9 5800.0 A 133.3 133.3 0 0 1 2333.3 5636.9 A 133.3 133.3 0 0 1 2492.9 5800.0 A 133.3 133.3 0 0 0 2600.0 5949.9 A 133.3 133.3 0 0 0 2688.8 5800.0 A 133.3 133.3 0 0 1 2866.7 5688.8 A 133.3 133.3 0 0 1 2982.2 5800.0 A 133.3 133.3 0 0 1 2866.7 5941.9 A 133.3 133.3 0 0 0 2779.1 6066.7 A 133.3 133.3 0 0 1 2600.0 6201.6 A 133.3 133.3 0 0 0 2462.9 6333.3 A 133.3 133.3 0 0 0 2600.0 6518.0 A 133.3 133.3 0 0 1 2776.1 6600.0 A 133.3 133.3 0 0 0 2866.7 6783.8 A 133.3 133.3 0 0 1 2961.9 6866.7 A 133.3 133.3 0 0 0 3133.3 6985.0 A 133.3 133.3 0 0 0 3276.9 6866.7 A 133.3 133.3 0 0 0 3133.3 6696.2 A 133.3 133.3 0 0 1 2951.5 6600.0 A 133.3 133.3 0 0 0 2866.7 6427.7 A 133.3 133.3 0 0 1 2725.2 6333.3 A 133.3 133.3 0 0 1 2866.7 6199.6 A 133.3 133.3 0 0 0 3007.7 6066.7 A 133.3 133.3 0 0 1 3133.3 5982.0 A 133.3 133.3 0 0 0 3222.4 5800.0 A 133.3 133.3 0 0 1 3400.0 5665.1 A 133.3 133.3 0 0 0 3524.7 5533.3 A 133.3 133.3 0 0 1 3666.7 5354.2 A 133.3 133.3 0 0 1 3786.8 5533.3 A 133.3 133.3 0 0 1 3666.7 5683.1 A 133.3 133.3 0 0 0 3570.7 5800.0 A 133.3 133.3 0 0 1 3400.0 5972.2 A 133.3 133.3 0 0 0 3263.7 6066.7 A 133.3 133.3 0 0 0 3400.0 6246.0 A 133.3 133.3 0 0 1 3569.7 6333.3 A 133.3 133.3 0 0 0 3666.7 6517.1 A 133.3 133.3 0 0 0 3763.1 6333.3 A 133.3 133.3 0 0 1 3933.3 6241.3 A 133.3 133.3 0 0 1 4117.4 6333.3 A 133.3 133.3 0 0 1 3933.3 6509.7 A 133.3 133.3 0 0 0 3815.8 6600.0 A 133.3 133.3 0 0 0 3933.3 6726.1 A 133.3 133.3 0 0 1 4052.0 6866.7 A 133.3 133.3 0 0 1 3933.3 7044.0 A 133.3 133.3 0 0 1 3843.3 6866.7 A 133.3 133.3 0 0 0 3666.7 6700.0 A 133.3 133.3 0 0 1 3492.0 6600.0 A 133.3 133.3 0 0 0 3400.0 6453.3 A 133.3 133.3 0 0 1 3304.3 6333.3 A 133.3 133.3 0 0 0 3133.3 6184.6 A 133.3 133.3 0 0 0 2957.9 6333.3 A 133.3 133.3 0 0 0 3133.3 6434.2 A 133.3 133.3 0 0 1 3243.4 6600.0 A 133.3 133.3 0 0 0 3400.0 6776.1 A 133.3 133.3 0 0 1 3584.8 6866.7 A 133.3 133.3 0 0 0 3666.7 6996.8 A 133.3 133.3 0 0 1 3844.2 7133.3 A 133.3 133.3 0 0 1 3666.7 7304.2 A 133.3 133.3 0 0 0 3550.8 7400.0 A 133.3 133.3 0 0 0 3666.7 7486.2 A 133.3 133.3 0 0 0 3782.2 7400.0 A 133.3 133.3 0 0 1 3933.3 7250.2 A 133.3 133.3 0 0 1 4031.9 7400.0 A 133.3 133.3 0 0 1 3933.3 7485.9 A 133.3 133.3 0 0 0 3810.2 7666.7 A 133.3 133.3 0 0 1 3666.7 7799.4 A 133.3 133.3 0 0 0 3481.2 7933.3 A 133.3 133.3 0 0 1 3400.0 8051.8 A 133.3 133.3 0 0 0 3250.1 8200.0 A 133.3 133.3 0 0 0 3400.0 8380.5 A 133.3 133.3 0 0 1 3483.5 8466.7 A 133.3 133.3 0 0 0 3666.7 8564.2 A 133.3 133.3 0 0 0 3813.4 8466.7 A 133.3 133.3 0 0 1 3933.3 8378.6 A 133.3 133.3 0 0 0 4097.9 8200.0 A 133.3 133.3 0 0 1 4200.0 8087.4 A 133.3 133.3 0 0 0 4328.4 7933.3 A 133.3 133.3 0 0 1 4466.7 7806.1 A 133.3 133.3 0 0 0 4593.3 7666.7 A 133.3 133.3 0 0 0 4466.7 7528.7 A 133.3 133.3 0 0 0 4363.3 7666.7 A 133.3 133.3 0 0 1 4200.0 7772.7 A 133.3 133.3 0 0 1 4038.0 7666.7 A 133.3 133.3 0 0 1 4200.0 7547.9 A 133.3 133.3 0 0 0 4369.9 7400.0 A 133.3 133.3 0 0 1 4466.7 7291.5 A 133.3 133.3 0 0 0 4555.0 7133.3 A 133.3 133.3 0 0 0 4466.7 7020.9 A 133.3 133.3 0 0 1 4357.4 6866.7 A 133.3 133.3 0 0 0 4200.0 6688.1 A 133.3 133.3 0 0 1 4062.4 6600.0 A 133.3 133.3 0 0 1 4200.0 6452.4 A 133.3 133.3 0 0 1 4328.4 6600.0 A 133.3 133.3 0 0 0 4466.7 6698.3 A 133.3 133.3 0 0 0 4574.0 6600.0 A 133.3 133.3 0 0 1 4733.3 6448.3 A 133.3 133.3 0 0 0 4831.1 6333.3 A 133.3 133.3 0 0 1 5000.0 6243.1 A 133.3 133.3 0 0 1 5086.8 6333.3 A 133.3 133.3 0 0 0 5266.7 6516.9 A 133.3 133.3 0 0 0 5414.8 6333.3 A 133.3 133.3 0 0 0 5266.7 6174.7 A 133.3 133.3 0 0 1 5183.6 6066.7 A 133.3 133.3 0 0 0 5000.0 5961.1 A 133.3 133.3 0 0 0 4887.8 6066.7 A 133.3 133.3 0 0 1 4733.3 6246.9 A 133.3 133.3 0 0 1 4642.8 6066.7 A 133.3 133.3 0 0 1 4733.3 5920.8 A 133.3 133.3 0 0 0 4872.4 5800.0 A 133.3 133.3 0 0 1 5000.0 5672.0 A 133.3 133.3 0 0 1 5163.7 5800.0 A 133.3 133.3 0 0 0 5266.7 5892.9 A 133.3 133.3 0 0 1 5394.1 6066.7 A 133.3 133.3 0 0 0 5533.3 6183.4 A 133.3 133.3 0 0 0 5638.5 6066.7 A 133.3 133.3 0 0 0 5533.3 5900.7 A 133.3 133.3 0 0 1 5391.6 5800.0 A 133.3 133.3 0 0 0 5266.7 5661.4 A 133.3 133.3 0 0 1 5162.6 5533.3 A 133.3 133.3 0 0 0 5000.0 5411.7 A 133.3 133.3 0 0 0 4860.9 5533.3 A 133.3 133.3 0 0 1 4733.3 5692.8 A 133.3 133.3 0 0 0 4587.4 5800.0 A 133.3 133.3 0 0 1 4466.7 5923.7 A 133.3 133.3 0 0 1 4360.3 5800.0 A 133.3 133.3 0 0 0 4200.0 5669.1 A 133.3 133.3 0 0 0 4106.2 5800.0 A 133.3 133.3 0 0 0 4200.0 5966.5 A 133.3 133.3 0 0 1 4341.9 6066.7 A 133.3 133.3 0 0 1 4200.0 6184.1 A 133.3 133.3 0 0 1 4112.3 6066.7 A 133.3 133.3 0 0 0 3933.3 5883.8 A 133.3 133.3 0 0 1 3837.7 5800.0 A 133.3 133.3 0 0 1 3933.3 5620.3 A 133.3 133.3 0 0 0 4054.5 5533.3 A 133.3 133.3 0 0 0 3933.3 5362.8 A 133.3 133.3 0 0 1 3786.4 5266.7 A 133.3 133.3 0 0 1 3933.3 5129.3 A 133.3 133.3 0 0 0 4105.1 5000.0 A 133.3 133.3 0 0 1 4200.0 4821.2 A 133.3 133.3 0 0 0 4309.8 4733.3 A 133.3 133.3 0 0 0 4200.0 4554.0 A 133.3 133.3 0 0 0 4033.5 4733.3 A 133.3 133.3 0 0 1 3933.3 4918.3 A 133.3 133.3 0 0 0 3834.2 5000.0 A 133.3 133.3 0 0 1 3666.7 5137.0 A 133.3 133.3 0 0 0 3563.8 5266.7 A 133.3 133.3 0 0 1 3400.0 5361.2 A 133.3 133.3 0 0 1 3218.5 5266.7 A 133.3 133.3 0 0 1 3400.0 5160.3 A 133.3 133.3 0 0 0 3555.0 5000.0 A 133.3 133.3 0 0 1 3666.7 4820.6 A 133.3 133.3 0 0 0 3818.5 4733.3 A 133.3 133.3 0 0 1 3933.3 4615.8 A 133.3 133.3 0 0 0 4053.0 4466.7 A 133.3 133.3 0 0 0 3933.3 4285.6 A 133.3 133.3 0 0 0 3750.5 4466.7 A 133.3 133.3 0 0 1 3666.7 4558.0 A 133.3 133.3 0 0 0 3553.1 4733.3 A 133.3 133.3 0 0 1 3400.0 4865.8 A 133.3 133.3 0 0 0 3234.2 5000.0 A 133.3 133.3 0 0 1 3133.3 5159.9 A 133.3 133.3 0 0 0 3023.0 5266.7 A 133.3 133.3 0 0 1 2866.7 5385.7 A 133.3 133.3 0 0 1 2680.3 5266.7 A 133.3 133.3 0 0 0 2600.0 5137.6 A 133.3 133.3 0 0 0 2463.1 5266.7 A 133.3 133.3 0 0 1 2333.3 5371.5 A 133.3 133.3 0 0 1 2155.7 5266.7 A 133.3 133.3 0 0 0 2066.7 5104.6 A 133.3 133.3 0 0 0 1938.2 5266.7 A 133.3 133.3 0 0 1 1800.0 5427.4 A 133.3 133.3 0 0 1 1647.8 5266.7 A 133.3 133.3 0 0 1 1800.0 5178.6 A 133.3 133.3 0 0 0 1936.4 5000.0 A 133.3 133.3 0 0 0 1800.0 4850.3 A 133.3 133.3 0 0 0 1653.3 5000.0 A 133.3 133.3 0 0 1 1533.3 5139.3 A 133.3 133.3 0 0 0 1399.6 5266.7 A 133.3 133.3 0 0 1 1266.7 5423.6 A 133.3 133.3 0 0 1 1136.9 5266.7 A 133.3 133.3 0 0 0 1000.0 5164.6" stroke="red" fill="none" stroke-width="10.0"/>
        <path d="M 1000.0 7266.7 A 133.3 133.3 0 0 1 1121.6 7400.0 A 133.3 133.3 0 0 0 1266.7 7524.2 A 133.3 133.3 0 0 0 1440.9 7400.0 A 133.3 133.3 0 0 0 1266.7 7275.0 A 133.3 133.3 0 0 1 1173.4 7133.3 A 133.3 133.3 0 0 1 1266.7 7027.7 A 133.3 133.3 0 0 1 1355.5 7133.3 A 133.3 133.3 0 0 0 1533.3 7213.5 A 133.3 133.3 0 0 0 1629.4 7133.3 A 133.3 133.3 0 0 0 1533.3 6980.6 A 133.3 133.3 0 0 1 1360.2 6866.7 A 133.3 133.3 0 0 0 1266.7 6727.1 A 133.3 133.3 0 0 1 1185.2 6600.0 A 133.3 133.3 0 0 1 1266.7 6518.7 A 133.3 133.3 0 0 0 1395.7 6333.3 A 133.3 133.3 0 0 0 1266.7 6184.1 A 133.3 133.3 0 0 1 1155.6 6066.7 A 133.3 133.3 0 0 0 1000.0 5985.0" stroke="red" fill="none" stroke-width="10.0"/>
        <path d="M 1000.0 7000.0 A 133.3 133.3 0 0 0 1130.5 6866.7 A 133.3 133.3 0 0 0 1000.0 6695.9" stroke="red" fill="none" stroke-width="10.0"/>
        <path d="M 1000.0 6733.3" stroke="red" fill="none" stroke-width="10.0"/>
        <path d="M 1000.0 6466.7 A 133.3 133.3 0 0 0 1101.1 6333.3 A 133.3 133.3 0 0 0 1000.0 6175.7" stroke="red" fill="none" stroke-width="10.0"/>
        <path d="M 1000.0 6200.0" stroke="red" fill="none" stroke-width="10.0"/>
        <path d="M 1000.0 5933.3" stroke="red" fill="none" stroke-width="10.0"/>
        <path d="M 1000.0 5666.7 A 133.3 133.3 0 0 0 1124.6 5533.3 A 133.3 133.3 0 0 0 1000.0 5351.3" stroke="red" fill="none" stroke-width="10.0"/>
        <path d="M 1000.0 5400.0" stroke="red" fill="none" stroke-width="10.0"/>
        <path d="M 1000.0 5133.3" stroke="red" fill="none" stroke-width="10.0"/>
        <path d="M 1000.0 4866.7 A 133.3 133.3 0 0 0 1123.0 4733.3 A 133.3 133.3 0 0 0 1000.0 4576.6" stroke="red" fill="none" stroke-width="10.0"/>
        <path d="M 1000.0 4600.0" stroke="red" fill="none" stroke-width="10.0"/>
        <path d="M 1000.0 4333.3 A 133.3 133.3 0 0 0 1141.1 4200.0 A 133.3 133.3 0 0 0 1000.0 4081.8" stroke="red" fill="none" stroke-width="10.0"/>
        <path d="M 1000.0 4066.7" stroke="red" fill="none" stroke-width="10.0"/>
        <path d="M 1000.0 3800.0 A 133.3 133.3 0 0 0 1094.7 3666.7 A 133.3 133.3 0 0 1 1266.7 3521.7 A 133.3 133.3 0 0 1 1404.4 3666.7 A 133.3 133.3 0 0 1 1266.7 3843.9 A 133.3 133.3 0 0 0 1165.2 3933.3 A 133.3 133.3 0 0 0 1266.7 4117.9 A 133.3 133.3 0 0 1 1425.6 4200.0 A 133.3 133.3 0 0 0 1533.3 4320.2 A 133.3 133.3 0 0 1 1646.4 4466.7 A 133.3 133.3 0 0 1 1533.3 4653.0 A 133.3 133.3 0 0 1 1445.9 4466.7 A 133.3 133.3 0 0 0 1266.7 4356.8 A 133.3 133.3 0 0 0 1088.8 4466.7 A 133.3 133.3 0 0 0 1266.7 4568.7 A 133.3 133.3 0 0 1 1424.6 4733.3 A 133.3 133.3 0 0 0 1533.3 4866.8 A 133.3 133.3 0 0 0 1655.3 4733.3 A 133.3 133.3 0 0 1 1800.0 4597.9 A 133.3 133.3 0 0 1 1934.9 4733.3 A 133.3 133.3 0 0 0 2066.7 4897.4 A 133.3 133.3 0 0 0 2231.0 4733.3 A 133.3 133.3 0 0 0 2066.7 4617.3 A 133.3 133.3 0 0 1 1905.2 4466.7 A 133.3 133.3 0 0 0 1800.0 4372.2 A 133.3 133.3 0 0 1 1682.0 4200.0 A 133.3 133.3 0 0 1 1800.0 4072.6 A 133.3 133.3 0 0 0 1974.1 3933.3 A 133.3 133.3 0 0 0 1800.0 3800.7 A 133.3 133.3 0 0 1 1715.7 3666.7 A 133.3 133.3 0 0 0 1533.3 3509.6 A 133.3 133.3 0 0 1 1350.0 3400.0 A 133.3 133.3 0 0 1 1533.3 3302.9 A 133.3 133.3 0 0 0 1668.6 3133.3 A 133.3 133.3 0 0 0 1533.3 3028.2 A 133.3 133.3 0 0 0 1356.6 3133.3 A 133.3 133.3 0 0 1 1266.7 3239.7 A 133.3 133.3 0 0 0 1122.8 3400.0 A 133.3 133.3 0 0 1 1000.0 3586.4" stroke="red" fill="none" stroke-width="10.0"/>
        <path d="M 1000.0 3533.3" stroke="red" fill="none" stroke-width="10.0"/>
        <path d="M 1000.0 3266.7 A 133.3 133.3 0 0 0 1132.9 3133.3 A 133.3 133.3 0 0 1 1266.7 3029.1 A 133.3 133.3 0 0 0 1376.1 2866.7 A 133.3 133.3 0 0 1 1533.3 2689.2 A 133.3 133.3 0 0 1 1713.6 2866.7 A 133.3 133.3 0 0 0 1800.0 3022.0 A 133.3 133.3 0 0 1 1884.3 3133.3 A 133.3 133.3 0 0 0 2066.7 3226.0 A 133.3 133.3 0 0 0 2235.8 3133.3 A 133.3 133.3 0 0 0 2066.7 2964.8 A 133.3 133.3 0 0 1 1970.3 2866.7 A 133.3 133.3 0 0 0 1800.0 2727.1 A 133.3 133.3 0 0 1 1685.2 2600.0 A 133.3 133.3 0 0 1 1800.0 2503.8 A 133.3 133.3 0 0 0 1948.7 2333.3 A 133.3 133.3 0 0 0 1800.0 2252.9 A 133.3 133.3 0 0 1 1623.0 2066.7 A 133.3 133.3 0 0 0 1533.3 1963.3 A 133.3 133.3 0 0 1 1360.7 1800.0 A 133.3 133.3 0 0 0 1266.7 1693.2 A 133.3 133.3 0 0 0 1118.2 1800.0 A 133.3 133.3 0 0 0 1266.7 1894.0 A 133.3 133.3 0 0 1 1412.5 2066.7 A 133.3 133.3 0 0 1 1266.7 2162.1 A 133.3 133.3 0 0 0 1185.9 2333.3 A 133.3 133.3 0 0 0 1266.7 2477.2 A 133.3 133.3 0 0 0 1372.8 2333.3 A 133.3 133.3 0 0 1 1533.3 2186.0 A 133.3 133.3 0 0 1 1620.4 2333.3 A 133.3 133.3 0 0 1 1533.3 2437.8 A 133.3 133.3 0 0 0 1378.3 2600.0 A 133.3 133.3 0 0 1 1266.7 2728.2 A 133.3 133.3 0 0 1 1154.9 2600.0 A 133.3 133.3 0 0 0 1000.0 2469.2" stroke="red" fill="none" stroke-width="10.0"/>
        <path d="M 1000.0 3000.0 A 133.3 133.3 0 0 0 1093.7 2866.7 A 133.3 133.3 0 0 0 1000.0 2750.3" stroke="red" fill="none" stroke-width="10.0"/>
        <path d="M 1000.0 2733.3" stroke="red" fill="none" stroke-width="10.0"/>
        <path d="M 1000.0 2466.7" stroke="red" fill="none" stroke-width="10.0"/>
        <path d="M 1000.0 2200.0 A 133.3 133.3 0 0 0 1154.0 2066.7 A 133.3 133.3 0 0 0 1000.0 1913.1" stroke="red" fill="none" stroke-width="10.0"/>
        <path d="M 1000.0 1933.3" stroke="red" fill="none" stroke-width="10.0"/>
        <path d="M 1000.0 1666.7 A 133.3 133.3 0 0 0 1097.7 1533.3 A 133.3 133.3 0 0 0 1000.0 1427.5" stroke="red" fill="none" stroke-width="10.0"/>
        <path d="M 1000.0 1400.0" stroke="red" fill="none" stroke-width="10.0"/>
        <path d="M 1000.0 1133.3" stroke="red" fill="none" stroke-width="10.0"/>
        <path d="M 1400.0 3933.3 A 133.3 133.3 0 0 1 1533.3 3755.3 A 133.3 133.3 0 0 1 1689.6 3933.3 A 133.3 133.3 0 0 1 1533.3 4047.2 A 133.3 133.3 0 0 1 1401.5 3933.3" stroke="red" fill="none" stroke-width="10.0"/>
        <path d="M 1266.7 4866.7 A 133.3 133.3 0 0 1 1361.2 5000.0 A 133.3 133.3 0 0 1 1266.7 5151.2 A 133.3 133.3 0 0 1 1165.6 5000.0 A 133.3 133.3 0 0 1 1266.7 4870.2" stroke="red" fill="none" stroke-width="10.0"/>
        <path d="M 1400.0 5533.3 A 133.3 133.3 0 0 1 1533.3 5393.9 A 133.3 133.3 0 0 1 1718.1 5533.3 A 133.3 133.3 0 0 1 1533.3 5687.0 A 133.3 133.3 0 0 1 1397.0 5533.3" stroke="red" fill="none" stroke-width="10.0"/>
        <path d="M 1266.7 5666.7 A 133.3 133.3 0 0 1 1407.4 5800.0 A 133.3 133.3 0 0 0 1533.3 5886.5 A 133.3 133.3 0 0 0 1687.4 5800.0 A 133.3 133.3 0 0 1 1800.0 5648.2 A 133.3 133.3 0 0 1 1920.5 5800.0 A 133.3 133.3 0 0 1 1800.0 5930.8 A 133.3 133.3 0 0 0 1711.2 6066.7 A 133.3 133.3 0 0 1 1533.3 6150.7 A 133.3 133.3 0 0 1 1386.7 6066.7 A 133.3 133.3 0 0 0 1266.7 5973.2 A 133.3 133.3 0 0 1 1145.7 5800.0 A 133.3 133.3 0 0 1 1266.7 5676.6" stroke="red" fill="none" stroke-width="10.0"/>
        <path d="M 1400.0 8466.7 A 133.3 133.3 0 0 1 1533.3 8355.0 A 133.3 133.3 0 0 0 1684.8 8200.0 A 133.3 133.3 0 0 1 1800.0 8017.6 A 133.3 133.3 0 0 1 1973.6 8200.0 A 133.3 133.3 0 0 1 1800.0 8304.6 A 133.3 133.3 0 0 0 1704.4 8466.7 A 133.3 133.3 0 0 1 1533.3 8631.1 A 133.3 133.3 0 0 1 1363.1 8466.7" stroke="red" fill="none" stroke-width="10.0"/>
        <path d="M 1666.7 1800.0 A 133.3 133.3 0 0 1 1800.0 1626.7 A 133.3 133.3 0 0 0 1950.5 1533.3 A 133.3 133.3 0 0 1 2066.7 1414.1 A 133.3 133.3 0 0 1 2219.0 1533.3 A 133.3 133.3 0 0 0 2333.3 1676.1 A 133.3 133.3 0 0 0 2507.8 1533.3 A 133.3 133.3 0 0 1 2600.0 1441.5 A 133.3 133.3 0 0 1 2731.3 1533.3 A 133.3 133.3 0 0 1 2600.0 1674.9 A 133.3 133.3 0 0 0 2498.0 1800.0 A 133.3 133.3 0 0 1 2333.3 1975.5 A 133.3 133.3 0 0 0 2204.4 2066.7 A 133.3 133.3 0 0 1 2066.7 2219.7 A 133.3 133.3 0 0 1 1928.9 2066.7 A 133.3 133.3 0 0 1 2066.7 1902.0 A 133.3 133.3 0 0 0 2231.9 1800.0 A 133.3 133.3 0 0 0 2066.7 1715.7 A 133.3 133.3 0 0 0 1951.4 1800.0 A 133.3 133.3 0 0 1 1800.0 1978.7 A 133.3 133.3 0 0 1 1615.0 1800.0" stroke="red" fill="none" stroke-width="10.0"/>
        <path d="M 1666.7 3400.0 A 133.3 133.3 0 0 1 1800.0 3271.7 A 133.3 133.3 0 0 1 1947.5 3400.0 A 133.3 133.3 0 0 0 2066.7 3533.3 A 133.3 133.3 0 0 0 2168.7 3400.0 A 133.3 133.3 0 0 1 2333.3 3241.7 A 133.3 133.3 0 0 1 2515.7 3400.0 A 133.3 133.3 0 0 0 2600.0 3547.8 A 133.3 133.3 0 0 0 2765.2 3400.0 A 133.3 133.3 0 0 0 2600.0 3308.0 A 133.3 133.3 0 0 1 2448.4 3133.3 A 133.3 133.3 0 0 0 2333.3 3028.1 A 133.3 133.3 0 0 1 2170.2 2866.7 A 133.3 133.3 0 0 0 2066.7 2702.6 A 133.3 133.3 0 0 1 1930.7 2600.0 A 133.3 133.3 0 0 1 2066.7 2506.4 A 133.3 133.3 0 0 1 2196.6 2600.0 A 133.3 133.3 0 0 0 2333.3 2755.1 A 133.3 133.3 0 0 1 2511.9 2866.7 A 133.3 133.3 0 0 0 2600.0 3025.4 A 133.3 133.3 0 0 0 2701.3 2866.7 A 133.3 133.3 0 0 1 2866.7 2715.5 A 133.3 133.3 0 0 0 3011.8 2600.0 A 133.3 133.3 0 0 1 3133.3 2518.9 A 133.3 133.3 0 0 1 3289.6 2600.0 A 133.3 133.3 0 0 0 3400.0 2767.4 A 133.3 133.3 0 0 1 3574.1 2866.7 A 133.3 133.3 0 0 0 3666.7 3052.3 A 133.3 133.3 0 0 1 3811.6 3133.3 A 133.3 133.3 0 0 1 3666.7 3304.4 A 133.3 133.3 0 0 1 3557.1 3133.3 A 133.3 133.3 0 0 0 3400.0 3022.8 A 133.3 133.3 0 0 0 3235.1 3133.3 A 133.3 133.3 0 0 1 3133.3 3302.7 A 133.3 133.3 0 0 0 3025.6 3400.0 A 133.3 133.3 0 0 0 3133.3 3488.7 A 133.3 133.3 0 0 0 3317.1 3400.0 A 133.3 133.3 0 0 1 3400.0 3255.2 A 133.3 133.3 0 0 1 3570.8 3400.0 A 133.3 133.3 0 0 0 3666.7 3534.2 A 133.3 133.3 0 0 1 3821.0 3666.7 A 133.3 133.3 0 0 1 3666.7 3798.3 A 133.3 133.3 0 0 0 3578.0 3933.3 A 133.3 133.3 0 0 1 3400.0 4049.7 A 133.3 133.3 0 0 0 3235.7 4200.0 A 133.3 133.3 0 0 1 3133.3 4285.3 A 133.3 133.3 0 0 1 3032.0 4200.0 A 133.3 133.3 0 0 0 2866.7 4060.2 A 133.3 133.3 0 0 1 2785.5 3933.3 A 133.3 133.3 0 0 1 2866.7 3781.1 A 133.3 133.3 0 0 1 3005.6 3933.3 A 133.3 133.3 0 0 0 3133.3 4101.0 A 133.3 133.3 0 0 0 3221.5 3933.3 A 133.3 133.3 0 0 0 3133.3 3771.9 A 133.3 133.3 0 0 1 2954.4 3666.7 A 133.3 133.3 0 0 0 2866.7 3498.9 A 133.3 133.3 0 0 0 2703.0 3666.7 A 133.3 133.3 0 0 1 2600.0 3812.0 A 133.3 133.3 0 0 0 2484.9 3933.3 A 133.3 133.3 0 0 1 2333.3 4083.8 A 133.3 133.3 0 0 1 2234.6 3933.3 A 133.3 133.3 0 0 0 2066.7 3811.1 A 133.3 133.3 0 0 1 1891.3 3666.7 A 133.3 133.3 0 0 0 1800.0 3562.9 A 133.3 133.3 0 0 1 1634.3 3400.0" stroke="red" fill="none" stroke-width="10.0"/>
        <path d="M 1666.7 6600.0 A 133.3 133.3 0 0 1 1800.0 6455.3 A 133.3 133.3 0 0 1 1963.7 6600.0 A 133.3 133.3 0 0 1 1800.0 6730.0 A 133.3 133.3 0 0 1 1714.6 6600.0" stroke="red" fill="none" stroke-width="10.0"/>
        <path d="M 1933.3 4200.0 A 133.3 133.3 0 0 1 2066.7 4063.5 A 133.3 133.3 0 0 1 2167.6 4200.0 A 133.3 133.3 0 0 1 2066.7 4333.5 A 133.3 133.3 0 0 1 1939.2 4200.0" stroke="red" fill="none" stroke-width="10.0"/>
        <path d="M 1933.3 5533.3 A 133.3 133.3 0 0 1 2066.7 5434.0 A 133.3 133.3 0 0 1 2162.5 5533.3 A 133.3 133.3 0 0 1 2066.7 5650.8 A 133.3 133.3 0 0 1 1951.7 5533.3" stroke="red" fill="none" stroke-width="10.0"/>
        <path d="M 1933.3 6866.7 A 133.3 133.3 0 0 1 2066.7 6730.0 A 133.3 133.3 0 0 0 2167.3 6600.0 A 133.3 133.3 0 0 1 2333.3 6498.7 A 133.3 133.3 0 0 1 2443.2 6600.0 A 133.3 133.3 0 0 1 2333.3 6740.5 A 133.3 133.3 0 0 0 2170.7 6866.7 A 133.3 133.3 0 0 0 2333.3 7049.7 A 133.3 133.3 0 0 0 2469.8 6866.7 A 133.3 133.3 0 0 1 2600.0 6769.6 A 133.3 133.3 0 0 1 2761.2 6866.7 A 133.3 133.3 0 0 1 2600.0 6984.7 A 133.3 133.3 0 0 0 2503.9 7133.3 A 133.3 133.3 0 0 1 2333.3 7234.0 A 133.3 133.3 0 0 1 2158.8 7133.3 A 133.3 133.3 0 0 0 2066.7 6968.4 A 133.3 133.3 0 0 1 1891.8 6866.7" stroke="red" fill="none" stroke-width="10.0"/>
        <path d="M 1933.3 7933.3 A 133.3 133.3 0 0 1 2066.7 7813.0 A 133.3 133.3 0 0 1 2214.4 7933.3 A 133.3 133.3 0 0 1 2066.7 8084.2 A 133.3 133.3 0 0 1 1884.8 7933.3" stroke="red" fill="none" stroke-width="10.0"/>
        <path d="M 1933.3 8733.3 A 133.3 133.3 0 0 1 2066.7 8568.9 A 133.3 133.3 0 0 1 2250.9 8733.3 A 133.3 133.3 0 0 1 2066.7 8891.4 A 133.3 133.3 0 0 1 1891.8 8733.3" stroke="red" fill="none" stroke-width="10.0"/>
        <path d="M 2200.0 2333.3 A 133.3 133.3 0 0 1 2333.3 2215.7 A 133.3 133.3 0 0 0 2449.5 2066.7 A 133.3 133.3 0 0 1 2600.0 1920.9 A 133.3 133.3 0 0 1 2736.4 2066.7 A 133.3 133.3 0 0 1 2600.0 2196.1 A 133.3 133.3 0 0 0 2452.9 2333.3 A 133.3 133.3 0 0 1 2333.3 2481.0 A 133.3 133.3 0 0 1 2175.7 2333.3" stroke="red" fill="none" stroke-width="10.0"/>
        <path d="M 2200.0 3666.7 A 133.3 133.3 0 0 1 2333.3 3569.1 A 133.3 133.3 0 0 1 2421.5 3666.7 A 133.3 133.3 0 0 1 2333.3 3825.9 A 133.3 133.3 0 0 1 2231.0 3666.7" stroke="red" fill="none" stroke-width="10.0"/>
        <path d="M 2200.0 4466.7 A 133.3 133.3 0 0 1 2333.3 4319.8 A 133.3 133.3 0 0 1 2482.1 4466.7 A 133.3 133.3 0 0 0 2600.0 4627.0 A 133.3 133.3 0 0 1 2741.5 4733.3 A 133.3 133.3 0 0 0 2866.7 4907.8 A 133.3 133.3 0 0 1 2967.5 5000.0 A 133.3 133.3 0 0 1 2866.7 5146.3 A 133.3 133.3 0 0 1 2776.7 5000.0 A 133.3 133.3 0 0 0 2600.0 4896.5 A 133.3 133.3 0 0 0 2423.9 5000.0 A 133.3 133.3 0 0 1 2333.3 5119.8 A 133.3 133.3 0 0 1 2152.0 5000.0 A 133.3 133.3 0 0 1 2333.3 4915.8 A 133.3 133.3 0 0 0 2509.6 4733.3 A 133.3 133.3 0 0 0 2333.3 4650.6 A 133.3 133.3 0 0 1 2224.9 4466.7" stroke="red" fill="none" stroke-width="10.0"/>
        <path d="M 2200.0 7666.7 A 133.3 133.3 0 0 1 2333.3 7517.7 A 133.3 133.3 0 0 1 2498.6 7666.7 A 133.3 133.3 0 0 1 2333.3 7761.2 A 133.3 133.3 0 0 1 2196.0 7666.7" stroke="red" fill="none" stroke-width="10.0"/>
        <path d="M 2200.0 8466.7 A 133.3 133.3 0 0 1 2333.3 8321.5 A 133.3 133.3 0 0 1 2480.7 8466.7 A 133.3 133.3 0 0 0 2600.0 8594.4 A 133.3 133.3 0 0 1 2771.7 8733.3 A 133.3 133.3 0 0 1 2600.0 8832.7 A 133.3 133.3 0 0 1 2454.9 8733.3 A 133.3 133.3 0 0 0 2333.3 8598.3 A 133.3 133.3 0 0 1 2162.7 8466.7" stroke="red" fill="none" stroke-width="10.0"/>
        <path d="M 2466.7 2600.0 A 133.3 133.3 0 0 1 2600.0 2494.2 A 133.3 133.3 0 0 1 2693.3 2600.0 A 133.3 133.3 0 0 1 2600.0 2692.0 A 133.3 133.3 0 0 1 2484.1 2600.0" stroke="red" fill="none" stroke-width="10.0"/>
        <path d="M 2466.7 5533.3 A 133.3 133.3 0 0 1 2600.0 5371.2 A 133.3 133.3 0 0 1 2726.1 5533.3 A 133.3 133.3 0 0 1 2600.0 5661.8 A 133.3 133.3 0 0 1 2448.3 5533.3" stroke="red" fill="none" stroke-width="10.0"/>
        <path d="M 2466.7 7400.0 A 133.3 133.3 0 0 1 2600.0 7227.6 A 133.3 133.3 0 0 1 2697.9 7400.0 A 133.3 133.3 0 0 1 2600.0 7484.8 A 133.3 133.3 0 0 1 2443.6 7400.0" stroke="red" fill="none" stroke-width="10.0"/>
        <path d="M 2733.3 1266.7 A 133.3 133.3 0 0 0 2866.7 1400.5 A 133.3 133.3 0 0 0 3051.5 1266.7 A 133.3 133.3 0 0 0 2866.7 1180.7 A 133.3 133.3 0 0 0 2776.9 1266.7" stroke="red" fill="none" stroke-width="10.0"/>
        <path d="M 2733.3 1800.0 A 133.3 133.3 0 0 1 2866.7 1688.5 A 133.3 133.3 0 0 1 3038.7 1800.0 A 133.3 133.3 0 0 1 2866.7 1986.3 A 133.3 133.3 0 0 1 2764.1 1800.0" stroke="red" fill="none" stroke-width="10.0"/>
        <path d="M 2733.3 3133.3 A 133.3 133.3 0 0 1 2866.7 2946.7 A 133.3 133.3 0 0 0 2982.4 2866.7 A 133.3 133.3 0 0 1 3133.3 2770.1 A 133.3 133.3 0 0 1 3239.4 2866.7 A 133.3 133.3 0 0 1 3133.3 3015.9 A 133.3 133.3 0 0 0 2957.1 3133.3 A 133.3 133.3 0 0 1 2866.7 3225.9 A 133.3 133.3 0 0 1 2700.7 3133.3" stroke="red" fill="none" stroke-width="10.0"/>
        <path d="M 2733.3 7133.3 A 133.3 133.3 0 0 1 2866.7 6983.1 A 133.3 133.3 0 0 1 2977.6 7133.3 A 133.3 133.3 0 0 1 2866.7 7217.2 A 133.3 133.3 0 0 1 2733.9 7133.3" stroke="red" fill="none" stroke-width="10.0"/>
        <path d="M 2733.3 7666.7 A 133.3 133.3 0 0 1 2866.7 7528.2 A 133.3 133.3 0 0 0 3050.5 7400.0 A 133.3 133.3 0 0 1 3133.3 7298.5 A 133.3 133.3 0 0 0 3256.0 7133.3 A 133.3 133.3 0 0 1 3400.0 6967.6 A 133.3 133.3 0 0 1 3524.2 7133.3 A 133.3 133.3 0 0 1 3400.0 7239.6 A 133.3 133.3 0 0 0 3252.1 7400.0 A 133.3 133.3 0 0 0 3400.0 7564.9 A 133.3 133.3 0 0 1 3504.9 7666.7 A 133.3 133.3 0 0 1 3400.0 7767.5 A 133.3 133.3 0 0 1 3290.1 7666.7 A 133.3 133.3 0 0 0 3133.3 7531.2 A 133.3 133.3 0 0 0 3048.7 7666.7 A 133.3 133.3 0 0 1 2866.7 7832.6 A 133.3 133.3 0 0 1 2753.0 7666.7" stroke="red" fill="none" stroke-width="10.0"/>
        <path d="M 2733.3 8200.0 A 133.3 133.3 0 0 1 2866.7 8070.4 A 133.3 133.3 0 0 1 3037.6 8200.0 A 133.3 133.3 0 0 1 2866.7 8379.5 A 133.3 133.3 0 0 1 2708.5 8200.0" stroke="red" fill="none" stroke-width="10.0"/>
        <path d="M 3000.0 1533.3 A 133.3 133.3 0 0 1 3133.3 1414.7 A 133.3 133.3 0 0 1 3240.2 1533.3 A 133.3 133.3 0 0 1 3133.3 1659.8 A 133.3 133.3 0 0 1 3038.6 1533.3" stroke="red" fill="none" stroke-width="10.0"/>
        <path d="M 3000.0 5533.3 A 133.3 133.3 0 0 1 3133.3 5446.6 A 133.3 133.3 0 0 1 3246.7 5533.3 A 133.3 133.3 0 0 1 3133.3 5645.7 A 133.3 133.3 0 0 1 2965.9 5533.3" stroke="red" fill="none" stroke-width="10.0"/>
        <path d="M 3000.0 7933.3 A 133.3 133.3 0 0 1 3133.3 7767.5 A 133.3 133.3 0 0 1 3277.8 7933.3 A 133.3 133.3 0 0 1 3133.3 8098.8 A 133.3 133.3 0 0 1 3025.6 7933.3" stroke="red" fill="none" stroke-width="10.0"/>
        <path d="M 3266.7 3666.7 A 133.3 133.3 0 0 1 3400.0 3579.0 A 133.3 133.3 0 0 1 3564.6 3666.7 A 133.3 133.3 0 0 1 3400.0 3775.7 A 133.3 133.3 0 0 1 3233.7 3666.7" stroke="red" fill="none" stroke-width="10.0"/>
        <path d="M 3533.3 2333.3 A 133.3 133.3 0 0 1 3666.7 2237.6 A 133.3 133.3 0 0 1 3764.1 2333.3 A 133.3 133.3 0 0 0 3933.3 2518.1 A 133.3 133.3 0 0 1 4050.0 2600.0 A 133.3 133.3 0 0 1 3933.3 2728.3 A 133.3 133.3 0 0 1 3767.1 2600.0 A 133.3 133.3 0 0 0 3666.7 2473.8 A 133.3 133.3 0 0 1 3488.4 2333.3" stroke="red" fill="none" stroke-width="10.0"/>
        <path d="M 3533.3 6066.7 A 133.3 133.3 0 0 1 3666.7 5953.0 A 133.3 133.3 0 0 1 3843.4 6066.7 A 133.3 133.3 0 0 1 3666.7 6228.0 A 133.3 133.3 0 0 1 3571.8 6066.7" stroke="red" fill="none" stroke-width="10.0"/>
        <path d="M 3533.3 8200.0 A 133.3 133.3 0 0 1 3666.7 8078.7 A 133.3 133.3 0 0 0 3793.7 7933.3 A 133.3 133.3 0 0 1 3933.3 7773.4 A 133.3 133.3 0 0 1 4095.1 7933.3 A 133.3 133.3 0 0 1 3933.3 8090.2 A 133.3 133.3 0 0 0 3793.8 8200.0 A 133.3 133.3 0 0 1 3666.7 8378.8 A 133.3 133.3 0 0 1 3578.4 8200.0" stroke="red" fill="none" stroke-width="10.0"/>
        <path d="M 3800.0 2066.7 A 133.3 133.3 0 0 1 3933.3 1966.7 A 133.3 133.3 0 0 1 4055.4 2066.7 A 133.3 133.3 0 0 1 3933.3 2163.4 A 133.3 133.3 0 0 1 3756.4 2066.7" stroke="red" fill="none" stroke-width="10.0"/>
        <path d="M 3800.0 3400.0 A 133.3 133.3 0 0 1 3933.3 3232.9 A 133.3 133.3 0 0 1 4100.3 3400.0 A 133.3 133.3 0 0 1 3933.3 3572.7 A 133.3 133.3 0 0 1 3819.6 3400.0" stroke="red" fill="none" stroke-width="10.0"/>
        <path d="M 4066.7 2333.3 A 133.3 133.3 0 0 1 4200.0 2252.9 A 133.3 133.3 0 0 1 4365.3 2333.3 A 133.3 133.3 0 0 1 4200.0 2468.7 A 133.3 133.3 0 0 1 4055.5 2333.3" stroke="red" fill="none" stroke-width="10.0"/>
        <path d="M 4066.7 3933.3 A 133.3 133.3 0 0 1 4200.0 3786.8 A 133.3 133.3 0 0 1 4284.2 3933.3 A 133.3 133.3 0 0 0 4466.7 4046.4 A 133.3 133.3 0 0 1 4623.8 4200.0 A 133.3 133.3 0 0 1 4466.7 4376.4 A 133.3 133.3 0 0 1 4378.5 4200.0 A 133.3 133.3 0 0 0 4200.0 4026.8 A 133.3 133.3 0 0 1 4055.7 3933.3" stroke="red" fill="none" stroke-width="10.0"/>
        <path d="M 4066.7 5266.7 A 133.3 133.3 0 0 1 4200.0 5181.3 A 133.3 133.3 0 0 0 4288.3 5000.0 A 133.3 133.3 0 0 1 4466.7 4891.3 A 133.3 133.3 0 0 0 4650.9 4733.3 A 133.3 133.3 0 0 1 4733.3 4644.5 A 133.3 133.3 0 0 1 4818.5 4733.3 A 133.3 133.3 0 0 1 4733.3 4908.3 A 133.3 133.3 0 0 0 4608.5 5000.0 A 133.3 133.3 0 0 0 4733.3 5185.4 A 133.3 133.3 0 0 0 4908.0 5000.0 A 133.3 133.3 0 0 1 5000.0 4887.6 A 133.3 133.3 0 0 1 5102.4 5000.0 A 133.3 133.3 0 0 0 5266.7 5102.2 A 133.3 133.3 0 0 1 5399.7 5266.7 A 133.3 133.3 0 0 0 5533.3 5444.1 A 133.3 133.3 0 0 1 5664.7 5533.3 A 133.3 133.3 0 0 1 5533.3 5699.3 A 133.3 133.3 0 0 1 5394.6 5533.3 A 133.3 133.3 0 0 0 5266.7 5427.1 A 133.3 133.3 0 0 1 5084.1 5266.7 A 133.3 133.3 0 0 0 5000.0 5114.0 A 133.3 133.3 0 0 0 4840.6 5266.7 A 133.3 133.3 0 0 1 4733.3 5386.6 A 133.3 133.3 0 0 0 4568.2 5533.3 A 133.3 133.3 0 0 1 4466.7 5671.2 A 133.3 133.3 0 0 1 4294.4 5533.3 A 133.3 133.3 0 0 0 4200.0 5429.9 A 133.3 133.3 0 0 1 4050.6 5266.7" stroke="red" fill="none" stroke-width="10.0"/>
        <path d="M 4066.7 7133.3 A 133.3 133.3 0 0 1 4200.0 7007.6 A 133.3 133.3 0 0 1 4326.9 7133.3 A 133.3 133.3 0 0 1 4200.0 7285.9 A 133.3 133.3 0 0 1 4052.0 7133.3" stroke="red" fill="none" stroke-width="10.0"/>
        <path d="M 4066.7 8466.7 A 133.3 133.3 0 0 1 4200.0 8345.3 A 133.3 133.3 0 0 0 4310.9 8200.0 A 133.3 133.3 0 0 1 4466.7 8094.7 A 133.3 133.3 0 0 0 4580.2 7933.3 A 133.3 133.3 0 0 1 4733.3 7836.7 A 133.3 133.3 0 0 0 4909.4 7666.7 A 133.3 133.3 0 0 1 5000.0 7504.3 A 133.3 133.3 0 0 1 5096.6 7666.7 A 133.3 133.3 0 0 1 5000.0 7820.8 A 133.3 133.3 0 0 0 4906.7 7933.3 A 133.3 133.3 0 0 0 5000.0 8044.4 A 133.3 133.3 0 0 1 5172.3 8200.0 A 133.3 133.3 0 0 1 5000.0 8324.9 A 133.3 133.3 0 0 0 4880.1 8466.7 A 133.3 133.3 0 0 1 4733.3 8567.3 A 133.3 133.3 0 0 1 4651.1 8466.7 A 133.3 133.3 0 0 1 4733.3 8367.5 A 133.3 133.3 0 0 0 4842.1 8200.0 A 133.3 133.3 0 0 0 4733.3 8109.8 A 133.3 133.3 0 0 0 4586.9 8200.0 A 133.3 133.3 0 0 1 4466.7 8384.5 A 133.3 133.3 0 0 0 4317.7 8466.7 A 133.3 133.3 0 0 1 4200.0 8598.4 A 133.3 133.3 0 0 1 4016.7 8466.7" stroke="red" fill="none" stroke-width="10.0"/>
        <path d="M 4333.3 2600.0 A 133.3 133.3 0 0 1 4466.7 2424.0 A 133.3 133.3 0 0 1 4565.9 2600.0 A 133.3 133.3 0 0 0 4733.3 2740.3 A 133.3 133.3 0 0 1 4876.1 2866.7 A 133.3 133.3 0 0 1 4733.3 3043.9 A 133.3 133.3 0 0 1 4638.3 2866.7 A 133.3 133.3 0 0 0 4466.7 2756.0 A 133.3 133.3 0 0 1 4283.0 2600.0" stroke="red" fill="none" stroke-width="10.0"/>
        <path d="M 4333.3 5266.7 A 133.3 133.3 0 0 1 4466.7 5121.9 A 133.3 133.3 0 0 1 4606.1 5266.7 A 133.3 133.3 0 0 1 4466.7 5446.6 A 133.3 133.3 0 0 1 4364.9 5266.7" stroke="red" fill="none" stroke-width="10.0"/>
        <path d="M 4333.3 6333.3 A 133.3 133.3 0 0 1 4466.7 6181.4 A 133.3 133.3 0 0 1 4590.5 6333.3 A 133.3 133.3 0 0 1 4466.7 6436.8 A 133.3 133.3 0 0 1 4289.6 6333.3" stroke="red" fill="none" stroke-width="10.0"/>
        <path d="M 4600.0 3933.3 A 133.3 133.3 0 0 1 4733.3 3810.0 A 133.3 133.3 0 0 1 4885.1 3933.3 A 133.3 133.3 0 0 1 4733.3 4078.0 A 133.3 133.3 0 0 1 4633.1 3933.3" stroke="red" fill="none" stroke-width="10.0"/>
        <path d="M 4600.0 6866.7 A 133.3 133.3 0 0 1 4733.3 6703.3 A 133.3 133.3 0 0 0 4915.0 6600.0 A 133.3 133.3 0 0 1 5000.0 6484.2 A 133.3 133.3 0 0 1 5099.3 6600.0 A 133.3 133.3 0 0 0 5266.7 6719.2 A 133.3 133.3 0 0 0 5353.1 6600.0 A 133.3 133.3 0 0 1 5533.3 6511.4 A 133.3 133.3 0 0 0 5683.3 6333.3 A 133.3 133.3 0 0 1 5800.0 6156.0 A 133.3 133.3 0 0 1 5893.3 6333.3 A 133.3 133.3 0 0 1 5800.0 6512.3 A 133.3 133.3 0 0 0 5701.2 6600.0 A 133.3 133.3 0 0 1 5533.3 6757.0 A 133.3 133.3 0 0 0 5368.1 6866.7 A 133.3 133.3 0 0 1 5266.7 6956.2 A 133.3 133.3 0 0 1 5126.8 6866.7 A 133.3 133.3 0 0 0 5000.0 6768.4 A 133.3 133.3 0 0 0 4878.4 6866.7 A 133.3 133.3 0 0 1 4733.3 7001.5 A 133.3 133.3 0 0 1 4649.9 6866.7" stroke="red" fill="none" stroke-width="10.0"/>
        <path d="M 4600.0 7400.0 A 133.3 133.3 0 0 1 4733.3 7291.9 A 133.3 133.3 0 0 1 4918.0 7400.0 A 133.3 133.3 0 0 1 4733.3 7505.1 A 133.3 133.3 0 0 1 4592.5 7400.0" stroke="red" fill="none" stroke-width="10.0"/>
        <path d="M 4866.7 8733.3 A 133.3 133.3 0 0 1 5000.0 8563.7 A 133.3 133.3 0 0 1 5142.3 8733.3 A 133.3 133.3 0 0 1 5000.0 8825.1 A 133.3 133.3 0 0 1 4870.2 8733.3" stroke="red" fill="none" stroke-width="10.0"/>
        <path d="M 5133.3 1800.0 A 133.3 133.3 0 0 1 5266.7 1716.9 A 133.3 133.3 0 0 1 5405.7 1800.0 A 133.3 133.3 0 0 1 5266.7 1958.0 A 133.3 133.3 0 0 1 5104.2 1800.0" stroke="red" fill="none" stroke-width="10.0"/>
        <path d="M 5400.0 4466.7 A 133.3 133.3 0 0 1 5533.3 4371.0 A 133.3 133.3 0 0 1 5690.6 4466.7 A 133.3 133.3 0 0 1 5533.3 4637.2 A 133.3 133.3 0 0 1 5392.7 4466.7" stroke="red" fill="none" stroke-width="10.0"/>
        <path d="M 5400.0 5000.0 A 133.3 133.3 0 0 1 5533.3 4899.3 A 133.3 133.3 0 0 0 5655.1 4733.3 A 133.3 133.3 0 0 1 5800.0 4561.9 A 133.3 133.3 0 0 1 5912.9 4733.3 A 133.3 133.3 0 0 0 6066.7 4819.6 A 133.3 133.3 0 0 1 6250.2 5000.0 A 133.3 133.3 0 0 1 6066.7 5095.5 A 133.3 133.3 0 0 1 5951.3 5000.0 A 133.3 133.3 0 0 0 5800.0 4869.1 A 133.3 133.3 0 0 0 5643.8 5000.0 A 133.3 133.3 0 0 0 5800.0 5163.0 A 133.3 133.3 0 0 1 5945.2 5266.7 A 133.3 133.3 0 0 0 6066.7 5380.3 A 133.3 133.3 0 0 1 6237.6 5533.3 A 133.3 133.3 0 0 1 6066.7 5614.5 A 133.3 133.3 0 0 1 5935.3 5533.3 A 133.3 133.3 0 0 0 5800.0 5356.5 A 133.3 133.3 0 0 1 5616.4 5266.7 A 133.3 133.3 0 0 0 5533.3 5180.0 A 133.3 133.3 0 0 1 5434.1 5000.0" stroke="red" fill="none" stroke-width="10.0"/>
        <path d="M 5666.7 5800.0 A 133.3 133.3 0 0 1 5800.0 5659.1 A 133.3 133.3 0 0 1 5927.8 5800.0 A 133.3 133.3 0 0 1 5800.0 5979.3 A 133.3 133.3 0 0 1 5671.0 5800.0" stroke="red" fill="none" stroke-width="10.0"/>
        <path d="M 5933.3 7400.0 A 133.3 133.3 0 0 1 6066.7 7268.3 A 133.3 133.3 0 0 0 6161.6 7133.3 A 133.3 133.3 0 0 1 6333.3 6982.6 A 133.3 133.3 0 0 1 6429.7 7133.3 A 133.3 133.3 0 0 1 6333.3 7235.6 A 133.3 133.3 0 0 0 6237.8 7400.0 A 133.3 133.3 0 0 0 6333.3 7582.3 A 133.3 133.3 0 0 1 6471.4 7666.7 A 133.3 133.3 0 0 0 6600.0 7765.0 A 133.3 133.3 0 0 1 6741.7 7933.3 A 133.3 133.3 0 0 1 6600.0 8021.3 A 133.3 133.3 0 0 1 6466.6 7933.3 A 133.3 133.3 0 0 0 6333.3 7808.5 A 133.3 133.3 0 0 1 6199.1 7666.7 A 133.3 133.3 0 0 0 6066.7 7530.1 A 133.3 133.3 0 0 1 5883.3 7400.0" stroke="red" fill="none" stroke-width="10.0"/>
        <path d="M 6200.0 5266.7 A 133.3 133.3 0 0 1 6333.3 5123.1 A 133.3 133.3 0 0 1 6467.4 5266.7 A 133.3 133.3 0 0 1 6333.3 5425.2 A 133.3 133.3 0 0 1 6191.6 5266.7" stroke="red" fill="none" stroke-width="10.0"/>
        <path d="M 6466.7 1533.3 A 133.3 133.3 0 0 1 6600.0 1431.9 A 133.3 133.3 0 0 1 6748.1 1533.3 A 133.3 133.3 0 0 1 6600.0 1640.7 A 133.3 133.3 0 0 1 6468.3 1533.3" stroke="red" fill="none" stroke-width="10.0"/>
        <path d="M 6466.7 3400.0 A 133.3 133.3 0 0 1 6600.0 3250.1 A 133.3 133.3 0 0 1 6759.4 3400.0 A 133.3 133.3 0 0 0 6866.7 3561.2 A 133.3 133.3 0 0 0 7006.2 3400.0 A 133.3 133.3 0 0 0 6866.7 3258.9 A 133.3 133.3 0 0 1 6739.5 3133.3 A 133.3 133.3 0 0 1 6866.7 2986.0 A 133.3 133.3 0 0 1 6986.9 3133.3 A 133.3 133.3 0 0 0 7133.3 3304.5 A 133.3 133.3 0 0 0 7220.2 3133.3 A 133.3 133.3 0 0 1 7400.0 3013.6 A 133.3 133.3 0 0 0 7532.6 2866.7 A 133.3 133.3 0 0 1 7666.7 2758.6 A 133.3 133.3 0 0 0 7782.5 2600.0 A 133.3 133.3 0 0 0 7666.7 2438.1 A 133.3 133.3 0 0 0 7495.6 2600.0 A 133.3 133.3 0 0 1 7400.0 2705.4 A 133.3 133.3 0 0 1 7240.7 2600.0 A 133.3 133.3 0 0 1 7400.0 2491.1 A 133.3 133.3 0 0 0 7508.3 2333.3 A 133.3 133.3 0 0 1 7666.7 2154.2 A 133.3 133.3 0 0 0 7828.0 2066.7 A 133.3 133.3 0 0 1 7933.3 1896.5 A 133.3 133.3 0 0 0 8077.2 1800.0 A 133.3 133.3 0 0 1 8200.0 1619.8 A 133.3 133.3 0 0 1 8381.4 1800.0 A 133.3 133.3 0 0 0 8466.7 1923.1 A 133.3 133.3 0 0 1 8588.9 2066.7 A 133.3 133.3 0 0 1 8466.7 2251.1 A 133.3 133.3 0 0 0 8293.9 2333.3 A 133.3 133.3 0 0 0 8466.7 2466.1 A 133.3 133.3 0 0 1 8565.1 2600.0 A 133.3 133.3 0 0 1 8466.7 2728.6 A 133.3 133.3 0 0 1 8380.7 2600.0 A 133.3 133.3 0 0 0 8200.0 2426.6 A 133.3 133.3 0 0 1 8104.8 2333.3 A 133.3 133.3 0 0 1 8200.0 2214.6 A 133.3 133.3 0 0 0 8370.3 2066.7 A 133.3 133.3 0 0 0 8200.0 1927.5 A 133.3 133.3 0 0 0 8079.4 2066.7 A 133.3 133.3 0 0 1 7933.3 2196.7 A 133.3 133.3 0 0 0 7794.8 2333.3 A 133.3 133.3 0 0 0 7933.3 2498.3 A 133.3 133.3 0 0 1 8079.7 2600.0 A 133.3 133.3 0 0 0 8200.0 2786.6 A 133.3 133.3 0 0 1 8319.3 2866.7 A 133.3 133.3 0 0 1 8200.0 2985.5 A 133.3 133.3 0 0 0 8119.6 3133.3 A 133.3 133.3 0 0 1 7933.3 3276.3 A 133.3 133.3 0 0 0 7765.2 3400.0 A 133.3 133.3 0 0 1 7666.7 3561.9 A 133.3 133.3 0 0 1 7505.7 3400.0 A 133.3 133.3 0 0 1 7666.7 3274.4 A 133.3 133.3 0 0 0 7771.4 3133.3 A 133.3 133.3 0 0 1 7933.3 3005.7 A 133.3 133.3 0 0 0 8037.8 2866.7 A 133.3 133.3 0 0 0 7933.3 2756.3 A 133.3 133.3 0 0 0 7805.4 2866.7 A 133.3 133.3 0 0 1 7666.7 2997.7 A 133.3 133.3 0 0 0 7569.8 3133.3 A 133.3 133.3 0 0 1 7400.0 3252.1 A 133.3 133.3 0 0 0 7255.1 3400.0 A 133.3 133.3 0 0 1 7133.3 3575.6 A 133.3 133.3 0 0 0 7013.4 3666.7 A 133.3 133.3 0 0 1 6866.7 3821.7 A 133.3 133.3 0 0 1 6742.8 3666.7 A 133.3 133.3 0 0 0 6600.0 3486.7 A 133.3 133.3 0 0 1 6441.8 3400.0" stroke="red" fill="none" stroke-width="10.0"/>
        <path d="M 6466.7 3933.3 A 133.3 133.3 0 0 1 6600.0 3812.7 A 133.3 133.3 0 0 1 6780.4 3933.3 A 133.3 133.3 0 0 1 6600.0 4094.8 A 133.3 133.3 0 0 1 6431.4 3933.3" stroke="red" fill="none" stroke-width="10.0"/>
        <path d="M 6466.7 8466.7 A 133.3 133.3 0 0 1 6600.0 8331.2 A 133.3 133.3 0 0 1 6683.4 8466.7 A 133.3 133.3 0 0 1 6600.0 8598.8 A 133.3 133.3 0 0 1 6467.1 8466.7" stroke="red" fill="none" stroke-width="10.0"/>
        <path d="M 6733.3 1266.7 A 133.3 133.3 0 0 0 6866.7 1391.4 A 133.3 133.3 0 0 0 6960.3 1266.7 A 133.3 133.3 0 0 0 6866.7 1096.4 A 133.3 133.3 0 0 0 6762.0 1266.7" stroke="red" fill="none" stroke-width="10.0"/>
        <path d="M 7000.0 4200.0 A 133.3 133.3 0 0 1 7133.3 4044.1 A 133.3 133.3 0 0 1 7299.8 4200.0 A 133.3 133.3 0 0 1 7133.3 4299.6 A 133.3 133.3 0 0 1 6952.3 4200.0" stroke="red" fill="none" stroke-width="10.0"/>
        <path d="M 7000.0 5266.7 A 133.3 133.3 0 0 1 7133.3 5107.9 A 133.3 133.3 0 0 1 7222.4 5266.7 A 133.3 133.3 0 0 0 7400.0 5398.8 A 133.3 133.3 0 0 0 7542.6 5266.7 A 133.3 133.3 0 0 0 7400.0 5112.9 A 133.3 133.3 0 0 1 7295.4 5000.0 A 133.3 133.3 0 0 1 7400.0 4904.8 A 133.3 133.3 0 0 1 7532.1 5000.0 A 133.3 133.3 0 0 0 7666.7 5144.2 A 133.3 133.3 0 0 1 7824.2 5266.7 A 133.3 133.3 0 0 1 7666.7 5409.3 A 133.3 133.3 0 0 0 7487.8 5533.3 A 133.3 133.3 0 0 1 7400.0 5650.6 A 133.3 133.3 0 0 1 7311.5 5533.3 A 133.3 133.3 0 0 0 7133.3 5422.2 A 133.3 133.3 0 0 1 6967.7 5266.7" stroke="red" fill="none" stroke-width="10.0"/>
        <path d="M 7000.0 8733.3 A 133.3 133.3 0 0 1 7133.3 8604.4 A 133.3 133.3 0 0 1 7301.8 8733.3 A 133.3 133.3 0 0 1 7133.3 8888.7 A 133.3 133.3 0 0 1 6965.9 8733.3" stroke="red" fill="none" stroke-width="10.0"/>
        <path d="M 7266.7 3666.7 A 133.3 133.3 0 0 1 7400.0 3531.7 A 133.3 133.3 0 0 1 7565.7 3666.7 A 133.3 133.3 0 0 1 7400.0 3827.3 A 133.3 133.3 0 0 1 7262.4 3666.7" stroke="red" fill="none" stroke-width="10.0"/>
        <path d="M 7266.7 7400.0 A 133.3 133.3 0 0 1 7400.0 7293.4 A 133.3 133.3 0 0 1 7574.8 7400.0 A 133.3 133.3 0 0 0 7666.7 7544.6 A 133.3 133.3 0 0 0 7786.1 7400.0 A 133.3 133.3 0 0 1 7933.3 7263.9 A 133.3 133.3 0 0 1 8093.9 7400.0 A 133.3 133.3 0 0 1 7933.3 7508.4 A 133.3 133.3 0 0 0 7817.2 7666.7 A 133.3 133.3 0 0 1 7666.7 7788.9 A 133.3 133.3 0 0 1 7519.4 7666.7 A 133.3 133.3 0 0 0 7400.0 7554.6 A 133.3 133.3 0 0 1 7298.0 7400.0" stroke="red" fill="none" stroke-width="10.0"/>
        <path d="M 7533.3 1266.7 A 133.3 133.3 0 0 0 7666.7 1387.8 A 133.3 133.3 0 0 0 7769.1 1266.7 A 133.3 133.3 0 0 0 7666.7 1138.7 A 133.3 133.3 0 0 0 7562.8 1266.7" stroke="red" fill="none" stroke-width="10.0"/>
        <path d="M 7533.3 7133.3 A 133.3 133.3 0 0 1 7666.7 7037.8 A 133.3 133.3 0 0 1 7838.2 7133.3 A 133.3 133.3 0 0 1 7666.7 7238.4 A 133.3 133.3 0 0 1 7508.0 7133.3" stroke="red" fill="none" stroke-width="10.0"/>
        <path d="M 7800.0 6333.3 A 133.3 133.3 0 0 1 7933.3 6202.1 A 133.3 133.3 0 0 1 8044.3 6333.3 A 133.3 133.3 0 0 1 7933.3 6502.2 A 133.3 133.3 0 0 1 7784.2 6333.3" stroke="red" fill="none" stroke-width="10.0"/>
        <path d="M 7800.0 8466.7 A 133.3 133.3 0 0 1 7933.3 8342.5 A 133.3 133.3 0 0 1 8013.4 8466.7 A 133.3 133.3 0 0 1 7933.3 8625.1 A 133.3 133.3 0 0 1 7807.9 8466.7" stroke="red" fill="none" stroke-width="10.0"/>
        <path d="M 8066.7 3400.0 A 133.3 133.3 0 0 1 8200.0 3238.4 A 133.3 133.3 0 0 1 8340.4 3400.0 A 133.3 133.3 0 0 0 8466.7 3509.8 A 133.3 133.3 0 0 1 8573.0 3666.7 A 133.3 133.3 0 0 1 8466.7 3842.3 A 133.3 133.3 0 0 1 8305.6 3666.7 A 133.3 133.3 0 0 0 8200.0 3546.4 A 133.3 133.3 0 0 1 8059.5 3400.0" stroke="red" fill="none" stroke-width="10.0"/>
        <path d="M 8066.7 3933.3 A 133.3 133.3 0 0 1 8200.0 3815.1 A 133.3 133.3 0 0 1 8368.8 3933.3 A 133.3 133.3 0 0 1 8200.0 4109.4 A 133.3 133.3 0 0 1 8051.7 3933.3" stroke="red" fill="none" stroke-width="10.0"/>
        <path d="M 8066.7 5533.3 A 133.3 133.3 0 0 1 8200.0 5364.1 A 133.3 133.3 0 0 1 8297.2 5533.3 A 133.3 133.3 0 0 1 8200.0 5695.7 A 133.3 133.3 0 0 1 8100.5 5533.3" stroke="red" fill="none" stroke-width="10.0"/>
        <path d="M 8333.3 7133.3 A 133.3 133.3 0 0 1 8466.7 7014.3 A 133.3 133.3 0 0 1 8595.5 7133.3 A 133.3 133.3 0 0 1 8466.7 7270.4 A 133.3 133.3 0 0 1 8353.7 7133.3" stroke="red" fill="none" stroke-width="10.0"/>
        <path d="M 8600.0 1533.3 A 133.3 133.3 0 0 1 8733.3 1348.3 A 133.3 133.3 0 0 1 8815.7 1533.3 A 133.3 133.3 0 0 1 8733.3 1653.8 A 133.3 133.3 0 0 1 8612.7 1533.3" stroke="red" fill="none" stroke-width="10.0"/>
        <path d="M 8600.0 3933.3 A 133.3 133.3 0 0 1 8733.3 3749.9 A 133.3 133.3 0 0 1 8862.3 3933.3 A 133.3 133.3 0 0 1 8733.3 4054.4 A 133.3 133.3 0 0 1 8644.9 3933.3" stroke="red" fill="none" stroke-width="10.0"/>
        <path d="M 8600.0 6866.7 A 133.3 133.3 0 0 1 8733.3 6733.3 A 133.3 133.3 0 0 1 8894.5 6866.7 A 133.3 133.3 0 0 1 8733.3 7023.0 A 133.3 133.3 0 0 1 8598.6 6866.7" stroke="red" fill="none" stroke-width="10.0"/>
    </g>
    <g inkscape:groupmode="layer" inkscape:label="2 - GUIDELINES-pen" id="g5" transform="translate(0.0 0.0)"><line x1="1300.0" x2="1300.0" y1="225.0" y2="300.0" stroke="black" fill="none" stroke-width="3"/>
        <line x1="1325.0" x2="1325.0" y1="225.0" y2="300.0" stroke="black" fill="none" stroke-width="3"/>
        <line x1="1350.0" x2="1350.0" y1="225.0" y2="300.0" stroke="black" fill="none" stroke-width="3"/>
        <line x1="1375.0" x2="1375.0" y1="225.0" y2="300.0" stroke="black" fill="none" stroke-width="3"/>
        <line x1="1400.0" x2="1400.0" y1="225.0" y2="300.0" stroke="black" fill="none" stroke-width="3"/>
        <line x1="1425.0" x2="1425.0" y1="225.0" y2="300.0" stroke="black" fill="none" stroke-width="3"/>
        <line x1="1450.0" x2="1450.0" y1="225.0" y2="300.0" stroke="black" fill="none" stroke-width="3"/>
        <line x1="1475.0" x2="1475.0" y1="225.0" y2="300.0" stroke="black" fill="none" stroke-width="3"/>
        <line x1="1500.0" x2="1500.0" y1="200.0" y2="300.0" stroke="black" fill="none" stroke-width="3"/>
        <line x1="1525.0" x2="1525.0" y1="225.0" y2="300.0" stroke="black" fill="none" stroke-width="3"/>
        <line x1="1550.0" x2="1550.0" y1="225.0" y2="300.0" stroke="black" fill="none" stroke-width="3"/>
        <line x1="1575.0" x2="1575.0" y1="225.0" y2="300.0" stroke="black" fill="none" stroke-width="3"/>
        <line x1="1600.0" x2="1600.0" y1="225.0" y2="300.0" stroke="black" fill="none" stroke-width="3"/>
        <line x1="1625.0" x2="1625.0" y1="225.0" y2="300.0" stroke="black" fill="none" stroke-width="3"/>
        <line x1="1650.0" x2="1650.0" y1="225.0" y2="300.0" stroke="black" fill="none" stroke-width="3"/>
        <line x1="1675.0" x2="1675.0" y1="225.0" y2="300.0" stroke="black" fill="none" stroke-width="3"/>
        <line x1="1700.0" x2="1700.0" y1="225.0" y2="300.0" stroke="black" fill="none" stroke-width="3"/>
        <line x1="1300.0" x2="1300.0" y1="700.0" y2="775.0" stroke="black" fill="none" stroke-width="3"/>
        <line x1="1325.0" x2="1325.0" y1="700.0" y2="775.0" stroke="black" fill="none" stroke-width="3"/>
        <line x1="1350.0" x2="1350.0" y1="700.0" y2="775.0" stroke="black" fill="none" stroke-width="3"/>
        <line x1="1375.0" x2="1375.0" y1="700.0" y2="775.0" stroke="black" fill="none" stroke-width="3"/>
        <line x1="1400.0" x2="1400.0" y1="700.0" y2="775.0" stroke="black" fill="none" stroke-width="3"/>
        <line x1="1425.0" x2="1425.0" y1="700.0" y2="775.0" stroke="black" fill="none" stroke-width="3"/>
        <line x1="1450.0" x2="1450.0" y1="700.0" y2="775.0" stroke="black" fill="none" stroke-width="3"/>
        <line x1="1475.0" x2="1475.0" y1="700.0" y2="775.0" stroke="black" fill="none" stroke-width="3"/>
        <line x1="1500.0" x2="1500.0" y1="700.0" y2="800.0" stroke="black" fill="none" stroke-width="3"/>
        <line x1="1525.0" x2="1525.0" y1="700.0" y2="775.0" stroke="black" fill="none" stroke-width="3"/>
        <line x1="1550.0" x2="1550.0" y1="700.0" y2="775.0" stroke="black" fill="none" stroke-width="3"/>
        <line x1="1575.0" x2="1575.0" y1="700.0" y2="775.0" stroke="black" fill="none" stroke-width="3"/>
        <line x1="1600.0" x2="1600.0" y1="700.0" y2="775.0" stroke="black" fill="none" stroke-width="3"/>
        <line x1="1625.0" x2="1625.0" y1="700.0" y2="775.0" stroke="black" fill="none" stroke-width="3"/>
        <line x1="1650.0" x2="1650.0" y1="700.0" y2="775.0" stroke="black" fill="none" stroke-width="3"/>
        <line x1="1675.0" x2="1675.0" y1="700.0" y2="775.0" stroke="black" fill="none" stroke-width="3"/>
        <line x1="1700.0" x2="1700.0" y1="700.0" y2="775.0" stroke="black" fill="none" stroke-width="3"/>
        <line x1="1225.0" x2="1300.0" y1="300.0" y2="300.0" stroke="black" fill="none" stroke-width="3"/>
        <line x1="1225.0" x2="1300.0" y1="325.0" y2="325.0" stroke="black" fill="none" stroke-width="3"/>
        <line x1="1225.0" x2="1300.0" y1="350.0" y2="350.0" stroke="black" fill="none" stroke-width="3"/>
        <line x1="1225.0" x2="1300.0" y1="375.0" y2="375.0" stroke="black" fill="none" stroke-width="3"/>
        <line x1="1225.0" x2="1300.0" y1="400.0" y2="400.0" stroke="black" fill="none" stroke-width="3"/>
        <line x1="1225.0" x2="1300.0" y1="425.0" y2="425.0" stroke="black" fill="none" stroke-width="3"/>
        <line x1="1225.0" x2="1300.0" y1="450.0" y2="450.0" stroke="black" fill="none" stroke-width="3"/>
        <line x1="1225.0" x2="1300.0" y1="475.0" y2="475.0" stroke="black" fill="none" stroke-width="3"/>
        <line x1="1200.0" x2="1300.0" y1="500.0" y2="500.0" stroke="black" fill="none" stroke-width="3"/>
        <line x1="1225.0" x2="1300.0" y1="525.0" y2="525.0" stroke="black" fill="none" stroke-width="3"/>
        <line x1="1225.0" x2="1300.0" y1="550.0" y2="550.0" stroke="black" fill="none" stroke-width="3"/>
        <line x1="1225.0" x2="1300.0" y1="575.0" y2="575.0" stroke="black" fill="none" stroke-width="3"/>
        <line x1="1225.0" x2="1300.0" y1="600.0" y2="600.0" stroke="black" fill="none" stroke-width="3"/>
        <line x1="1225.0" x2="1300.0" y1="625.0" y2="625.0" stroke="black" fill="none" stroke-width="3"/>
        <line x1="1225.0" x2="1300.0" y1="650.0" y2="650.0" stroke="black" fill="none" stroke-width="3"/>
        <line x1="1225.0" x2="1300.0" y1="675.0" y2="675.0" stroke="black" fill="none" stroke-width="3"/>
        <line x1="1225.0" x2="1300.0" y1="700.0" y2="700.0" stroke="black" fill="none" stroke-width="3"/>
        <line x1="1700.0" x2="1775.0" y1="300.0" y2="300.0" stroke="black" fill="none" stroke-width="3"/>
        <line x1="1700.0" x2="1775.0" y1="325.0" y2="325.0" stroke="black" fill="none" stroke-width="3"/>
        <line x1="1700.0" x2="1775.0" y1="350.0" y2="350.0" stroke="black" fill="none" stroke-width="3"/>
        <line x1="1700.0" x2="1775.0" y1="375.0" y2="375.0" stroke="black" fill="none" stroke-width="3"/>
        <line x1="1700.0" x2="1775.0" y1="400.0" y2="400.0" stroke="black" fill="none" stroke-width="3"/>
        <line x1="1700.0" x2="1775.0" y1="425.0" y2="425.0" stroke="black" fill="none" stroke-width="3"/>
        <line x1="1700.0" x2="1775.0" y1="450.0" y2="450.0" stroke="black" fill="none" stroke-width="3"/>
        <line x1="1700.0" x2="1775.0" y1="475.0" y2="475.0" stroke="black" fill="none" stroke-width="3"/>
        <line x1="1700.0" x2="1800.0" y1="500.0" y2="500.0" stroke="black" fill="none" stroke-width="3"/>
        <line x1="1700.0" x2="1775.0" y1="525.0" y2="525.0" stroke="black" fill="none" stroke-width="3"/>
        <line x1="1700.0" x2="1775.0" y1="550.0" y2="550.0" stroke="black" fill="none" stroke-width="3"/>
        <line x1="1700.0" x2="1775.0" y1="575.0" y2="575.0" stroke="black" fill="none" stroke-width="3"/>
        <line x1="1700.0" x2="1775.0" y1="600.0" y2="600.0" stroke="black" fill="none" stroke-width="3"/>
        <line x1="1700.0" x2="1775.0" y1="625.0" y2="625.0" stroke="black" fill="none" stroke-width="3"/>
        <line x1="1700.0" x2="1775.0" y1="650.0" y2="650.0" stroke="black" fill="none" stroke-width="3"/>
        <line x1="1700.0" x2="1775.0" y1="675.0" y2="675.0" stroke="black" fill="none" stroke-width="3"/>
        <line x1="1700.0" x2="1775.0" y1="700.0" y2="700.0" stroke="black" fill="none" stroke-width="3"/>
    </g>
    <g inkscape:groupmode="layer" inkscape:label="3 - GUIDELINES-Layer 1" id="g5" transform="translate(0.0 0.0)"><line x1="1500.0" x2="1500.0" y1="300.0" y2="700.0" stroke="red" fill="none" stroke-width="10.0"/>
        <line x1="1300.0" x2="1700.0" y1="500.0" y2="500.0" stroke="red" fill="none" stroke-width="10.0"/>
    </g>
</svg>
