<?xml version="1.0" encoding="UTF-8"?>
<svg width="12in" height="9in" viewBox="0 0 10000 10000" version="1.1" id="svg6" sodipodi:docname="test_inkscape.svg" inkscape:version="1.3.2 (091e20e, 2023-11-25, custom)" xmlns:inkscape="http://www.inkscape.org/namespaces/inkscape" xmlns:sodipodi="http://sodipodi.sourceforge.net/DTD/sodipodi-0.dtd" xmlns="http://www.w3.org/2000/svg" xmlns:svg="http://www.w3.org/2000/svg"><g inkscape:groupmode="layer" inkscape:label="0 - frame" id="g5" transform="translate(0.0 0.0)"><path d="M 1000.0 1000.0 L 1000.0 9000.0 L 9000.0 9000.0 L 9000.0 1000.0 L 1000.0 1000.0" stroke="black" fill="none" stroke-width="3"/></g>
    <g inkscape:groupmode="layer" inkscape:label="1 - Curly1" id="g5" transform="translate(0.0 0.0)"><path d="M 1133.3 1000.0 L 1133.3 1266.7 A 133.3 133.3 0 0 1 1000.0 1400.0" stroke="red" fill="none" stroke-width="10.0"/>
        <path d="M 1400.0 1000.0 A 133.3 133.3 0 0 0 1533.3 1133.3 A 133.3 133.3 0 0 0 1666.7 1000.0" stroke="red" fill="none" stroke-width="10.0"/>
        <path d="M 1666.7 1000.0" stroke="red" fill="none" stroke-width="10.0"/>
        <path d="M 1933.3 1000.0 A 133.3 133.3 0 0 1 1800.0 1133.3 A 133.3 133.3 0 0 0 1666.7 1266.7 L 1666.7 1533.3 L 1666.7 1800.0 A 133.3 133.3 0 0 1 1533.3 1933.3 L 1466.7 1933.3 M 1333.3 1933.3 L 1266.7 1933.3 L 1200.0 1933.3 M 1066.7 1933.3 L 1000.0 1933.3" stroke="red" fill="none" stroke-width="10.0"/>
        <path d="M 2200.0 1000.0 A 133.3 133.3 0 0 0 2333.3 1133.3 A 133.3 133.3 0 0 0 2466.7 1000.0" stroke="red" fill="none" stroke-width="10.0"/>
        <path d="M 2466.7 1000.0" stroke="red" fill="none" stroke-width="10.0"/>
        <path d="M 2733.3 1000.0 A 133.3 133.3 0 0 0 2866.7 1133.3 A 133.3 133.3 0 0 0 3000.0 1000.0" stroke="red" fill="none" stroke-width="10.0"/>
        <path d="M 3000.0 1000.0" stroke="red" fill="none" stroke-width="10.0"/>
        <path d="M 3266.7 1000.0 A 133.3 133.3 0 0 0 3400.0 1133.3 A 133.3 133.3 0 0 1 3533.3 1266.7 A 133.3 133.3 0 0 1 3400.0 1400.0 L 3333.3 1400.0 M 3200.0 1400.0 L 3133.3 1400.0 A 133.3 133.3 0 0 1 3000.0 1266.7 A 133.3 133.3 0 0 1 3133.3 1133.3 A 133.3 133.3 0 0 1 3266.7 1266.7 L 3266.7 1533.3 A 133.3 133.3 0 0 0 3400.0 1666.7 A 133.3 133.3 0 0 0 3533.3 1533.3 A 133.3 133.3 0 0 1 3666.7 1400.0 A 133.3 133.3 0 0 1 3800.0 1533.3 A 133.3 133.3 0 0 1 3666.7 1666.7 A 133.3 133.3 0 0 0 3533.3 1800.0 A 133.3 133.3 0 0 0 3666.7 1933.3 A 133.3 133.3 0 0 0 3800.0 1800.0 A 133.3 133.3 0 0 1 3933.3 1666.7 A 133.3 133.3 0 0 1 4066.7 1800.0 L 4066.7 2066.7 L 4066.7 2333.3 L 4066.7 2600.0 A 133.3 133.3 0 0 0 4200.0 2733.3 A 133.3 133.3 0 0 0 4333.3 2600.0 A 133.3 133.3 0 0 0 4200.0 2466.7 L 4133.3 2466.7 M 4000.0 2466.7 L 3933.3 2466.7 L 3866.7 2466.7 M 3733.3 2466.7 L 3666.7 2466.7 A 133.3 133.3 0 0 1 3533.3 2333.3 A 133.3 133.3 0 0 1 3666.7 2200.0 L 3733.3 2200.0 M 3866.7 2200.0 L 3933.3 2200.0 L 4000.0 2200.0 M 4133.3 2200.0 L 4200.0 2200.0 A 133.3 133.3 0 0 0 4333.3 2066.7 A 133.3 133.3 0 0 0 4200.0 1933.3 L 4133.3 1933.3 M 4000.0 1933.3 L 3933.3 1933.3 A 133.3 133.3 0 0 0 3800.0 2066.7 L 3800.0 2333.3 L 3800.0 2600.0 A 133.3 133.3 0 0 1 3666.7 2733.3 A 133.3 133.3 0 0 1 3533.3 2600.0 A 133.3 133.3 0 0 0 3400.0 2466.7 A 133.3 133.3 0 0 0 3266.7 2600.0 A 133.3 133.3 0 0 0 3400.0 2733.3 A 133.3 133.3 0 0 1 3533.3 2866.7 A 133.3 133.3 0 0 1 3400.0 3000.0 A 133.3 133.3 0 0 1 3266.7 2866.7 A 133.3 133.3 0 0 0 3133.3 2733.3 A 133.3 133.3 0 0 0 3000.0 2866.7 A 133.3 133.3 0 0 0 3133.3 3000.0 A 133.3 133.3 0 0 1 3266.7 3133.3 A 133.3 133.3 0 0 0 3400.0 3266.7 A 133.3 133.3 0 0 1 3533.3 3400.0 A 133.3 133.3 0 0 1 3400.0 3533.3 A 133.3 133.3 0 0 0 3266.7 3666.7 L 3266.7 3933.3 L 3266.7 4200.0 A 133.3 133.3 0 0 1 3133.3 4333.3 A 133.3 133.3 0 0 1 3000.0 4200.0 A 133.3 133.3 0 0 0 2866.7 4066.7 A 133.3 133.3 0 0 0 2733.3 4200.0 A 133.3 133.3 0 0 1 2600.0 4333.3 L 2533.3 4333.3 M 2400.0 4333.3 L 2333.3 4333.3 L 2266.7 4333.3 M 2133.3 4333.3 L 2066.7 4333.3 A 133.3 133.3 0 0 1 1933.3 4200.0 A 133.3 133.3 0 0 0 1800.0 4066.7 A 133.3 133.3 0 0 0 1666.7 4200.0 A 133.3 133.3 0 0 1 1533.3 4333.3 A 133.3 133.3 0 0 0 1400.0 4466.7 A 133.3 133.3 0 0 0 1533.3 4600.0 A 133.3 133.3 0 0 0 1666.7 4466.7 A 133.3 133.3 0 0 1 1800.0 4333.3 A 133.3 133.3 0 0 1 1933.3 4466.7 L 1933.3 4733.3 A 133.3 133.3 0 0 0 2066.7 4866.7 L 2133.3 4866.7 M 2266.7 4866.7 L 2333.3 4866.7 L 2400.0 4866.7 M 2533.3 4866.7 L 2600.0 4866.7 L 2666.7 4866.7 M 2800.0 4866.7 L 2866.7 4866.7 A 133.3 133.3 0 0 0 3000.0 4733.3 A 133.3 133.3 0 0 0 2866.7 4600.0 A 133.3 133.3 0 0 0 2733.3 4733.3 L 2733.3 5000.0 A 133.3 133.3 0 0 1 2600.0 5133.3 A 133.3 133.3 0 0 0 2466.7 5266.7 A 133.3 133.3 0 0 1 2333.3 5400.0 A 133.3 133.3 0 0 1 2200.0 5266.7 A 133.3 133.3 0 0 0 2066.7 5133.3 A 133.3 133.3 0 0 0 1933.3 5266.7 A 133.3 133.3 0 0 0 2066.7 5400.0 A 133.3 133.3 0 0 1 2200.0 5533.3 A 133.3 133.3 0 0 0 2333.3 5666.7 A 133.3 133.3 0 0 0 2466.7 5533.3 A 133.3 133.3 0 0 1 2600.0 5400.0 A 133.3 133.3 0 0 1 2733.3 5533.3 A 133.3 133.3 0 0 1 2600.0 5666.7 A 133.3 133.3 0 0 0 2466.7 5800.0 L 2466.7 6066.7 A 133.3 133.3 0 0 1 2333.3 6200.0 A 133.3 133.3 0 0 0 2200.0 6333.3 A 133.3 133.3 0 0 1 2066.7 6466.7 A 133.3 133.3 0 0 0 1933.3 6600.0 A 133.3 133.3 0 0 0 2066.7 6733.3 L 2133.3 6733.3 M 2266.7 6733.3 L 2333.3 6733.3 A 133.3 133.3 0 0 1 2466.7 6866.7 A 133.3 133.3 0 0 0 2600.0 7000.0 A 133.3 133.3 0 0 0 2733.3 6866.7 A 133.3 133.3 0 0 0 2600.0 6733.3 A 133.3 133.3 0 0 1 2466.7 6600.0 A 133.3 133.3 0 0 0 2333.3 6466.7 A 133.3 133.3 0 0 0 2200.0 6600.0 L 2200.0 6866.7 A 133.3 133.3 0 0 0 2333.3 7000.0 A 133.3 133.3 0 0 1 2466.7 7133.3 A 133.3 133.3 0 0 0 2600.0 7266.7 A 133.3 133.3 0 0 1 2733.3 7400.0 A 133.3 133.3 0 0 0 2866.7 7533.3 A 133.3 133.3 0 0 1 3000.0 7666.7 A 133.3 133.3 0 0 0 3133.3 7800.0 A 133.3 133.3 0 0 0 3266.7 7666.7 A 133.3 133.3 0 0 1 3400.0 7533.3 A 133.3 133.3 0 0 1 3533.3 7666.7 L 3533.3 7933.3 A 133.3 133.3 0 0 1 3400.0 8066.7 A 133.3 133.3 0 0 0 3266.7 8200.0 A 133.3 133.3 0 0 0 3400.0 8333.3 A 133.3 133.3 0 0 1 3533.3 8466.7 A 133.3 133.3 0 0 0 3666.7 8600.0 A 133.3 133.3 0 0 1 3800.0 8733.3 A 133.3 133.3 0 0 0 3933.3 8866.7 A 133.3 133.3 0 0 0 4066.7 8733.3 A 133.3 133.3 0 0 0 3933.3 8600.0 A 133.3 133.3 0 0 1 3800.0 8466.7 A 133.3 133.3 0 0 0 3666.7 8333.3 A 133.3 133.3 0 0 1 3533.3 8200.0 A 133.3 133.3 0 0 1 3666.7 8066.7 A 133.3 133.3 0 0 0 3800.0 7933.3 A 133.3 133.3 0 0 1 3933.3 7800.0 A 133.3 133.3 0 0 0 4066.7 7666.7 L 4066.7 7400.0 A 133.3 133.3 0 0 1 4200.0 7266.7 A 133.3 133.3 0 0 1 4333.3 7400.0 A 133.3 133.3 0 0 0 4466.7 7533.3 A 133.3 133.3 0 0 1 4600.0 7666.7 A 133.3 133.3 0 0 1 4466.7 7800.0 A 133.3 133.3 0 0 0 4333.3 7933.3 L 4333.3 8200.0 A 133.3 133.3 0 0 0 4466.7 8333.3 A 133.3 133.3 0 0 0 4600.0 8200.0 L 4600.0 7933.3 A 133.3 133.3 0 0 1 4733.3 7800.0 A 133.3 133.3 0 0 0 4866.7 7666.7 A 133.3 133.3 0 0 1 5000.0 7533.3 A 133.3 133.3 0 0 0 5133.3 7400.0 A 133.3 133.3 0 0 0 5000.0 7266.7 A 133.3 133.3 0 0 1 4866.7 7133.3 A 133.3 133.3 0 0 0 4733.3 7000.0 A 133.3 133.3 0 0 0 4600.0 7133.3 A 133.3 133.3 0 0 1 4466.7 7266.7 A 133.3 133.3 0 0 1 4333.3 7133.3 A 133.3 133.3 0 0 1 4466.7 7000.0 A 133.3 133.3 0 0 0 4600.0 6866.7 A 133.3 133.3 0 0 0 4466.7 6733.3 A 133.3 133.3 0 0 1 4333.3 6600.0 A 133.3 133.3 0 0 0 4200.0 6466.7 L 4133.3 6466.7 M 4000.0 6466.7 L 3933.3 6466.7 A 133.3 133.3 0 0 0 3800.0 6600.0 A 133.3 133.3 0 0 1 3666.7 6733.3 L 3600.0 6733.3 M 3466.7 6733.3 L 3400.0 6733.3 A 133.3 133.3 0 0 1 3266.7 6600.0 A 133.3 133.3 0 0 1 3400.0 6466.7 A 133.3 133.3 0 0 0 3533.3 6333.3 A 133.3 133.3 0 0 1 3666.7 6200.0 A 133.3 133.3 0 0 0 3800.0 6066.7 A 133.3 133.3 0 0 1 3933.3 5933.3 L 4000.0 5933.3 M 4133.3 5933.3 L 4200.0 5933.3 A 133.3 133.3 0 0 1 4333.3 6066.7 L 4333.3 6333.3 A 133.3 133.3 0 0 0 4466.7 6466.7 A 133.3 133.3 0 0 1 4600.0 6600.0 A 133.3 133.3 0 0 0 4733.3 6733.3 A 133.3 133.3 0 0 1 4866.7 6866.7 A 133.3 133.3 0 0 0 5000.0 7000.0 A 133.3 133.3 0 0 1 5133.3 7133.3 A 133.3 133.3 0 0 0 5266.7 7266.7 L 5333.3 7266.7 M 5466.7 7266.7 L 5533.3 7266.7 L 5600.0 7266.7 M 5733.3 7266.7 L 5800.0 7266.7 A 133.3 133.3 0 0 0 5933.3 7133.3 L 5933.3 6866.7 A 133.3 133.3 0 0 1 6066.7 6733.3 A 133.3 133.3 0 0 0 6200.0 6600.0 A 133.3 133.3 0 0 1 6333.3 6466.7 A 133.3 133.3 0 0 0 6466.7 6333.3 A 133.3 133.3 0 0 1 6600.0 6200.0 A 133.3 133.3 0 0 0 6733.3 6066.7 A 133.3 133.3 0 0 0 6600.0 5933.3 L 6533.3 5933.3 M 6400.0 5933.3 L 6333.3 5933.3 A 133.3 133.3 0 0 0 6200.0 6066.7 A 133.3 133.3 0 0 1 6066.7 6200.0 L 6000.0 6200.0 M 5866.7 6200.0 L 5800.0 6200.0 A 133.3 133.3 0 0 0 5666.7 6333.3 L 5666.7 6600.0 A 133.3 133.3 0 0 0 5800.0 6733.3 A 133.3 133.3 0 0 0 5933.3 6600.0 L 5933.3 6333.3 L 5933.3 6066.7 A 133.3 133.3 0 0 1 6066.7 5933.3 A 133.3 133.3 0 0 0 6200.0 5800.0 A 133.3 133.3 0 0 0 6066.7 5666.7 A 133.3 133.3 0 0 1 5933.3 5533.3 A 133.3 133.3 0 0 1 6066.7 5400.0 A 133.3 133.3 0 0 1 6200.0 5533.3 A 133.3 133.3 0 0 0 6333.3 5666.7 A 133.3 133.3 0 0 1 6466.7 5800.0 L 6466.7 6066.7 A 133.3 133.3 0 0 1 6333.3 6200.0 A 133.3 133.3 0 0 0 6200.0 6333.3 A 133.3 133.3 0 0 1 6066.7 6466.7 L 6000.0 6466.7 M 5866.7 6466.7 L 5800.0 6466.7 L 5733.3 6466.7 M 5600.0 6466.7 L 5533.3 6466.7 A 133.3 133.3 0 0 1 5400.0 6333.3 A 133.3 133.3 0 0 0 5266.7 6200.0 L 5200.0 6200.0 M 5066.7 6200.0 L 5000.0 6200.0 A 133.3 133.3 0 0 0 4866.7 6333.3 A 133.3 133.3 0 0 0 5000.0 6466.7 A 133.3 133.3 0 0 0 5133.3 6333.3 L 5133.3 6066.7 L 5133.3 5800.0 A 133.3 133.3 0 0 1 5266.7 5666.7 A 133.3 133.3 0 0 1 5400.0 5800.0 A 133.3 133.3 0 0 1 5266.7 5933.3 L 5200.0 5933.3 M 5066.7 5933.3 L 5000.0 5933.3 A 133.3 133.3 0 0 0 4866.7 6066.7 A 133.3 133.3 0 0 1 4733.3 6200.0 L 4666.7 6200.0 M 4533.3 6200.0 L 4466.7 6200.0 L 4400.0 6200.0 M 4266.7 6200.0 L 4200.0 6200.0 A 133.3 133.3 0 0 1 4066.7 6066.7 L 4066.7 5800.0 L 4066.7 5533.3 A 133.3 133.3 0 0 1 4200.0 5400.0 A 133.3 133.3 0 0 1 4333.3 5533.3 A 133.3 133.3 0 0 0 4466.7 5666.7 A 133.3 133.3 0 0 0 4600.0 5533.3 A 133.3 133.3 0 0 0 4466.7 5400.0 A 133.3 133.3 0 0 1 4333.3 5266.7 L 4333.3 5000.0 L 4333.3 4733.3 A 133.3 133.3 0 0 0 4200.0 4600.0 A 133.3 133.3 0 0 1 4066.7 4466.7 A 133.3 133.3 0 0 1 4200.0 4333.3 A 133.3 133.3 0 0 1 4333.3 4466.7 A 133.3 133.3 0 0 0 4466.7 4600.0 A 133.3 133.3 0 0 1 4600.0 4733.3 A 133.3 133.3 0 0 0 4733.3 4866.7 A 133.3 133.3 0 0 1 4866.7 5000.0 A 133.3 133.3 0 0 0 5000.0 5133.3 A 133.3 133.3 0 0 1 5133.3 5266.7 A 133.3 133.3 0 0 1 5000.0 5400.0 A 133.3 133.3 0 0 0 4866.7 5533.3 A 133.3 133.3 0 0 1 4733.3 5666.7 A 133.3 133.3 0 0 0 4600.0 5800.0 A 133.3 133.3 0 0 0 4733.3 5933.3 A 133.3 133.3 0 0 0 4866.7 5800.0 A 133.3 133.3 0 0 1 5000.0 5666.7 A 133.3 133.3 0 0 0 5133.3 5533.3 A 133.3 133.3 0 0 1 5266.7 5400.0 A 133.3 133.3 0 0 1 5400.0 5533.3 A 133.3 133.3 0 0 0 5533.3 5666.7 A 133.3 133.3 0 0 0 5666.7 5533.3 L 5666.7 5266.7 A 133.3 133.3 0 0 1 5800.0 5133.3 A 133.3 133.3 0 0 0 5933.3 5000.0 A 133.3 133.3 0 0 0 5800.0 4866.7 A 133.3 133.3 0 0 1 5666.7 4733.3 L 5666.7 4466.7 L 5666.7 4200.0 A 133.3 133.3 0 0 0 5533.3 4066.7 A 133.3 133.3 0 0 1 5400.0 3933.3 A 133.3 133.3 0 0 0 5266.7 3800.0 L 5200.0 3800.0 M 5066.7 3800.0 L 5000.0 3800.0 A 133.3 133.3 0 0 0 4866.7 3933.3 A 133.3 133.3 0 0 1 4733.3 4066.7 A 133.3 133.3 0 0 0 4600.0 4200.0 A 133.3 133.3 0 0 0 4733.3 4333.3 A 133.3 133.3 0 0 1 4866.7 4466.7 A 133.3 133.3 0 0 1 4733.3 4600.0 A 133.3 133.3 0 0 1 4600.0 4466.7 A 133.3 133.3 0 0 0 4466.7 4333.3 A 133.3 133.3 0 0 1 4333.3 4200.0 A 133.3 133.3 0 0 0 4200.0 4066.7 A 133.3 133.3 0 0 0 4066.7 4200.0 A 133.3 133.3 0 0 1 3933.3 4333.3 A 133.3 133.3 0 0 0 3800.0 4466.7 L 3800.0 4733.3 A 133.3 133.3 0 0 0 3933.3 4866.7 A 133.3 133.3 0 0 1 4066.7 5000.0 A 133.3 133.3 0 0 0 4200.0 5133.3 L 4266.7 5133.3 M 4400.0 5133.3 L 4466.7 5133.3 A 133.3 133.3 0 0 1 4600.0 5266.7 A 133.3 133.3 0 0 0 4733.3 5400.0 A 133.3 133.3 0 0 0 4866.7 5266.7 A 133.3 133.3 0 0 0 4733.3 5133.3 A 133.3 133.3 0 0 1 4600.0 5000.0 A 133.3 133.3 0 0 0 4466.7 4866.7 L 4400.0 4866.7 M 4266.7 4866.7 L 4200.0 4866.7 A 133.3 133.3 0 0 1 4066.7 4733.3 A 133.3 133.3 0 0 0 3933.3 4600.0 L 3866.7 4600.0 M 3733.3 4600.0 L 3666.7 4600.0 A 133.3 133.3 0 0 1 3533.3 4466.7 A 133.3 133.3 0 0 0 3400.0 4333.3 A 133.3 133.3 0 0 0 3266.7 4466.7 A 133.3 133.3 0 0 0 3400.0 4600.0 A 133.3 133.3 0 0 1 3533.3 4733.3 A 133.3 133.3 0 0 0 3666.7 4866.7 A 133.3 133.3 0 0 1 3800.0 5000.0 A 133.3 133.3 0 0 1 3666.7 5133.3 A 133.3 133.3 0 0 0 3533.3 5266.7 L 3533.3 5533.3 L 3533.3 5800.0 L 3533.3 6066.7 A 133.3 133.3 0 0 1 3400.0 6200.0 A 133.3 133.3 0 0 0 3266.7 6333.3 A 133.3 133.3 0 0 1 3133.3 6466.7 L 3066.7 6466.7 M 2933.3 6466.7 L 2866.7 6466.7 A 133.3 133.3 0 0 1 2733.3 6333.3 A 133.3 133.3 0 0 0 2600.0 6200.0 A 133.3 133.3 0 0 0 2466.7 6333.3 A 133.3 133.3 0 0 0 2600.0 6466.7 A 133.3 133.3 0 0 1 2733.3 6600.0 A 133.3 133.3 0 0 0 2866.7 6733.3 L 2933.3 6733.3 M 3066.7 6733.3 L 3133.3 6733.3 A 133.3 133.3 0 0 1 3266.7 6866.7 A 133.3 133.3 0 0 0 3400.0 7000.0 A 133.3 133.3 0 0 0 3533.3 6866.7 L 3533.3 6600.0 A 133.3 133.3 0 0 1 3666.7 6466.7 A 133.3 133.3 0 0 0 3800.0 6333.3 A 133.3 133.3 0 0 1 3933.3 6200.0 A 133.3 133.3 0 0 1 4066.7 6333.3 L 4066.7 6600.0 A 133.3 133.3 0 0 0 4200.0 6733.3 A 133.3 133.3 0 0 1 4333.3 6866.7 A 133.3 133.3 0 0 1 4200.0 7000.0 L 4133.3 7000.0 M 4000.0 7000.0 L 3933.3 7000.0 A 133.3 133.3 0 0 0 3800.0 7133.3 A 133.3 133.3 0 0 0 3933.3 7266.7 A 133.3 133.3 0 0 0 4066.7 7133.3 L 4066.7 6866.7 A 133.3 133.3 0 0 0 3933.3 6733.3 A 133.3 133.3 0 0 0 3800.0 6866.7 A 133.3 133.3 0 0 1 3666.7 7000.0 A 133.3 133.3 0 0 0 3533.3 7133.3 A 133.3 133.3 0 0 0 3666.7 7266.7 A 133.3 133.3 0 0 1 3800.0 7400.0 A 133.3 133.3 0 0 0 3933.3 7533.3 L 4000.0 7533.3 M 4133.3 7533.3 L 4200.0 7533.3 A 133.3 133.3 0 0 1 4333.3 7666.7 A 133.3 133.3 0 0 1 4200.0 7800.0 A 133.3 133.3 0 0 0 4066.7 7933.3 L 4066.7 8200.0 A 133.3 133.3 0 0 1 3933.3 8333.3 A 133.3 133.3 0 0 1 3800.0 8200.0 A 133.3 133.3 0 0 1 3933.3 8066.7 L 4000.0 8066.7 M 4133.3 8066.7 L 4200.0 8066.7 L 4266.7 8066.7 M 4400.0 8066.7 L 4466.7 8066.7 L 4533.3 8066.7 M 4666.7 8066.7 L 4733.3 8066.7 A 133.3 133.3 0 0 0 4866.7 7933.3 A 133.3 133.3 0 0 1 5000.0 7800.0 L 5066.7 7800.0 M 5200.0 7800.0 L 5266.7 7800.0 L 5333.3 7800.0 M 5466.7 7800.0 L 5533.3 7800.0 A 133.3 133.3 0 0 1 5666.7 7933.3 A 133.3 133.3 0 0 0 5800.0 8066.7 A 133.3 133.3 0 0 0 5933.3 7933.3 A 133.3 133.3 0 0 1 6066.7 7800.0 A 133.3 133.3 0 0 1 6200.0 7933.3 A 133.3 133.3 0 0 0 6333.3 8066.7 A 133.3 133.3 0 0 1 6466.7 8200.0 A 133.3 133.3 0 0 1 6333.3 8333.3 A 133.3 133.3 0 0 1 6200.0 8200.0 A 133.3 133.3 0 0 0 6066.7 8066.7 A 133.3 133.3 0 0 0 5933.3 8200.0 A 133.3 133.3 0 0 1 5800.0 8333.3 A 133.3 133.3 0 0 1 5666.7 8200.0 A 133.3 133.3 0 0 0 5533.3 8066.7 A 133.3 133.3 0 0 1 5400.0 7933.3 L 5400.0 7666.7 A 133.3 133.3 0 0 0 5266.7 7533.3 A 133.3 133.3 0 0 0 5133.3 7666.7 L 5133.3 7933.3 A 133.3 133.3 0 0 1 5000.0 8066.7 A 133.3 133.3 0 0 0 4866.7 8200.0 A 133.3 133.3 0 0 1 4733.3 8333.3 A 133.3 133.3 0 0 0 4600.0 8466.7 L 4600.0 8733.3 A 133.3 133.3 0 0 1 4466.7 8866.7 L 4400.0 8866.7 M 4266.7 8866.7 L 4200.0 8866.7 A 133.3 133.3 0 0 0 4066.7 9000.0" stroke="red" fill="none" stroke-width="10.0"/>
        <path d="M 3533.3 1000.0 A 133.3 133.3 0 0 0 3666.7 1133.3 A 133.3 133.3 0 0 1 3800.0 1266.7 A 133.3 133.3 0 0 0 3933.3 1400.0 A 133.3 133.3 0 0 0 4066.7 1266.7 A 133.3 133.3 0 0 0 3933.3 1133.3 A 133.3 133.3 0 0 1 3800.0 1000.0" stroke="red" fill="none" stroke-width="10.0"/>
        <path d="M 3800.0 1000.0" stroke="red" fill="none" stroke-width="10.0"/>
        <path d="M 4066.7 1000.0 A 133.3 133.3 0 0 0 4200.0 1133.3 L 4266.7 1133.3 M 4400.0 1133.3 L 4466.7 1133.3 A 133.3 133.3 0 0 0 4600.0 1000.0" stroke="red" fill="none" stroke-width="10.0"/>
        <path d="M 4333.3 1000.0 L 4333.3 1266.7 A 133.3 133.3 0 0 0 4466.7 1400.0 A 133.3 133.3 0 0 1 4600.0 1533.3 A 133.3 133.3 0 0 1 4466.7 1666.7 A 133.3 133.3 0 0 1 4333.3 1533.3 A 133.3 133.3 0 0 0 4200.0 1400.0 A 133.3 133.3 0 0 0 4066.7 1533.3 A 133.3 133.3 0 0 0 4200.0 1666.7 A 133.3 133.3 0 0 1 4333.3 1800.0 A 133.3 133.3 0 0 0 4466.7 1933.3 A 133.3 133.3 0 0 0 4600.0 1800.0 A 133.3 133.3 0 0 1 4733.3 1666.7 A 133.3 133.3 0 0 1 4866.7 1800.0 A 133.3 133.3 0 0 1 4733.3 1933.3 A 133.3 133.3 0 0 0 4600.0 2066.7 A 133.3 133.3 0 0 0 4733.3 2200.0 A 133.3 133.3 0 0 1 4866.7 2333.3 A 133.3 133.3 0 0 0 5000.0 2466.7 A 133.3 133.3 0 0 0 5133.3 2333.3 A 133.3 133.3 0 0 0 5000.0 2200.0 A 133.3 133.3 0 0 1 4866.7 2066.7 A 133.3 133.3 0 0 1 5000.0 1933.3 A 133.3 133.3 0 0 0 5133.3 1800.0 A 133.3 133.3 0 0 1 5266.7 1666.7 A 133.3 133.3 0 0 0 5400.0 1533.3 A 133.3 133.3 0 0 1 5533.3 1400.0 L 5600.0 1400.0 M 5733.3 1400.0 L 5800.0 1400.0 A 133.3 133.3 0 0 1 5933.3 1533.3 A 133.3 133.3 0 0 0 6066.7 1666.7 L 6133.3 1666.7 M 6266.7 1666.7 L 6333.3 1666.7 A 133.3 133.3 0 0 0 6466.7 1533.3 A 133.3 133.3 0 0 0 6333.3 1400.0 L 6266.7 1400.0 M 6133.3 1400.0 L 6066.7 1400.0 A 133.3 133.3 0 0 1 5933.3 1266.7 A 133.3 133.3 0 0 0 5800.0 1133.3 A 133.3 133.3 0 0 1 5666.7 1000.0" stroke="red" fill="none" stroke-width="10.0"/>
        <path d="M 4600.0 1000.0" stroke="red" fill="none" stroke-width="10.0"/>
        <path d="M 4866.7 1000.0 A 133.3 133.3 0 0 1 4733.3 1133.3 A 133.3 133.3 0 0 0 4600.0 1266.7 A 133.3 133.3 0 0 0 4733.3 1400.0 A 133.3 133.3 0 0 1 4866.7 1533.3 A 133.3 133.3 0 0 0 5000.0 1666.7 A 133.3 133.3 0 0 0 5133.3 1533.3 L 5133.3 1266.7 A 133.3 133.3 0 0 0 5000.0 1133.3 A 133.3 133.3 0 0 0 4866.7 1266.7 A 133.3 133.3 0 0 0 5000.0 1400.0 L 5066.7 1400.0 M 5200.0 1400.0 L 5266.7 1400.0 A 133.3 133.3 0 0 0 5400.0 1266.7 A 133.3 133.3 0 0 1 5533.3 1133.3 A 133.3 133.3 0 0 1 5666.7 1266.7 L 5666.7 1533.3 L 5666.7 1800.0 L 5666.7 2066.7 A 133.3 133.3 0 0 0 5800.0 2200.0 A 133.3 133.3 0 0 0 5933.3 2066.7 A 133.3 133.3 0 0 1 6066.7 1933.3 A 133.3 133.3 0 0 1 6200.0 2066.7 A 133.3 133.3 0 0 0 6333.3 2200.0 A 133.3 133.3 0 0 0 6466.7 2066.7 L 6466.7 1800.0 A 133.3 133.3 0 0 1 6600.0 1666.7 L 6666.7 1666.7 M 6800.0 1666.7 L 6866.7 1666.7 A 133.3 133.3 0 0 1 7000.0 1800.0 A 133.3 133.3 0 0 1 6866.7 1933.3 A 133.3 133.3 0 0 1 6733.3 1800.0 L 6733.3 1533.3 L 6733.3 1266.7 A 133.3 133.3 0 0 1 6866.7 1133.3 A 133.3 133.3 0 0 0 7000.0 1000.0" stroke="red" fill="none" stroke-width="10.0"/>
        <path d="M 5133.3 1000.0 A 133.3 133.3 0 0 0 5266.7 1133.3 A 133.3 133.3 0 0 0 5400.0 1000.0" stroke="red" fill="none" stroke-width="10.0"/>
        <path d="M 5400.0 1000.0" stroke="red" fill="none" stroke-width="10.0"/>
        <path d="M 5666.7 1000.0" stroke="red" fill="none" stroke-width="10.0"/>
        <path d="M 5933.3 1000.0 A 133.3 133.3 0 0 0 6066.7 1133.3 A 133.3 133.3 0 0 1 6200.0 1266.7 L 6200.0 1533.3 L 6200.0 1800.0 A 133.3 133.3 0 0 0 6333.3 1933.3 L 6400.0 1933.3 M 6533.3 1933.3 L 6600.0 1933.3 A 133.3 133.3 0 0 1 6733.3 2066.7 A 133.3 133.3 0 0 1 6600.0 2200.0 A 133.3 133.3 0 0 0 6466.7 2333.3 L 6466.7 2600.0 L 6466.7 2866.7 A 133.3 133.3 0 0 0 6600.0 3000.0 A 133.3 133.3 0 0 1 6733.3 3133.3 A 133.3 133.3 0 0 1 6600.0 3266.7 A 133.3 133.3 0 0 1 6466.7 3133.3 A 133.3 133.3 0 0 0 6333.3 3000.0 L 6266.7 3000.0 M 6133.3 3000.0 L 6066.7 3000.0 A 133.3 133.3 0 0 1 5933.3 2866.7 A 133.3 133.3 0 0 1 6066.7 2733.3 A 133.3 133.3 0 0 1 6200.0 2866.7 L 6200.0 3133.3 A 133.3 133.3 0 0 0 6333.3 3266.7 A 133.3 133.3 0 0 1 6466.7 3400.0 A 133.3 133.3 0 0 0 6600.0 3533.3 A 133.3 133.3 0 0 1 6733.3 3666.7 A 133.3 133.3 0 0 1 6600.0 3800.0 A 133.3 133.3 0 0 0 6466.7 3933.3 A 133.3 133.3 0 0 0 6600.0 4066.7 A 133.3 133.3 0 0 0 6733.3 3933.3 A 133.3 133.3 0 0 1 6866.7 3800.0 A 133.3 133.3 0 0 0 7000.0 3666.7 A 133.3 133.3 0 0 1 7133.3 3533.3 A 133.3 133.3 0 0 0 7266.7 3400.0 A 133.3 133.3 0 0 1 7400.0 3266.7 A 133.3 133.3 0 0 1 7533.3 3400.0 A 133.3 133.3 0 0 1 7400.0 3533.3 A 133.3 133.3 0 0 0 7266.7 3666.7 A 133.3 133.3 0 0 0 7400.0 3800.0 A 133.3 133.3 0 0 0 7533.3 3666.7 A 133.3 133.3 0 0 1 7666.7 3533.3 A 133.3 133.3 0 0 0 7800.0 3400.0 A 133.3 133.3 0 0 0 7666.7 3266.7 A 133.3 133.3 0 0 1 7533.3 3133.3 L 7533.3 2866.7 A 133.3 133.3 0 0 1 7666.7 2733.3 A 133.3 133.3 0 0 1 7800.0 2866.7 A 133.3 133.3 0 0 0 7933.3 3000.0 A 133.3 133.3 0 0 1 8066.7 3133.3 A 133.3 133.3 0 0 0 8200.0 3266.7 L 8266.7 3266.7 M 8400.0 3266.7 L 8466.7 3266.7 A 133.3 133.3 0 0 1 8600.0 3400.0 A 133.3 133.3 0 0 1 8466.7 3533.3 A 133.3 133.3 0 0 0 8333.3 3666.7 A 133.3 133.3 0 0 1 8200.0 3800.0 A 133.3 133.3 0 0 1 8066.7 3666.7 L 8066.7 3400.0 A 133.3 133.3 0 0 0 7933.3 3266.7 A 133.3 133.3 0 0 1 7800.0 3133.3 A 133.3 133.3 0 0 0 7666.7 3000.0 L 7600.0 3000.0 M 7466.7 3000.0 L 7400.0 3000.0 A 133.3 133.3 0 0 0 7266.7 3133.3 A 133.3 133.3 0 0 1 7133.3 3266.7 A 133.3 133.3 0 0 0 7000.0 3400.0 A 133.3 133.3 0 0 1 6866.7 3533.3 A 133.3 133.3 0 0 1 6733.3 3400.0 A 133.3 133.3 0 0 1 6866.7 3266.7 A 133.3 133.3 0 0 0 7000.0 3133.3 A 133.3 133.3 0 0 0 6866.7 3000.0 A 133.3 133.3 0 0 1 6733.3 2866.7 A 133.3 133.3 0 0 0 6600.0 2733.3 L 6533.3 2733.3 M 6400.0 2733.3 L 6333.3 2733.3 A 133.3 133.3 0 0 1 6200.0 2600.0 A 133.3 133.3 0 0 1 6333.3 2466.7 L 6400.0 2466.7 M 6533.3 2466.7 L 6600.0 2466.7 A 133.3 133.3 0 0 0 6733.3 2333.3 A 133.3 133.3 0 0 1 6866.7 2200.0 L 6933.3 2200.0 M 7066.7 2200.0 L 7133.3 2200.0 L 7200.0 2200.0 M 7333.3 2200.0 L 7400.0 2200.0 A 133.3 133.3 0 0 1 7533.3 2333.3 A 133.3 133.3 0 0 0 7666.7 2466.7 L 7733.3 2466.7 M 7866.7 2466.7 L 7933.3 2466.7 L 8000.0 2466.7 M 8133.3 2466.7 L 8200.0 2466.7 A 133.3 133.3 0 0 1 8333.3 2600.0 A 133.3 133.3 0 0 0 8466.7 2733.3 L 8533.3 2733.3 M 8666.7 2733.3 L 8733.3 2733.3 A 133.3 133.3 0 0 1 8866.7 2866.7 L 8866.7 3133.3 A 133.3 133.3 0 0 1 8733.3 3266.7 A 133.3 133.3 0 0 1 8600.0 3133.3 A 133.3 133.3 0 0 1 8733.3 3000.0 L 8800.0 3000.0 M 8933.3 3000.0 L 9000.0 3000.0" stroke="red" fill="none" stroke-width="10.0"/>
        <path d="M 6200.0 1000.0 A 133.3 133.3 0 0 0 6333.3 1133.3 A 133.3 133.3 0 0 1 6466.7 1266.7 A 133.3 133.3 0 0 0 6600.0 1400.0 L 6666.7 1400.0 M 6800.0 1400.0 L 6866.7 1400.0 A 133.3 133.3 0 0 0 7000.0 1266.7 A 133.3 133.3 0 0 1 7133.3 1133.3 A 133.3 133.3 0 0 1 7266.7 1266.7 A 133.3 133.3 0 0 0 7400.0 1400.0 A 133.3 133.3 0 0 1 7533.3 1533.3 A 133.3 133.3 0 0 0 7666.7 1666.7 A 133.3 133.3 0 0 0 7800.0 1533.3 L 7800.0 1266.7 L 7800.0 1000.0" stroke="red" fill="none" stroke-width="10.0"/>
        <path d="M 6466.7 1000.0 A 133.3 133.3 0 0 0 6600.0 1133.3 A 133.3 133.3 0 0 0 6733.3 1000.0" stroke="red" fill="none" stroke-width="10.0"/>
        <path d="M 6733.3 1000.0" stroke="red" fill="none" stroke-width="10.0"/>
        <path d="M 7000.0 1000.0" stroke="red" fill="none" stroke-width="10.0"/>
        <path d="M 7266.7 1000.0 A 133.3 133.3 0 0 0 7400.0 1133.3 A 133.3 133.3 0 0 1 7533.3 1266.7 A 133.3 133.3 0 0 0 7666.7 1400.0 L 7733.3 1400.0 M 7866.7 1400.0 L 7933.3 1400.0 A 133.3 133.3 0 0 1 8066.7 1533.3 A 133.3 133.3 0 0 0 8200.0 1666.7 A 133.3 133.3 0 0 0 8333.3 1533.3 A 133.3 133.3 0 0 1 8466.7 1400.0 A 133.3 133.3 0 0 1 8600.0 1533.3 A 133.3 133.3 0 0 1 8466.7 1666.7 A 133.3 133.3 0 0 0 8333.3 1800.0 L 8333.3 2066.7 A 133.3 133.3 0 0 1 8200.0 2200.0 A 133.3 133.3 0 0 1 8066.7 2066.7 A 133.3 133.3 0 0 0 7933.3 1933.3 A 133.3 133.3 0 0 1 7800.0 1800.0 A 133.3 133.3 0 0 1 7933.3 1666.7 A 133.3 133.3 0 0 1 8066.7 1800.0 A 133.3 133.3 0 0 0 8200.0 1933.3 L 8266.7 1933.3 M 8400.0 1933.3 L 8466.7 1933.3 A 133.3 133.3 0 0 1 8600.0 2066.7 A 133.3 133.3 0 0 0 8733.3 2200.0 A 133.3 133.3 0 0 1 8866.7 2333.3 A 133.3 133.3 0 0 0 9000.0 2466.7" stroke="red" fill="none" stroke-width="10.0"/>
        <path d="M 7533.3 1000.0 A 133.3 133.3 0 0 0 7666.7 1133.3 L 7733.3 1133.3 M 7866.7 1133.3 L 7933.3 1133.3 A 133.3 133.3 0 0 1 8066.7 1266.7 A 133.3 133.3 0 0 0 8200.0 1400.0 A 133.3 133.3 0 0 0 8333.3 1266.7 L 8333.3 1000.0" stroke="red" fill="none" stroke-width="10.0"/>
        <path d="M 7800.0 1000.0" stroke="red" fill="none" stroke-width="10.0"/>
        <path d="M 8066.7 1000.0 A 133.3 133.3 0 0 0 8200.0 1133.3 L 8266.7 1133.3 M 8400.0 1133.3 L 8466.7 1133.3 A 133.3 133.3 0 0 0 8600.0 1000.0" stroke="red" fill="none" stroke-width="10.0"/>
        <path d="M 8333.3 1000.0" stroke="red" fill="none" stroke-width="10.0"/>
        <path d="M 8600.0 1000.0" stroke="red" fill="none" stroke-width="10.0"/>
        <path d="M 8866.7 1000.0 A 133.3 133.3 0 0 0 9000.0 1133.3" stroke="red" fill="none" stroke-width="10.0"/>
        <path d="M 9000.0 1133.3" stroke="red" fill="none" stroke-width="10.0"/>
        <path d="M 9000.0 1400.0 L 8933.3 1400.0 M 8800.0 1400.0 L 8733.3 1400.0 A 133.3 133.3 0 0 1 8600.0 1266.7 A 133.3 133.3 0 0 1 8733.3 1133.3 A 133.3 133.3 0 0 1 8866.7 1266.7 L 8866.7 1533.3 A 133.3 133.3 0 0 1 8733.3 1666.7 A 133.3 133.3 0 0 0 8600.0 1800.0 A 133.3 133.3 0 0 0 8733.3 1933.3 A 133.3 133.3 0 0 1 8866.7 2066.7 A 133.3 133.3 0 0 0 9000.0 2200.0" stroke="red" fill="none" stroke-width="10.0"/>
        <path d="M 9000.0 1666.7 A 133.3 133.3 0 0 0 8866.7 1800.0 A 133.3 133.3 0 0 0 9000.0 1933.3" stroke="red" fill="none" stroke-width="10.0"/>
        <path d="M 9000.0 1933.3" stroke="red" fill="none" stroke-width="10.0"/>
        <path d="M 9000.0 2200.0" stroke="red" fill="none" stroke-width="10.0"/>
        <path d="M 9000.0 2466.7" stroke="red" fill="none" stroke-width="10.0"/>
        <path d="M 9000.0 2733.3 A 133.3 133.3 0 0 1 8866.7 2600.0 A 133.3 133.3 0 0 0 8733.3 2466.7 A 133.3 133.3 0 0 1 8600.0 2333.3 A 133.3 133.3 0 0 0 8466.7 2200.0 A 133.3 133.3 0 0 0 8333.3 2333.3 A 133.3 133.3 0 0 0 8466.7 2466.7 A 133.3 133.3 0 0 1 8600.0 2600.0 L 8600.0 2866.7 A 133.3 133.3 0 0 1 8466.7 3000.0 A 133.3 133.3 0 0 1 8333.3 2866.7 A 133.3 133.3 0 0 0 8200.0 2733.3 A 133.3 133.3 0 0 0 8066.7 2866.7 A 133.3 133.3 0 0 0 8200.0 3000.0 A 133.3 133.3 0 0 1 8333.3 3133.3 L 8333.3 3400.0 A 133.3 133.3 0 0 1 8200.0 3533.3 L 8133.3 3533.3 M 8000.0 3533.3 L 7933.3 3533.3 A 133.3 133.3 0 0 0 7800.0 3666.7 A 133.3 133.3 0 0 1 7666.7 3800.0 A 133.3 133.3 0 0 0 7533.3 3933.3 A 133.3 133.3 0 0 1 7400.0 4066.7 A 133.3 133.3 0 0 0 7266.7 4200.0 A 133.3 133.3 0 0 0 7400.0 4333.3 A 133.3 133.3 0 0 0 7533.3 4200.0 A 133.3 133.3 0 0 1 7666.7 4066.7 A 133.3 133.3 0 0 1 7800.0 4200.0 A 133.3 133.3 0 0 1 7666.7 4333.3 A 133.3 133.3 0 0 0 7533.3 4466.7 A 133.3 133.3 0 0 1 7400.0 4600.0 A 133.3 133.3 0 0 1 7266.7 4466.7 A 133.3 133.3 0 0 0 7133.3 4333.3 A 133.3 133.3 0 0 0 7000.0 4466.7 L 7000.0 4733.3 A 133.3 133.3 0 0 0 7133.3 4866.7 A 133.3 133.3 0 0 0 7266.7 4733.3 A 133.3 133.3 0 0 0 7133.3 4600.0 L 7066.7 4600.0 M 6933.3 4600.0 L 6866.7 4600.0 A 133.3 133.3 0 0 1 6733.3 4466.7 A 133.3 133.3 0 0 1 6866.7 4333.3 A 133.3 133.3 0 0 0 7000.0 4200.0 A 133.3 133.3 0 0 0 6866.7 4066.7 A 133.3 133.3 0 0 0 6733.3 4200.0 A 133.3 133.3 0 0 1 6600.0 4333.3 A 133.3 133.3 0 0 1 6466.7 4200.0 A 133.3 133.3 0 0 0 6333.3 4066.7 A 133.3 133.3 0 0 1 6200.0 3933.3 A 133.3 133.3 0 0 0 6066.7 3800.0 A 133.3 133.3 0 0 0 5933.3 3933.3 A 133.3 133.3 0 0 0 6066.7 4066.7 A 133.3 133.3 0 0 1 6200.0 4200.0 A 133.3 133.3 0 0 1 6066.7 4333.3 A 133.3 133.3 0 0 1 5933.3 4200.0 A 133.3 133.3 0 0 0 5800.0 4066.7 A 133.3 133.3 0 0 1 5666.7 3933.3 A 133.3 133.3 0 0 0 5533.3 3800.0 A 133.3 133.3 0 0 1 5400.0 3666.7 A 133.3 133.3 0 0 1 5533.3 3533.3 A 133.3 133.3 0 0 1 5666.7 3666.7 A 133.3 133.3 0 0 0 5800.0 3800.0 A 133.3 133.3 0 0 0 5933.3 3666.7 A 133.3 133.3 0 0 0 5800.0 3533.3 A 133.3 133.3 0 0 1 5666.7 3400.0 A 133.3 133.3 0 0 1 5800.0 3266.7 L 5866.7 3266.7 M 6000.0 3266.7 L 6066.7 3266.7 A 133.3 133.3 0 0 1 6200.0 3400.0 A 133.3 133.3 0 0 0 6333.3 3533.3 A 133.3 133.3 0 0 1 6466.7 3666.7 A 133.3 133.3 0 0 1 6333.3 3800.0 A 133.3 133.3 0 0 1 6200.0 3666.7 A 133.3 133.3 0 0 0 6066.7 3533.3 A 133.3 133.3 0 0 1 5933.3 3400.0 L 5933.3 3133.3 A 133.3 133.3 0 0 0 5800.0 3000.0 L 5733.3 3000.0 M 5600.0 3000.0 L 5533.3 3000.0 A 133.3 133.3 0 0 0 5400.0 3133.3 A 133.3 133.3 0 0 0 5533.3 3266.7 A 133.3 133.3 0 0 0 5666.7 3133.3 L 5666.7 2866.7 A 133.3 133.3 0 0 0 5533.3 2733.3 L 5466.7 2733.3 M 5333.3 2733.3 L 5266.7 2733.3 A 133.3 133.3 0 0 0 5133.3 2866.7 A 133.3 133.3 0 0 1 5000.0 3000.0 A 133.3 133.3 0 0 1 4866.7 2866.7 A 133.3 133.3 0 0 1 5000.0 2733.3 A 133.3 133.3 0 0 0 5133.3 2600.0 A 133.3 133.3 0 0 1 5266.7 2466.7 A 133.3 133.3 0 0 0 5400.0 2333.3 A 133.3 133.3 0 0 1 5533.3 2200.0 A 133.3 133.3 0 0 1 5666.7 2333.3 A 133.3 133.3 0 0 0 5800.0 2466.7 A 133.3 133.3 0 0 1 5933.3 2600.0 A 133.3 133.3 0 0 1 5800.0 2733.3 A 133.3 133.3 0 0 1 5666.7 2600.0 A 133.3 133.3 0 0 0 5533.3 2466.7 A 133.3 133.3 0 0 0 5400.0 2600.0 L 5400.0 2866.7 A 133.3 133.3 0 0 1 5266.7 3000.0 A 133.3 133.3 0 0 0 5133.3 3133.3 A 133.3 133.3 0 0 0 5266.7 3266.7 A 133.3 133.3 0 0 1 5400.0 3400.0 A 133.3 133.3 0 0 1 5266.7 3533.3 A 133.3 133.3 0 0 1 5133.3 3400.0 A 133.3 133.3 0 0 0 5000.0 3266.7 A 133.3 133.3 0 0 0 4866.7 3400.0 A 133.3 133.3 0 0 1 4733.3 3533.3 L 4666.7 3533.3 M 4533.3 3533.3 L 4466.7 3533.3 L 4400.0 3533.3 M 4266.7 3533.3 L 4200.0 3533.3 A 133.3 133.3 0 0 0 4066.7 3666.7 A 133.3 133.3 0 0 1 3933.3 3800.0 L 3866.7 3800.0 M 3733.3 3800.0 L 3666.7 3800.0 A 133.3 133.3 0 0 1 3533.3 3666.7 A 133.3 133.3 0 0 1 3666.7 3533.3 A 133.3 133.3 0 0 1 3800.0 3666.7 L 3800.0 3933.3 A 133.3 133.3 0 0 0 3933.3 4066.7 A 133.3 133.3 0 0 0 4066.7 3933.3 A 133.3 133.3 0 0 1 4200.0 3800.0 A 133.3 133.3 0 0 0 4333.3 3666.7 L 4333.3 3400.0 L 4333.3 3133.3 L 4333.3 2866.7 A 133.3 133.3 0 0 1 4466.7 2733.3 A 133.3 133.3 0 0 0 4600.0 2600.0 A 133.3 133.3 0 0 0 4466.7 2466.7 A 133.3 133.3 0 0 1 4333.3 2333.3 A 133.3 133.3 0 0 1 4466.7 2200.0 A 133.3 133.3 0 0 1 4600.0 2333.3 A 133.3 133.3 0 0 0 4733.3 2466.7 A 133.3 133.3 0 0 1 4866.7 2600.0 A 133.3 133.3 0 0 1 4733.3 2733.3 A 133.3 133.3 0 0 0 4600.0 2866.7 A 133.3 133.3 0 0 0 4733.3 3000.0 A 133.3 133.3 0 0 1 4866.7 3133.3 A 133.3 133.3 0 0 1 4733.3 3266.7 A 133.3 133.3 0 0 0 4600.0 3400.0 L 4600.0 3666.7 A 133.3 133.3 0 0 0 4733.3 3800.0 A 133.3 133.3 0 0 0 4866.7 3666.7 A 133.3 133.3 0 0 1 5000.0 3533.3 A 133.3 133.3 0 0 1 5133.3 3666.7 L 5133.3 3933.3 A 133.3 133.3 0 0 1 5000.0 4066.7 A 133.3 133.3 0 0 0 4866.7 4200.0 A 133.3 133.3 0 0 0 5000.0 4333.3 A 133.3 133.3 0 0 0 5133.3 4200.0 A 133.3 133.3 0 0 1 5266.7 4066.7 A 133.3 133.3 0 0 1 5400.0 4200.0 A 133.3 133.3 0 0 1 5266.7 4333.3 A 133.3 133.3 0 0 0 5133.3 4466.7 A 133.3 133.3 0 0 1 5000.0 4600.0 A 133.3 133.3 0 0 0 4866.7 4733.3 A 133.3 133.3 0 0 0 5000.0 4866.7 A 133.3 133.3 0 0 1 5133.3 5000.0 A 133.3 133.3 0 0 0 5266.7 5133.3 A 133.3 133.3 0 0 0 5400.0 5000.0 A 133.3 133.3 0 0 0 5266.7 4866.7 A 133.3 133.3 0 0 1 5133.3 4733.3 A 133.3 133.3 0 0 1 5266.7 4600.0 A 133.3 133.3 0 0 1 5400.0 4733.3 A 133.3 133.3 0 0 0 5533.3 4866.7 A 133.3 133.3 0 0 1 5666.7 5000.0 A 133.3 133.3 0 0 1 5533.3 5133.3 A 133.3 133.3 0 0 0 5400.0 5266.7 A 133.3 133.3 0 0 0 5533.3 5400.0 L 5600.0 5400.0 M 5733.3 5400.0 L 5800.0 5400.0 A 133.3 133.3 0 0 0 5933.3 5266.7 A 133.3 133.3 0 0 1 6066.7 5133.3 L 6133.3 5133.3 M 6266.7 5133.3 L 6333.3 5133.3 L 6400.0 5133.3 M 6533.3 5133.3 L 6600.0 5133.3 A 133.3 133.3 0 0 0 6733.3 5000.0 L 6733.3 4733.3 A 133.3 133.3 0 0 0 6600.0 4600.0 A 133.3 133.3 0 0 0 6466.7 4733.3 A 133.3 133.3 0 0 1 6333.3 4866.7 L 6266.7 4866.7 M 6133.3 4866.7 L 6066.7 4866.7 A 133.3 133.3 0 0 1 5933.3 4733.3 L 5933.3 4466.7 A 133.3 133.3 0 0 0 5800.0 4333.3 L 5733.3 4333.3 M 5600.0 4333.3 L 5533.3 4333.3 A 133.3 133.3 0 0 0 5400.0 4466.7 A 133.3 133.3 0 0 0 5533.3 4600.0 L 5600.0 4600.0 M 5733.3 4600.0 L 5800.0 4600.0 L 5866.7 4600.0 M 6000.0 4600.0 L 6066.7 4600.0 A 133.3 133.3 0 0 0 6200.0 4466.7 A 133.3 133.3 0 0 1 6333.3 4333.3 A 133.3 133.3 0 0 1 6466.7 4466.7 A 133.3 133.3 0 0 1 6333.3 4600.0 A 133.3 133.3 0 0 0 6200.0 4733.3 L 6200.0 5000.0 L 6200.0 5266.7 A 133.3 133.3 0 0 0 6333.3 5400.0 A 133.3 133.3 0 0 1 6466.7 5533.3 A 133.3 133.3 0 0 0 6600.0 5666.7 L 6666.7 5666.7 M 6800.0 5666.7 L 6866.7 5666.7 A 133.3 133.3 0 0 0 7000.0 5533.3 A 133.3 133.3 0 0 0 6866.7 5400.0 L 6800.0 5400.0 M 6666.7 5400.0 L 6600.0 5400.0 A 133.3 133.3 0 0 1 6466.7 5266.7 L 6466.7 5000.0 A 133.3 133.3 0 0 1 6600.0 4866.7 L 6666.7 4866.7 M 6800.0 4866.7 L 6866.7 4866.7 A 133.3 133.3 0 0 1 7000.0 5000.0 A 133.3 133.3 0 0 0 7133.3 5133.3 A 133.3 133.3 0 0 1 7266.7 5266.7 A 133.3 133.3 0 0 1 7133.3 5400.0 A 133.3 133.3 0 0 1 7000.0 5266.7 A 133.3 133.3 0 0 0 6866.7 5133.3 A 133.3 133.3 0 0 0 6733.3 5266.7 L 6733.3 5533.3 L 6733.3 5800.0 A 133.3 133.3 0 0 0 6866.7 5933.3 A 133.3 133.3 0 0 1 7000.0 6066.7 L 7000.0 6333.3 A 133.3 133.3 0 0 1 6866.7 6466.7 A 133.3 133.3 0 0 0 6733.3 6600.0 A 133.3 133.3 0 0 1 6600.0 6733.3 A 133.3 133.3 0 0 1 6466.7 6600.0 A 133.3 133.3 0 0 1 6600.0 6466.7 A 133.3 133.3 0 0 0 6733.3 6333.3 A 133.3 133.3 0 0 1 6866.7 6200.0 L 6933.3 6200.0 M 7066.7 6200.0 L 7133.3 6200.0 A 133.3 133.3 0 0 0 7266.7 6066.7 A 133.3 133.3 0 0 0 7133.3 5933.3 A 133.3 133.3 0 0 1 7000.0 5800.0 A 133.3 133.3 0 0 1 7133.3 5666.7 A 133.3 133.3 0 0 1 7266.7 5800.0 A 133.3 133.3 0 0 0 7400.0 5933.3 A 133.3 133.3 0 0 0 7533.3 5800.0 A 133.3 133.3 0 0 1 7666.7 5666.7 A 133.3 133.3 0 0 1 7800.0 5800.0 A 133.3 133.3 0 0 1 7666.7 5933.3 A 133.3 133.3 0 0 0 7533.3 6066.7 A 133.3 133.3 0 0 0 7666.7 6200.0 A 133.3 133.3 0 0 1 7800.0 6333.3 A 133.3 133.3 0 0 1 7666.7 6466.7 A 133.3 133.3 0 0 0 7533.3 6600.0 A 133.3 133.3 0 0 1 7400.0 6733.3 A 133.3 133.3 0 0 1 7266.7 6600.0 L 7266.7 6333.3 A 133.3 133.3 0 0 1 7400.0 6200.0 A 133.3 133.3 0 0 1 7533.3 6333.3 A 133.3 133.3 0 0 1 7400.0 6466.7 L 7333.3 6466.7 M 7200.0 6466.7 L 7133.3 6466.7 A 133.3 133.3 0 0 0 7000.0 6600.0 A 133.3 133.3 0 0 0 7133.3 6733.3 A 133.3 133.3 0 0 1 7266.7 6866.7 A 133.3 133.3 0 0 0 7400.0 7000.0 L 7466.7 7000.0 M 7600.0 7000.0 L 7666.7 7000.0 A 133.3 133.3 0 0 1 7800.0 7133.3 A 133.3 133.3 0 0 0 7933.3 7266.7 A 133.3 133.3 0 0 1 8066.7 7400.0 A 133.3 133.3 0 0 0 8200.0 7533.3 A 133.3 133.3 0 0 0 8333.3 7400.0 L 8333.3 7133.3 A 133.3 133.3 0 0 1 8466.7 7000.0 A 133.3 133.3 0 0 1 8600.0 7133.3 A 133.3 133.3 0 0 1 8466.7 7266.7 L 8400.0 7266.7 M 8266.7 7266.7 L 8200.0 7266.7 A 133.3 133.3 0 0 1 8066.7 7133.3 A 133.3 133.3 0 0 0 7933.3 7000.0 A 133.3 133.3 0 0 1 7800.0 6866.7 A 133.3 133.3 0 0 1 7933.3 6733.3 A 133.3 133.3 0 0 0 8066.7 6600.0 A 133.3 133.3 0 0 1 8200.0 6466.7 A 133.3 133.3 0 0 0 8333.3 6333.3 A 133.3 133.3 0 0 1 8466.7 6200.0 A 133.3 133.3 0 0 0 8600.0 6066.7 A 133.3 133.3 0 0 1 8733.3 5933.3 A 133.3 133.3 0 0 1 8866.7 6066.7 L 8866.7 6333.3 L 8866.7 6600.0 A 133.3 133.3 0 0 1 8733.3 6733.3 A 133.3 133.3 0 0 1 8600.0 6600.0 A 133.3 133.3 0 0 1 8733.3 6466.7 L 8800.0 6466.7 M 8933.3 6466.7 L 9000.0 6466.7" stroke="red" fill="none" stroke-width="10.0"/>
        <path d="M 9000.0 3000.0" stroke="red" fill="none" stroke-width="10.0"/>
        <path d="M 9000.0 3266.7 A 133.3 133.3 0 0 0 8866.7 3400.0 A 133.3 133.3 0 0 1 8733.3 3533.3 A 133.3 133.3 0 0 0 8600.0 3666.7 L 8600.0 3933.3 A 133.3 133.3 0 0 1 8466.7 4066.7 A 133.3 133.3 0 0 0 8333.3 4200.0 A 133.3 133.3 0 0 1 8200.0 4333.3 A 133.3 133.3 0 0 1 8066.7 4200.0 A 133.3 133.3 0 0 1 8200.0 4066.7 A 133.3 133.3 0 0 0 8333.3 3933.3 A 133.3 133.3 0 0 1 8466.7 3800.0 L 8533.3 3800.0 M 8666.7 3800.0 L 8733.3 3800.0 A 133.3 133.3 0 0 1 8866.7 3933.3 L 8866.7 4200.0 A 133.3 133.3 0 0 0 9000.0 4333.3" stroke="red" fill="none" stroke-width="10.0"/>
        <path d="M 9000.0 3533.3 A 133.3 133.3 0 0 0 8866.7 3666.7 A 133.3 133.3 0 0 0 9000.0 3800.0" stroke="red" fill="none" stroke-width="10.0"/>
        <path d="M 9000.0 3800.0" stroke="red" fill="none" stroke-width="10.0"/>
        <path d="M 9000.0 4066.7 L 8933.3 4066.7 M 8800.0 4066.7 L 8733.3 4066.7 A 133.3 133.3 0 0 0 8600.0 4200.0 A 133.3 133.3 0 0 0 8733.3 4333.3 A 133.3 133.3 0 0 1 8866.7 4466.7 A 133.3 133.3 0 0 1 8733.3 4600.0 A 133.3 133.3 0 0 0 8600.0 4733.3 A 133.3 133.3 0 0 1 8466.7 4866.7 L 8400.0 4866.7 M 8266.7 4866.7 L 8200.0 4866.7 A 133.3 133.3 0 0 0 8066.7 5000.0 A 133.3 133.3 0 0 1 7933.3 5133.3 A 133.3 133.3 0 0 0 7800.0 5266.7 A 133.3 133.3 0 0 0 7933.3 5400.0 A 133.3 133.3 0 0 0 8066.7 5266.7 A 133.3 133.3 0 0 1 8200.0 5133.3 A 133.3 133.3 0 0 0 8333.3 5000.0 L 8333.3 4733.3 L 8333.3 4466.7 A 133.3 133.3 0 0 1 8466.7 4333.3 A 133.3 133.3 0 0 1 8600.0 4466.7 A 133.3 133.3 0 0 1 8466.7 4600.0 L 8400.0 4600.0 M 8266.7 4600.0 L 8200.0 4600.0 A 133.3 133.3 0 0 1 8066.7 4466.7 A 133.3 133.3 0 0 0 7933.3 4333.3 A 133.3 133.3 0 0 0 7800.0 4466.7 A 133.3 133.3 0 0 0 7933.3 4600.0 A 133.3 133.3 0 0 1 8066.7 4733.3 A 133.3 133.3 0 0 1 7933.3 4866.7 A 133.3 133.3 0 0 1 7800.0 4733.3 A 133.3 133.3 0 0 0 7666.7 4600.0 A 133.3 133.3 0 0 0 7533.3 4733.3 A 133.3 133.3 0 0 0 7666.7 4866.7 A 133.3 133.3 0 0 1 7800.0 5000.0 A 133.3 133.3 0 0 1 7666.7 5133.3 L 7600.0 5133.3 M 7466.7 5133.3 L 7400.0 5133.3 A 133.3 133.3 0 0 1 7266.7 5000.0 A 133.3 133.3 0 0 1 7400.0 4866.7 A 133.3 133.3 0 0 1 7533.3 5000.0 L 7533.3 5266.7 A 133.3 133.3 0 0 0 7666.7 5400.0 A 133.3 133.3 0 0 1 7800.0 5533.3 A 133.3 133.3 0 0 0 7933.3 5666.7 A 133.3 133.3 0 0 1 8066.7 5800.0 A 133.3 133.3 0 0 1 7933.3 5933.3 A 133.3 133.3 0 0 0 7800.0 6066.7 A 133.3 133.3 0 0 0 7933.3 6200.0 A 133.3 133.3 0 0 1 8066.7 6333.3 A 133.3 133.3 0 0 1 7933.3 6466.7 A 133.3 133.3 0 0 0 7800.0 6600.0 A 133.3 133.3 0 0 1 7666.7 6733.3 A 133.3 133.3 0 0 0 7533.3 6866.7 L 7533.3 7133.3 L 7533.3 7400.0 A 133.3 133.3 0 0 1 7400.0 7533.3 L 7333.3 7533.3 M 7200.0 7533.3 L 7133.3 7533.3 A 133.3 133.3 0 0 1 7000.0 7400.0 A 133.3 133.3 0 0 1 7133.3 7266.7 A 133.3 133.3 0 0 0 7266.7 7133.3 A 133.3 133.3 0 0 0 7133.3 7000.0 A 133.3 133.3 0 0 0 7000.0 7133.3 A 133.3 133.3 0 0 1 6866.7 7266.7 A 133.3 133.3 0 0 0 6733.3 7400.0 A 133.3 133.3 0 0 1 6600.0 7533.3 A 133.3 133.3 0 0 1 6466.7 7400.0 L 6466.7 7133.3 A 133.3 133.3 0 0 1 6600.0 7000.0 L 6666.7 7000.0 M 6800.0 7000.0 L 6866.7 7000.0 A 133.3 133.3 0 0 0 7000.0 6866.7 A 133.3 133.3 0 0 0 6866.7 6733.3 A 133.3 133.3 0 0 0 6733.3 6866.7 L 6733.3 7133.3 A 133.3 133.3 0 0 1 6600.0 7266.7 L 6533.3 7266.7 M 6400.0 7266.7 L 6333.3 7266.7 A 133.3 133.3 0 0 0 6200.0 7400.0 A 133.3 133.3 0 0 0 6333.3 7533.3 A 133.3 133.3 0 0 1 6466.7 7666.7 A 133.3 133.3 0 0 0 6600.0 7800.0 A 133.3 133.3 0 0 0 6733.3 7666.7 A 133.3 133.3 0 0 1 6866.7 7533.3 A 133.3 133.3 0 0 1 7000.0 7666.7 A 133.3 133.3 0 0 0 7133.3 7800.0 A 133.3 133.3 0 0 0 7266.7 7666.7 L 7266.7 7400.0 A 133.3 133.3 0 0 1 7400.0 7266.7 L 7466.7 7266.7 M 7600.0 7266.7 L 7666.7 7266.7 A 133.3 133.3 0 0 1 7800.0 7400.0 A 133.3 133.3 0 0 0 7933.3 7533.3 A 133.3 133.3 0 0 1 8066.7 7666.7 L 8066.7 7933.3 A 133.3 133.3 0 0 0 8200.0 8066.7 A 133.3 133.3 0 0 0 8333.3 7933.3 A 133.3 133.3 0 0 1 8466.7 7800.0 A 133.3 133.3 0 0 1 8600.0 7933.3 A 133.3 133.3 0 0 1 8466.7 8066.7 A 133.3 133.3 0 0 0 8333.3 8200.0 L 8333.3 8466.7 A 133.3 133.3 0 0 1 8200.0 8600.0 A 133.3 133.3 0 0 1 8066.7 8466.7 L 8066.7 8200.0 A 133.3 133.3 0 0 0 7933.3 8066.7 L 7866.7 8066.7 M 7733.3 8066.7 L 7666.7 8066.7 A 133.3 133.3 0 0 0 7533.3 8200.0 A 133.3 133.3 0 0 0 7666.7 8333.3 A 133.3 133.3 0 0 0 7800.0 8200.0 L 7800.0 7933.3 A 133.3 133.3 0 0 0 7666.7 7800.0 L 7600.0 7800.0 M 7466.7 7800.0 L 7400.0 7800.0 A 133.3 133.3 0 0 0 7266.7 7933.3 A 133.3 133.3 0 0 1 7133.3 8066.7 L 7066.7 8066.7 M 6933.3 8066.7 L 6866.7 8066.7 L 6800.0 8066.7 M 6666.7 8066.7 L 6600.0 8066.7 A 133.3 133.3 0 0 1 6466.7 7933.3 A 133.3 133.3 0 0 0 6333.3 7800.0 A 133.3 133.3 0 0 1 6200.0 7666.7 A 133.3 133.3 0 0 0 6066.7 7533.3 A 133.3 133.3 0 0 0 5933.3 7666.7 A 133.3 133.3 0 0 1 5800.0 7800.0 A 133.3 133.3 0 0 1 5666.7 7666.7 A 133.3 133.3 0 0 0 5533.3 7533.3 A 133.3 133.3 0 0 1 5400.0 7400.0 L 5400.0 7133.3 A 133.3 133.3 0 0 0 5266.7 7000.0 A 133.3 133.3 0 0 1 5133.3 6866.7 A 133.3 133.3 0 0 1 5266.7 6733.3 A 133.3 133.3 0 0 1 5400.0 6866.7 A 133.3 133.3 0 0 0 5533.3 7000.0 A 133.3 133.3 0 0 1 5666.7 7133.3 L 5666.7 7400.0 A 133.3 133.3 0 0 0 5800.0 7533.3 A 133.3 133.3 0 0 0 5933.3 7400.0 A 133.3 133.3 0 0 1 6066.7 7266.7 A 133.3 133.3 0 0 0 6200.0 7133.3 A 133.3 133.3 0 0 0 6066.7 7000.0 L 6000.0 7000.0 M 5866.7 7000.0 L 5800.0 7000.0 A 133.3 133.3 0 0 1 5666.7 6866.7 A 133.3 133.3 0 0 0 5533.3 6733.3 A 133.3 133.3 0 0 1 5400.0 6600.0 A 133.3 133.3 0 0 0 5266.7 6466.7 A 133.3 133.3 0 0 0 5133.3 6600.0 A 133.3 133.3 0 0 1 5000.0 6733.3 A 133.3 133.3 0 0 1 4866.7 6600.0 A 133.3 133.3 0 0 0 4733.3 6466.7 A 133.3 133.3 0 0 1 4600.0 6333.3 L 4600.0 6066.7 A 133.3 133.3 0 0 0 4466.7 5933.3 A 133.3 133.3 0 0 1 4333.3 5800.0 A 133.3 133.3 0 0 0 4200.0 5666.7 L 4133.3 5666.7 M 4000.0 5666.7 L 3933.3 5666.7 A 133.3 133.3 0 0 0 3800.0 5800.0 A 133.3 133.3 0 0 1 3666.7 5933.3 L 3600.0 5933.3 M 3466.7 5933.3 L 3400.0 5933.3 A 133.3 133.3 0 0 1 3266.7 5800.0 A 133.3 133.3 0 0 1 3400.0 5666.7 L 3466.7 5666.7 M 3600.0 5666.7 L 3666.7 5666.7 A 133.3 133.3 0 0 0 3800.0 5533.3 A 133.3 133.3 0 0 0 3666.7 5400.0 L 3600.0 5400.0 M 3466.7 5400.0 L 3400.0 5400.0 A 133.3 133.3 0 0 0 3266.7 5533.3 A 133.3 133.3 0 0 1 3133.3 5666.7 A 133.3 133.3 0 0 1 3000.0 5533.3 A 133.3 133.3 0 0 0 2866.7 5400.0 A 133.3 133.3 0 0 1 2733.3 5266.7 A 133.3 133.3 0 0 1 2866.7 5133.3 L 2933.3 5133.3 M 3066.7 5133.3 L 3133.3 5133.3 A 133.3 133.3 0 0 1 3266.7 5266.7 A 133.3 133.3 0 0 1 3133.3 5400.0 A 133.3 133.3 0 0 1 3000.0 5266.7 L 3000.0 5000.0 A 133.3 133.3 0 0 1 3133.3 4866.7 A 133.3 133.3 0 0 1 3266.7 5000.0 A 133.3 133.3 0 0 0 3400.0 5133.3 A 133.3 133.3 0 0 0 3533.3 5000.0 A 133.3 133.3 0 0 0 3400.0 4866.7 A 133.3 133.3 0 0 1 3266.7 4733.3 A 133.3 133.3 0 0 0 3133.3 4600.0 A 133.3 133.3 0 0 1 3000.0 4466.7 A 133.3 133.3 0 0 0 2866.7 4333.3 A 133.3 133.3 0 0 0 2733.3 4466.7 A 133.3 133.3 0 0 1 2600.0 4600.0 A 133.3 133.3 0 0 0 2466.7 4733.3 L 2466.7 5000.0 A 133.3 133.3 0 0 1 2333.3 5133.3 A 133.3 133.3 0 0 1 2200.0 5000.0 L 2200.0 4733.3 A 133.3 133.3 0 0 1 2333.3 4600.0 A 133.3 133.3 0 0 0 2466.7 4466.7 L 2466.7 4200.0 A 133.3 133.3 0 0 1 2600.0 4066.7 A 133.3 133.3 0 0 0 2733.3 3933.3 A 133.3 133.3 0 0 1 2866.7 3800.0 A 133.3 133.3 0 0 0 3000.0 3666.7 A 133.3 133.3 0 0 1 3133.3 3533.3 A 133.3 133.3 0 0 0 3266.7 3400.0 A 133.3 133.3 0 0 0 3133.3 3266.7 A 133.3 133.3 0 0 0 3000.0 3400.0 A 133.3 133.3 0 0 1 2866.7 3533.3 A 133.3 133.3 0 0 1 2733.3 3400.0 A 133.3 133.3 0 0 0 2600.0 3266.7 A 133.3 133.3 0 0 1 2466.7 3133.3 L 2466.7 2866.7 A 133.3 133.3 0 0 1 2600.0 2733.3 L 2666.7 2733.3 M 2800.0 2733.3 L 2866.7 2733.3 A 133.3 133.3 0 0 0 3000.0 2600.0 A 133.3 133.3 0 0 1 3133.3 2466.7 A 133.3 133.3 0 0 0 3266.7 2333.3 L 3266.7 2066.7 A 133.3 133.3 0 0 1 3400.0 1933.3 A 133.3 133.3 0 0 1 3533.3 2066.7 A 133.3 133.3 0 0 1 3400.0 2200.0 L 3333.3 2200.0 M 3200.0 2200.0 L 3133.3 2200.0 A 133.3 133.3 0 0 1 3000.0 2066.7 A 133.3 133.3 0 0 1 3133.3 1933.3 A 133.3 133.3 0 0 0 3266.7 1800.0 A 133.3 133.3 0 0 0 3133.3 1666.7 A 133.3 133.3 0 0 1 3000.0 1533.3 A 133.3 133.3 0 0 0 2866.7 1400.0 A 133.3 133.3 0 0 0 2733.3 1533.3 L 2733.3 1800.0 A 133.3 133.3 0 0 1 2600.0 1933.3 L 2533.3 1933.3 M 2400.0 1933.3 L 2333.3 1933.3 A 133.3 133.3 0 0 0 2200.0 2066.7 L 2200.0 2333.3 A 133.3 133.3 0 0 1 2066.7 2466.7 A 133.3 133.3 0 0 0 1933.3 2600.0 L 1933.3 2866.7 A 133.3 133.3 0 0 1 1800.0 3000.0 A 133.3 133.3 0 0 0 1666.7 3133.3 A 133.3 133.3 0 0 0 1800.0 3266.7 A 133.3 133.3 0 0 0 1933.3 3133.3 A 133.3 133.3 0 0 1 2066.7 3000.0 L 2133.3 3000.0 M 2266.7 3000.0 L 2333.3 3000.0 L 2400.0 3000.0 M 2533.3 3000.0 L 2600.0 3000.0 L 2666.7 3000.0 M 2800.0 3000.0 L 2866.7 3000.0 A 133.3 133.3 0 0 1 3000.0 3133.3 A 133.3 133.3 0 0 1 2866.7 3266.7 A 133.3 133.3 0 0 1 2733.3 3133.3 L 2733.3 2866.7 L 2733.3 2600.0 A 133.3 133.3 0 0 0 2600.0 2466.7 L 2533.3 2466.7 M 2400.0 2466.7 L 2333.3 2466.7 A 133.3 133.3 0 0 0 2200.0 2600.0 A 133.3 133.3 0 0 0 2333.3 2733.3 A 133.3 133.3 0 0 0 2466.7 2600.0 L 2466.7 2333.3 L 2466.7 2066.7 L 2466.7 1800.0 L 2466.7 1533.3 A 133.3 133.3 0 0 0 2333.3 1400.0 L 2266.7 1400.0 M 2133.3 1400.0 L 2066.7 1400.0 A 133.3 133.3 0 0 1 1933.3 1266.7 A 133.3 133.3 0 0 1 2066.7 1133.3 A 133.3 133.3 0 0 1 2200.0 1266.7 L 2200.0 1533.3 A 133.3 133.3 0 0 0 2333.3 1666.7 L 2400.0 1666.7 M 2533.3 1666.7 L 2600.0 1666.7 L 2666.7 1666.7 M 2800.0 1666.7 L 2866.7 1666.7 A 133.3 133.3 0 0 1 3000.0 1800.0 A 133.3 133.3 0 0 1 2866.7 1933.3 A 133.3 133.3 0 0 0 2733.3 2066.7 L 2733.3 2333.3 A 133.3 133.3 0 0 0 2866.7 2466.7 A 133.3 133.3 0 0 0 3000.0 2333.3 A 133.3 133.3 0 0 0 2866.7 2200.0 L 2800.0 2200.0 M 2666.7 2200.0 L 2600.0 2200.0 L 2533.3 2200.0 M 2400.0 2200.0 L 2333.3 2200.0 L 2266.7 2200.0 M 2133.3 2200.0 L 2066.7 2200.0 L 2000.0 2200.0 M 1866.7 2200.0 L 1800.0 2200.0 A 133.3 133.3 0 0 0 1666.7 2333.3 A 133.3 133.3 0 0 1 1533.3 2466.7 L 1466.7 2466.7 M 1333.3 2466.7 L 1266.7 2466.7 A 133.3 133.3 0 0 0 1133.3 2600.0 A 133.3 133.3 0 0 0 1266.7 2733.3 L 1333.3 2733.3 M 1466.7 2733.3 L 1533.3 2733.3 A 133.3 133.3 0 0 1 1666.7 2866.7 A 133.3 133.3 0 0 1 1533.3 3000.0 A 133.3 133.3 0 0 0 1400.0 3133.3 L 1400.0 3400.0 A 133.3 133.3 0 0 1 1266.7 3533.3 A 133.3 133.3 0 0 0 1133.3 3666.7 A 133.3 133.3 0 0 1 1000.0 3800.0" stroke="red" fill="none" stroke-width="10.0"/>
        <path d="M 9000.0 4333.3" stroke="red" fill="none" stroke-width="10.0"/>
        <path d="M 9000.0 4600.0 A 133.3 133.3 0 0 0 8866.7 4733.3 A 133.3 133.3 0 0 0 9000.0 4866.7" stroke="red" fill="none" stroke-width="10.0"/>
        <path d="M 9000.0 4866.7" stroke="red" fill="none" stroke-width="10.0"/>
        <path d="M 9000.0 5133.3 A 133.3 133.3 0 0 1 8866.7 5000.0 A 133.3 133.3 0 0 0 8733.3 4866.7 A 133.3 133.3 0 0 0 8600.0 5000.0 A 133.3 133.3 0 0 0 8733.3 5133.3 A 133.3 133.3 0 0 1 8866.7 5266.7 A 133.3 133.3 0 0 1 8733.3 5400.0 A 133.3 133.3 0 0 0 8600.0 5533.3 A 133.3 133.3 0 0 1 8466.7 5666.7 A 133.3 133.3 0 0 1 8333.3 5533.3 A 133.3 133.3 0 0 0 8200.0 5400.0 A 133.3 133.3 0 0 0 8066.7 5533.3 A 133.3 133.3 0 0 0 8200.0 5666.7 A 133.3 133.3 0 0 1 8333.3 5800.0 L 8333.3 6066.7 A 133.3 133.3 0 0 1 8200.0 6200.0 A 133.3 133.3 0 0 1 8066.7 6066.7 A 133.3 133.3 0 0 1 8200.0 5933.3 L 8266.7 5933.3 M 8400.0 5933.3 L 8466.7 5933.3 A 133.3 133.3 0 0 0 8600.0 5800.0 A 133.3 133.3 0 0 1 8733.3 5666.7 A 133.3 133.3 0 0 1 8866.7 5800.0 A 133.3 133.3 0 0 0 9000.0 5933.3" stroke="red" fill="none" stroke-width="10.0"/>
        <path d="M 9000.0 5400.0 A 133.3 133.3 0 0 0 8866.7 5533.3 A 133.3 133.3 0 0 0 9000.0 5666.7" stroke="red" fill="none" stroke-width="10.0"/>
        <path d="M 9000.0 5666.7" stroke="red" fill="none" stroke-width="10.0"/>
        <path d="M 9000.0 5933.3" stroke="red" fill="none" stroke-width="10.0"/>
        <path d="M 9000.0 6200.0 L 8933.3 6200.0 M 8800.0 6200.0 L 8733.3 6200.0 A 133.3 133.3 0 0 0 8600.0 6333.3 A 133.3 133.3 0 0 1 8466.7 6466.7 A 133.3 133.3 0 0 0 8333.3 6600.0 A 133.3 133.3 0 0 1 8200.0 6733.3 A 133.3 133.3 0 0 0 8066.7 6866.7 A 133.3 133.3 0 0 0 8200.0 7000.0 A 133.3 133.3 0 0 0 8333.3 6866.7 A 133.3 133.3 0 0 1 8466.7 6733.3 A 133.3 133.3 0 0 1 8600.0 6866.7 A 133.3 133.3 0 0 0 8733.3 7000.0 A 133.3 133.3 0 0 0 8866.7 6866.7 A 133.3 133.3 0 0 1 9000.0 6733.3" stroke="red" fill="none" stroke-width="10.0"/>
        <path d="M 9000.0 6466.7" stroke="red" fill="none" stroke-width="10.0"/>
        <path d="M 9000.0 6733.3" stroke="red" fill="none" stroke-width="10.0"/>
        <path d="M 9000.0 7000.0 A 133.3 133.3 0 0 0 8866.7 7133.3 A 133.3 133.3 0 0 1 8733.3 7266.7 A 133.3 133.3 0 0 0 8600.0 7400.0 A 133.3 133.3 0 0 1 8466.7 7533.3 A 133.3 133.3 0 0 0 8333.3 7666.7 A 133.3 133.3 0 0 1 8200.0 7800.0 L 8133.3 7800.0 M 8000.0 7800.0 L 7933.3 7800.0 A 133.3 133.3 0 0 1 7800.0 7666.7 A 133.3 133.3 0 0 0 7666.7 7533.3 A 133.3 133.3 0 0 0 7533.3 7666.7 L 7533.3 7933.3 A 133.3 133.3 0 0 1 7400.0 8066.7 A 133.3 133.3 0 0 0 7266.7 8200.0 A 133.3 133.3 0 0 0 7400.0 8333.3 A 133.3 133.3 0 0 1 7533.3 8466.7 A 133.3 133.3 0 0 0 7666.7 8600.0 A 133.3 133.3 0 0 1 7800.0 8733.3 A 133.3 133.3 0 0 0 7933.3 8866.7 A 133.3 133.3 0 0 0 8066.7 8733.3 A 133.3 133.3 0 0 0 7933.3 8600.0 A 133.3 133.3 0 0 1 7800.0 8466.7 A 133.3 133.3 0 0 1 7933.3 8333.3 L 8000.0 8333.3 M 8133.3 8333.3 L 8200.0 8333.3 L 8266.7 8333.3 M 8400.0 8333.3 L 8466.7 8333.3 A 133.3 133.3 0 0 1 8600.0 8466.7 A 133.3 133.3 0 0 0 8733.3 8600.0 A 133.3 133.3 0 0 1 8866.7 8733.3 A 133.3 133.3 0 0 0 9000.0 8866.7" stroke="red" fill="none" stroke-width="10.0"/>
        <path d="M 9000.0 7266.7 A 133.3 133.3 0 0 0 8866.7 7400.0 A 133.3 133.3 0 0 1 8733.3 7533.3 A 133.3 133.3 0 0 0 8600.0 7666.7 A 133.3 133.3 0 0 0 8733.3 7800.0 L 8800.0 7800.0 M 8933.3 7800.0 L 9000.0 7800.0" stroke="red" fill="none" stroke-width="10.0"/>
        <path d="M 9000.0 7533.3 A 133.3 133.3 0 0 0 8866.7 7666.7 L 8866.7 7933.3 A 133.3 133.3 0 0 0 9000.0 8066.7" stroke="red" fill="none" stroke-width="10.0"/>
        <path d="M 9000.0 7800.0" stroke="red" fill="none" stroke-width="10.0"/>
        <path d="M 9000.0 8066.7" stroke="red" fill="none" stroke-width="10.0"/>
        <path d="M 9000.0 8333.3 A 133.3 133.3 0 0 1 8866.7 8200.0 A 133.3 133.3 0 0 0 8733.3 8066.7 A 133.3 133.3 0 0 0 8600.0 8200.0 A 133.3 133.3 0 0 0 8733.3 8333.3 A 133.3 133.3 0 0 1 8866.7 8466.7 A 133.3 133.3 0 0 0 9000.0 8600.0" stroke="red" fill="none" stroke-width="10.0"/>
        <path d="M 9000.0 8600.0" stroke="red" fill="none" stroke-width="10.0"/>
        <path d="M 9000.0 8866.7" stroke="red" fill="none" stroke-width="10.0"/>
        <path d="M 8866.7 9000.0 A 133.3 133.3 0 0 0 8733.3 8866.7 L 8666.7 8866.7 M 8533.3 8866.7 L 8466.7 8866.7 A 133.3 133.3 0 0 0 8333.3 9000.0" stroke="red" fill="none" stroke-width="10.0"/>
        <path d="M 8600.0 9000.0 L 8600.0 8733.3 A 133.3 133.3 0 0 0 8466.7 8600.0 A 133.3 133.3 0 0 0 8333.3 8733.3 A 133.3 133.3 0 0 1 8200.0 8866.7 A 133.3 133.3 0 0 0 8066.7 9000.0" stroke="red" fill="none" stroke-width="10.0"/>
        <path d="M 8333.3 9000.0" stroke="red" fill="none" stroke-width="10.0"/>
        <path d="M 8066.7 9000.0" stroke="red" fill="none" stroke-width="10.0"/>
        <path d="M 7800.0 9000.0 A 133.3 133.3 0 0 0 7666.7 8866.7 A 133.3 133.3 0 0 1 7533.3 8733.3 A 133.3 133.3 0 0 0 7400.0 8600.0 A 133.3 133.3 0 0 1 7266.7 8466.7 A 133.3 133.3 0 0 0 7133.3 8333.3 A 133.3 133.3 0 0 0 7000.0 8466.7 L 7000.0 8733.3 A 133.3 133.3 0 0 1 6866.7 8866.7 L 6800.0 8866.7 M 6666.7 8866.7 L 6600.0 8866.7 A 133.3 133.3 0 0 1 6466.7 8733.3 A 133.3 133.3 0 0 1 6600.0 8600.0 A 133.3 133.3 0 0 1 6733.3 8733.3 L 6733.3 9000.0" stroke="red" fill="none" stroke-width="10.0"/>
        <path d="M 7533.3 9000.0 A 133.3 133.3 0 0 0 7400.0 8866.7 A 133.3 133.3 0 0 1 7266.7 8733.3 A 133.3 133.3 0 0 0 7133.3 8600.0 L 7066.7 8600.0 M 6933.3 8600.0 L 6866.7 8600.0 A 133.3 133.3 0 0 1 6733.3 8466.7 L 6733.3 8200.0 L 6733.3 7933.3 A 133.3 133.3 0 0 1 6866.7 7800.0 A 133.3 133.3 0 0 1 7000.0 7933.3 L 7000.0 8200.0 A 133.3 133.3 0 0 1 6866.7 8333.3 L 6800.0 8333.3 M 6666.7 8333.3 L 6600.0 8333.3 A 133.3 133.3 0 0 0 6466.7 8466.7 A 133.3 133.3 0 0 1 6333.3 8600.0 A 133.3 133.3 0 0 0 6200.0 8733.3 A 133.3 133.3 0 0 1 6066.7 8866.7 A 133.3 133.3 0 0 1 5933.3 8733.3 A 133.3 133.3 0 0 1 6066.7 8600.0 A 133.3 133.3 0 0 0 6200.0 8466.7 A 133.3 133.3 0 0 0 6066.7 8333.3 A 133.3 133.3 0 0 0 5933.3 8466.7 A 133.3 133.3 0 0 1 5800.0 8600.0 A 133.3 133.3 0 0 0 5666.7 8733.3 A 133.3 133.3 0 0 1 5533.3 8866.7 A 133.3 133.3 0 0 1 5400.0 8733.3 L 5400.0 8466.7 A 133.3 133.3 0 0 0 5266.7 8333.3 A 133.3 133.3 0 0 0 5133.3 8466.7 A 133.3 133.3 0 0 0 5266.7 8600.0 L 5333.3 8600.0 M 5466.7 8600.0 L 5533.3 8600.0 A 133.3 133.3 0 0 0 5666.7 8466.7 A 133.3 133.3 0 0 0 5533.3 8333.3 A 133.3 133.3 0 0 1 5400.0 8200.0 A 133.3 133.3 0 0 0 5266.7 8066.7 A 133.3 133.3 0 0 0 5133.3 8200.0 A 133.3 133.3 0 0 1 5000.0 8333.3 A 133.3 133.3 0 0 0 4866.7 8466.7 L 4866.7 8733.3 A 133.3 133.3 0 0 1 4733.3 8866.7 A 133.3 133.3 0 0 0 4600.0 9000.0" stroke="red" fill="none" stroke-width="10.0"/>
        <path d="M 7266.7 9000.0 A 133.3 133.3 0 0 0 7133.3 8866.7 A 133.3 133.3 0 0 0 7000.0 9000.0" stroke="red" fill="none" stroke-width="10.0"/>
        <path d="M 7000.0 9000.0" stroke="red" fill="none" stroke-width="10.0"/>
        <path d="M 6733.3 9000.0" stroke="red" fill="none" stroke-width="10.0"/>
        <path d="M 6466.7 9000.0 A 133.3 133.3 0 0 0 6333.3 8866.7 A 133.3 133.3 0 0 0 6200.0 9000.0" stroke="red" fill="none" stroke-width="10.0"/>
        <path d="M 6200.0 9000.0" stroke="red" fill="none" stroke-width="10.0"/>
        <path d="M 5933.3 9000.0 A 133.3 133.3 0 0 0 5800.0 8866.7 A 133.3 133.3 0 0 0 5666.7 9000.0" stroke="red" fill="none" stroke-width="10.0"/>
        <path d="M 5666.7 9000.0" stroke="red" fill="none" stroke-width="10.0"/>
        <path d="M 5400.0 9000.0 A 133.3 133.3 0 0 0 5266.7 8866.7 A 133.3 133.3 0 0 1 5133.3 8733.3 A 133.3 133.3 0 0 0 5000.0 8600.0 L 4933.3 8600.0 M 4800.0 8600.0 L 4733.3 8600.0 L 4666.7 8600.0 M 4533.3 8600.0 L 4466.7 8600.0 A 133.3 133.3 0 0 1 4333.3 8466.7 A 133.3 133.3 0 0 0 4200.0 8333.3 A 133.3 133.3 0 0 0 4066.7 8466.7 A 133.3 133.3 0 0 0 4200.0 8600.0 A 133.3 133.3 0 0 1 4333.3 8733.3 L 4333.3 9000.0" stroke="red" fill="none" stroke-width="10.0"/>
        <path d="M 5133.3 9000.0 A 133.3 133.3 0 0 0 5000.0 8866.7 A 133.3 133.3 0 0 0 4866.7 9000.0" stroke="red" fill="none" stroke-width="10.0"/>
        <path d="M 4866.7 9000.0" stroke="red" fill="none" stroke-width="10.0"/>
        <path d="M 4600.0 9000.0" stroke="red" fill="none" stroke-width="10.0"/>
        <path d="M 4333.3 9000.0" stroke="red" fill="none" stroke-width="10.0"/>
        <path d="M 4066.7 9000.0" stroke="red" fill="none" stroke-width="10.0"/>
        <path d="M 3800.0 9000.0 A 133.3 133.3 0 0 0 3666.7 8866.7 A 133.3 133.3 0 0 0 3533.3 9000.0" stroke="red" fill="none" stroke-width="10.0"/>
        <path d="M 3533.3 9000.0" stroke="red" fill="none" stroke-width="10.0"/>
        <path d="M 3266.7 9000.0 A 133.3 133.3 0 0 0 3133.3 8866.7 A 133.3 133.3 0 0 1 3000.0 8733.3 A 133.3 133.3 0 0 1 3133.3 8600.0 L 3200.0 8600.0 M 3333.3 8600.0 L 3400.0 8600.0 A 133.3 133.3 0 0 1 3533.3 8733.3 A 133.3 133.3 0 0 1 3400.0 8866.7 A 133.3 133.3 0 0 1 3266.7 8733.3 L 3266.7 8466.7 A 133.3 133.3 0 0 0 3133.3 8333.3 A 133.3 133.3 0 0 1 3000.0 8200.0 A 133.3 133.3 0 0 0 2866.7 8066.7 A 133.3 133.3 0 0 1 2733.3 7933.3 A 133.3 133.3 0 0 0 2600.0 7800.0 A 133.3 133.3 0 0 1 2466.7 7666.7 A 133.3 133.3 0 0 0 2333.3 7533.3 A 133.3 133.3 0 0 0 2200.0 7666.7 L 2200.0 7933.3 A 133.3 133.3 0 0 0 2333.3 8066.7 L 2400.0 8066.7 M 2533.3 8066.7 L 2600.0 8066.7 A 133.3 133.3 0 0 1 2733.3 8200.0 A 133.3 133.3 0 0 1 2600.0 8333.3 A 133.3 133.3 0 0 1 2466.7 8200.0 L 2466.7 7933.3 A 133.3 133.3 0 0 0 2333.3 7800.0 L 2266.7 7800.0 M 2133.3 7800.0 L 2066.7 7800.0 L 2000.0 7800.0 M 1866.7 7800.0 L 1800.0 7800.0 A 133.3 133.3 0 0 0 1666.7 7933.3 A 133.3 133.3 0 0 0 1800.0 8066.7 A 133.3 133.3 0 0 1 1933.3 8200.0 A 133.3 133.3 0 0 1 1800.0 8333.3 A 133.3 133.3 0 0 0 1666.7 8466.7 L 1666.7 8733.3 L 1666.7 9000.0" stroke="red" fill="none" stroke-width="10.0"/>
        <path d="M 3000.0 9000.0 A 133.3 133.3 0 0 0 2866.7 8866.7 A 133.3 133.3 0 0 0 2733.3 9000.0" stroke="red" fill="none" stroke-width="10.0"/>
        <path d="M 2733.3 9000.0" stroke="red" fill="none" stroke-width="10.0"/>
        <path d="M 2466.7 9000.0 L 2466.7 8733.3 A 133.3 133.3 0 0 1 2600.0 8600.0 A 133.3 133.3 0 0 0 2733.3 8466.7 A 133.3 133.3 0 0 1 2866.7 8333.3 A 133.3 133.3 0 0 1 3000.0 8466.7 A 133.3 133.3 0 0 1 2866.7 8600.0 A 133.3 133.3 0 0 0 2733.3 8733.3 A 133.3 133.3 0 0 1 2600.0 8866.7 L 2533.3 8866.7 M 2400.0 8866.7 L 2333.3 8866.7 L 2266.7 8866.7 M 2133.3 8866.7 L 2066.7 8866.7 A 133.3 133.3 0 0 1 1933.3 8733.3 A 133.3 133.3 0 0 1 2066.7 8600.0 A 133.3 133.3 0 0 1 2200.0 8733.3 L 2200.0 9000.0" stroke="red" fill="none" stroke-width="10.0"/>
        <path d="M 2200.0 9000.0" stroke="red" fill="none" stroke-width="10.0"/>
        <path d="M 1933.3 9000.0 A 133.3 133.3 0 0 0 1800.0 8866.7 L 1733.3 8866.7 M 1600.0 8866.7 L 1533.3 8866.7 A 133.3 133.3 0 0 1 1400.0 8733.3 A 133.3 133.3 0 0 1 1533.3 8600.0 L 1600.0 8600.0 M 1733.3 8600.0 L 1800.0 8600.0 A 133.3 133.3 0 0 0 1933.3 8466.7 A 133.3 133.3 0 0 1 2066.7 8333.3 A 133.3 133.3 0 0 1 2200.0 8466.7 A 133.3 133.3 0 0 0 2333.3 8600.0 A 133.3 133.3 0 0 0 2466.7 8466.7 A 133.3 133.3 0 0 0 2333.3 8333.3 A 133.3 133.3 0 0 1 2200.0 8200.0 A 133.3 133.3 0 0 0 2066.7 8066.7 A 133.3 133.3 0 0 1 1933.3 7933.3 L 1933.3 7666.7 A 133.3 133.3 0 0 1 2066.7 7533.3 A 133.3 133.3 0 0 0 2200.0 7400.0 A 133.3 133.3 0 0 1 2333.3 7266.7 A 133.3 133.3 0 0 1 2466.7 7400.0 A 133.3 133.3 0 0 0 2600.0 7533.3 A 133.3 133.3 0 0 1 2733.3 7666.7 A 133.3 133.3 0 0 0 2866.7 7800.0 A 133.3 133.3 0 0 1 3000.0 7933.3 A 133.3 133.3 0 0 0 3133.3 8066.7 A 133.3 133.3 0 0 0 3266.7 7933.3 A 133.3 133.3 0 0 1 3400.0 7800.0 L 3466.7 7800.0 M 3600.0 7800.0 L 3666.7 7800.0 A 133.3 133.3 0 0 0 3800.0 7666.7 A 133.3 133.3 0 0 0 3666.7 7533.3 A 133.3 133.3 0 0 1 3533.3 7400.0 A 133.3 133.3 0 0 0 3400.0 7266.7 A 133.3 133.3 0 0 1 3266.7 7133.3 A 133.3 133.3 0 0 0 3133.3 7000.0 A 133.3 133.3 0 0 0 3000.0 7133.3 A 133.3 133.3 0 0 1 2866.7 7266.7 A 133.3 133.3 0 0 1 2733.3 7133.3 A 133.3 133.3 0 0 1 2866.7 7000.0 A 133.3 133.3 0 0 0 3000.0 6866.7 L 3000.0 6600.0 L 3000.0 6333.3 A 133.3 133.3 0 0 1 3133.3 6200.0 A 133.3 133.3 0 0 0 3266.7 6066.7 A 133.3 133.3 0 0 0 3133.3 5933.3 A 133.3 133.3 0 0 0 3000.0 6066.7 A 133.3 133.3 0 0 1 2866.7 6200.0 A 133.3 133.3 0 0 1 2733.3 6066.7 A 133.3 133.3 0 0 1 2866.7 5933.3 A 133.3 133.3 0 0 0 3000.0 5800.0 A 133.3 133.3 0 0 0 2866.7 5666.7 A 133.3 133.3 0 0 0 2733.3 5800.0 A 133.3 133.3 0 0 1 2600.0 5933.3 L 2533.3 5933.3 M 2400.0 5933.3 L 2333.3 5933.3 A 133.3 133.3 0 0 0 2200.0 6066.7 A 133.3 133.3 0 0 1 2066.7 6200.0 A 133.3 133.3 0 0 1 1933.3 6066.7 A 133.3 133.3 0 0 0 1800.0 5933.3 A 133.3 133.3 0 0 1 1666.7 5800.0 L 1666.7 5533.3 A 133.3 133.3 0 0 1 1800.0 5400.0 A 133.3 133.3 0 0 1 1933.3 5533.3 A 133.3 133.3 0 0 0 2066.7 5666.7 A 133.3 133.3 0 0 1 2200.0 5800.0 A 133.3 133.3 0 0 1 2066.7 5933.3 A 133.3 133.3 0 0 1 1933.3 5800.0 A 133.3 133.3 0 0 0 1800.0 5666.7 L 1733.3 5666.7 M 1600.0 5666.7 L 1533.3 5666.7 A 133.3 133.3 0 0 0 1400.0 5800.0 A 133.3 133.3 0 0 1 1266.7 5933.3 A 133.3 133.3 0 0 1 1133.3 5800.0 A 133.3 133.3 0 0 0 1000.0 5666.7" stroke="red" fill="none" stroke-width="10.0"/>
        <path d="M 1666.7 9000.0" stroke="red" fill="none" stroke-width="10.0"/>
        <path d="M 1400.0 9000.0 A 133.3 133.3 0 0 0 1266.7 8866.7 A 133.3 133.3 0 0 1 1133.3 8733.3 L 1133.3 8466.7 L 1133.3 8200.0 A 133.3 133.3 0 0 1 1266.7 8066.7 A 133.3 133.3 0 0 0 1400.0 7933.3 L 1400.0 7666.7 A 133.3 133.3 0 0 0 1266.7 7533.3 L 1200.0 7533.3 M 1066.7 7533.3 L 1000.0 7533.3" stroke="red" fill="none" stroke-width="10.0"/>
        <path d="M 1133.3 9000.0 A 133.3 133.3 0 0 0 1000.0 8866.7" stroke="red" fill="none" stroke-width="10.0"/>
        <path d="M 1000.0 8866.7" stroke="red" fill="none" stroke-width="10.0"/>
        <path d="M 1000.0 8600.0 L 1066.7 8600.0 M 1200.0 8600.0 L 1266.7 8600.0 A 133.3 133.3 0 0 0 1400.0 8466.7 A 133.3 133.3 0 0 0 1266.7 8333.3 L 1200.0 8333.3 M 1066.7 8333.3 L 1000.0 8333.3" stroke="red" fill="none" stroke-width="10.0"/>
        <path d="M 1000.0 8333.3" stroke="red" fill="none" stroke-width="10.0"/>
        <path d="M 1000.0 8066.7 A 133.3 133.3 0 0 0 1133.3 7933.3 A 133.3 133.3 0 0 0 1000.0 7800.0" stroke="red" fill="none" stroke-width="10.0"/>
        <path d="M 1000.0 7800.0" stroke="red" fill="none" stroke-width="10.0"/>
        <path d="M 1000.0 7533.3" stroke="red" fill="none" stroke-width="10.0"/>
        <path d="M 1000.0 7266.7 A 133.3 133.3 0 0 1 1133.3 7400.0 L 1133.3 7666.7 A 133.3 133.3 0 0 0 1266.7 7800.0 L 1333.3 7800.0 M 1466.7 7800.0 L 1533.3 7800.0 A 133.3 133.3 0 0 0 1666.7 7666.7 A 133.3 133.3 0 0 1 1800.0 7533.3 A 133.3 133.3 0 0 0 1933.3 7400.0 A 133.3 133.3 0 0 0 1800.0 7266.7 A 133.3 133.3 0 0 1 1666.7 7133.3 A 133.3 133.3 0 0 1 1800.0 7000.0 A 133.3 133.3 0 0 1 1933.3 7133.3 A 133.3 133.3 0 0 0 2066.7 7266.7 A 133.3 133.3 0 0 0 2200.0 7133.3 A 133.3 133.3 0 0 0 2066.7 7000.0 A 133.3 133.3 0 0 1 1933.3 6866.7 A 133.3 133.3 0 0 0 1800.0 6733.3 A 133.3 133.3 0 0 1 1666.7 6600.0 L 1666.7 6333.3 A 133.3 133.3 0 0 0 1533.3 6200.0 A 133.3 133.3 0 0 1 1400.0 6066.7 A 133.3 133.3 0 0 1 1533.3 5933.3 A 133.3 133.3 0 0 1 1666.7 6066.7 A 133.3 133.3 0 0 0 1800.0 6200.0 A 133.3 133.3 0 0 1 1933.3 6333.3 A 133.3 133.3 0 0 1 1800.0 6466.7 L 1733.3 6466.7 M 1600.0 6466.7 L 1533.3 6466.7 A 133.3 133.3 0 0 1 1400.0 6333.3 A 133.3 133.3 0 0 0 1266.7 6200.0 A 133.3 133.3 0 0 0 1133.3 6333.3 A 133.3 133.3 0 0 0 1266.7 6466.7 A 133.3 133.3 0 0 1 1400.0 6600.0 L 1400.0 6866.7 L 1400.0 7133.3 A 133.3 133.3 0 0 1 1266.7 7266.7 A 133.3 133.3 0 0 1 1133.3 7133.3 A 133.3 133.3 0 0 0 1000.0 7000.0" stroke="red" fill="none" stroke-width="10.0"/>
        <path d="M 1000.0 7000.0" stroke="red" fill="none" stroke-width="10.0"/>
        <path d="M 1000.0 6733.3 A 133.3 133.3 0 0 1 1133.3 6866.7 A 133.3 133.3 0 0 0 1266.7 7000.0 L 1333.3 7000.0 M 1466.7 7000.0 L 1533.3 7000.0 A 133.3 133.3 0 0 0 1666.7 6866.7 A 133.3 133.3 0 0 0 1533.3 6733.3 L 1466.7 6733.3 M 1333.3 6733.3 L 1266.7 6733.3 A 133.3 133.3 0 0 1 1133.3 6600.0 A 133.3 133.3 0 0 0 1000.0 6466.7" stroke="red" fill="none" stroke-width="10.0"/>
        <path d="M 1000.0 6466.7" stroke="red" fill="none" stroke-width="10.0"/>
        <path d="M 1000.0 6200.0 A 133.3 133.3 0 0 0 1133.3 6066.7 A 133.3 133.3 0 0 0 1000.0 5933.3" stroke="red" fill="none" stroke-width="10.0"/>
        <path d="M 1000.0 5933.3" stroke="red" fill="none" stroke-width="10.0"/>
        <path d="M 1000.0 5666.7" stroke="red" fill="none" stroke-width="10.0"/>
        <path d="M 1000.0 5400.0 A 133.3 133.3 0 0 0 1133.3 5266.7 L 1133.3 5000.0 A 133.3 133.3 0 0 1 1266.7 4866.7 L 1333.3 4866.7 M 1466.7 4866.7 L 1533.3 4866.7 A 133.3 133.3 0 0 0 1666.7 4733.3 A 133.3 133.3 0 0 1 1800.0 4600.0 L 1866.7 4600.0 M 2000.0 4600.0 L 2066.7 4600.0 A 133.3 133.3 0 0 0 2200.0 4466.7 L 2200.0 4200.0 A 133.3 133.3 0 0 0 2066.7 4066.7 A 133.3 133.3 0 0 1 1933.3 3933.3 A 133.3 133.3 0 0 1 2066.7 3800.0 A 133.3 133.3 0 0 1 2200.0 3933.3 A 133.3 133.3 0 0 0 2333.3 4066.7 A 133.3 133.3 0 0 0 2466.7 3933.3 A 133.3 133.3 0 0 1 2600.0 3800.0 A 133.3 133.3 0 0 0 2733.3 3666.7 A 133.3 133.3 0 0 0 2600.0 3533.3 L 2533.3 3533.3 M 2400.0 3533.3 L 2333.3 3533.3 L 2266.7 3533.3 M 2133.3 3533.3 L 2066.7 3533.3 A 133.3 133.3 0 0 0 1933.3 3666.7 A 133.3 133.3 0 0 1 1800.0 3800.0 A 133.3 133.3 0 0 1 1666.7 3666.7 A 133.3 133.3 0 0 1 1800.0 3533.3 A 133.3 133.3 0 0 0 1933.3 3400.0 A 133.3 133.3 0 0 1 2066.7 3266.7 A 133.3 133.3 0 0 1 2200.0 3400.0 L 2200.0 3666.7 A 133.3 133.3 0 0 0 2333.3 3800.0 A 133.3 133.3 0 0 0 2466.7 3666.7 L 2466.7 3400.0 A 133.3 133.3 0 0 0 2333.3 3266.7 A 133.3 133.3 0 0 1 2200.0 3133.3 L 2200.0 2866.7 A 133.3 133.3 0 0 0 2066.7 2733.3 L 2000.0 2733.3 M 1866.7 2733.3 L 1800.0 2733.3 A 133.3 133.3 0 0 1 1666.7 2600.0 A 133.3 133.3 0 0 1 1800.0 2466.7 A 133.3 133.3 0 0 0 1933.3 2333.3 L 1933.3 2066.7 A 133.3 133.3 0 0 1 2066.7 1933.3 A 133.3 133.3 0 0 0 2200.0 1800.0 A 133.3 133.3 0 0 0 2066.7 1666.7 A 133.3 133.3 0 0 0 1933.3 1800.0 A 133.3 133.3 0 0 1 1800.0 1933.3 A 133.3 133.3 0 0 0 1666.7 2066.7 A 133.3 133.3 0 0 1 1533.3 2200.0 A 133.3 133.3 0 0 0 1400.0 2333.3 L 1400.0 2600.0 L 1400.0 2866.7 A 133.3 133.3 0 0 1 1266.7 3000.0 A 133.3 133.3 0 0 1 1133.3 2866.7 A 133.3 133.3 0 0 0 1000.0 2733.3" stroke="red" fill="none" stroke-width="10.0"/>
        <path d="M 1000.0 5133.3 L 1066.7 5133.3 M 1200.0 5133.3 L 1266.7 5133.3 A 133.3 133.3 0 0 1 1400.0 5266.7 A 133.3 133.3 0 0 0 1533.3 5400.0 A 133.3 133.3 0 0 0 1666.7 5266.7 L 1666.7 5000.0 A 133.3 133.3 0 0 1 1800.0 4866.7 A 133.3 133.3 0 0 1 1933.3 5000.0 A 133.3 133.3 0 0 1 1800.0 5133.3 L 1733.3 5133.3 M 1600.0 5133.3 L 1533.3 5133.3 A 133.3 133.3 0 0 1 1400.0 5000.0 L 1400.0 4733.3 A 133.3 133.3 0 0 0 1266.7 4600.0 A 133.3 133.3 0 0 0 1133.3 4733.3 A 133.3 133.3 0 0 1 1000.0 4866.7" stroke="red" fill="none" stroke-width="10.0"/>
        <path d="M 1000.0 4866.7" stroke="red" fill="none" stroke-width="10.0"/>
        <path d="M 1000.0 4600.0 A 133.3 133.3 0 0 0 1133.3 4466.7 A 133.3 133.3 0 0 0 1000.0 4333.3" stroke="red" fill="none" stroke-width="10.0"/>
        <path d="M 1000.0 4333.3" stroke="red" fill="none" stroke-width="10.0"/>
        <path d="M 1000.0 4066.7 A 133.3 133.3 0 0 1 1133.3 4200.0 A 133.3 133.3 0 0 0 1266.7 4333.3 A 133.3 133.3 0 0 0 1400.0 4200.0 A 133.3 133.3 0 0 0 1266.7 4066.7 A 133.3 133.3 0 0 1 1133.3 3933.3 A 133.3 133.3 0 0 1 1266.7 3800.0 A 133.3 133.3 0 0 0 1400.0 3666.7 A 133.3 133.3 0 0 1 1533.3 3533.3 A 133.3 133.3 0 0 0 1666.7 3400.0 A 133.3 133.3 0 0 0 1533.3 3266.7 L 1466.7 3266.7 M 1333.3 3266.7 L 1266.7 3266.7 A 133.3 133.3 0 0 0 1133.3 3400.0 A 133.3 133.3 0 0 1 1000.0 3533.3" stroke="red" fill="none" stroke-width="10.0"/>
        <path d="M 1000.0 3800.0" stroke="red" fill="none" stroke-width="10.0"/>
        <path d="M 1000.0 3533.3" stroke="red" fill="none" stroke-width="10.0"/>
        <path d="M 1000.0 3266.7 A 133.3 133.3 0 0 0 1133.3 3133.3 A 133.3 133.3 0 0 0 1000.0 3000.0" stroke="red" fill="none" stroke-width="10.0"/>
        <path d="M 1000.0 3000.0" stroke="red" fill="none" stroke-width="10.0"/>
        <path d="M 1000.0 2733.3" stroke="red" fill="none" stroke-width="10.0"/>
        <path d="M 1000.0 2466.7 A 133.3 133.3 0 0 0 1133.3 2333.3 A 133.3 133.3 0 0 1 1266.7 2200.0 A 133.3 133.3 0 0 0 1400.0 2066.7 L 1400.0 1800.0 A 133.3 133.3 0 0 1 1533.3 1666.7 L 1600.0 1666.7 M 1733.3 1666.7 L 1800.0 1666.7 A 133.3 133.3 0 0 0 1933.3 1533.3 A 133.3 133.3 0 0 0 1800.0 1400.0 L 1733.3 1400.0 M 1600.0 1400.0 L 1533.3 1400.0 A 133.3 133.3 0 0 1 1400.0 1266.7 A 133.3 133.3 0 0 0 1266.7 1133.3 L 1200.0 1133.3 M 1066.7 1133.3 L 1000.0 1133.3" stroke="red" fill="none" stroke-width="10.0"/>
        <path d="M 1000.0 2200.0 A 133.3 133.3 0 0 0 1133.3 2066.7 L 1133.3 1800.0 A 133.3 133.3 0 0 0 1000.0 1666.7" stroke="red" fill="none" stroke-width="10.0"/>
        <path d="M 1000.0 1933.3" stroke="red" fill="none" stroke-width="10.0"/>
        <path d="M 1000.0 1666.7" stroke="red" fill="none" stroke-width="10.0"/>
        <path d="M 1000.0 1400.0" stroke="red" fill="none" stroke-width="10.0"/>
        <path d="M 1000.0 1133.3" stroke="red" fill="none" stroke-width="10.0"/>
        <path d="M 1266.7 1400.0 A 133.3 133.3 0 0 1 1400.0 1533.3 A 133.3 133.3 0 0 1 1266.7 1666.7 A 133.3 133.3 0 0 1 1133.3 1533.3 A 133.3 133.3 0 0 1 1266.7 1400.0" stroke="red" fill="none" stroke-width="10.0"/>
        <path d="M 1400.0 3933.3 A 133.3 133.3 0 0 1 1533.3 3800.0 A 133.3 133.3 0 0 1 1666.7 3933.3 A 133.3 133.3 0 0 1 1533.3 4066.7 A 133.3 133.3 0 0 1 1400.0 3933.3" stroke="red" fill="none" stroke-width="10.0"/>
        <path d="M 1266.7 5400.0 A 133.3 133.3 0 0 1 1400.0 5533.3 A 133.3 133.3 0 0 1 1266.7 5666.7 A 133.3 133.3 0 0 1 1133.3 5533.3 A 133.3 133.3 0 0 1 1266.7 5400.0" stroke="red" fill="none" stroke-width="10.0"/>
        <path d="M 1400.0 7400.0 A 133.3 133.3 0 0 1 1533.3 7266.7 A 133.3 133.3 0 0 1 1666.7 7400.0 A 133.3 133.3 0 0 1 1533.3 7533.3 A 133.3 133.3 0 0 1 1400.0 7400.0" stroke="red" fill="none" stroke-width="10.0"/>
        <path d="M 1400.0 8200.0 A 133.3 133.3 0 0 1 1533.3 8066.7 A 133.3 133.3 0 0 1 1666.7 8200.0 A 133.3 133.3 0 0 1 1533.3 8333.3 A 133.3 133.3 0 0 1 1400.0 8200.0" stroke="red" fill="none" stroke-width="10.0"/>
        <path d="M 2466.7 1266.7 A 133.3 133.3 0 0 0 2600.0 1400.0 A 133.3 133.3 0 0 0 2733.3 1266.7 A 133.3 133.3 0 0 0 2600.0 1133.3 A 133.3 133.3 0 0 0 2466.7 1266.7" stroke="red" fill="none" stroke-width="10.0"/>
        <path d="M 3000.0 3933.3 A 133.3 133.3 0 0 1 3133.3 3800.0 L 3200.0 3800.0 M 3333.3 3800.0 L 3400.0 3800.0 A 133.3 133.3 0 0 1 3533.3 3933.3 A 133.3 133.3 0 0 1 3400.0 4066.7 L 3333.3 4066.7 M 3200.0 4066.7 L 3133.3 4066.7 A 133.3 133.3 0 0 1 3000.0 3933.3" stroke="red" fill="none" stroke-width="10.0"/>
        <path d="M 3000.0 7400.0 A 133.3 133.3 0 0 1 3133.3 7266.7 A 133.3 133.3 0 0 1 3266.7 7400.0 A 133.3 133.3 0 0 1 3133.3 7533.3 A 133.3 133.3 0 0 1 3000.0 7400.0" stroke="red" fill="none" stroke-width="10.0"/>
        <path d="M 3533.3 3133.3 A 133.3 133.3 0 0 1 3666.7 3000.0 L 3733.3 3000.0 M 3866.7 3000.0 L 3933.3 3000.0 A 133.3 133.3 0 0 0 4066.7 2866.7 A 133.3 133.3 0 0 0 3933.3 2733.3 A 133.3 133.3 0 0 0 3800.0 2866.7 L 3800.0 3133.3 A 133.3 133.3 0 0 1 3666.7 3266.7 A 133.3 133.3 0 0 1 3533.3 3133.3" stroke="red" fill="none" stroke-width="10.0"/>
        <path d="M 3533.3 4200.0 A 133.3 133.3 0 0 1 3666.7 4066.7 A 133.3 133.3 0 0 1 3800.0 4200.0 A 133.3 133.3 0 0 1 3666.7 4333.3 A 133.3 133.3 0 0 1 3533.3 4200.0" stroke="red" fill="none" stroke-width="10.0"/>
        <path d="M 3800.0 3400.0 A 133.3 133.3 0 0 1 3933.3 3266.7 L 4000.0 3266.7 M 4133.3 3266.7 L 4200.0 3266.7 L 4266.7 3266.7 M 4400.0 3266.7 L 4466.7 3266.7 A 133.3 133.3 0 0 0 4600.0 3133.3 A 133.3 133.3 0 0 0 4466.7 3000.0 L 4400.0 3000.0 M 4266.7 3000.0 L 4200.0 3000.0 A 133.3 133.3 0 0 0 4066.7 3133.3 L 4066.7 3400.0 A 133.3 133.3 0 0 1 3933.3 3533.3 A 133.3 133.3 0 0 1 3800.0 3400.0" stroke="red" fill="none" stroke-width="10.0"/>
        <path d="M 3800.0 5266.7 A 133.3 133.3 0 0 1 3933.3 5133.3 A 133.3 133.3 0 0 1 4066.7 5266.7 A 133.3 133.3 0 0 1 3933.3 5400.0 A 133.3 133.3 0 0 1 3800.0 5266.7" stroke="red" fill="none" stroke-width="10.0"/>
        <path d="M 4333.3 3933.3 A 133.3 133.3 0 0 1 4466.7 3800.0 A 133.3 133.3 0 0 1 4600.0 3933.3 A 133.3 133.3 0 0 1 4466.7 4066.7 A 133.3 133.3 0 0 1 4333.3 3933.3" stroke="red" fill="none" stroke-width="10.0"/>
        <path d="M 4600.0 7400.0 A 133.3 133.3 0 0 1 4733.3 7266.7 A 133.3 133.3 0 0 1 4866.7 7400.0 A 133.3 133.3 0 0 1 4733.3 7533.3 A 133.3 133.3 0 0 1 4600.0 7400.0" stroke="red" fill="none" stroke-width="10.0"/>
        <path d="M 5133.3 2066.7 A 133.3 133.3 0 0 1 5266.7 1933.3 A 133.3 133.3 0 0 0 5400.0 1800.0 A 133.3 133.3 0 0 1 5533.3 1666.7 L 5600.0 1666.7 M 5733.3 1666.7 L 5800.0 1666.7 A 133.3 133.3 0 0 1 5933.3 1800.0 A 133.3 133.3 0 0 1 5800.0 1933.3 L 5733.3 1933.3 M 5600.0 1933.3 L 5533.3 1933.3 A 133.3 133.3 0 0 0 5400.0 2066.7 A 133.3 133.3 0 0 1 5266.7 2200.0 A 133.3 133.3 0 0 1 5133.3 2066.7" stroke="red" fill="none" stroke-width="10.0"/>
        <path d="M 5400.0 6066.7 A 133.3 133.3 0 0 1 5533.3 5933.3 A 133.3 133.3 0 0 1 5666.7 6066.7 A 133.3 133.3 0 0 1 5533.3 6200.0 A 133.3 133.3 0 0 1 5400.0 6066.7" stroke="red" fill="none" stroke-width="10.0"/>
        <path d="M 5666.7 5800.0 A 133.3 133.3 0 0 1 5800.0 5666.7 A 133.3 133.3 0 0 1 5933.3 5800.0 A 133.3 133.3 0 0 1 5800.0 5933.3 A 133.3 133.3 0 0 1 5666.7 5800.0" stroke="red" fill="none" stroke-width="10.0"/>
        <path d="M 5933.3 2333.3 A 133.3 133.3 0 0 1 6066.7 2200.0 A 133.3 133.3 0 0 1 6200.0 2333.3 A 133.3 133.3 0 0 1 6066.7 2466.7 A 133.3 133.3 0 0 1 5933.3 2333.3" stroke="red" fill="none" stroke-width="10.0"/>
        <path d="M 6200.0 6866.7 A 133.3 133.3 0 0 1 6333.3 6733.3 A 133.3 133.3 0 0 1 6466.7 6866.7 A 133.3 133.3 0 0 1 6333.3 7000.0 A 133.3 133.3 0 0 1 6200.0 6866.7" stroke="red" fill="none" stroke-width="10.0"/>
        <path d="M 6733.3 2600.0 A 133.3 133.3 0 0 1 6866.7 2466.7 A 133.3 133.3 0 0 1 7000.0 2600.0 A 133.3 133.3 0 0 0 7133.3 2733.3 A 133.3 133.3 0 0 0 7266.7 2600.0 A 133.3 133.3 0 0 1 7400.0 2466.7 A 133.3 133.3 0 0 1 7533.3 2600.0 A 133.3 133.3 0 0 1 7400.0 2733.3 A 133.3 133.3 0 0 0 7266.7 2866.7 A 133.3 133.3 0 0 1 7133.3 3000.0 A 133.3 133.3 0 0 1 7000.0 2866.7 A 133.3 133.3 0 0 0 6866.7 2733.3 A 133.3 133.3 0 0 1 6733.3 2600.0" stroke="red" fill="none" stroke-width="10.0"/>
        <path d="M 7000.0 1533.3 A 133.3 133.3 0 0 1 7133.3 1400.0 A 133.3 133.3 0 0 1 7266.7 1533.3 A 133.3 133.3 0 0 0 7400.0 1666.7 A 133.3 133.3 0 0 1 7533.3 1800.0 A 133.3 133.3 0 0 1 7400.0 1933.3 A 133.3 133.3 0 0 0 7266.7 2066.7 L 7266.7 2333.3 A 133.3 133.3 0 0 1 7133.3 2466.7 A 133.3 133.3 0 0 1 7000.0 2333.3 L 7000.0 2066.7 A 133.3 133.3 0 0 1 7133.3 1933.3 A 133.3 133.3 0 0 0 7266.7 1800.0 A 133.3 133.3 0 0 0 7133.3 1666.7 A 133.3 133.3 0 0 1 7000.0 1533.3" stroke="red" fill="none" stroke-width="10.0"/>
        <path d="M 7000.0 3933.3 A 133.3 133.3 0 0 1 7133.3 3800.0 A 133.3 133.3 0 0 1 7266.7 3933.3 A 133.3 133.3 0 0 1 7133.3 4066.7 A 133.3 133.3 0 0 1 7000.0 3933.3" stroke="red" fill="none" stroke-width="10.0"/>
        <path d="M 7266.7 5533.3 A 133.3 133.3 0 0 1 7400.0 5400.0 A 133.3 133.3 0 0 1 7533.3 5533.3 A 133.3 133.3 0 0 1 7400.0 5666.7 A 133.3 133.3 0 0 1 7266.7 5533.3" stroke="red" fill="none" stroke-width="10.0"/>
        <path d="M 7533.3 2066.7 A 133.3 133.3 0 0 1 7666.7 1933.3 A 133.3 133.3 0 0 1 7800.0 2066.7 A 133.3 133.3 0 0 1 7666.7 2200.0 A 133.3 133.3 0 0 1 7533.3 2066.7" stroke="red" fill="none" stroke-width="10.0"/>
        <path d="M 7800.0 2333.3 A 133.3 133.3 0 0 1 7933.3 2200.0 A 133.3 133.3 0 0 1 8066.7 2333.3 L 8066.7 2600.0 A 133.3 133.3 0 0 1 7933.3 2733.3 A 133.3 133.3 0 0 1 7800.0 2600.0 L 7800.0 2333.3" stroke="red" fill="none" stroke-width="10.0"/>
        <path d="M 7800.0 3933.3 A 133.3 133.3 0 0 1 7933.3 3800.0 A 133.3 133.3 0 0 1 8066.7 3933.3 A 133.3 133.3 0 0 1 7933.3 4066.7 A 133.3 133.3 0 0 1 7800.0 3933.3" stroke="red" fill="none" stroke-width="10.0"/>
        <path d="M 8333.3 5266.7 A 133.3 133.3 0 0 1 8466.7 5133.3 A 133.3 133.3 0 0 1 8600.0 5266.7 A 133.3 133.3 0 0 1 8466.7 5400.0 A 133.3 133.3 0 0 1 8333.3 5266.7" stroke="red" fill="none" stroke-width="10.0"/>
    </g>
    <g inkscape:groupmode="layer" inkscape:label="2 - GUIDELINES-pen" id="g5" transform="translate(0.0 0.0)"><line x1="1300.0" x2="1300.0" y1="225.0" y2="300.0" stroke="black" fill="none" stroke-width="3"/>
        <line x1="1325.0" x2="1325.0" y1="225.0" y2="300.0" stroke="black" fill="none" stroke-width="3"/>
        <line x1="1350.0" x2="1350.0" y1="225.0" y2="300.0" stroke="black" fill="none" stroke-width="3"/>
        <line x1="1375.0" x2="1375.0" y1="225.0" y2="300.0" stroke="black" fill="none" stroke-width="3"/>
        <line x1="1400.0" x2="1400.0" y1="225.0" y2="300.0" stroke="black" fill="none" stroke-width="3"/>
        <line x1="1425.0" x2="1425.0" y1="225.0" y2="300.0" stroke="black" fill="none" stroke-width="3"/>
        <line x1="1450.0" x2="1450.0" y1="225.0" y2="300.0" stroke="black" fill="none" stroke-width="3"/>
        <line x1="1475.0" x2="1475.0" y1="225.0" y2="300.0" stroke="black" fill="none" stroke-width="3"/>
        <line x1="1500.0" x2="1500.0" y1="200.0" y2="300.0" stroke="black" fill="none" stroke-width="3"/>
        <line x1="1525.0" x2="1525.0" y1="225.0" y2="300.0" stroke="black" fill="none" stroke-width="3"/>
        <line x1="1550.0" x2="1550.0" y1="225.0" y2="300.0" stroke="black" fill="none" stroke-width="3"/>
        <line x1="1575.0" x2="1575.0" y1="225.0" y2="300.0" stroke="black" fill="none" stroke-width="3"/>
        <line x1="1600.0" x2="1600.0" y1="225.0" y2="300.0" stroke="black" fill="none" stroke-width="3"/>
        <line x1="1625.0" x2="1625.0" y1="225.0" y2="300.0" stroke="black" fill="none" stroke-width="3"/>
        <line x1="1650.0" x2="1650.0" y1="225.0" y2="300.0" stroke="black" fill="none" stroke-width="3"/>
        <line x1="1675.0" x2="1675.0" y1="225.0" y2="300.0" stroke="black" fill="none" stroke-width="3"/>
        <line x1="1700.0" x2="1700.0" y1="225.0" y2="300.0" stroke="black" fill="none" stroke-width="3"/>
        <line x1="1300.0" x2="1300.0" y1="700.0" y2="775.0" stroke="black" fill="none" stroke-width="3"/>
        <line x1="1325.0" x2="1325.0" y1="700.0" y2="775.0" stroke="black" fill="none" stroke-width="3"/>
        <line x1="1350.0" x2="1350.0" y1="700.0" y2="775.0" stroke="black" fill="none" stroke-width="3"/>
        <line x1="1375.0" x2="1375.0" y1="700.0" y2="775.0" stroke="black" fill="none" stroke-width="3"/>
        <line x1="1400.0" x2="1400.0" y1="700.0" y2="775.0" stroke="black" fill="none" stroke-width="3"/>
        <line x1="1425.0" x2="1425.0" y1="700.0" y2="775.0" stroke="black" fill="none" stroke-width="3"/>
        <line x1="1450.0" x2="1450.0" y1="700.0" y2="775.0" stroke="black" fill="none" stroke-width="3"/>
        <line x1="1475.0" x2="1475.0" y1="700.0" y2="775.0" stroke="black" fill="none" stroke-width="3"/>
        <line x1="1500.0" x2="1500.0" y1="700.0" y2="800.0" stroke="black" fill="none" stroke-width="3"/>
        <line x1="1525.0" x2="1525.0" y1="700.0" y2="775.0" stroke="black" fill="none" stroke-width="3"/>
        <line x1="1550.0" x2="1550.0" y1="700.0" y2="775.0" stroke="black" fill="none" stroke-width="3"/>
        <line x1="1575.0" x2="1575.0" y1="700.0" y2="775.0" stroke="black" fill="none" stroke-width="3"/>
        <line x1="1600.0" x2="1600.0" y1="700.0" y2="775.0" stroke="black" fill="none" stroke-width="3"/>
        <line x1="1625.0" x2="1625.0" y1="700.0" y2="775.0" stroke="black" fill="none" stroke-width="3"/>
        <line x1="1650.0" x2="1650.0" y1="700.0" y2="775.0" stroke="black" fill="none" stroke-width="3"/>
        <line x1="1675.0" x2="1675.0" y1="700.0" y2="775.0" stroke="black" fill="none" stroke-width="3"/>
        <line x1="1700.0" x2="1700.0" y1="700.0" y2="775.0" stroke="black" fill="none" stroke-width="3"/>
        <line x1="1225.0" x2="1300.0" y1="300.0" y2="300.0" stroke="black" fill="none" stroke-width="3"/>
        <line x1="1225.0" x2="1300.0" y1="325.0" y2="325.0" stroke="black" fill="none" stroke-width="3"/>
        <line x1="1225.0" x2="1300.0" y1="350.0" y2="350.0" stroke="black" fill="none" stroke-width="3"/>
        <line x1="1225.0" x2="1300.0" y1="375.0" y2="375.0" stroke="black" fill="none" stroke-width="3"/>
        <line x1="1225.0" x2="1300.0" y1="400.0" y2="400.0" stroke="black" fill="none" stroke-width="3"/>
        <line x1="1225.0" x2="1300.0" y1="425.0" y2="425.0" stroke="black" fill="none" stroke-width="3"/>
        <line x1="1225.0" x2="1300.0" y1="450.0" y2="450.0" stroke="black" fill="none" stroke-width="3"/>
        <line x1="1225.0" x2="1300.0" y1="475.0" y2="475.0" stroke="black" fill="none" stroke-width="3"/>
        <line x1="1200.0" x2="1300.0" y1="500.0" y2="500.0" stroke="black" fill="none" stroke-width="3"/>
        <line x1="1225.0" x2="1300.0" y1="525.0" y2="525.0" stroke="black" fill="none" stroke-width="3"/>
        <line x1="1225.0" x2="1300.0" y1="550.0" y2="550.0" stroke="black" fill="none" stroke-width="3"/>
        <line x1="1225.0" x2="1300.0" y1="575.0" y2="575.0" stroke="black" fill="none" stroke-width="3"/>
        <line x1="1225.0" x2="1300.0" y1="600.0" y2="600.0" stroke="black" fill="none" stroke-width="3"/>
        <line x1="1225.0" x2="1300.0" y1="625.0" y2="625.0" stroke="black" fill="none" stroke-width="3"/>
        <line x1="1225.0" x2="1300.0" y1="650.0" y2="650.0" stroke="black" fill="none" stroke-width="3"/>
        <line x1="1225.0" x2="1300.0" y1="675.0" y2="675.0" stroke="black" fill="none" stroke-width="3"/>
        <line x1="1225.0" x2="1300.0" y1="700.0" y2="700.0" stroke="black" fill="none" stroke-width="3"/>
        <line x1="1700.0" x2="1775.0" y1="300.0" y2="300.0" stroke="black" fill="none" stroke-width="3"/>
        <line x1="1700.0" x2="1775.0" y1="325.0" y2="325.0" stroke="black" fill="none" stroke-width="3"/>
        <line x1="1700.0" x2="1775.0" y1="350.0" y2="350.0" stroke="black" fill="none" stroke-width="3"/>
        <line x1="1700.0" x2="1775.0" y1="375.0" y2="375.0" stroke="black" fill="none" stroke-width="3"/>
        <line x1="1700.0" x2="1775.0" y1="400.0" y2="400.0" stroke="black" fill="none" stroke-width="3"/>
        <line x1="1700.0" x2="1775.0" y1="425.0" y2="425.0" stroke="black" fill="none" stroke-width="3"/>
        <line x1="1700.0" x2="1775.0" y1="450.0" y2="450.0" stroke="black" fill="none" stroke-width="3"/>
        <line x1="1700.0" x2="1775.0" y1="475.0" y2="475.0" stroke="black" fill="none" stroke-width="3"/>
        <line x1="1700.0" x2="1800.0" y1="500.0" y2="500.0" stroke="black" fill="none" stroke-width="3"/>
        <line x1="1700.0" x2="1775.0" y1="525.0" y2="525.0" stroke="black" fill="none" stroke-width="3"/>
        <line x1="1700.0" x2="1775.0" y1="550.0" y2="550.0" stroke="black" fill="none" stroke-width="3"/>
        <line x1="1700.0" x2="1775.0" y1="575.0" y2="575.0" stroke="black" fill="none" stroke-width="3"/>
        <line x1="1700.0" x2="1775.0" y1="600.0" y2="600.0" stroke="black" fill="none" stroke-width="3"/>
        <line x1="1700.0" x2="1775.0" y1="625.0" y2="625.0" stroke="black" fill="none" stroke-width="3"/>
        <line x1="1700.0" x2="1775.0" y1="650.0" y2="650.0" stroke="black" fill="none" stroke-width="3"/>
        <line x1="1700.0" x2="1775.0" y1="675.0" y2="675.0" stroke="black" fill="none" stroke-width="3"/>
        <line x1="1700.0" x2="1775.0" y1="700.0" y2="700.0" stroke="black" fill="none" stroke-width="3"/>
    </g>
    <g inkscape:groupmode="layer" inkscape:label="3 - GUIDELINES-Layer 1" id="g5" transform="translate(0.0 0.0)"><line x1="1500.0" x2="1500.0" y1="300.0" y2="700.0" stroke="red" fill="none" stroke-width="10.0"/>
        <line x1="1300.0" x2="1700.0" y1="500.0" y2="500.0" stroke="red" fill="none" stroke-width="10.0"/>
    </g>
</svg>
