<?xml version="1.0" encoding="UTF-8"?>
<svg width="12in" height="9in" viewBox="0 0 10000 10000" version="1.1" id="svg6" sodipodi:docname="test_inkscape.svg" inkscape:version="1.3.2 (091e20e, 2023-11-25, custom)" xmlns:inkscape="http://www.inkscape.org/namespaces/inkscape" xmlns:sodipodi="http://sodipodi.sourceforge.net/DTD/sodipodi-0.dtd" xmlns="http://www.w3.org/2000/svg" xmlns:svg="http://www.w3.org/2000/svg"><g inkscape:groupmode="layer" inkscape:label="0 - frame" id="g5" transform="translate(0.0 0.0)"><path d="M 1000.0 1000.0 L 1000.0 9000.0 L 9000.0 9000.0 L 9000.0 1000.0 L 1000.0 1000.0" stroke="black" fill="none" stroke-width="3" stroke-opacity="0.5"/></g>
    <g inkscape:groupmode="layer" inkscape:label="1 - black" id="g5" transform="translate(0.0 0.0)"><path d="M 500.0 1000.0 L 650.0 1150.0 L 650.0 2350.0 L 500.0 2500.0" stroke="black" fill="none" stroke-width="20.0" stroke-opacity="0.5"/>
        <path d="M 500.0 2500.0 L 650.0 2759.8 L 650.0 3740.2 L 500.0 4000.0" stroke="black" fill="none" stroke-width="20.0" stroke-opacity="0.5"/>
        <path d="M 500.0 4000.0 L 1250.0 2701.0 L 2000.0 4000.0 L 500.0 4000.0" stroke="black" fill="none" stroke-width="20.0" stroke-opacity="0.5"/>
        <path d="M 500.0 4000.0" stroke="black" fill="none" stroke-width="20.0" stroke-opacity="0.5"/>
        <path d="M 500.0 4000.0" stroke="black" fill="none" stroke-width="20.0" stroke-opacity="0.5"/>
        <path d="M 500.0 4000.0 L 500.0 5500.0" stroke="black" fill="none" stroke-width="20.0" stroke-opacity="0.5"/>
        <path d="M 500.0 5500.0 L 2000.0 5500.0 L 1250.0 6799.0 L 500.0 5500.0" stroke="black" fill="none" stroke-width="20.0" stroke-opacity="0.5"/>
        <path d="M 500.0 5500.0" stroke="black" fill="none" stroke-width="20.0" stroke-opacity="0.5"/>
        <path d="M 500.0 5500.0 L 650.0 5759.8 L 650.0 6740.2 L 500.0 7000.0" stroke="black" fill="none" stroke-width="20.0" stroke-opacity="0.5"/>
        <path d="M 500.0 7000.0 L 500.0 5500.0 L -1000.0 5500.0" stroke="black" fill="none" stroke-width="20.0" stroke-opacity="0.5"/>
        <path d="M -1000.0 5500.0 L -1000.0 4000.0" stroke="black" fill="none" stroke-width="20.0" stroke-opacity="0.5"/>
        <path d="M -1000.0 4000.0" stroke="black" fill="none" stroke-width="20.0" stroke-opacity="0.5"/>
        <path d="M -1000.0 4000.0 L -1150.0 4150.0 L -1150.0 5350.0 L -1000.0 5500.0" stroke="black" fill="none" stroke-width="20.0" stroke-opacity="0.5"/>
        <path d="M -1000.0 5500.0 L -1000.0 7000.0" stroke="black" fill="none" stroke-width="20.0" stroke-opacity="0.5"/>
        <path d="M -1000.0 7000.0 L -1000.0 8500.0 L 500.0 8500.0 L 500.0 7000.0 L -1000.0 7000.0" stroke="black" fill="none" stroke-width="20.0" stroke-opacity="0.5"/>
        <path d="M -1000.0 7000.0 L -1150.0 7150.0 L -1150.0 8350.0 L -1000.0 8500.0" stroke="black" fill="none" stroke-width="20.0" stroke-opacity="0.5"/>
        <path d="M 500.0 8500.0 L 650.0 8350.0 L 650.0 7150.0 L 500.0 7000.0" stroke="black" fill="none" stroke-width="20.0" stroke-opacity="0.5"/>
        <path d="M 1250.0 6799.0 L 1509.8 6649.0 L 2000.0 5800.0 L 2000.0 5500.0" stroke="black" fill="none" stroke-width="20.0" stroke-opacity="0.5"/>
        <path d="M 2000.0 5500.0" stroke="black" fill="none" stroke-width="20.0" stroke-opacity="0.5"/>
        <path d="M 2000.0 5500.0 L 2000.0 7000.0 L 3500.0 7000.0 L 3500.0 5500.0 L 2000.0 5500.0" stroke="black" fill="none" stroke-width="20.0" stroke-opacity="0.5"/>
        <path d="M 2000.0 5500.0 L 2000.0 4000.0" stroke="black" fill="none" stroke-width="20.0" stroke-opacity="0.5"/>
        <path d="M 2000.0 4000.0 L 2000.0 3700.0 L 1509.8 2851.0 L 1250.0 2701.0" stroke="black" fill="none" stroke-width="20.0" stroke-opacity="0.5"/>
        <path d="M 500.0 2500.0 L 500.0 4000.0 L -1000.0 4000.0 L -1000.0 2500.0" stroke="black" fill="none" stroke-width="20.0" stroke-opacity="0.5"/>
        <path d="M -1000.0 2500.0 L -1150.0 2350.0 L -1150.0 1150.0 L -1000.0 1000.0" stroke="black" fill="none" stroke-width="20.0" stroke-opacity="0.5"/>
        <path d="M -1000.0 1000.0 L 500.0 1000.0 L 500.0 2500.0 L -1000.0 2500.0 L -1000.0 1000.0" stroke="black" fill="none" stroke-width="20.0" stroke-opacity="0.5"/>
        <path d="M -1000.0 2500.0" stroke="black" fill="none" stroke-width="20.0" stroke-opacity="0.5"/>
        <path d="M 2000.0 2500.0 L 3500.0 2500.0 L 3500.0 4000.0 L 2000.0 4000.0 L 2000.0 2500.0" stroke="black" fill="none" stroke-width="20.0" stroke-opacity="0.5"/>
        <path d="M 3500.0 2500.0 L 3650.0 2759.8 L 3650.0 3740.2 L 3500.0 4000.0" stroke="black" fill="none" stroke-width="20.0" stroke-opacity="0.5"/>
        <path d="M 3500.0 4000.0" stroke="black" fill="none" stroke-width="20.0" stroke-opacity="0.5"/>
        <path d="M 3500.0 4000.0 L 4250.0 2701.0 L 5000.0 4000.0 L 3500.0 4000.0" stroke="black" fill="none" stroke-width="20.0" stroke-opacity="0.5"/>
        <path d="M 3500.0 4000.0" stroke="black" fill="none" stroke-width="20.0" stroke-opacity="0.5"/>
        <path d="M 3500.0 4000.0 L 3500.0 5500.0" stroke="black" fill="none" stroke-width="20.0" stroke-opacity="0.5"/>
        <path d="M 3500.0 5500.0" stroke="black" fill="none" stroke-width="20.0" stroke-opacity="0.5"/>
        <path d="M 3500.0 5500.0 L 3650.0 5759.8 L 3650.0 6740.2 L 3500.0 7000.0" stroke="black" fill="none" stroke-width="20.0" stroke-opacity="0.5"/>
        <path d="M 4250.0 6799.0 L 4509.8 6649.0 L 5000.0 5800.0 L 5000.0 5500.0" stroke="black" fill="none" stroke-width="20.0" stroke-opacity="0.5"/>
        <path d="M 5000.0 5500.0" stroke="black" fill="none" stroke-width="20.0" stroke-opacity="0.5"/>
        <path d="M 5000.0 5500.0 L 6500.0 5500.0 L 6500.0 7000.0 L 5000.0 7000.0 L 5000.0 5500.0" stroke="black" fill="none" stroke-width="20.0" stroke-opacity="0.5"/>
        <path d="M 5000.0 5500.0 L 5000.0 4000.0" stroke="black" fill="none" stroke-width="20.0" stroke-opacity="0.5"/>
        <path d="M 5000.0 4000.0" stroke="black" fill="none" stroke-width="20.0" stroke-opacity="0.5"/>
        <path d="M 5000.0 4000.0" stroke="black" fill="none" stroke-width="20.0" stroke-opacity="0.5"/>
        <path d="M 5000.0 4000.0 L 5000.0 3700.0 L 4509.8 2851.0 L 4250.0 2701.0" stroke="black" fill="none" stroke-width="20.0" stroke-opacity="0.5"/>
        <path d="M 5000.0 2500.0 L 5150.0 2350.0 L 6350.0 2350.0 L 6500.0 2500.0" stroke="black" fill="none" stroke-width="20.0" stroke-opacity="0.5"/>
        <path d="M 6500.0 2500.0 L 6650.0 2759.8 L 6650.0 3740.2 L 6500.0 4000.0" stroke="black" fill="none" stroke-width="20.0" stroke-opacity="0.5"/>
        <path d="M 6500.0 4000.0" stroke="black" fill="none" stroke-width="20.0" stroke-opacity="0.5"/>
        <path d="M 6500.0 4000.0 L 7250.0 2701.0 L 8000.0 4000.0 L 6500.0 4000.0" stroke="black" fill="none" stroke-width="20.0" stroke-opacity="0.5"/>
        <path d="M 6500.0 4000.0 L 6500.0 5500.0" stroke="black" fill="none" stroke-width="20.0" stroke-opacity="0.5"/>
        <path d="M 6500.0 5500.0" stroke="black" fill="none" stroke-width="20.0" stroke-opacity="0.5"/>
        <path d="M 6500.0 5500.0 L 6650.0 5759.8 L 6650.0 6740.2 L 6500.0 7000.0" stroke="black" fill="none" stroke-width="20.0" stroke-opacity="0.5"/>
        <path d="M 6500.0 7000.0 L 6350.0 7150.0 L 5150.0 7150.0 L 5000.0 7000.0" stroke="black" fill="none" stroke-width="20.0" stroke-opacity="0.5"/>
        <path d="M 3500.0 5500.0 L 5000.0 5500.0 L 4250.0 6799.0 L 3500.0 5500.0" stroke="black" fill="none" stroke-width="20.0" stroke-opacity="0.5"/>
        <path d="M 2000.0 4000.0" stroke="black" fill="none" stroke-width="20.0" stroke-opacity="0.5"/>
        <path d="M 2000.0 4000.0" stroke="black" fill="none" stroke-width="20.0" stroke-opacity="0.5"/>
        <path d="M 5000.0 2500.0 L 6500.0 2500.0 L 6500.0 4000.0 L 5000.0 4000.0 L 5000.0 2500.0" stroke="black" fill="none" stroke-width="20.0" stroke-opacity="0.5"/>
        <path d="M 6500.0 4000.0" stroke="black" fill="none" stroke-width="20.0" stroke-opacity="0.5"/>
        <path d="M 6500.0 5500.0 L 8000.0 5500.0 L 7250.0 6799.0 L 6500.0 5500.0" stroke="black" fill="none" stroke-width="20.0" stroke-opacity="0.5"/>
        <path d="M 7250.0 6799.0 L 7509.8 6649.0 L 8000.0 5800.0 L 8000.0 5500.0" stroke="black" fill="none" stroke-width="20.0" stroke-opacity="0.5"/>
        <path d="M 8000.0 5500.0" stroke="black" fill="none" stroke-width="20.0" stroke-opacity="0.5"/>
        <path d="M 8000.0 5500.0 L 8000.0 4000.0" stroke="black" fill="none" stroke-width="20.0" stroke-opacity="0.5"/>
        <path d="M 8000.0 4000.0" stroke="black" fill="none" stroke-width="20.0" stroke-opacity="0.5"/>
        <path d="M 8000.0 4000.0" stroke="black" fill="none" stroke-width="20.0" stroke-opacity="0.5"/>
        <path d="M 8000.0 4000.0 L 8000.0 3700.0 L 7509.8 2851.0 L 7250.0 2701.0" stroke="black" fill="none" stroke-width="20.0" stroke-opacity="0.5"/>
        <path d="M 8000.0 2500.0 L 9500.0 2500.0 L 9500.0 4000.0 L 8000.0 4000.0 L 8000.0 2500.0" stroke="black" fill="none" stroke-width="20.0" stroke-opacity="0.5"/>
        <path d="M 9500.0 2500.0 L 9650.0 2759.8 L 9650.0 3740.2 L 9500.0 4000.0" stroke="black" fill="none" stroke-width="20.0" stroke-opacity="0.5"/>
        <path d="M 9500.0 4000.0" stroke="black" fill="none" stroke-width="20.0" stroke-opacity="0.5"/>
        <path d="M 9500.0 4000.0 L 10250.0 2701.0 L 11000.0 4000.0 L 9500.0 4000.0" stroke="black" fill="none" stroke-width="20.0" stroke-opacity="0.5"/>
        <path d="M 9500.0 4000.0 L 9500.0 5500.0" stroke="black" fill="none" stroke-width="20.0" stroke-opacity="0.5"/>
        <path d="M 9500.0 5500.0 L 10250.0 6799.0 L 11000.0 5500.0 L 9500.0 5500.0" stroke="black" fill="none" stroke-width="20.0" stroke-opacity="0.5"/>
        <path d="M 9500.0 5500.0" stroke="black" fill="none" stroke-width="20.0" stroke-opacity="0.5"/>
        <path d="M 9500.0 5500.0 L 9650.0 5759.8 L 9650.0 6740.2 L 9500.0 7000.0" stroke="black" fill="none" stroke-width="20.0" stroke-opacity="0.5"/>
        <path d="M 10250.0 6799.0 L 10509.8 6649.0 L 11000.0 5800.0 L 11000.0 5500.0" stroke="black" fill="none" stroke-width="20.0" stroke-opacity="0.5"/>
        <path d="M 11000.0 5500.0 L 11150.0 5350.0 L 11150.0 4150.0 L 11000.0 4000.0" stroke="black" fill="none" stroke-width="20.0" stroke-opacity="0.5"/>
        <path d="M 11000.0 4000.0 L 11000.0 3700.0 L 10509.8 2851.0 L 10250.0 2701.0" stroke="black" fill="none" stroke-width="20.0" stroke-opacity="0.5"/>
        <path d="M 11000.0 4000.0 L 11000.0 5500.0" stroke="black" fill="none" stroke-width="20.0" stroke-opacity="0.5"/>
        <path d="M 9500.0 4000.0" stroke="black" fill="none" stroke-width="20.0" stroke-opacity="0.5"/>
        <path d="M 8000.0 5500.0 L 8000.0 7000.0 L 9500.0 7000.0 L 9500.0 5500.0 L 8000.0 5500.0" stroke="black" fill="none" stroke-width="20.0" stroke-opacity="0.5"/>
    </g>
    <g inkscape:groupmode="layer" inkscape:label="2 - GUIDELINES-pen" id="g5" transform="translate(0.0 0.0)"><line x1="1300.0" x2="1300.0" y1="225.0" y2="300.0" stroke="black" fill="none" stroke-width="3"/>
        <line x1="1325.0" x2="1325.0" y1="225.0" y2="300.0" stroke="black" fill="none" stroke-width="3"/>
        <line x1="1350.0" x2="1350.0" y1="225.0" y2="300.0" stroke="black" fill="none" stroke-width="3"/>
        <line x1="1375.0" x2="1375.0" y1="225.0" y2="300.0" stroke="black" fill="none" stroke-width="3"/>
        <line x1="1400.0" x2="1400.0" y1="225.0" y2="300.0" stroke="black" fill="none" stroke-width="3"/>
        <line x1="1425.0" x2="1425.0" y1="225.0" y2="300.0" stroke="black" fill="none" stroke-width="3"/>
        <line x1="1450.0" x2="1450.0" y1="225.0" y2="300.0" stroke="black" fill="none" stroke-width="3"/>
        <line x1="1475.0" x2="1475.0" y1="225.0" y2="300.0" stroke="black" fill="none" stroke-width="3"/>
        <line x1="1500.0" x2="1500.0" y1="200.0" y2="300.0" stroke="black" fill="none" stroke-width="3"/>
        <line x1="1525.0" x2="1525.0" y1="225.0" y2="300.0" stroke="black" fill="none" stroke-width="3"/>
        <line x1="1550.0" x2="1550.0" y1="225.0" y2="300.0" stroke="black" fill="none" stroke-width="3"/>
        <line x1="1575.0" x2="1575.0" y1="225.0" y2="300.0" stroke="black" fill="none" stroke-width="3"/>
        <line x1="1600.0" x2="1600.0" y1="225.0" y2="300.0" stroke="black" fill="none" stroke-width="3"/>
        <line x1="1625.0" x2="1625.0" y1="225.0" y2="300.0" stroke="black" fill="none" stroke-width="3"/>
        <line x1="1650.0" x2="1650.0" y1="225.0" y2="300.0" stroke="black" fill="none" stroke-width="3"/>
        <line x1="1675.0" x2="1675.0" y1="225.0" y2="300.0" stroke="black" fill="none" stroke-width="3"/>
        <line x1="1700.0" x2="1700.0" y1="225.0" y2="300.0" stroke="black" fill="none" stroke-width="3"/>
        <line x1="1300.0" x2="1300.0" y1="700.0" y2="775.0" stroke="black" fill="none" stroke-width="3"/>
        <line x1="1325.0" x2="1325.0" y1="700.0" y2="775.0" stroke="black" fill="none" stroke-width="3"/>
        <line x1="1350.0" x2="1350.0" y1="700.0" y2="775.0" stroke="black" fill="none" stroke-width="3"/>
        <line x1="1375.0" x2="1375.0" y1="700.0" y2="775.0" stroke="black" fill="none" stroke-width="3"/>
        <line x1="1400.0" x2="1400.0" y1="700.0" y2="775.0" stroke="black" fill="none" stroke-width="3"/>
        <line x1="1425.0" x2="1425.0" y1="700.0" y2="775.0" stroke="black" fill="none" stroke-width="3"/>
        <line x1="1450.0" x2="1450.0" y1="700.0" y2="775.0" stroke="black" fill="none" stroke-width="3"/>
        <line x1="1475.0" x2="1475.0" y1="700.0" y2="775.0" stroke="black" fill="none" stroke-width="3"/>
        <line x1="1500.0" x2="1500.0" y1="700.0" y2="800.0" stroke="black" fill="none" stroke-width="3"/>
        <line x1="1525.0" x2="1525.0" y1="700.0" y2="775.0" stroke="black" fill="none" stroke-width="3"/>
        <line x1="1550.0" x2="1550.0" y1="700.0" y2="775.0" stroke="black" fill="none" stroke-width="3"/>
        <line x1="1575.0" x2="1575.0" y1="700.0" y2="775.0" stroke="black" fill="none" stroke-width="3"/>
        <line x1="1600.0" x2="1600.0" y1="700.0" y2="775.0" stroke="black" fill="none" stroke-width="3"/>
        <line x1="1625.0" x2="1625.0" y1="700.0" y2="775.0" stroke="black" fill="none" stroke-width="3"/>
        <line x1="1650.0" x2="1650.0" y1="700.0" y2="775.0" stroke="black" fill="none" stroke-width="3"/>
        <line x1="1675.0" x2="1675.0" y1="700.0" y2="775.0" stroke="black" fill="none" stroke-width="3"/>
        <line x1="1700.0" x2="1700.0" y1="700.0" y2="775.0" stroke="black" fill="none" stroke-width="3"/>
        <line x1="1225.0" x2="1300.0" y1="300.0" y2="300.0" stroke="black" fill="none" stroke-width="3"/>
        <line x1="1225.0" x2="1300.0" y1="325.0" y2="325.0" stroke="black" fill="none" stroke-width="3"/>
        <line x1="1225.0" x2="1300.0" y1="350.0" y2="350.0" stroke="black" fill="none" stroke-width="3"/>
        <line x1="1225.0" x2="1300.0" y1="375.0" y2="375.0" stroke="black" fill="none" stroke-width="3"/>
        <line x1="1225.0" x2="1300.0" y1="400.0" y2="400.0" stroke="black" fill="none" stroke-width="3"/>
        <line x1="1225.0" x2="1300.0" y1="425.0" y2="425.0" stroke="black" fill="none" stroke-width="3"/>
        <line x1="1225.0" x2="1300.0" y1="450.0" y2="450.0" stroke="black" fill="none" stroke-width="3"/>
        <line x1="1225.0" x2="1300.0" y1="475.0" y2="475.0" stroke="black" fill="none" stroke-width="3"/>
        <line x1="1200.0" x2="1300.0" y1="500.0" y2="500.0" stroke="black" fill="none" stroke-width="3"/>
        <line x1="1225.0" x2="1300.0" y1="525.0" y2="525.0" stroke="black" fill="none" stroke-width="3"/>
        <line x1="1225.0" x2="1300.0" y1="550.0" y2="550.0" stroke="black" fill="none" stroke-width="3"/>
        <line x1="1225.0" x2="1300.0" y1="575.0" y2="575.0" stroke="black" fill="none" stroke-width="3"/>
        <line x1="1225.0" x2="1300.0" y1="600.0" y2="600.0" stroke="black" fill="none" stroke-width="3"/>
        <line x1="1225.0" x2="1300.0" y1="625.0" y2="625.0" stroke="black" fill="none" stroke-width="3"/>
        <line x1="1225.0" x2="1300.0" y1="650.0" y2="650.0" stroke="black" fill="none" stroke-width="3"/>
        <line x1="1225.0" x2="1300.0" y1="675.0" y2="675.0" stroke="black" fill="none" stroke-width="3"/>
        <line x1="1225.0" x2="1300.0" y1="700.0" y2="700.0" stroke="black" fill="none" stroke-width="3"/>
        <line x1="1700.0" x2="1775.0" y1="300.0" y2="300.0" stroke="black" fill="none" stroke-width="3"/>
        <line x1="1700.0" x2="1775.0" y1="325.0" y2="325.0" stroke="black" fill="none" stroke-width="3"/>
        <line x1="1700.0" x2="1775.0" y1="350.0" y2="350.0" stroke="black" fill="none" stroke-width="3"/>
        <line x1="1700.0" x2="1775.0" y1="375.0" y2="375.0" stroke="black" fill="none" stroke-width="3"/>
        <line x1="1700.0" x2="1775.0" y1="400.0" y2="400.0" stroke="black" fill="none" stroke-width="3"/>
        <line x1="1700.0" x2="1775.0" y1="425.0" y2="425.0" stroke="black" fill="none" stroke-width="3"/>
        <line x1="1700.0" x2="1775.0" y1="450.0" y2="450.0" stroke="black" fill="none" stroke-width="3"/>
        <line x1="1700.0" x2="1775.0" y1="475.0" y2="475.0" stroke="black" fill="none" stroke-width="3"/>
        <line x1="1700.0" x2="1800.0" y1="500.0" y2="500.0" stroke="black" fill="none" stroke-width="3"/>
        <line x1="1700.0" x2="1775.0" y1="525.0" y2="525.0" stroke="black" fill="none" stroke-width="3"/>
        <line x1="1700.0" x2="1775.0" y1="550.0" y2="550.0" stroke="black" fill="none" stroke-width="3"/>
        <line x1="1700.0" x2="1775.0" y1="575.0" y2="575.0" stroke="black" fill="none" stroke-width="3"/>
        <line x1="1700.0" x2="1775.0" y1="600.0" y2="600.0" stroke="black" fill="none" stroke-width="3"/>
        <line x1="1700.0" x2="1775.0" y1="625.0" y2="625.0" stroke="black" fill="none" stroke-width="3"/>
        <line x1="1700.0" x2="1775.0" y1="650.0" y2="650.0" stroke="black" fill="none" stroke-width="3"/>
        <line x1="1700.0" x2="1775.0" y1="675.0" y2="675.0" stroke="black" fill="none" stroke-width="3"/>
        <line x1="1700.0" x2="1775.0" y1="700.0" y2="700.0" stroke="black" fill="none" stroke-width="3"/>
    </g>
    <g inkscape:groupmode="layer" inkscape:label="3 - GUIDELINES-Layer 1" id="g5" transform="translate(0.0 0.0)"><line x1="1500.0" x2="1500.0" y1="300.0" y2="700.0" stroke="black" fill="none" stroke-width="20.0"/>
        <line x1="1300.0" x2="1700.0" y1="500.0" y2="500.0" stroke="black" fill="none" stroke-width="20.0"/>
    </g>
</svg>
