<?xml version="1.0" encoding="UTF-8"?>
<svg width="12in" height="9in" viewBox="0 0 10000 10000" version="1.1" id="svg6" sodipodi:docname="test_inkscape.svg" inkscape:version="1.3.2 (091e20e, 2023-11-25, custom)" xmlns:inkscape="http://www.inkscape.org/namespaces/inkscape" xmlns:sodipodi="http://sodipodi.sourceforge.net/DTD/sodipodi-0.dtd" xmlns="http://www.w3.org/2000/svg" xmlns:svg="http://www.w3.org/2000/svg"><g inkscape:groupmode="layer" inkscape:label="0 - frame" id="g5" transform="translate(0.0 0.0)"><path d="M 1000.0 1000.0 L 1000.0 9000.0 L 9000.0 9000.0 L 9000.0 1000.0 L 1000.0 1000.0" stroke="black" fill="none" stroke-width="3" stroke-opacity="0.5"/></g>
    <g inkscape:groupmode="layer" inkscape:label="1 - black" id="g5" transform="translate(0.0 0.0)"><path d="M 3864.3 4250.0 L 3714.3 4100.0 L 3714.3 2900.0 L 3864.3 2750.0" stroke="black" fill="none" stroke-width="20.0" stroke-opacity="0.5"/>
        <path d="M 3864.3 2750.0 L 5364.3 4250.0 L 3864.3 4250.0 L 3864.3 2750.0" stroke="black" fill="none" stroke-width="20.0" stroke-opacity="0.5"/>
        <path d="M 3864.3 4250.0" stroke="black" fill="none" stroke-width="20.0" stroke-opacity="0.5"/>
        <path d="M 3864.3 4250.0 L 2364.3 4250.0" stroke="black" fill="none" stroke-width="20.0" stroke-opacity="0.5"/>
        <path d="M 2364.3 4250.0 L 2364.3 5750.0 L 3864.3 5750.0" stroke="black" fill="none" stroke-width="20.0" stroke-opacity="0.5"/>
        <path d="M 3864.3 5750.0 L 3714.3 5900.0 L 3714.3 7100.0 L 3864.3 7250.0" stroke="black" fill="none" stroke-width="20.0" stroke-opacity="0.5"/>
        <path d="M 3864.3 5750.0 L 3864.3 4250.0" stroke="black" fill="none" stroke-width="20.0" stroke-opacity="0.5"/>
        <path d="M 5364.3 4250.0 L 5514.3 4100.0 L 7335.7 4100.0 L 7485.7 4250.0" stroke="black" fill="none" stroke-width="20.0" stroke-opacity="0.5"/>
        <path d="M 7485.7 4250.0 L 7635.7 4400.0 L 7635.7 5600.0 L 7485.7 5750.0" stroke="black" fill="none" stroke-width="20.0" stroke-opacity="0.5"/>
        <path d="M 7485.7 5750.0 L 7335.7 5900.0 L 5514.3 5900.0 L 5364.3 5750.0" stroke="black" fill="none" stroke-width="20.0" stroke-opacity="0.5"/>
        <path d="M 5364.3 5750.0" stroke="black" fill="none" stroke-width="20.0" stroke-opacity="0.5"/>
        <path d="M 5364.3 4250.0 L 7485.7 4250.0 L 7485.7 5750.0 L 5364.3 5750.0 L 5364.3 4250.0" stroke="black" fill="none" stroke-width="20.0" stroke-opacity="0.5"/>
        <path d="M 5364.3 4250.0" stroke="black" fill="none" stroke-width="20.0" stroke-opacity="0.5"/>
        <path d="M 3864.3 5750.0 L 5364.3 5750.0 L 3864.3 7250.0 L 3864.3 5750.0" stroke="black" fill="none" stroke-width="20.0" stroke-opacity="0.5"/>
    </g>
    <g inkscape:groupmode="layer" inkscape:label="2 - red" id="g5" transform="translate(0.0 0.0)"><line x1="3864.3" x2="5364.3" y1="2750.0" y2="4250.0" stroke="red" fill="none" stroke-width="20.0"/>
        <line x1="5364.3" x2="3864.3" y1="4250.0" y2="4250.0" stroke="red" fill="none" stroke-width="20.0"/>
        <line x1="3864.3" x2="3864.3" y1="4250.0" y2="2750.0" stroke="red" fill="none" stroke-width="20.0"/>
        <line x1="3864.3" x2="3864.3" y1="2750.0" y2="2750.0" stroke="red" fill="none" stroke-width="20.0"/>
        <line x1="3864.3" x2="3714.3" y1="2750.0" y2="2900.0" stroke="red" fill="none" stroke-width="20.0"/>
        <line x1="3714.3" x2="3714.3" y1="2900.0" y2="4100.0" stroke="red" fill="none" stroke-width="20.0"/>
        <line x1="3714.3" x2="3864.3" y1="4100.0" y2="4250.0" stroke="red" fill="none" stroke-width="20.0"/>
        <line x1="3864.3" x2="5364.3" y1="4250.0" y2="4250.0" stroke="red" fill="none" stroke-width="20.0"/>
        <line x1="5364.3" x2="7485.7" y1="4250.0" y2="4250.0" stroke="red" fill="none" stroke-width="20.0"/>
        <line x1="7485.7" x2="7485.7" y1="4250.0" y2="5750.0" stroke="red" fill="none" stroke-width="20.0"/>
        <line x1="7485.7" x2="7335.7" y1="5750.0" y2="5900.0" stroke="red" fill="none" stroke-width="20.0"/>
        <line x1="7335.7" x2="5514.3" y1="5900.0" y2="5900.0" stroke="red" fill="none" stroke-width="20.0"/>
        <line x1="5514.3" x2="5364.3" y1="5900.0" y2="5750.0" stroke="red" fill="none" stroke-width="20.0"/>
        <line x1="5364.3" x2="7485.7" y1="5750.0" y2="5750.0" stroke="red" fill="none" stroke-width="20.0"/>
        <line x1="7485.7" x2="7635.7" y1="5750.0" y2="5600.0" stroke="red" fill="none" stroke-width="20.0"/>
        <line x1="7635.7" x2="7635.7" y1="5600.0" y2="4400.0" stroke="red" fill="none" stroke-width="20.0"/>
        <line x1="7635.7" x2="7485.7" y1="4400.0" y2="4250.0" stroke="red" fill="none" stroke-width="20.0"/>
        <line x1="7485.7" x2="7335.7" y1="4250.0" y2="4100.0" stroke="red" fill="none" stroke-width="20.0"/>
        <line x1="7335.7" x2="5514.3" y1="4100.0" y2="4100.0" stroke="red" fill="none" stroke-width="20.0"/>
        <line x1="5514.3" x2="5364.3" y1="4100.0" y2="4250.0" stroke="red" fill="none" stroke-width="20.0"/>
        <line x1="5364.3" x2="7485.7" y1="4250.0" y2="4250.0" stroke="red" fill="none" stroke-width="20.0"/>
        <line x1="7485.7" x2="7485.7" y1="4250.0" y2="5750.0" stroke="red" fill="none" stroke-width="20.0"/>
        <line x1="7485.7" x2="5364.3" y1="5750.0" y2="5750.0" stroke="red" fill="none" stroke-width="20.0"/>
        <line x1="5364.3" x2="5364.3" y1="5750.0" y2="4250.0" stroke="red" fill="none" stroke-width="20.0"/>
        <line x1="5364.3" x2="5364.3" y1="4250.0" y2="4250.0" stroke="red" fill="none" stroke-width="20.0"/>
        <line x1="5364.3" x2="5364.3" y1="4250.0" y2="5750.0" stroke="red" fill="none" stroke-width="20.0"/>
        <line x1="5364.3" x2="3864.3" y1="5750.0" y2="5750.0" stroke="red" fill="none" stroke-width="20.0"/>
        <line x1="3864.3" x2="3864.3" y1="5750.0" y2="5750.0" stroke="red" fill="none" stroke-width="20.0"/>
        <line x1="3864.3" x2="3864.3" y1="5750.0" y2="7250.0" stroke="red" fill="none" stroke-width="20.0"/>
        <line x1="3864.3" x2="5364.3" y1="7250.0" y2="5750.0" stroke="red" fill="none" stroke-width="20.0"/>
        <line x1="5364.3" x2="3864.3" y1="5750.0" y2="5750.0" stroke="red" fill="none" stroke-width="20.0"/>
        <line x1="3864.3" x2="3864.3" y1="5750.0" y2="4250.0" stroke="red" fill="none" stroke-width="20.0"/>
        <line x1="3864.3" x2="3864.3" y1="4250.0" y2="2750.0" stroke="red" fill="none" stroke-width="20.0"/>
        <line x1="3864.3" x2="3864.3" y1="4250.0" y2="5750.0" stroke="red" fill="none" stroke-width="20.0"/>
        <line x1="3864.3" x2="3714.3" y1="5750.0" y2="5900.0" stroke="red" fill="none" stroke-width="20.0"/>
        <line x1="3714.3" x2="3714.3" y1="5900.0" y2="7100.0" stroke="red" fill="none" stroke-width="20.0"/>
        <line x1="3714.3" x2="3864.3" y1="7100.0" y2="7250.0" stroke="red" fill="none" stroke-width="20.0"/>
        <line x1="3864.3" x2="3864.3" y1="7250.0" y2="5750.0" stroke="red" fill="none" stroke-width="20.0"/>
        <line x1="3864.3" x2="2364.3" y1="5750.0" y2="5750.0" stroke="red" fill="none" stroke-width="20.0"/>
        <line x1="2364.3" x2="2364.3" y1="5750.0" y2="4250.0" stroke="red" fill="none" stroke-width="20.0"/>
        <line x1="2364.3" x2="2364.3" y1="4250.0" y2="4250.0" stroke="red" fill="none" stroke-width="20.0"/>
        <line x1="2364.3" x2="3864.3" y1="4250.0" y2="4250.0" stroke="red" fill="none" stroke-width="20.0"/>
        <line x1="3864.3" x2="3864.3" y1="4250.0" y2="4250.0" stroke="red" fill="none" stroke-width="20.0"/>
    </g>
    <g inkscape:groupmode="layer" inkscape:label="3 - green" id="g5" transform="translate(0.0 0.0)"><path d="M 4093.4 4010.3 L 4093.4 4003.3 Q 4102.6 3998.8, 4103.6 3997.7 Q 4104.6 3996.5, 4105.2 3993.8 Q 4106.1 3989.3, 4106.8 3974.9 Q 4107.5 3960.6, 4107.5 3953.0 L 4107.5 3864.1 Q 4107.5 3849.6, 4106.6 3830.1 Q 4106.0 3817.9, 4104.5 3814.9 Q 4103.5 3813.0, 4101.4 3812.1 Q 4096.5 3810.0, 4081.2 3809.9 L 4081.2 3800.6 Q 4086.1 3800.9, 4093.4 3800.9 L 4124.1 3801.6 L 4178.4 3800.3 Q 4200.0 3800.3, 4211.6 3804.8 Q 4223.3 3809.2, 4229.8 3819.1 Q 4236.4 3829.1, 4236.4 3841.3 Q 4236.4 3851.1, 4232.5 3859.6 Q 4228.6 3868.2, 4222.0 3874.5 Q 4215.4 3880.7, 4207.4 3884.6 Q 4199.4 3888.6, 4186.4 3891.8 Q 4203.6 3893.4, 4214.3 3896.6 Q 4224.9 3899.8, 4232.0 3906.0 Q 4239.2 3912.3, 4242.9 3921.3 Q 4246.6 3930.3, 4246.6 3941.4 Q 4246.6 3963.2, 4233.4 3979.8 Q 4220.2 3996.4, 4199.4 4004.4 Q 4183.9 4010.3, 4162.6 4010.3 L 4119.8 4009.1 Q 4112.9 4009.1, 4093.4 4010.3" stroke="green" fill="none" stroke-width="20.0" stroke-opacity="0.5"/>
        <path d="M 4135.9 3995.1 Q 4147.0 3997.7, 4159.3 3997.7 Q 4178.7 3997.7, 4190.7 3991.8 Q 4202.6 3985.8, 4209.0 3973.7 Q 4215.4 3961.6, 4215.4 3945.9 Q 4215.4 3930.4, 4209.4 3919.9 Q 4203.4 3909.3, 4191.3 3904.3 Q 4179.3 3899.2, 4151.7 3899.2 Q 4145.4 3899.2, 4135.5 3899.8 L 4135.5 3955.7 Q 4135.5 3963.8, 4135.9 3995.1" stroke="green" fill="none" stroke-width="20.0" stroke-opacity="0.5"/>
        <path d="M 4135.5 3887.7 Q 4143.9 3888.1, 4150.2 3888.1 Q 4168.5 3888.1, 4178.5 3885.3 Q 4188.4 3882.5, 4193.9 3877.9 Q 4199.4 3873.4, 4203.0 3865.5 Q 4206.6 3857.7, 4206.6 3847.2 Q 4206.6 3828.8, 4194.9 3820.6 Q 4183.2 3812.4, 4160.6 3812.4 Q 4148.0 3812.4, 4136.8 3814.6 Q 4135.5 3826.9, 4135.5 3852.5 L 4135.5 3887.7" stroke="green" fill="none" stroke-width="20.0" stroke-opacity="0.5"/>
        <path d="M 4360.5 3915.9 L 4430.3 3915.9 L 4430.3 3929.3 L 4360.5 3929.3 L 4360.5 3999.0 L 4346.9 3999.0 L 4346.9 3929.3 L 4277.1 3929.3 L 4277.1 3915.9 L 4346.9 3915.9 L 4346.9 3846.1 L 4360.5 3846.1 L 4360.5 3915.9" stroke="green" fill="none" stroke-width="20.0" stroke-opacity="0.5"/>
        <path d="M 4467.4 3842.2 L 4464.8 3841.5 L 4463.3 3829.4 L 4464.8 3827.9 Q 4480.6 3823.4, 4499.2 3815.4 Q 4526.6 3803.7, 4534.4 3799.7 L 4538.3 3801.2 Q 4535.9 3868.8, 4535.9 3878.8 L 4535.9 3933.6 Q 4535.9 3966.3, 4536.7 3983.1 Q 4537.1 3993.0, 4539.1 3995.6 Q 4541.1 3998.2, 4545.0 3999.3 Q 4548.9 4000.4, 4570.6 4001.3 L 4570.6 4010.3 Q 4533.3 4009.1, 4523.8 4009.1 Q 4516.7 4009.1, 4473.8 4010.3 L 4473.8 4001.3 Q 4496.2 3999.9, 4499.7 3999.1 Q 4503.1 3998.3, 4504.8 3996.7 Q 4506.5 3995.1, 4507.3 3992.2 Q 4508.5 3987.6, 4509.3 3965.8 Q 4510.2 3944.0, 4510.2 3932.8 L 4510.2 3874.7 Q 4510.2 3839.1, 4510.1 3830.1 Q 4510.1 3826.1, 4509.0 3825.1 Q 4508.5 3824.5, 4507.4 3824.5 Q 4506.1 3824.5, 4500.6 3826.9 Q 4475.6 3838.1, 4467.4 3842.2" stroke="green" fill="none" stroke-width="20.0" stroke-opacity="0.5"/>
        <path d="M 4441.8 4889.1 Q 4493.6 4891.7, 4532.4 4891.7 Q 4644.5 4891.7, 4705.6 4874.6 Q 4766.7 4857.5, 4800.3 4829.4 Q 4833.9 4801.3, 4856.0 4753.4 Q 4878.2 4705.5, 4878.2 4641.2 Q 4878.2 4528.0, 4806.2 4477.8 Q 4734.2 4427.5, 4595.8 4427.5 Q 4518.8 4427.5, 4450.2 4441.1 Q 4441.8 4516.4, 4441.8 4673.6 L 4441.8 4889.1" stroke="green" fill="none" stroke-width="20.0" stroke-opacity="0.5"/>
        <path d="M 4444.7 5547.8 Q 4512.4 5564.1, 4587.7 5564.1 Q 4707.0 5564.1, 4780.3 5527.4 Q 4853.6 5490.8, 4892.9 5416.7 Q 4932.3 5342.5, 4932.3 5246.4 Q 4932.3 5151.4, 4895.2 5086.7 Q 4858.2 5022.0, 4784.5 4990.9 Q 4710.8 4959.7, 4541.4 4959.7 Q 4502.6 4959.7, 4441.8 4963.2 L 4441.8 5306.3 Q 4441.8 5356.2, 4444.7 5547.8" stroke="green" fill="none" stroke-width="20.0" stroke-opacity="0.5"/>
        <path d="M 4184.1 5641.1 L 4184.1 5598.5 Q 4240.3 5570.4, 4246.5 5563.6 Q 4252.7 5556.8, 4256.5 5539.7 Q 4262.0 5512.5, 4266.0 5424.3 Q 4270.1 5336.2, 4270.1 5289.8 L 4270.1 4744.3 Q 4270.1 4655.7, 4264.6 4536.1 Q 4260.8 4461.1, 4251.8 4442.9 Q 4245.5 4431.3, 4233.0 4425.8 Q 4202.9 4413.0, 4108.8 4412.2 L 4108.8 4355.1 Q 4138.9 4357.2, 4184.1 4357.2 L 4372.3 4361.5 L 4705.3 4353.4 Q 4837.3 4353.4, 4908.9 4380.6 Q 4980.4 4407.8, 5020.6 4468.8 Q 5060.9 4529.7, 5060.9 4605.0 Q 5060.9 4664.7, 5036.8 4717.2 Q 5012.8 4769.8, 4972.6 4808.2 Q 4932.3 4846.5, 4883.1 4870.6 Q 4833.9 4894.6, 4754.2 4914.6 Q 4859.9 4924.4, 4925.1 4943.8 Q 4990.2 4963.2, 5034.1 5001.7 Q 5078.0 5040.2, 5100.7 5095.4 Q 5123.4 5150.6, 5123.4 5218.6 Q 5123.4 5352.4, 5042.3 5454.2 Q 4961.3 5556.0, 4833.9 5604.9 Q 4738.6 5641.1, 4608.3 5641.1 L 4345.9 5633.8 Q 4303.4 5633.8, 4184.1 5641.1" stroke="green" fill="none" stroke-width="20.0" stroke-opacity="0.5"/>
        <path d="M 4373.0 6041.2 L 4369.5 6040.2 L 4367.5 6024.1 L 4369.5 6022.1 Q 4390.5 6016.0, 4415.3 6005.4 Q 4452.0 5989.8, 4462.4 5984.5 L 4467.5 5986.5 Q 4464.4 6076.6, 4464.4 6090.1 L 4464.4 6163.1 Q 4464.4 6206.8, 4465.4 6229.3 Q 4465.9 6242.4, 4468.6 6245.9 Q 4471.3 6249.4, 4476.5 6250.8 Q 4481.7 6252.3, 4510.7 6253.4 L 4510.7 6265.5 Q 4460.8 6263.9, 4448.2 6263.9 Q 4438.8 6263.9, 4381.5 6265.5 L 4381.5 6253.4 Q 4411.4 6251.7, 4416.0 6250.6 Q 4420.6 6249.5, 4422.9 6247.4 Q 4425.2 6245.2, 4426.2 6241.3 Q 4427.8 6235.2, 4428.9 6206.1 Q 4430.1 6177.1, 4430.1 6162.1 L 4430.1 6084.5 Q 4430.1 6037.1, 4429.9 6025.0 Q 4429.9 6019.7, 4428.5 6018.4 Q 4427.8 6017.6, 4426.4 6017.6 Q 4424.6 6017.6, 4417.3 6020.7 Q 4383.8 6035.7, 4373.0 6041.2" stroke="green" fill="none" stroke-width="20.0" stroke-opacity="0.5"/>
        <path d="M 4217.5 6179.2 L 4217.5 6176.4 L 4226.3 6150.1 L 4331.7 6150.1 L 4331.7 6153.1 L 4322.2 6179.2 L 4217.5 6179.2" stroke="green" fill="none" stroke-width="20.0" stroke-opacity="0.5"/>
        <path d="M 4040.7 6245.2 Q 4055.4 6248.7, 4071.8 6248.7 Q 4097.8 6248.7, 4113.7 6240.8 Q 4129.7 6232.8, 4138.2 6216.6 Q 4146.8 6200.5, 4146.8 6179.6 Q 4146.8 6158.9, 4138.7 6144.8 Q 4130.7 6130.8, 4114.6 6124.0 Q 4098.6 6117.2, 4061.7 6117.2 Q 4053.3 6117.2, 4040.1 6118.0 L 4040.1 6192.6 Q 4040.1 6203.5, 4040.7 6245.2" stroke="green" fill="none" stroke-width="20.0" stroke-opacity="0.5"/>
        <path d="M 3984.0 6265.5 L 3984.0 6256.2 Q 3996.2 6250.1, 3997.5 6248.6 Q 3998.9 6247.1, 3999.7 6243.4 Q 4000.9 6237.5, 4001.8 6218.3 Q 4002.7 6199.1, 4002.7 6189.1 L 4002.7 6070.3 Q 4002.7 6051.1, 4001.5 6025.0 Q 4000.7 6008.7, 3998.7 6004.7 Q 3997.3 6002.2, 3994.6 6001.0 Q 3988.1 5998.3, 3967.6 5998.1 L 3967.6 5985.7 Q 3974.1 5986.1, 3984.0 5986.1 L 4024.9 5987.0 L 4097.4 5985.3 Q 4126.1 5985.3, 4141.7 5991.2 Q 4157.3 5997.1, 4166.0 6010.4 Q 4174.8 6023.6, 4174.8 6040.0 Q 4174.8 6053.0, 4169.5 6064.4 Q 4164.3 6075.9, 4155.5 6084.2 Q 4146.8 6092.6, 4136.1 6097.8 Q 4125.4 6103.0, 4108.0 6107.4 Q 4131.0 6109.5, 4145.2 6113.8 Q 4159.4 6118.0, 4168.9 6126.4 Q 4178.5 6134.7, 4183.4 6146.7 Q 4188.4 6158.7, 4188.4 6173.5 Q 4188.4 6202.7, 4170.7 6224.8 Q 4153.1 6247.0, 4125.4 6257.6 Q 4104.6 6265.5, 4076.3 6265.5 L 4019.2 6263.9 Q 4009.9 6263.9, 3984.0 6265.5" stroke="green" fill="none" stroke-width="20.0" stroke-opacity="0.5"/>
        <path d="M 4040.1 6101.8 Q 4051.3 6102.4, 4059.8 6102.4 Q 4084.2 6102.4, 4097.5 6098.7 Q 4110.7 6095.0, 4118.1 6088.9 Q 4125.4 6082.8, 4130.2 6072.3 Q 4135.0 6061.9, 4135.0 6047.9 Q 4135.0 6023.3, 4119.4 6012.3 Q 4103.7 6001.4, 4073.6 6001.4 Q 4056.8 6001.4, 4041.9 6004.4 Q 4040.1 6020.7, 4040.1 6055.0 L 4040.1 6101.8" stroke="green" fill="none" stroke-width="20.0" stroke-opacity="0.5"/>
        <path d="M 2869.0 5130.7 L 3299.6 5130.7 L 3086.2 4616.3 L 2869.0 5130.7" stroke="green" fill="none" stroke-width="20.0" stroke-opacity="0.5"/>
        <path d="M 2472.3 5609.0 L 2472.3 5550.9 Q 2539.7 5550.1, 2556.3 5545.4 Q 2573.0 5540.8, 2587.0 5527.6 Q 2601.1 5514.3, 2627.5 5458.9 Q 2642.8 5427.3, 2738.3 5219.4 L 2951.7 4738.3 Q 2986.6 4659.1, 3101.0 4385.5 L 3156.4 4385.5 L 3520.4 5240.6 Q 3609.1 5448.6, 3638.0 5501.5 Q 3654.4 5531.5, 3673.5 5540.8 Q 3692.6 5550.1, 3760.0 5550.9 L 3760.0 5609.0 Q 3627.1 5600.6, 3574.1 5600.6 L 3299.6 5609.0 L 3299.6 5550.9 Q 3395.1 5549.3, 3415.6 5545.0 Q 3436.1 5540.8, 3443.3 5532.8 Q 3450.5 5524.7, 3450.5 5512.7 Q 3450.5 5493.9, 3438.5 5464.1 L 3333.7 5203.0 L 2839.8 5203.0 L 2747.0 5422.4 Q 2722.2 5481.0, 2722.2 5508.3 Q 2722.2 5520.3, 2729.0 5528.0 Q 2738.3 5539.2, 2758.0 5543.3 Q 2789.6 5550.1, 2869.0 5550.9 L 2869.0 5609.0 Q 2724.7 5601.4, 2653.2 5601.4 Q 2570.5 5601.4, 2472.3 5609.0" stroke="green" fill="none" stroke-width="20.0" stroke-opacity="0.5"/>
        <path d="M 7156.0 5467.2 L 7122.1 5548.4 Q 7019.6 5600.2, 6921.6 5623.4 Q 6823.7 5646.7, 6708.1 5646.7 Q 6572.6 5646.7, 6456.2 5612.5 Q 6339.9 5578.4, 6252.9 5515.0 Q 6165.8 5451.6, 6110.7 5372.8 Q 6055.5 5294.0, 6026.7 5201.7 Q 5997.8 5109.5, 5997.8 4999.2 Q 5997.8 4720.1, 6192.5 4536.9 Q 6387.2 4353.6, 6724.0 4353.6 Q 6803.5 4353.6, 6871.3 4362.7 Q 6939.0 4371.8, 7036.6 4397.7 Q 7134.1 4423.6, 7156.0 4427.8 Q 7136.9 4476.0, 7127.1 4522.5 Q 7113.1 4596.6, 7108.1 4694.6 L 7052.9 4694.6 L 7052.1 4591.6 Q 7043.1 4505.7, 6957.1 4463.7 Q 6871.0 4421.7, 6704.7 4421.7 Q 6580.4 4423.6, 6493.8 4453.7 Q 6407.1 4483.8, 6341.2 4549.0 Q 6275.3 4614.3, 6233.3 4714.5 Q 6191.3 4814.7, 6190.2 4965.9 Q 6190.2 5231.0, 6352.1 5392.4 Q 6514.1 5553.7, 6780.0 5553.7 Q 6899.8 5553.7, 7002.0 5520.4 Q 7072.0 5497.8, 7141.1 5448.8 L 7156.0 5467.2" stroke="green" fill="none" stroke-width="20.0" stroke-opacity="0.5"/>
    </g>
    <g inkscape:groupmode="layer" inkscape:label="4 - blue" id="g5" transform="translate(0.0 0.0)"><path d="M 2364.3 2750.0 L 2364.3 7250.0 L 7635.7 7250.0 L 7635.7 2750.0 L 2364.3 2750.0" stroke="blue" fill="none" stroke-width="20.0" stroke-opacity="0.5"/></g>
    <g inkscape:groupmode="layer" inkscape:label="5 - GUIDELINES-pen" id="g5" transform="translate(0.0 0.0)"><line x1="1300.0" x2="1300.0" y1="225.0" y2="300.0" stroke="black" fill="none" stroke-width="3"/>
        <line x1="1325.0" x2="1325.0" y1="225.0" y2="300.0" stroke="black" fill="none" stroke-width="3"/>
        <line x1="1350.0" x2="1350.0" y1="225.0" y2="300.0" stroke="black" fill="none" stroke-width="3"/>
        <line x1="1375.0" x2="1375.0" y1="225.0" y2="300.0" stroke="black" fill="none" stroke-width="3"/>
        <line x1="1400.0" x2="1400.0" y1="225.0" y2="300.0" stroke="black" fill="none" stroke-width="3"/>
        <line x1="1425.0" x2="1425.0" y1="225.0" y2="300.0" stroke="black" fill="none" stroke-width="3"/>
        <line x1="1450.0" x2="1450.0" y1="225.0" y2="300.0" stroke="black" fill="none" stroke-width="3"/>
        <line x1="1475.0" x2="1475.0" y1="225.0" y2="300.0" stroke="black" fill="none" stroke-width="3"/>
        <line x1="1500.0" x2="1500.0" y1="200.0" y2="300.0" stroke="black" fill="none" stroke-width="3"/>
        <line x1="1525.0" x2="1525.0" y1="225.0" y2="300.0" stroke="black" fill="none" stroke-width="3"/>
        <line x1="1550.0" x2="1550.0" y1="225.0" y2="300.0" stroke="black" fill="none" stroke-width="3"/>
        <line x1="1575.0" x2="1575.0" y1="225.0" y2="300.0" stroke="black" fill="none" stroke-width="3"/>
        <line x1="1600.0" x2="1600.0" y1="225.0" y2="300.0" stroke="black" fill="none" stroke-width="3"/>
        <line x1="1625.0" x2="1625.0" y1="225.0" y2="300.0" stroke="black" fill="none" stroke-width="3"/>
        <line x1="1650.0" x2="1650.0" y1="225.0" y2="300.0" stroke="black" fill="none" stroke-width="3"/>
        <line x1="1675.0" x2="1675.0" y1="225.0" y2="300.0" stroke="black" fill="none" stroke-width="3"/>
        <line x1="1700.0" x2="1700.0" y1="225.0" y2="300.0" stroke="black" fill="none" stroke-width="3"/>
        <line x1="1300.0" x2="1300.0" y1="700.0" y2="775.0" stroke="black" fill="none" stroke-width="3"/>
        <line x1="1325.0" x2="1325.0" y1="700.0" y2="775.0" stroke="black" fill="none" stroke-width="3"/>
        <line x1="1350.0" x2="1350.0" y1="700.0" y2="775.0" stroke="black" fill="none" stroke-width="3"/>
        <line x1="1375.0" x2="1375.0" y1="700.0" y2="775.0" stroke="black" fill="none" stroke-width="3"/>
        <line x1="1400.0" x2="1400.0" y1="700.0" y2="775.0" stroke="black" fill="none" stroke-width="3"/>
        <line x1="1425.0" x2="1425.0" y1="700.0" y2="775.0" stroke="black" fill="none" stroke-width="3"/>
        <line x1="1450.0" x2="1450.0" y1="700.0" y2="775.0" stroke="black" fill="none" stroke-width="3"/>
        <line x1="1475.0" x2="1475.0" y1="700.0" y2="775.0" stroke="black" fill="none" stroke-width="3"/>
        <line x1="1500.0" x2="1500.0" y1="700.0" y2="800.0" stroke="black" fill="none" stroke-width="3"/>
        <line x1="1525.0" x2="1525.0" y1="700.0" y2="775.0" stroke="black" fill="none" stroke-width="3"/>
        <line x1="1550.0" x2="1550.0" y1="700.0" y2="775.0" stroke="black" fill="none" stroke-width="3"/>
        <line x1="1575.0" x2="1575.0" y1="700.0" y2="775.0" stroke="black" fill="none" stroke-width="3"/>
        <line x1="1600.0" x2="1600.0" y1="700.0" y2="775.0" stroke="black" fill="none" stroke-width="3"/>
        <line x1="1625.0" x2="1625.0" y1="700.0" y2="775.0" stroke="black" fill="none" stroke-width="3"/>
        <line x1="1650.0" x2="1650.0" y1="700.0" y2="775.0" stroke="black" fill="none" stroke-width="3"/>
        <line x1="1675.0" x2="1675.0" y1="700.0" y2="775.0" stroke="black" fill="none" stroke-width="3"/>
        <line x1="1700.0" x2="1700.0" y1="700.0" y2="775.0" stroke="black" fill="none" stroke-width="3"/>
        <line x1="1225.0" x2="1300.0" y1="300.0" y2="300.0" stroke="black" fill="none" stroke-width="3"/>
        <line x1="1225.0" x2="1300.0" y1="325.0" y2="325.0" stroke="black" fill="none" stroke-width="3"/>
        <line x1="1225.0" x2="1300.0" y1="350.0" y2="350.0" stroke="black" fill="none" stroke-width="3"/>
        <line x1="1225.0" x2="1300.0" y1="375.0" y2="375.0" stroke="black" fill="none" stroke-width="3"/>
        <line x1="1225.0" x2="1300.0" y1="400.0" y2="400.0" stroke="black" fill="none" stroke-width="3"/>
        <line x1="1225.0" x2="1300.0" y1="425.0" y2="425.0" stroke="black" fill="none" stroke-width="3"/>
        <line x1="1225.0" x2="1300.0" y1="450.0" y2="450.0" stroke="black" fill="none" stroke-width="3"/>
        <line x1="1225.0" x2="1300.0" y1="475.0" y2="475.0" stroke="black" fill="none" stroke-width="3"/>
        <line x1="1200.0" x2="1300.0" y1="500.0" y2="500.0" stroke="black" fill="none" stroke-width="3"/>
        <line x1="1225.0" x2="1300.0" y1="525.0" y2="525.0" stroke="black" fill="none" stroke-width="3"/>
        <line x1="1225.0" x2="1300.0" y1="550.0" y2="550.0" stroke="black" fill="none" stroke-width="3"/>
        <line x1="1225.0" x2="1300.0" y1="575.0" y2="575.0" stroke="black" fill="none" stroke-width="3"/>
        <line x1="1225.0" x2="1300.0" y1="600.0" y2="600.0" stroke="black" fill="none" stroke-width="3"/>
        <line x1="1225.0" x2="1300.0" y1="625.0" y2="625.0" stroke="black" fill="none" stroke-width="3"/>
        <line x1="1225.0" x2="1300.0" y1="650.0" y2="650.0" stroke="black" fill="none" stroke-width="3"/>
        <line x1="1225.0" x2="1300.0" y1="675.0" y2="675.0" stroke="black" fill="none" stroke-width="3"/>
        <line x1="1225.0" x2="1300.0" y1="700.0" y2="700.0" stroke="black" fill="none" stroke-width="3"/>
        <line x1="1700.0" x2="1775.0" y1="300.0" y2="300.0" stroke="black" fill="none" stroke-width="3"/>
        <line x1="1700.0" x2="1775.0" y1="325.0" y2="325.0" stroke="black" fill="none" stroke-width="3"/>
        <line x1="1700.0" x2="1775.0" y1="350.0" y2="350.0" stroke="black" fill="none" stroke-width="3"/>
        <line x1="1700.0" x2="1775.0" y1="375.0" y2="375.0" stroke="black" fill="none" stroke-width="3"/>
        <line x1="1700.0" x2="1775.0" y1="400.0" y2="400.0" stroke="black" fill="none" stroke-width="3"/>
        <line x1="1700.0" x2="1775.0" y1="425.0" y2="425.0" stroke="black" fill="none" stroke-width="3"/>
        <line x1="1700.0" x2="1775.0" y1="450.0" y2="450.0" stroke="black" fill="none" stroke-width="3"/>
        <line x1="1700.0" x2="1775.0" y1="475.0" y2="475.0" stroke="black" fill="none" stroke-width="3"/>
        <line x1="1700.0" x2="1800.0" y1="500.0" y2="500.0" stroke="black" fill="none" stroke-width="3"/>
        <line x1="1700.0" x2="1775.0" y1="525.0" y2="525.0" stroke="black" fill="none" stroke-width="3"/>
        <line x1="1700.0" x2="1775.0" y1="550.0" y2="550.0" stroke="black" fill="none" stroke-width="3"/>
        <line x1="1700.0" x2="1775.0" y1="575.0" y2="575.0" stroke="black" fill="none" stroke-width="3"/>
        <line x1="1700.0" x2="1775.0" y1="600.0" y2="600.0" stroke="black" fill="none" stroke-width="3"/>
        <line x1="1700.0" x2="1775.0" y1="625.0" y2="625.0" stroke="black" fill="none" stroke-width="3"/>
        <line x1="1700.0" x2="1775.0" y1="650.0" y2="650.0" stroke="black" fill="none" stroke-width="3"/>
        <line x1="1700.0" x2="1775.0" y1="675.0" y2="675.0" stroke="black" fill="none" stroke-width="3"/>
        <line x1="1700.0" x2="1775.0" y1="700.0" y2="700.0" stroke="black" fill="none" stroke-width="3"/>
        <line x1="2300.0" x2="2300.0" y1="225.0" y2="300.0" stroke="black" fill="none" stroke-width="3"/>
        <line x1="2325.0" x2="2325.0" y1="225.0" y2="300.0" stroke="black" fill="none" stroke-width="3"/>
        <line x1="2350.0" x2="2350.0" y1="225.0" y2="300.0" stroke="black" fill="none" stroke-width="3"/>
        <line x1="2375.0" x2="2375.0" y1="225.0" y2="300.0" stroke="black" fill="none" stroke-width="3"/>
        <line x1="2400.0" x2="2400.0" y1="225.0" y2="300.0" stroke="black" fill="none" stroke-width="3"/>
        <line x1="2425.0" x2="2425.0" y1="225.0" y2="300.0" stroke="black" fill="none" stroke-width="3"/>
        <line x1="2450.0" x2="2450.0" y1="225.0" y2="300.0" stroke="black" fill="none" stroke-width="3"/>
        <line x1="2475.0" x2="2475.0" y1="225.0" y2="300.0" stroke="black" fill="none" stroke-width="3"/>
        <line x1="2500.0" x2="2500.0" y1="200.0" y2="300.0" stroke="black" fill="none" stroke-width="3"/>
        <line x1="2525.0" x2="2525.0" y1="225.0" y2="300.0" stroke="black" fill="none" stroke-width="3"/>
        <line x1="2550.0" x2="2550.0" y1="225.0" y2="300.0" stroke="black" fill="none" stroke-width="3"/>
        <line x1="2575.0" x2="2575.0" y1="225.0" y2="300.0" stroke="black" fill="none" stroke-width="3"/>
        <line x1="2600.0" x2="2600.0" y1="225.0" y2="300.0" stroke="black" fill="none" stroke-width="3"/>
        <line x1="2625.0" x2="2625.0" y1="225.0" y2="300.0" stroke="black" fill="none" stroke-width="3"/>
        <line x1="2650.0" x2="2650.0" y1="225.0" y2="300.0" stroke="black" fill="none" stroke-width="3"/>
        <line x1="2675.0" x2="2675.0" y1="225.0" y2="300.0" stroke="black" fill="none" stroke-width="3"/>
        <line x1="2700.0" x2="2700.0" y1="225.0" y2="300.0" stroke="black" fill="none" stroke-width="3"/>
        <line x1="2300.0" x2="2300.0" y1="700.0" y2="775.0" stroke="black" fill="none" stroke-width="3"/>
        <line x1="2325.0" x2="2325.0" y1="700.0" y2="775.0" stroke="black" fill="none" stroke-width="3"/>
        <line x1="2350.0" x2="2350.0" y1="700.0" y2="775.0" stroke="black" fill="none" stroke-width="3"/>
        <line x1="2375.0" x2="2375.0" y1="700.0" y2="775.0" stroke="black" fill="none" stroke-width="3"/>
        <line x1="2400.0" x2="2400.0" y1="700.0" y2="775.0" stroke="black" fill="none" stroke-width="3"/>
        <line x1="2425.0" x2="2425.0" y1="700.0" y2="775.0" stroke="black" fill="none" stroke-width="3"/>
        <line x1="2450.0" x2="2450.0" y1="700.0" y2="775.0" stroke="black" fill="none" stroke-width="3"/>
        <line x1="2475.0" x2="2475.0" y1="700.0" y2="775.0" stroke="black" fill="none" stroke-width="3"/>
        <line x1="2500.0" x2="2500.0" y1="700.0" y2="800.0" stroke="black" fill="none" stroke-width="3"/>
        <line x1="2525.0" x2="2525.0" y1="700.0" y2="775.0" stroke="black" fill="none" stroke-width="3"/>
        <line x1="2550.0" x2="2550.0" y1="700.0" y2="775.0" stroke="black" fill="none" stroke-width="3"/>
        <line x1="2575.0" x2="2575.0" y1="700.0" y2="775.0" stroke="black" fill="none" stroke-width="3"/>
        <line x1="2600.0" x2="2600.0" y1="700.0" y2="775.0" stroke="black" fill="none" stroke-width="3"/>
        <line x1="2625.0" x2="2625.0" y1="700.0" y2="775.0" stroke="black" fill="none" stroke-width="3"/>
        <line x1="2650.0" x2="2650.0" y1="700.0" y2="775.0" stroke="black" fill="none" stroke-width="3"/>
        <line x1="2675.0" x2="2675.0" y1="700.0" y2="775.0" stroke="black" fill="none" stroke-width="3"/>
        <line x1="2700.0" x2="2700.0" y1="700.0" y2="775.0" stroke="black" fill="none" stroke-width="3"/>
        <line x1="2225.0" x2="2300.0" y1="300.0" y2="300.0" stroke="black" fill="none" stroke-width="3"/>
        <line x1="2225.0" x2="2300.0" y1="325.0" y2="325.0" stroke="black" fill="none" stroke-width="3"/>
        <line x1="2225.0" x2="2300.0" y1="350.0" y2="350.0" stroke="black" fill="none" stroke-width="3"/>
        <line x1="2225.0" x2="2300.0" y1="375.0" y2="375.0" stroke="black" fill="none" stroke-width="3"/>
        <line x1="2225.0" x2="2300.0" y1="400.0" y2="400.0" stroke="black" fill="none" stroke-width="3"/>
        <line x1="2225.0" x2="2300.0" y1="425.0" y2="425.0" stroke="black" fill="none" stroke-width="3"/>
        <line x1="2225.0" x2="2300.0" y1="450.0" y2="450.0" stroke="black" fill="none" stroke-width="3"/>
        <line x1="2225.0" x2="2300.0" y1="475.0" y2="475.0" stroke="black" fill="none" stroke-width="3"/>
        <line x1="2200.0" x2="2300.0" y1="500.0" y2="500.0" stroke="black" fill="none" stroke-width="3"/>
        <line x1="2225.0" x2="2300.0" y1="525.0" y2="525.0" stroke="black" fill="none" stroke-width="3"/>
        <line x1="2225.0" x2="2300.0" y1="550.0" y2="550.0" stroke="black" fill="none" stroke-width="3"/>
        <line x1="2225.0" x2="2300.0" y1="575.0" y2="575.0" stroke="black" fill="none" stroke-width="3"/>
        <line x1="2225.0" x2="2300.0" y1="600.0" y2="600.0" stroke="black" fill="none" stroke-width="3"/>
        <line x1="2225.0" x2="2300.0" y1="625.0" y2="625.0" stroke="black" fill="none" stroke-width="3"/>
        <line x1="2225.0" x2="2300.0" y1="650.0" y2="650.0" stroke="black" fill="none" stroke-width="3"/>
        <line x1="2225.0" x2="2300.0" y1="675.0" y2="675.0" stroke="black" fill="none" stroke-width="3"/>
        <line x1="2225.0" x2="2300.0" y1="700.0" y2="700.0" stroke="black" fill="none" stroke-width="3"/>
        <line x1="2700.0" x2="2775.0" y1="300.0" y2="300.0" stroke="black" fill="none" stroke-width="3"/>
        <line x1="2700.0" x2="2775.0" y1="325.0" y2="325.0" stroke="black" fill="none" stroke-width="3"/>
        <line x1="2700.0" x2="2775.0" y1="350.0" y2="350.0" stroke="black" fill="none" stroke-width="3"/>
        <line x1="2700.0" x2="2775.0" y1="375.0" y2="375.0" stroke="black" fill="none" stroke-width="3"/>
        <line x1="2700.0" x2="2775.0" y1="400.0" y2="400.0" stroke="black" fill="none" stroke-width="3"/>
        <line x1="2700.0" x2="2775.0" y1="425.0" y2="425.0" stroke="black" fill="none" stroke-width="3"/>
        <line x1="2700.0" x2="2775.0" y1="450.0" y2="450.0" stroke="black" fill="none" stroke-width="3"/>
        <line x1="2700.0" x2="2775.0" y1="475.0" y2="475.0" stroke="black" fill="none" stroke-width="3"/>
        <line x1="2700.0" x2="2800.0" y1="500.0" y2="500.0" stroke="black" fill="none" stroke-width="3"/>
        <line x1="2700.0" x2="2775.0" y1="525.0" y2="525.0" stroke="black" fill="none" stroke-width="3"/>
        <line x1="2700.0" x2="2775.0" y1="550.0" y2="550.0" stroke="black" fill="none" stroke-width="3"/>
        <line x1="2700.0" x2="2775.0" y1="575.0" y2="575.0" stroke="black" fill="none" stroke-width="3"/>
        <line x1="2700.0" x2="2775.0" y1="600.0" y2="600.0" stroke="black" fill="none" stroke-width="3"/>
        <line x1="2700.0" x2="2775.0" y1="625.0" y2="625.0" stroke="black" fill="none" stroke-width="3"/>
        <line x1="2700.0" x2="2775.0" y1="650.0" y2="650.0" stroke="black" fill="none" stroke-width="3"/>
        <line x1="2700.0" x2="2775.0" y1="675.0" y2="675.0" stroke="black" fill="none" stroke-width="3"/>
        <line x1="2700.0" x2="2775.0" y1="700.0" y2="700.0" stroke="black" fill="none" stroke-width="3"/>
        <line x1="3300.0" x2="3300.0" y1="225.0" y2="300.0" stroke="black" fill="none" stroke-width="3"/>
        <line x1="3325.0" x2="3325.0" y1="225.0" y2="300.0" stroke="black" fill="none" stroke-width="3"/>
        <line x1="3350.0" x2="3350.0" y1="225.0" y2="300.0" stroke="black" fill="none" stroke-width="3"/>
        <line x1="3375.0" x2="3375.0" y1="225.0" y2="300.0" stroke="black" fill="none" stroke-width="3"/>
        <line x1="3400.0" x2="3400.0" y1="225.0" y2="300.0" stroke="black" fill="none" stroke-width="3"/>
        <line x1="3425.0" x2="3425.0" y1="225.0" y2="300.0" stroke="black" fill="none" stroke-width="3"/>
        <line x1="3450.0" x2="3450.0" y1="225.0" y2="300.0" stroke="black" fill="none" stroke-width="3"/>
        <line x1="3475.0" x2="3475.0" y1="225.0" y2="300.0" stroke="black" fill="none" stroke-width="3"/>
        <line x1="3500.0" x2="3500.0" y1="200.0" y2="300.0" stroke="black" fill="none" stroke-width="3"/>
        <line x1="3525.0" x2="3525.0" y1="225.0" y2="300.0" stroke="black" fill="none" stroke-width="3"/>
        <line x1="3550.0" x2="3550.0" y1="225.0" y2="300.0" stroke="black" fill="none" stroke-width="3"/>
        <line x1="3575.0" x2="3575.0" y1="225.0" y2="300.0" stroke="black" fill="none" stroke-width="3"/>
        <line x1="3600.0" x2="3600.0" y1="225.0" y2="300.0" stroke="black" fill="none" stroke-width="3"/>
        <line x1="3625.0" x2="3625.0" y1="225.0" y2="300.0" stroke="black" fill="none" stroke-width="3"/>
        <line x1="3650.0" x2="3650.0" y1="225.0" y2="300.0" stroke="black" fill="none" stroke-width="3"/>
        <line x1="3675.0" x2="3675.0" y1="225.0" y2="300.0" stroke="black" fill="none" stroke-width="3"/>
        <line x1="3700.0" x2="3700.0" y1="225.0" y2="300.0" stroke="black" fill="none" stroke-width="3"/>
        <line x1="3300.0" x2="3300.0" y1="700.0" y2="775.0" stroke="black" fill="none" stroke-width="3"/>
        <line x1="3325.0" x2="3325.0" y1="700.0" y2="775.0" stroke="black" fill="none" stroke-width="3"/>
        <line x1="3350.0" x2="3350.0" y1="700.0" y2="775.0" stroke="black" fill="none" stroke-width="3"/>
        <line x1="3375.0" x2="3375.0" y1="700.0" y2="775.0" stroke="black" fill="none" stroke-width="3"/>
        <line x1="3400.0" x2="3400.0" y1="700.0" y2="775.0" stroke="black" fill="none" stroke-width="3"/>
        <line x1="3425.0" x2="3425.0" y1="700.0" y2="775.0" stroke="black" fill="none" stroke-width="3"/>
        <line x1="3450.0" x2="3450.0" y1="700.0" y2="775.0" stroke="black" fill="none" stroke-width="3"/>
        <line x1="3475.0" x2="3475.0" y1="700.0" y2="775.0" stroke="black" fill="none" stroke-width="3"/>
        <line x1="3500.0" x2="3500.0" y1="700.0" y2="800.0" stroke="black" fill="none" stroke-width="3"/>
        <line x1="3525.0" x2="3525.0" y1="700.0" y2="775.0" stroke="black" fill="none" stroke-width="3"/>
        <line x1="3550.0" x2="3550.0" y1="700.0" y2="775.0" stroke="black" fill="none" stroke-width="3"/>
        <line x1="3575.0" x2="3575.0" y1="700.0" y2="775.0" stroke="black" fill="none" stroke-width="3"/>
        <line x1="3600.0" x2="3600.0" y1="700.0" y2="775.0" stroke="black" fill="none" stroke-width="3"/>
        <line x1="3625.0" x2="3625.0" y1="700.0" y2="775.0" stroke="black" fill="none" stroke-width="3"/>
        <line x1="3650.0" x2="3650.0" y1="700.0" y2="775.0" stroke="black" fill="none" stroke-width="3"/>
        <line x1="3675.0" x2="3675.0" y1="700.0" y2="775.0" stroke="black" fill="none" stroke-width="3"/>
        <line x1="3700.0" x2="3700.0" y1="700.0" y2="775.0" stroke="black" fill="none" stroke-width="3"/>
        <line x1="3225.0" x2="3300.0" y1="300.0" y2="300.0" stroke="black" fill="none" stroke-width="3"/>
        <line x1="3225.0" x2="3300.0" y1="325.0" y2="325.0" stroke="black" fill="none" stroke-width="3"/>
        <line x1="3225.0" x2="3300.0" y1="350.0" y2="350.0" stroke="black" fill="none" stroke-width="3"/>
        <line x1="3225.0" x2="3300.0" y1="375.0" y2="375.0" stroke="black" fill="none" stroke-width="3"/>
        <line x1="3225.0" x2="3300.0" y1="400.0" y2="400.0" stroke="black" fill="none" stroke-width="3"/>
        <line x1="3225.0" x2="3300.0" y1="425.0" y2="425.0" stroke="black" fill="none" stroke-width="3"/>
        <line x1="3225.0" x2="3300.0" y1="450.0" y2="450.0" stroke="black" fill="none" stroke-width="3"/>
        <line x1="3225.0" x2="3300.0" y1="475.0" y2="475.0" stroke="black" fill="none" stroke-width="3"/>
        <line x1="3200.0" x2="3300.0" y1="500.0" y2="500.0" stroke="black" fill="none" stroke-width="3"/>
        <line x1="3225.0" x2="3300.0" y1="525.0" y2="525.0" stroke="black" fill="none" stroke-width="3"/>
        <line x1="3225.0" x2="3300.0" y1="550.0" y2="550.0" stroke="black" fill="none" stroke-width="3"/>
        <line x1="3225.0" x2="3300.0" y1="575.0" y2="575.0" stroke="black" fill="none" stroke-width="3"/>
        <line x1="3225.0" x2="3300.0" y1="600.0" y2="600.0" stroke="black" fill="none" stroke-width="3"/>
        <line x1="3225.0" x2="3300.0" y1="625.0" y2="625.0" stroke="black" fill="none" stroke-width="3"/>
        <line x1="3225.0" x2="3300.0" y1="650.0" y2="650.0" stroke="black" fill="none" stroke-width="3"/>
        <line x1="3225.0" x2="3300.0" y1="675.0" y2="675.0" stroke="black" fill="none" stroke-width="3"/>
        <line x1="3225.0" x2="3300.0" y1="700.0" y2="700.0" stroke="black" fill="none" stroke-width="3"/>
        <line x1="3700.0" x2="3775.0" y1="300.0" y2="300.0" stroke="black" fill="none" stroke-width="3"/>
        <line x1="3700.0" x2="3775.0" y1="325.0" y2="325.0" stroke="black" fill="none" stroke-width="3"/>
        <line x1="3700.0" x2="3775.0" y1="350.0" y2="350.0" stroke="black" fill="none" stroke-width="3"/>
        <line x1="3700.0" x2="3775.0" y1="375.0" y2="375.0" stroke="black" fill="none" stroke-width="3"/>
        <line x1="3700.0" x2="3775.0" y1="400.0" y2="400.0" stroke="black" fill="none" stroke-width="3"/>
        <line x1="3700.0" x2="3775.0" y1="425.0" y2="425.0" stroke="black" fill="none" stroke-width="3"/>
        <line x1="3700.0" x2="3775.0" y1="450.0" y2="450.0" stroke="black" fill="none" stroke-width="3"/>
        <line x1="3700.0" x2="3775.0" y1="475.0" y2="475.0" stroke="black" fill="none" stroke-width="3"/>
        <line x1="3700.0" x2="3800.0" y1="500.0" y2="500.0" stroke="black" fill="none" stroke-width="3"/>
        <line x1="3700.0" x2="3775.0" y1="525.0" y2="525.0" stroke="black" fill="none" stroke-width="3"/>
        <line x1="3700.0" x2="3775.0" y1="550.0" y2="550.0" stroke="black" fill="none" stroke-width="3"/>
        <line x1="3700.0" x2="3775.0" y1="575.0" y2="575.0" stroke="black" fill="none" stroke-width="3"/>
        <line x1="3700.0" x2="3775.0" y1="600.0" y2="600.0" stroke="black" fill="none" stroke-width="3"/>
        <line x1="3700.0" x2="3775.0" y1="625.0" y2="625.0" stroke="black" fill="none" stroke-width="3"/>
        <line x1="3700.0" x2="3775.0" y1="650.0" y2="650.0" stroke="black" fill="none" stroke-width="3"/>
        <line x1="3700.0" x2="3775.0" y1="675.0" y2="675.0" stroke="black" fill="none" stroke-width="3"/>
        <line x1="3700.0" x2="3775.0" y1="700.0" y2="700.0" stroke="black" fill="none" stroke-width="3"/>
        <line x1="4300.0" x2="4300.0" y1="225.0" y2="300.0" stroke="black" fill="none" stroke-width="3"/>
        <line x1="4325.0" x2="4325.0" y1="225.0" y2="300.0" stroke="black" fill="none" stroke-width="3"/>
        <line x1="4350.0" x2="4350.0" y1="225.0" y2="300.0" stroke="black" fill="none" stroke-width="3"/>
        <line x1="4375.0" x2="4375.0" y1="225.0" y2="300.0" stroke="black" fill="none" stroke-width="3"/>
        <line x1="4400.0" x2="4400.0" y1="225.0" y2="300.0" stroke="black" fill="none" stroke-width="3"/>
        <line x1="4425.0" x2="4425.0" y1="225.0" y2="300.0" stroke="black" fill="none" stroke-width="3"/>
        <line x1="4450.0" x2="4450.0" y1="225.0" y2="300.0" stroke="black" fill="none" stroke-width="3"/>
        <line x1="4475.0" x2="4475.0" y1="225.0" y2="300.0" stroke="black" fill="none" stroke-width="3"/>
        <line x1="4500.0" x2="4500.0" y1="200.0" y2="300.0" stroke="black" fill="none" stroke-width="3"/>
        <line x1="4525.0" x2="4525.0" y1="225.0" y2="300.0" stroke="black" fill="none" stroke-width="3"/>
        <line x1="4550.0" x2="4550.0" y1="225.0" y2="300.0" stroke="black" fill="none" stroke-width="3"/>
        <line x1="4575.0" x2="4575.0" y1="225.0" y2="300.0" stroke="black" fill="none" stroke-width="3"/>
        <line x1="4600.0" x2="4600.0" y1="225.0" y2="300.0" stroke="black" fill="none" stroke-width="3"/>
        <line x1="4625.0" x2="4625.0" y1="225.0" y2="300.0" stroke="black" fill="none" stroke-width="3"/>
        <line x1="4650.0" x2="4650.0" y1="225.0" y2="300.0" stroke="black" fill="none" stroke-width="3"/>
        <line x1="4675.0" x2="4675.0" y1="225.0" y2="300.0" stroke="black" fill="none" stroke-width="3"/>
        <line x1="4700.0" x2="4700.0" y1="225.0" y2="300.0" stroke="black" fill="none" stroke-width="3"/>
        <line x1="4300.0" x2="4300.0" y1="700.0" y2="775.0" stroke="black" fill="none" stroke-width="3"/>
        <line x1="4325.0" x2="4325.0" y1="700.0" y2="775.0" stroke="black" fill="none" stroke-width="3"/>
        <line x1="4350.0" x2="4350.0" y1="700.0" y2="775.0" stroke="black" fill="none" stroke-width="3"/>
        <line x1="4375.0" x2="4375.0" y1="700.0" y2="775.0" stroke="black" fill="none" stroke-width="3"/>
        <line x1="4400.0" x2="4400.0" y1="700.0" y2="775.0" stroke="black" fill="none" stroke-width="3"/>
        <line x1="4425.0" x2="4425.0" y1="700.0" y2="775.0" stroke="black" fill="none" stroke-width="3"/>
        <line x1="4450.0" x2="4450.0" y1="700.0" y2="775.0" stroke="black" fill="none" stroke-width="3"/>
        <line x1="4475.0" x2="4475.0" y1="700.0" y2="775.0" stroke="black" fill="none" stroke-width="3"/>
        <line x1="4500.0" x2="4500.0" y1="700.0" y2="800.0" stroke="black" fill="none" stroke-width="3"/>
        <line x1="4525.0" x2="4525.0" y1="700.0" y2="775.0" stroke="black" fill="none" stroke-width="3"/>
        <line x1="4550.0" x2="4550.0" y1="700.0" y2="775.0" stroke="black" fill="none" stroke-width="3"/>
        <line x1="4575.0" x2="4575.0" y1="700.0" y2="775.0" stroke="black" fill="none" stroke-width="3"/>
        <line x1="4600.0" x2="4600.0" y1="700.0" y2="775.0" stroke="black" fill="none" stroke-width="3"/>
        <line x1="4625.0" x2="4625.0" y1="700.0" y2="775.0" stroke="black" fill="none" stroke-width="3"/>
        <line x1="4650.0" x2="4650.0" y1="700.0" y2="775.0" stroke="black" fill="none" stroke-width="3"/>
        <line x1="4675.0" x2="4675.0" y1="700.0" y2="775.0" stroke="black" fill="none" stroke-width="3"/>
        <line x1="4700.0" x2="4700.0" y1="700.0" y2="775.0" stroke="black" fill="none" stroke-width="3"/>
        <line x1="4225.0" x2="4300.0" y1="300.0" y2="300.0" stroke="black" fill="none" stroke-width="3"/>
        <line x1="4225.0" x2="4300.0" y1="325.0" y2="325.0" stroke="black" fill="none" stroke-width="3"/>
        <line x1="4225.0" x2="4300.0" y1="350.0" y2="350.0" stroke="black" fill="none" stroke-width="3"/>
        <line x1="4225.0" x2="4300.0" y1="375.0" y2="375.0" stroke="black" fill="none" stroke-width="3"/>
        <line x1="4225.0" x2="4300.0" y1="400.0" y2="400.0" stroke="black" fill="none" stroke-width="3"/>
        <line x1="4225.0" x2="4300.0" y1="425.0" y2="425.0" stroke="black" fill="none" stroke-width="3"/>
        <line x1="4225.0" x2="4300.0" y1="450.0" y2="450.0" stroke="black" fill="none" stroke-width="3"/>
        <line x1="4225.0" x2="4300.0" y1="475.0" y2="475.0" stroke="black" fill="none" stroke-width="3"/>
        <line x1="4200.0" x2="4300.0" y1="500.0" y2="500.0" stroke="black" fill="none" stroke-width="3"/>
        <line x1="4225.0" x2="4300.0" y1="525.0" y2="525.0" stroke="black" fill="none" stroke-width="3"/>
        <line x1="4225.0" x2="4300.0" y1="550.0" y2="550.0" stroke="black" fill="none" stroke-width="3"/>
        <line x1="4225.0" x2="4300.0" y1="575.0" y2="575.0" stroke="black" fill="none" stroke-width="3"/>
        <line x1="4225.0" x2="4300.0" y1="600.0" y2="600.0" stroke="black" fill="none" stroke-width="3"/>
        <line x1="4225.0" x2="4300.0" y1="625.0" y2="625.0" stroke="black" fill="none" stroke-width="3"/>
        <line x1="4225.0" x2="4300.0" y1="650.0" y2="650.0" stroke="black" fill="none" stroke-width="3"/>
        <line x1="4225.0" x2="4300.0" y1="675.0" y2="675.0" stroke="black" fill="none" stroke-width="3"/>
        <line x1="4225.0" x2="4300.0" y1="700.0" y2="700.0" stroke="black" fill="none" stroke-width="3"/>
        <line x1="4700.0" x2="4775.0" y1="300.0" y2="300.0" stroke="black" fill="none" stroke-width="3"/>
        <line x1="4700.0" x2="4775.0" y1="325.0" y2="325.0" stroke="black" fill="none" stroke-width="3"/>
        <line x1="4700.0" x2="4775.0" y1="350.0" y2="350.0" stroke="black" fill="none" stroke-width="3"/>
        <line x1="4700.0" x2="4775.0" y1="375.0" y2="375.0" stroke="black" fill="none" stroke-width="3"/>
        <line x1="4700.0" x2="4775.0" y1="400.0" y2="400.0" stroke="black" fill="none" stroke-width="3"/>
        <line x1="4700.0" x2="4775.0" y1="425.0" y2="425.0" stroke="black" fill="none" stroke-width="3"/>
        <line x1="4700.0" x2="4775.0" y1="450.0" y2="450.0" stroke="black" fill="none" stroke-width="3"/>
        <line x1="4700.0" x2="4775.0" y1="475.0" y2="475.0" stroke="black" fill="none" stroke-width="3"/>
        <line x1="4700.0" x2="4800.0" y1="500.0" y2="500.0" stroke="black" fill="none" stroke-width="3"/>
        <line x1="4700.0" x2="4775.0" y1="525.0" y2="525.0" stroke="black" fill="none" stroke-width="3"/>
        <line x1="4700.0" x2="4775.0" y1="550.0" y2="550.0" stroke="black" fill="none" stroke-width="3"/>
        <line x1="4700.0" x2="4775.0" y1="575.0" y2="575.0" stroke="black" fill="none" stroke-width="3"/>
        <line x1="4700.0" x2="4775.0" y1="600.0" y2="600.0" stroke="black" fill="none" stroke-width="3"/>
        <line x1="4700.0" x2="4775.0" y1="625.0" y2="625.0" stroke="black" fill="none" stroke-width="3"/>
        <line x1="4700.0" x2="4775.0" y1="650.0" y2="650.0" stroke="black" fill="none" stroke-width="3"/>
        <line x1="4700.0" x2="4775.0" y1="675.0" y2="675.0" stroke="black" fill="none" stroke-width="3"/>
        <line x1="4700.0" x2="4775.0" y1="700.0" y2="700.0" stroke="black" fill="none" stroke-width="3"/>
    </g>
    <g inkscape:groupmode="layer" inkscape:label="6 - GUIDELINES-Layer 1" id="g5" transform="translate(0.0 0.0)"><line x1="1500.0" x2="1500.0" y1="300.0" y2="700.0" stroke="black" fill="none" stroke-width="20.0"/>
        <line x1="1300.0" x2="1700.0" y1="500.0" y2="500.0" stroke="black" fill="none" stroke-width="20.0"/>
    </g>
    <g inkscape:groupmode="layer" inkscape:label="7 - GUIDELINES-Layer 2" id="g5" transform="translate(0.0 0.0)"><line x1="2500.0" x2="2500.0" y1="300.0" y2="700.0" stroke="red" fill="none" stroke-width="20.0"/>
        <line x1="2300.0" x2="2700.0" y1="500.0" y2="500.0" stroke="red" fill="none" stroke-width="20.0"/>
    </g>
    <g inkscape:groupmode="layer" inkscape:label="8 - GUIDELINES-Layer 3" id="g5" transform="translate(0.0 0.0)"><line x1="3500.0" x2="3500.0" y1="300.0" y2="700.0" stroke="green" fill="none" stroke-width="20.0"/>
        <line x1="3300.0" x2="3700.0" y1="500.0" y2="500.0" stroke="green" fill="none" stroke-width="20.0"/>
    </g>
    <g inkscape:groupmode="layer" inkscape:label="9 - GUIDELINES-Layer 4" id="g5" transform="translate(0.0 0.0)"><line x1="4500.0" x2="4500.0" y1="300.0" y2="700.0" stroke="blue" fill="none" stroke-width="20.0"/>
        <line x1="4300.0" x2="4700.0" y1="500.0" y2="500.0" stroke="blue" fill="none" stroke-width="20.0"/>
    </g>
</svg>
